<svg width="908" height="585" viewBox="0 0 908 585" fill="none" xmlns="http://www.w3.org/2000/svg">
<path fill-rule="evenodd" clip-rule="evenodd" d="M423.03 1.41552C384.934 5.70752 341.346 19.6185 306.684 38.5475C266.861 60.2955 230.401 92.7825 201.962 131.859C188.027 151.006 170.235 186.272 161.91 211.248C151.798 241.587 147.089 268.068 146.326 298.893C145.618 327.462 147.079 346.292 151.651 367.527L153.194 374.695L159.275 368.614L165.356 362.533L163.095 347.446C158.307 315.483 159.315 287.276 166.528 251.359C173.865 214.825 188.426 179.702 209.332 148.111C221.476 129.759 229.209 120.489 247.938 101.822C302.056 47.8835 369.153 18.7605 448.03 14.9715C471.369 13.8505 503.154 16.9185 525.117 22.4125C553.851 29.6005 567.7 34.6625 592.118 46.9025C641.246 71.5295 682.769 109.71 710.278 155.55C719.529 170.965 731.593 195.652 736.573 209.359C742.087 224.538 747.706 247.807 750.506 267.057C756.711 309.73 751.995 357.894 737.495 399.911C733.303 412.059 718.11 443.421 711.845 452.859L707.53 459.359L707.03 355.192C706.755 297.9 706.305 250.842 706.03 250.619C705.755 250.396 690.455 244.785 672.03 238.149L638.53 226.083L638.254 240.971C638.1 249.248 637.566 255.859 637.051 255.859C636.541 255.859 634.978 255.336 633.577 254.697L631.03 253.537V232.697C631.03 221.236 631.188 211.859 631.381 211.859C631.574 211.859 633.149 212.352 634.881 212.956C637.123 213.737 638.03 214.687 638.03 216.249C638.03 218.016 638.957 218.7 642.78 219.762C645.392 220.487 648.318 221.309 649.28 221.587C650.927 222.062 651.03 219.643 651.03 180.633V139.175L642.28 129.193C637.468 123.701 630.198 115.417 626.127 110.784C622.055 106.15 616.585 99.8835 613.971 96.8585C580.633 58.2725 581.364 59.0295 576.817 58.3825C574.459 58.0465 552.505 57.9045 528.03 58.0655L483.53 58.3585V116.359V174.359L497.53 174.859C514.225 175.455 518.056 176.876 521.74 183.843C523.707 187.562 524.03 189.657 524.03 198.701C524.03 207.304 523.652 210.009 521.959 213.506C520.174 217.192 518.787 218.461 512.305 222.34C511.679 222.715 515.276 249.07 516.569 253.574C518.883 261.637 521.289 263.776 529.314 264.906C549.721 267.778 568.398 280.456 576.084 296.655C580.846 306.693 581.294 310.667 580.765 338.229C580.377 358.494 579.938 364.484 578.5 369.169L576.717 374.979L581.516 379.669C591.878 389.794 597.679 402.636 598.655 417.607C599.271 427.056 597.933 442.421 596.082 447.158C595.609 448.369 594.473 451.479 593.559 454.069C591.766 459.145 588.434 461.877 581.869 463.656L578.208 464.648L581.173 458.04C582.804 454.405 585.504 446.915 587.172 441.395C589.962 432.167 590.159 430.554 589.62 421.359C588.976 410.361 587.301 403.702 583.583 397.359C580.847 392.689 569.21 381.368 566.148 380.397C564.219 379.784 564.244 379.585 566.999 373.762C571.157 364.969 572.284 354.819 571.874 329.859L571.521 308.359L568.267 301.451C564.419 293.284 559.196 286.618 554.163 283.449C548.978 280.186 534.405 275.073 528.562 274.468C525.83 274.185 521.112 272.683 518.077 271.131C509.552 266.771 507.836 262.462 504.064 235.937C502.395 224.201 501.03 214.431 501.03 214.227C501.03 214.024 502.865 213.859 505.107 213.859C508.31 213.859 509.832 213.211 512.206 210.837C515.185 207.858 515.222 207.69 514.879 198.859C514.558 190.632 514.304 189.676 511.758 187.131L508.985 184.359L436.478 184.089C387.059 183.905 363.343 184.155 362 184.874C360.198 185.839 360.03 187.016 360.03 198.693C360.03 207.288 360.422 211.85 361.23 212.658C361.89 213.318 364.413 213.859 366.837 213.859C370.176 213.859 371.116 214.193 370.714 215.24C370.422 216 368.994 221.963 367.541 228.49C366.088 235.017 364.29 242.609 363.545 245.359C362.799 248.109 360.994 255.647 359.533 262.109L356.877 273.859H348.608C341.992 273.859 340.03 274.209 338.787 275.609C337.932 276.571 335.122 285.459 332.541 295.359C329.961 305.259 327.141 315.999 326.275 319.226L324.701 325.093L320.515 310.226C300.49 239.102 290.173 206.555 282.613 190.656C276.833 178.5 276.321 176.005 278.46 170.404C281.284 163.009 286.186 159.543 300.207 155.028C306.985 152.846 326.48 146.264 343.53 140.404C394.662 122.829 391.934 123.645 397.741 124.205C403.219 124.732 407.108 126.899 409.096 130.532C410.012 132.205 410.015 134.159 409.111 139.032C406.994 150.427 411.549 159.594 421.717 164.404C426.535 166.684 428.319 167.02 433.232 166.574C440.647 165.902 445.69 163.278 449.752 157.98C454.447 151.856 455.673 146.957 454.232 140.087C452.499 131.824 449.18 127.612 439.455 121.339C429.988 115.232 428.03 112.322 428.03 104.359C428.03 98.3135 426.117 94.0205 421.692 90.1345C414.252 83.6025 405.675 83.4945 395.03 89.7985C390.105 92.7155 385.017 94.5035 374.03 97.1795C340.012 105.464 286.634 118.984 276.976 121.764C271.231 123.417 262.153 125.416 256.804 126.205C245.754 127.836 239.985 130.608 235.558 136.411C231.729 141.432 230.408 146.511 229.59 159.359C229.205 165.409 228.707 172.159 228.485 174.359C228.262 176.559 227.376 187.809 226.515 199.359C225.138 217.823 224.688 220.719 222.79 223.338C220.785 226.105 220.525 228.454 219.151 256.219L217.672 286.12L219.974 290.459C222.209 294.673 222.254 295.278 221.54 311.471C220.968 324.446 220.391 329.055 218.939 332.252C217.913 334.511 217.064 338.242 217.052 340.544C217.009 348.668 216.726 348.906 199.38 355.356C177.509 363.489 169.415 367.7 163.379 374.089C152.481 385.624 147.999 397.39 147.277 416.359C146.628 433.385 148.151 443.042 153.558 456.202C154.255 457.897 153.971 457.87 150.027 455.858C142.715 452.127 127.472 448.726 115.53 448.161C106.064 447.713 102.927 448.003 93.03 450.247C62.901 457.08 39.832 475.722 15.598 512.817C0.327026 536.191 -2.27397 542.412 1.60103 546.288C3.00403 547.69 12.577 547.871 90.8511 547.975C223.346 548.15 237.135 548.36 246.53 550.346C250.93 551.276 259.628 554.051 265.858 556.513C301.872 570.746 342.082 580.676 376.53 583.845C395.207 585.564 429.389 585.104 448.915 582.872C483.909 578.872 507.27 572.771 553.53 555.549C560.13 553.092 568.905 550.576 573.03 549.957C578.295 549.167 628.687 548.755 742.146 548.578C876.425 548.368 904.039 548.097 905.396 546.97C906.394 546.142 907.03 544.105 907.03 541.739C907.03 538.712 906.225 536.935 903.349 533.612C895.69 524.763 791.408 420.665 788.83 419.294C787.344 418.505 785.053 417.859 783.738 417.859C780.985 417.859 767.188 426.942 739.34 447.088C733.464 451.34 728.547 454.709 728.414 454.576C728.281 454.443 732.107 446.464 736.916 436.846C747.293 416.093 752.672 401.537 758.713 377.859C766.345 347.947 769.332 314.823 767.1 284.859C765.698 266.043 764.7 259.202 760.9 242.359C754.796 215.305 747.728 195.316 735.983 171.9C701.562 103.271 648.871 53.8025 577.918 23.5005C553.733 13.1715 521.161 4.70351 493.03 1.43151C476.68 -0.47049 439.848 -0.478481 423.03 1.41552ZM504.03 101.809V118.859H510.054H516.078L515.804 102.109L515.53 85.3585L509.78 85.0585L504.03 84.7585V101.809ZM529.03 101.859V118.859H535.03H541.03V101.859V84.8585H535.03H529.03V101.859ZM555.03 101.859V118.859H561.03H567.03V101.859V84.8585H561.03H555.03V101.859ZM160.596 93.2015C155.524 98.2735 158.437 105.859 165.457 105.859C167.969 105.859 169.439 105.155 170.957 103.224C174.827 98.3045 172.573 92.4525 166.346 91.2495C163.778 90.7535 162.666 91.1315 160.596 93.2015ZM400.666 98.4945C398.657 100.505 398.03 102.128 398.03 105.321C398.03 110.741 401.176 113.896 407.264 114.582C410.945 114.997 412.12 114.654 414.826 112.377C417.511 110.118 418.03 108.989 418.03 105.406C418.03 99.2585 414.469 95.8585 408.03 95.8585C404.256 95.8585 402.771 96.3895 400.666 98.4945ZM403.069 101.048C399.01 105.405 401.767 110.859 408.03 110.859C414.267 110.859 417.188 105.017 413.03 100.859C410.368 98.1965 405.641 98.2865 403.069 101.048ZM367.03 108.486C357.405 110.96 339.63 115.402 327.53 118.358C315.43 121.313 300.355 125.128 294.03 126.835C287.705 128.542 281.879 130.073 281.084 130.236C278.88 130.69 277.357 133.585 278.646 134.874C279.815 136.043 295.318 132.531 325.03 124.367C334.105 121.873 350.305 117.573 361.03 114.812C386.365 108.29 387.205 108.006 386.835 106.096C386.667 105.232 386.08 104.404 385.53 104.256C384.98 104.109 376.655 106.012 367.03 108.486ZM766.719 107.642C761.142 110.848 756.488 117.186 755.526 122.885C754.917 126.488 754.573 126.859 751.843 126.859C741.731 126.859 734.074 138.804 737.041 149.95C738.448 155.237 742.116 160.33 746.396 162.939C749.366 164.75 752.035 164.852 797.357 164.855L845.184 164.859L848.107 161.936C849.715 160.328 851.08 157.966 851.141 156.686C851.327 152.768 850.872 149.444 849.899 147.619C848.766 145.495 843.875 142.859 841.067 142.859C839.537 142.859 838.397 141.485 836.651 137.537C835.356 134.609 833.053 131.236 831.533 130.04C827.777 127.085 821.51 125.543 816.055 126.231L811.53 126.803L808.239 121.365C801.705 110.566 791.5 104.853 778.769 104.867C772.697 104.874 770.755 105.321 766.719 107.642ZM772.53 116.455C767.643 119.137 765.321 121.753 762.985 127.207C760.565 132.858 759.604 133.82 756.357 133.843C753.464 133.863 748.451 139.001 747.71 142.706C746.957 146.475 748.428 151.683 750.742 153.438C753.515 155.541 839.572 155.496 840.379 153.391C841.194 151.268 839.569 150.641 834.236 151.023C829.832 151.337 829.55 151.213 829.848 149.08C830.407 145.068 828.001 139.812 824.677 137.785C820.808 135.426 818.833 135.381 812.861 137.521C808.535 139.072 808.01 139.076 805.698 137.561C804.326 136.662 802.915 134.61 802.561 133.001C801.438 127.889 796.413 121.168 791.608 118.352C785.766 114.928 776.916 114.048 772.53 116.455ZM422.43 135.258C416.082 141.606 418.148 152.088 426.397 155.389C437.927 160.002 448.194 148.813 442.513 137.826C440.527 133.986 436.238 131.859 430.48 131.859C426.525 131.859 425.322 132.366 422.43 135.258ZM504.449 133.775C504.218 134.004 504.03 141.766 504.03 151.025V167.859H510.054H516.077L515.804 150.653L515.53 133.447L510.199 133.403C507.266 133.379 504.679 133.546 504.449 133.775ZM529.03 150.859V167.859H535.03H541.03V150.859V133.859H535.03H529.03V150.859ZM555.03 150.859V167.859H561.03H567.03V150.859V133.859H561.03H555.03V150.859ZM251.649 136.893C248.155 137.94 244.369 141.342 242.325 145.273C240.187 149.382 241.022 157.634 243.998 161.813C248.404 168.001 258.776 169.873 265.04 165.609C270.718 161.744 272.53 158.419 272.53 151.859C272.53 144.775 270.433 141.391 264.01 138.109C259.392 135.75 256.439 135.459 251.649 136.893ZM425.485 138.313C422.044 141.753 422.223 146.206 425.953 149.936C429.17 153.152 430.643 153.447 434.558 151.663C437.255 150.435 440.03 146.209 440.03 143.331C440.03 142.436 438.715 140.39 437.107 138.782C433.377 135.052 428.925 134.872 425.485 138.313ZM594.03 162.226V183.808L596.98 185.333C598.603 186.172 600.178 186.859 600.48 186.859C600.783 186.859 601.03 177.011 601.03 164.976C601.03 144.993 600.878 143.049 599.28 142.589C598.318 142.312 596.742 141.762 595.78 141.365C594.145 140.692 594.03 142.065 594.03 162.226ZM251.78 143.938C249.653 145.177 247.03 150.032 247.03 152.732C247.03 155.627 251.64 160.614 254.998 161.352C264.466 163.432 269.955 150.159 262.117 144.141C260.187 142.659 254.179 142.541 251.78 143.938ZM612.03 169.197V190.537L614.577 191.697C620.138 194.231 620.03 194.626 620.03 171.885V150.91L617.08 149.385C615.457 148.546 613.657 147.859 613.08 147.859C612.38 147.859 612.03 154.965 612.03 169.197ZM631.03 176.333V197.808L633.903 199.292C635.483 200.11 637.058 200.497 637.403 200.152C637.748 199.808 638.03 190.162 638.03 178.718V157.91L635.08 156.385C633.457 155.546 631.882 154.859 631.58 154.859C631.277 154.859 631.03 164.522 631.03 176.333ZM782.23 174.059C780.631 175.658 780.709 178.348 782.396 179.748C783.377 180.562 795.557 180.807 825.646 180.619L867.53 180.359L867.857 178.054C868.6 172.809 869.018 172.859 824.608 172.859C793.914 172.859 783.124 173.165 782.23 174.059ZM237.691 179.064C237.373 180.876 236.565 190.593 235.896 200.656C234.687 218.83 234.693 218.967 236.827 221.1C238.008 222.281 239.232 222.99 239.547 222.675C239.862 222.36 240.864 213.002 241.774 201.88C243.224 184.158 243.249 181.341 241.979 179.089C239.861 175.334 238.347 175.324 237.691 179.064ZM529.742 181.481C529.35 181.872 529.03 189.726 529.03 198.933V215.674L534.658 216.016C537.946 216.217 540.452 215.927 540.684 215.321C540.903 214.749 540.957 206.874 540.806 197.821L540.53 181.359L535.492 181.063C532.72 180.901 530.133 181.089 529.742 181.481ZM555.03 198.766V215.674L560.615 216.016C563.688 216.205 566.388 216.172 566.615 215.942C566.843 215.713 567.03 207.951 567.03 198.692V181.859H561.03H555.03V198.766ZM124.394 194.029C122.041 195.168 120.03 198.832 120.03 201.982C120.03 204.794 125.352 209.859 128.307 209.859C131.837 209.859 136.03 205.586 136.03 201.989C136.03 197.657 135.13 195.962 131.958 194.322C128.705 192.64 127.369 192.588 124.394 194.029ZM264.511 201.193C263.484 210.781 264.064 213.494 271.493 233.859C275.205 244.034 285.356 273.803 294.05 300.013C302.744 326.223 310.362 348.611 310.979 349.763C312.739 353.053 314.293 352.336 313.48 348.609C313.09 346.821 310.07 336.809 306.768 326.359C303.466 315.909 298.627 300.159 296.014 291.359C293.401 282.559 289.002 268.384 286.237 259.859C283.473 251.334 279.119 237.159 276.561 228.359C270.559 207.708 266.979 196.575 265.997 195.499C265.566 195.027 264.897 197.589 264.511 201.193ZM381.705 198.516C381.334 198.887 381.03 200.016 381.03 201.025C381.03 202.78 383.365 202.859 436.1 202.859H491.169L490.85 200.609L490.53 198.359L436.455 198.1C406.714 197.958 382.077 198.145 381.705 198.516ZM594.26 218.921L594.53 240.214L597.78 241.538L601.03 242.865V221.477C601.03 201.968 600.876 200.048 599.28 199.589C598.318 199.312 596.733 198.757 595.76 198.357C594.094 197.671 594.005 198.884 594.26 218.921ZM612.26 225.895L612.53 247.158L616.28 248.456L620.03 249.753V228.929C620.03 206.622 620.037 206.652 614.754 205.326L611.99 204.632L612.26 225.895ZM379.104 220.109C378.452 223.547 376.402 232.659 374.55 240.359C369.751 260.307 366.601 275.68 362.969 296.868C360.1 313.605 359.901 316.08 360.87 322.964C362.34 333.411 365.022 344.859 365.999 344.859C366.443 344.859 367.025 336.871 367.291 327.109C367.717 311.454 368.318 306.467 372.381 284.859C376.748 261.635 379.851 246.298 381.994 237.359C385.33 223.439 387.03 215.867 387.03 214.932C387.03 214.342 385.514 213.859 383.66 213.859C380.32 213.859 380.28 213.913 379.104 220.109ZM396.089 218.609C395.482 221.222 394.757 224.484 394.477 225.859C394.198 227.234 393.286 231.284 392.451 234.859C388.408 252.171 384.333 272.444 384.751 273.166C385.008 273.609 386.772 272.372 388.672 270.416L392.126 266.859H408.578H425.03V240.359V213.859H411.111H397.192L396.089 218.609ZM439.03 240.359V266.859H452.513H465.996L465.763 240.365L465.53 213.873L452.28 213.865L439.03 213.859V240.359ZM479.03 240.359V266.859H486.53C490.655 266.859 494.03 266.507 494.03 266.076C494.03 264.806 488.057 220.659 487.404 217.109C486.852 214.102 486.517 213.859 482.919 213.859H479.03V240.359ZM259.671 237.085C259.317 241.636 258.219 256.719 257.233 270.604C256.088 286.72 255.004 296.285 254.235 297.054C253.572 297.717 253.03 298.51 253.03 298.817C253.03 299.124 258.503 303.872 265.191 309.367C271.88 314.863 281.366 322.661 286.27 326.697C291.175 330.733 295.339 333.883 295.524 333.697C295.709 333.511 293.615 326.834 290.871 318.859C288.127 310.884 280.252 287.484 273.371 266.859C266.49 246.234 260.737 229.236 260.588 229.085C260.438 228.934 260.025 232.534 259.671 237.085ZM529.03 246.234V262.609L532.155 263.234C533.874 263.578 536.574 263.859 538.155 263.859H541.03V246.859V229.859H535.03H529.03V246.234ZM555.03 247.359V264.859H561.03H567.03V247.359V229.859H561.03H555.03V247.359ZM229.732 232.544C229.458 232.992 229.076 244.104 228.882 257.237C228.563 278.864 228.69 281.218 230.232 282.202C231.168 282.799 232.14 283.079 232.391 282.824C232.643 282.568 233.17 271.784 233.563 258.859C234.256 236.062 234.216 235.305 232.253 233.544C231.139 232.546 230.005 232.096 229.732 232.544ZM793.685 246.688C792.775 247.694 792.03 249.874 792.03 251.533C792.03 257.47 798.719 259.948 802.856 255.545C805.571 252.655 805.593 250.845 802.957 247.494C800.492 244.359 796.135 243.98 793.685 246.688ZM594.03 274.884V295.909L596.595 296.884C598.006 297.42 599.581 297.859 600.095 297.859C600.645 297.859 601.03 289.255 601.03 276.957V256.055L597.881 254.956C596.149 254.352 594.574 253.859 594.381 253.859C594.188 253.859 594.03 263.32 594.03 274.884ZM654.03 265.285V270.711L664.28 274.666C672.79 277.95 681.585 280.921 693.28 284.464C694.808 284.926 695.03 284.25 695.03 279.139V273.284L684.78 269.986C679.142 268.173 670.299 265.152 665.128 263.274C659.958 261.396 655.345 259.859 654.878 259.859C654.412 259.859 654.03 262.301 654.03 265.285ZM612.03 281.285V301.961L615.498 303.41C617.405 304.207 619.205 304.859 619.498 304.859C620.353 304.859 620.079 264.484 619.215 263.124C618.784 262.445 616.99 261.601 615.23 261.249L612.03 260.609V281.285ZM631.03 288.261V308.663L634.179 309.761C635.911 310.365 637.486 310.859 637.679 310.859C637.872 310.859 638.03 301.623 638.03 290.334V269.809L635.465 268.834C634.054 268.298 632.479 267.859 631.965 267.859C631.416 267.859 631.03 276.273 631.03 288.261ZM436.041 279.346C435.362 280.164 435.062 281.499 435.374 282.313C435.819 283.474 438.376 283.854 447.236 284.076L458.53 284.359V289.359V294.359L419.03 294.859L379.53 295.359L379.21 297.609L378.891 299.859L417.71 299.874C439.061 299.883 457.124 300.266 457.849 300.726C458.676 301.25 459.049 303.018 458.849 305.461L458.53 309.359L418.78 309.62L379.03 309.882V312.359V314.836L418.78 315.098L458.53 315.359L458.848 318.674C459.455 324.991 460.599 324.814 419.176 324.823C398.471 324.828 380.968 324.838 380.28 324.845C379.593 324.853 379.03 325.979 379.03 327.348V329.836L418.78 330.098L458.53 330.359V334.359V338.359L418.78 338.62L379.03 338.882V341.859V344.836L418.78 345.098L458.53 345.359L458.831 348.444C459.405 354.33 459.541 354.31 417.128 354.859C379.363 355.348 378.53 355.402 378.53 357.359C378.53 359.322 379.284 359.364 419.346 359.62L460.161 359.882L463.096 356.947L466.03 354.013V315.936V277.859H451.652C440.147 277.859 437.028 278.156 436.041 279.346ZM478.78 279.415C478.367 279.842 478.03 281.242 478.03 282.526C478.03 284.738 478.378 284.859 484.719 284.859C492.075 284.859 516.468 288.502 519.337 290.029C521.032 290.931 521.124 292.99 520.837 323.415L520.53 355.839L523.429 356.849C525.024 357.405 526.486 357.859 526.679 357.859C526.872 357.859 527.03 343.009 527.03 324.859V291.859L529.28 291.88C532.813 291.913 544.444 296.327 549.989 299.739C556.035 303.459 556.523 302.44 551.06 297.505C542.928 290.158 530.864 285.798 507.567 281.787C494.515 279.539 479.828 278.329 478.78 279.415ZM345.03 285.054C345.03 285.236 342.971 293.479 340.453 303.372C333.976 328.831 330.059 344.82 329.35 348.698C328.786 351.782 328.922 352.01 331.135 351.698C333.364 351.383 333.888 349.97 338.685 331.359C341.52 320.359 345.296 305.835 347.076 299.083C348.856 292.332 350.136 286.65 349.921 286.458C349.312 285.912 345.03 284.684 345.03 285.054ZM654.03 292.827V298.795L670.28 303.894C688.472 309.601 690.782 310.351 693.28 311.364C694.84 311.996 695.03 311.368 695.03 305.598V299.123L688.78 297.374C685.343 296.412 676.397 293.653 668.9 291.242C661.404 288.832 654.992 286.859 654.65 286.859C654.309 286.859 654.03 289.545 654.03 292.827ZM231.057 307.109C230.948 313.297 230.52 322.859 230.106 328.359C229.332 338.656 230.058 341.697 232.877 339.954C234.444 338.985 235.919 323.892 235.986 308.144C236.025 299.043 235.819 297.816 234.096 296.894C233.032 296.325 231.958 295.859 231.708 295.859C231.459 295.859 231.166 300.922 231.057 307.109ZM478.03 298.359V300.859H488.03H498.03V298.359V295.859H488.03H478.03V298.359ZM97.686 298.992C96.672 299.581 95.201 301.598 94.417 303.474C93.171 306.457 93.182 307.253 94.505 309.811C97.902 316.38 104.295 317.748 109.107 312.936C112.833 309.209 112.948 305.103 109.441 300.936C107.404 298.514 106.072 297.865 103.191 297.889C101.177 297.906 98.7 298.402 97.686 298.992ZM478.2 312.03C478.516 314.264 478.929 314.371 488.28 314.645C497.854 314.926 498.03 314.89 498.029 312.645C498.028 310.437 497.686 310.348 487.949 310.03C477.889 309.701 477.871 309.705 478.2 312.03ZM542.03 312.859C542.03 314.666 542.697 314.859 548.948 314.859C552.753 314.859 556.578 315.132 557.448 315.466C558.641 315.924 559.03 315.432 559.03 313.466C559.03 310.861 559.023 310.859 550.53 310.859C542.697 310.859 542.03 311.016 542.03 312.859ZM594.03 331.242C594.03 349.797 594.187 351.671 595.78 352.129C596.742 352.406 598.318 352.956 599.28 353.353C600.913 354.025 601.03 352.707 601.03 333.627V313.18L598.483 312.02C597.082 311.381 595.507 310.859 594.983 310.859C594.41 310.859 594.03 318.991 594.03 331.242ZM251.59 312.973C249.005 320.404 246.302 334.859 247.497 334.859C248.795 334.859 263.923 324.581 264.38 323.389C264.701 322.552 263.053 320.518 260.221 318.255C257.641 316.194 254.752 313.85 253.801 313.047C252.345 311.818 251.996 311.806 251.59 312.973ZM653.857 319.168L654.184 325.482L673.357 331.858C683.902 335.365 693.093 338.423 693.78 338.653C694.688 338.958 695.03 337.425 695.03 333.049V327.025L675.28 320.359C664.418 316.692 655.08 313.504 654.53 313.273C653.906 313.012 653.653 315.225 653.857 319.168ZM612.03 337.261V357.663L615.179 358.761C616.911 359.365 618.711 359.859 619.179 359.859C619.647 359.859 620.03 350.836 620.03 339.808V319.757L616.562 318.308C614.655 317.511 612.855 316.859 612.562 316.859C612.269 316.859 612.03 326.04 612.03 337.261ZM545.28 323.622C543.384 323.834 542.03 324.553 542.03 325.346C542.03 326.355 544.16 326.797 550.28 327.055C554.818 327.246 558.849 327.164 559.238 326.873C561.926 324.861 552.928 322.765 545.28 323.622ZM631.03 343.761V363.663L633.945 364.68C635.548 365.238 637.123 365.432 637.445 365.111C637.767 364.789 638.03 355.87 638.03 345.29V326.055L634.881 324.957C633.149 324.353 631.574 323.859 631.381 323.859C631.188 323.859 631.03 332.815 631.03 343.761ZM478.03 326.859C478.03 328.726 478.697 328.859 488.03 328.859C497.363 328.859 498.03 328.726 498.03 326.859C498.03 324.992 497.363 324.859 488.03 324.859C478.697 324.859 478.03 324.992 478.03 326.859ZM542.734 336.489C542.347 336.876 542.03 338.035 542.03 339.065C542.03 340.774 542.793 340.912 550.78 340.648C558.767 340.384 559.53 340.185 559.53 338.359C559.53 336.549 558.768 336.332 551.484 336.072C547.058 335.914 543.121 336.101 542.734 336.489ZM478.03 341.359V343.859H488.03H498.03V341.359V338.859H488.03H478.03V341.359ZM654.03 346.78V352.702L673.28 358.924C683.867 362.346 693.093 365.355 693.78 365.61C694.693 365.948 695.03 364.451 695.03 360.061V354.049L675.168 347.454C664.244 343.827 655.019 340.859 654.668 340.859C654.317 340.859 654.03 343.524 654.03 346.78ZM272.53 346.602C267.844 347.17 233.374 355.669 225.03 358.315C214.345 361.702 187.472 372.086 181.351 375.192C174.282 378.78 173.816 379.96 179.728 379.296C200.164 377.001 201.221 376.736 209.991 371.707C221.039 365.372 225.992 363.558 246.66 358.278C256.081 355.87 264.998 353.441 266.475 352.88C267.952 352.318 271.844 351.859 275.124 351.859C281.94 351.859 288.776 354.814 298.006 361.748C304.02 366.267 305.496 366.692 306.46 364.181C307.24 362.147 306.629 361.539 296.698 354.468C287.665 348.037 280.347 345.655 272.53 346.602ZM543.03 351.399C543.03 353.938 543.035 353.94 551.28 353.649C558.972 353.379 559.552 353.207 559.85 351.109C560.16 348.926 559.915 348.859 551.6 348.859C543.089 348.859 543.03 348.876 543.03 351.399ZM486.53 366.336C468.052 369.76 452.798 378.753 445.086 390.771C441.592 396.216 438.007 409.005 438.079 415.768L438.127 420.359L441.015 412.589C449.198 390.573 464.716 377.469 489.262 371.849C497.342 369.999 500.313 369.755 506.762 370.419C511.034 370.858 514.755 371.273 515.03 371.34C519.316 372.38 528.44 375.508 532.756 377.416C541.382 381.231 547.622 380.352 542.932 375.983C540.381 373.605 527.977 368.558 519.386 366.401C511.981 364.543 496.379 364.512 486.53 366.336ZM594.03 375.02C594.03 384.439 594.26 385.734 596.53 389.074C597.905 391.097 599.03 393.2 599.03 393.747C599.03 394.294 599.48 395.019 600.03 395.359C600.679 395.76 601.03 390.908 601.03 381.535C601.03 368.638 600.843 367.038 599.28 366.589C598.318 366.312 596.742 365.762 595.78 365.365C594.179 364.707 594.03 365.531 594.03 375.02ZM653.86 373.682L654.19 379.51L672.86 385.695C683.129 389.096 692.318 392.153 693.28 392.486C694.821 393.02 695.03 392.368 695.03 387.035C695.03 383.703 694.586 380.702 694.044 380.367C692.721 379.549 655.801 367.862 654.53 367.858C653.94 367.856 653.665 370.242 653.86 373.682ZM789.103 371.494C786.381 374.954 786.486 377.406 789.485 380.404C792.708 383.628 796.335 383.559 798.957 380.224C801.662 376.786 801.582 373.726 798.716 371.033C795.542 368.051 791.664 368.237 789.103 371.494ZM612.03 402.91V433.961L615.498 435.41C617.405 436.207 619.205 436.859 619.498 436.859C619.791 436.859 620.03 422.672 620.03 405.333V373.809L617.465 372.833C611.771 370.668 612.03 369.233 612.03 402.91ZM232.377 374.953C221.556 376.76 212.054 381.547 202.627 389.935C183.988 406.522 179.989 438.22 193.864 459.401C199.469 467.956 203.64 471.519 209.03 472.354L213.53 473.051L207.391 466.705C199.752 458.809 196.789 454.055 194.121 445.417C188.573 427.454 193.686 407.168 206.952 394.515C216.74 385.178 227.874 380.843 241.962 380.883C257.491 380.928 266.769 384.61 277.14 394.846C287.291 404.866 292.03 416.001 292.03 429.83C292.03 444.288 287.412 456.17 277.799 466.447C274.5 469.974 272.09 472.859 272.444 472.859C272.798 472.859 275.715 471.532 278.927 469.911C283.524 467.59 285.584 465.73 288.612 461.169C307.865 432.163 297.924 395.304 266.721 379.992C255.648 374.558 244.517 372.924 232.377 374.953ZM293.865 378.531C292.016 379.021 290.716 381.541 291.586 382.949C291.915 383.482 321.765 383.859 363.589 383.859C431.717 383.859 435.03 383.776 435.03 382.059C435.03 377.817 435.672 377.854 364.08 377.975C326.377 378.039 294.781 378.288 293.865 378.531ZM631.03 409.859C631.03 434.785 631.306 441.861 632.28 441.872C632.968 441.879 634.543 442.158 635.78 442.489L638.03 443.091V411.51C638.03 381.31 637.945 379.883 636.096 378.893C630.905 376.115 631.03 375.349 631.03 409.859ZM500.03 382.501C479.886 386.79 464.988 402.527 461.948 422.729C460.697 431.04 461.228 436.567 464.139 445.533C466.33 452.284 467.196 453.361 471.257 454.38L473.972 455.061L471.375 448.71C466.298 436.294 467.173 420.609 473.685 407.311C479.048 396.358 494.368 384.561 505.1 383.122C507.239 382.835 508.746 382.208 508.45 381.729C508.154 381.25 507.601 380.917 507.221 380.988C506.841 381.059 503.605 381.74 500.03 382.501ZM164.556 392.809C163.717 394.432 163.03 396.168 163.03 396.669C163.03 397.169 167.254 397.53 172.417 397.469C181.143 397.367 181.951 397.183 183.884 394.859C187.644 390.339 186.893 389.859 176.056 389.859H166.081L164.556 392.809ZM552.971 393.523C556.465 396.54 558.8 397.62 563.915 398.582C567.492 399.254 570.632 399.59 570.895 399.328C571.626 398.596 566.865 393.843 563.805 392.251C562.306 391.472 558.256 390.575 554.805 390.26L548.53 389.687L552.971 393.523ZM653.864 399.6C653.68 402.602 653.762 405.431 654.045 405.887C654.462 406.559 693.057 419.859 694.588 419.859C694.831 419.859 695.03 417.017 695.03 413.544V407.229L683.28 403.458C676.818 401.384 667.63 398.439 662.864 396.915L654.199 394.143L653.864 399.6ZM304.586 397.768C304.277 398.268 304.298 399.393 304.634 400.268C305.168 401.66 308.208 401.859 329.015 401.859C348.606 401.859 352.998 401.603 353.994 400.403C354.658 399.602 354.912 398.477 354.557 397.903C353.743 396.586 305.397 396.455 304.586 397.768ZM228.898 406.659C211.752 415.617 209.045 439.006 223.669 451.846C228.965 456.496 233.578 458.187 241.03 458.208C251.629 458.238 260.239 453.301 265.675 444.077C268.118 439.933 268.46 438.325 268.487 430.859C268.516 423.093 268.253 421.927 265.446 417.359C261.877 411.552 255.57 406.381 250.255 404.905C243.079 402.912 234.764 403.595 228.898 406.659ZM508.545 405.117C502.927 406.6 493.916 415.786 491.706 422.286C485.647 440.104 498.184 458.282 516.483 458.21C532.258 458.148 544.135 445.931 543.974 429.931C543.901 422.629 541.387 416.683 536.108 411.326C529.378 404.497 519.407 402.251 508.545 405.117ZM64.953 408.781C61.328 412.406 61.226 415.749 64.619 419.781C66.553 422.08 68.048 422.859 70.53 422.859C73.012 422.859 74.507 422.08 76.441 419.781C80.303 415.192 79.652 409.749 74.953 407.319C70.762 405.152 68.209 405.525 64.953 408.781ZM159.697 408.526C159.33 408.892 159.03 410.692 159.03 412.526V415.859H166.922C174.424 415.859 174.843 415.74 175.417 413.452C175.75 412.128 176.297 410.328 176.633 409.452C177.162 408.072 176.114 407.859 168.804 407.859C164.161 407.859 160.063 408.159 159.697 408.526ZM562.729 408.609C562.498 409.022 562.923 410.821 563.672 412.609C565.027 415.837 565.083 415.859 572.052 415.859H579.068L578.411 413.109C578.05 411.596 577.311 409.797 576.77 409.109C575.701 407.753 563.452 407.316 562.729 408.609ZM388.53 409.817C386.88 410.231 380.994 412.818 375.451 415.565C358.315 424.057 355.018 424.85 336.586 424.917C316.533 424.989 312.644 425.586 312.206 428.659L311.881 430.932L330.252 430.815C352.918 430.672 357.711 429.711 374.773 421.885C390.356 414.736 394.266 413.859 410.544 413.859C420.041 413.859 423.056 413.533 423.994 412.403C424.658 411.602 424.912 410.477 424.557 409.903C423.811 408.696 393.285 408.623 388.53 409.817ZM236.634 414.897C233.242 415.913 228.444 420.225 226.441 424.059C220.674 435.098 232.792 450.153 244.834 446.911C252.871 444.747 257.03 439.273 257.03 430.859C257.03 422.945 253.195 417.363 246.131 414.997C242.249 413.697 240.699 413.681 236.634 414.897ZM510.435 415.716C499.049 421.018 498.126 438.61 508.916 444.674C517.02 449.228 526.064 446.6 530.748 438.328C538.31 424.977 524.223 409.295 510.435 415.716ZM654.03 427.595V433.465L661.28 435.828C665.267 437.128 674.492 440.097 681.78 442.427L695.03 446.663V440.736C695.03 433.779 697.184 435.078 673.53 427.771C664.73 425.053 656.742 422.58 655.78 422.276C654.249 421.793 654.03 422.46 654.03 427.595ZM568.349 427.367C565.557 429.409 567.18 432.267 571.541 432.986C576.456 433.796 577.03 433.475 577.03 429.909C577.03 427.407 576.615 427.029 573.458 426.661C571.493 426.431 569.194 426.749 568.349 427.367ZM159.03 431.359V434.859H166.03C172.264 434.859 173.03 434.648 173.03 432.94C173.03 431.885 173.303 430.31 173.637 429.44C174.158 428.083 173.163 427.859 166.637 427.859H159.03V431.359ZM773.206 439.361C760.601 447.75 754.417 452.427 743.909 461.518C727.471 475.741 727.606 475.69 764.23 453.689C772.315 448.833 779.521 444.859 780.244 444.859C780.968 444.859 786.728 449.415 793.045 454.984C802.481 463.303 839.332 495.045 849.059 503.231C855.652 508.781 862.72 514.525 864.53 515.806C865.63 516.584 847.857 498.464 825.035 475.54C802.212 452.615 783.074 433.859 782.506 433.859C781.937 433.859 777.752 436.335 773.206 439.361ZM312.711 440.609C312.471 441.022 311.505 444.039 310.564 447.315C309.623 450.592 307.801 455.351 306.514 457.89L304.175 462.505L312.853 458.234C324.904 452.303 343.555 446.366 356.567 444.318C369.85 442.228 370.03 442.182 370.03 440.89C370.03 439.684 313.412 439.406 312.711 440.609ZM563.005 446.424C562.469 447.835 562.03 449.886 562.03 450.982C562.03 452.704 562.599 452.932 566.231 452.666C569.792 452.406 570.728 451.85 572.38 449.01C574.708 445.011 573.707 443.898 567.755 443.874C564.617 443.862 563.816 444.291 563.005 446.424ZM166.03 447.294C166.03 447.533 166.469 448.883 167.005 450.294C167.89 452.62 168.495 452.859 173.505 452.859C179.198 452.859 179.853 452.266 177.995 448.793C177.165 447.243 175.874 446.859 171.495 446.859C168.489 446.859 166.03 447.055 166.03 447.294ZM99.861 462.891C81.096 466.022 64.8 475.742 47.498 494.122C39.8 502.3 23.473 524.635 24.466 525.629C24.691 525.853 26.56 524.084 28.62 521.698C48.289 498.916 75.555 479.3 96.377 472.952C104.827 470.376 124.71 466.859 130.826 466.859C133.322 466.859 135.175 466.67 134.944 466.44C134.1 465.596 118.335 462.976 111.53 462.549C107.68 462.308 102.429 462.462 99.861 462.891ZM550.632 467.471C548.489 469.905 546.994 472.156 547.311 472.473C548.245 473.407 553.79 471.852 555.083 470.294C555.739 469.504 556.816 468.859 557.478 468.859C559.105 468.859 563.22 464.383 562.372 463.535C562.001 463.163 560.084 462.901 558.113 462.953C555.186 463.03 553.816 463.857 550.632 467.471ZM406.19 468.099C405.552 468.737 405.03 469.579 405.03 469.971C405.03 471.406 417.262 480.859 419.117 480.859C422.822 480.859 421.114 477.219 415.28 472.682C407.788 466.854 407.553 466.736 406.19 468.099ZM607.57 492.206C606.556 492.947 606.161 493.821 606.69 494.148C607.454 494.62 625.086 495.184 630.78 494.917C632.577 494.833 632.322 492.185 630.448 491.466C627.254 490.24 609.472 490.816 607.57 492.206ZM360.804 502.863C364.969 505.402 366.238 505.382 363.169 502.826C361.871 501.744 360.071 500.861 359.169 500.863C358.193 500.865 358.854 501.674 360.804 502.863ZM123.553 511.82C122.145 514.098 124.549 514.859 133.162 514.859C141.208 514.859 142.141 514.671 141.842 513.109C141.559 511.63 140.165 511.313 132.851 511.07C127.634 510.897 123.94 511.195 123.553 511.82ZM643.444 526.996C643.229 527.346 643.667 528.143 644.419 528.767C646.395 530.407 686.21 529.824 686.768 528.147C687.074 527.229 681.924 526.866 665.504 526.647C653.587 526.489 643.66 526.646 643.444 526.996ZM162.03 539.859C162.03 540.489 168.716 540.859 180.089 540.859C191.874 540.859 197.933 540.512 197.53 539.859C197.156 539.254 190.02 538.859 179.471 538.859C168.51 538.859 162.03 539.231 162.03 539.859Z" fill="#013B63"/>
</svg>
