<svg width="634" height="489" viewBox="0 0 634 489" fill="none" xmlns="http://www.w3.org/2000/svg">
<path fill-rule="evenodd" clip-rule="evenodd" d="M301.361 0.624964C274.057 3.74196 251.217 10.444 227.361 22.34C187.465 42.233 156.638 73.663 137.373 114.09C123.186 143.859 116.492 178.691 118.809 210.677C119.782 224.107 122.364 240.425 123.741 241.847C124.144 242.263 125.701 241.323 127.201 239.757L129.927 236.911L128.313 228.001C126.07 215.617 125.299 190.144 126.799 177.956C134.943 111.765 173.841 57.06 233.361 28.09C259.306 15.462 284.436 9.17196 313.861 7.94096C386.62 4.89596 454.16 41.165 490.12 102.59C516.511 147.67 522.687 203.526 506.774 253.205C502.872 265.383 496.595 280.431 492.012 288.59L488.361 295.09L488.104 229.34L487.847 163.59H469.354H450.861V125.625C450.861 89.114 450.787 87.621 448.927 86.625C447.754 85.997 437.914 85.59 423.927 85.59H400.861V64.075V42.56L371.111 42.825L341.361 43.09V81.503V119.915L344.361 120.16C346.011 120.295 349.274 120.171 351.611 119.884L355.861 119.363V114.976C355.861 110.63 355.893 110.59 359.361 110.59C362.835 110.59 362.861 110.623 362.861 115.023C362.861 118.648 363.244 119.577 364.962 120.122C367.755 121.008 368.664 119.888 369.044 115.09C369.338 111.386 369.601 111.067 372.611 110.777L375.861 110.463V115.317C375.861 117.986 376.538 122.768 377.365 125.944C378.57 130.569 378.651 132.848 377.775 137.404C377.173 140.531 376.455 145.453 376.178 148.34C375.765 152.663 375.339 153.59 373.768 153.59C372.328 153.59 371.861 154.304 371.861 156.508C371.861 160.435 372.785 162.59 374.468 162.59C375.501 162.59 375.861 164.11 375.861 168.465C375.861 179.439 376.274 180.214 382.806 181.499C395.324 183.962 402.288 189.724 405.46 200.243C407.653 207.514 407.394 231.959 405.025 241.323L403.196 248.556L405.548 250.765C409.411 254.395 413.949 262.197 415.966 268.681C419.269 279.292 417.908 296.712 413.409 301.414C412.077 302.806 405.294 304.69 404.494 303.89C404.237 303.633 404.855 301.998 405.867 300.256C408.572 295.599 410.181 285.675 409.667 276.808C409.314 270.699 408.602 267.886 406.377 263.797C403.645 258.778 398.275 253.59 395.811 253.59C394.54 253.59 394.595 253.34 397.933 244.09C400.908 235.845 401.311 210.16 398.602 201.405C395.807 192.372 390.097 188.653 376.539 187.036C371.677 186.456 370.57 185.954 369.824 183.992C368.408 180.268 363.028 156.622 362.281 150.84L361.603 145.59H365.11C367.038 145.59 369.087 145.023 369.662 144.33C370.919 142.815 371.599 129.594 370.511 127.833C369.304 125.88 262.564 126.038 260.94 127.995C260.208 128.876 259.883 132.315 260.067 137.216L260.361 145.032L264.302 146.135C266.47 146.741 268.361 147.654 268.505 148.164C268.649 148.673 266.849 157.19 264.505 167.09L260.244 185.09L253.636 185.384L247.029 185.678L245.041 192.384C243.947 196.072 242.339 201.619 241.466 204.71L239.881 210.33L232.898 211.018C226.612 211.637 225.488 211.461 221.638 209.258C219.286 207.912 213.536 204.815 208.861 202.376C188.146 191.568 171.861 182.145 171.861 180.967C171.861 179.69 180.834 159.369 192.918 133.279C198.409 121.426 199.777 119.249 202.572 117.923C204.364 117.073 206.773 114.85 207.927 112.984C209.08 111.117 210.202 109.59 210.418 109.59C210.635 109.59 217.236 107.597 225.087 105.161C232.938 102.724 242.511 99.846 246.361 98.765C250.211 97.683 260.469 94.726 269.157 92.194C277.844 89.662 285.979 87.59 287.232 87.59C288.486 87.59 290.449 88.602 291.595 89.84C293.303 91.686 293.649 93.257 293.523 98.59C293.403 103.692 293.799 105.663 295.365 107.756C301.908 116.494 314.259 115.596 318.882 106.046C322.66 98.242 321.022 93.324 311.724 84.568C306.402 79.555 305.861 78.663 305.861 74.895C305.861 66.525 297.042 60.816 289.184 64.099C287.122 64.961 284.743 66.284 283.898 67.039C282.229 68.529 276.912 69.704 233.861 78.092C218.186 81.147 201.418 84.056 196.599 84.558C183.393 85.934 179.589 89.305 175.293 103.435C170.944 117.743 162.884 139.018 161.38 140.16C159.515 141.577 148.861 170.836 148.861 174.542C148.861 177.458 147.879 182.866 145.275 194.296C143.526 201.971 143.45 210.652 145.111 212.896C145.799 213.824 148.819 215.372 151.824 216.337C156.655 217.887 157.363 218.464 157.943 221.315C158.303 223.089 159.346 225.682 160.261 227.078C162.187 230.018 162.702 229.706 148.435 234.241C143.994 235.653 138.561 237.847 136.361 239.117C127.73 244.099 120.896 254.071 118.79 264.754C117.595 270.815 118.419 286.45 120.319 293.773C121.001 296.405 121.345 298.772 121.083 299.034C120.821 299.296 118.977 298.809 116.984 297.951C99.7646 290.537 81.6816 290.888 65.5126 298.948C49.8016 306.78 38.3116 319.06 28.8416 338.139C22.8616 350.185 21.7756 354.694 23.8956 358.656C24.9056 360.543 26.8416 360.59 103.215 360.59C191.109 360.59 183.576 359.992 203.361 368.543C242.529 385.471 283.206 390.251 326.361 382.996C342.115 380.347 357.3 375.435 385.861 363.749L392.361 361.09L501.337 360.59L610.313 360.09L611.256 357.408C612.103 355 611.594 354.002 606.28 347.65C603.025 343.759 596.311 335.69 591.361 329.72C565.616 298.671 558.992 290.78 555.071 286.49C547.85 278.59 547.935 278.575 518.724 293.02C504.825 299.893 493.27 305.333 493.046 305.108C492.821 304.883 496.28 297.362 500.732 288.395C509.913 269.904 515.523 253.979 519.512 235.09C522.075 222.949 522.259 220.438 522.298 197.09C522.335 174.898 522.083 170.82 520.052 160.785C516.981 145.611 513.706 134.593 508.779 122.857C506.523 117.485 504.445 112.528 504.162 111.84C503.757 110.857 509.815 110.587 532.504 110.575C563.711 110.559 565.542 110.283 567.287 105.319C568.704 101.291 566.944 97.431 562.625 95.09C560.595 93.99 557.978 91.844 556.809 90.32C553.955 86.599 549.334 84.348 544.681 84.412C541.507 84.456 540.607 84.002 539.449 81.777C532.808 69.013 514.163 68.009 505.738 79.963C503.989 82.443 501.262 85.01 499.676 85.667C498.09 86.323 495.847 88.037 494.691 89.475C493.445 91.025 492.418 91.612 492.168 90.917C490.714 86.877 474.85 67.37 465.461 58.079C435.032 27.966 396.917 9.01396 352.861 2.09296C340.389 0.133959 312.603 -0.658036 301.361 0.624964ZM491.932 50.458C489.566 54.878 494.727 58.168 498.347 54.548C499.904 52.991 500.098 52.187 499.246 50.826C497.636 48.254 493.23 48.032 491.932 50.458ZM355.861 66.153V74.717L359.111 74.403L362.361 74.09L362.658 66.678C362.974 58.799 362.39 57.634 358.111 57.605C355.952 57.591 355.861 57.935 355.861 66.153ZM369.306 58.872C369.007 59.651 368.897 63.394 369.062 67.189L369.361 74.09H372.361H375.361V66.09C375.361 58.102 375.357 58.09 372.605 57.773C370.914 57.578 369.64 58.003 369.306 58.872ZM382.306 58.872C382.007 59.651 381.897 63.394 382.062 67.189L382.361 74.09H385.361H388.361V66.09C388.361 58.102 388.357 58.09 385.605 57.773C383.914 57.578 382.64 58.003 382.306 58.872ZM122.611 64.67C120.077 66.146 120.317 71.228 122.987 72.658C127.945 75.311 132.293 69.165 128.29 65.161C126.482 63.354 125.08 63.232 122.611 64.67ZM288.516 71.419C286.319 73.846 286.411 78.873 288.69 80.935C291.541 83.515 296.355 83.048 298.788 79.955C299.928 78.506 300.861 76.767 300.861 76.09C300.861 75.413 299.928 73.674 298.788 72.225C296.276 69.031 291.048 68.621 288.516 71.419ZM290.831 74.126C289.015 76.315 290.769 79.09 293.97 79.09C295.96 79.09 296.361 78.587 296.361 76.09C296.361 73.81 295.86 73.018 294.273 72.792C293.125 72.628 291.576 73.228 290.831 74.126ZM242.861 81.946C216.036 87.501 208.361 89.424 208.361 90.59C208.361 91.415 209.261 92.218 210.361 92.374C212.045 92.614 273.843 80.578 279.111 78.985C280.073 78.693 280.861 77.586 280.861 76.523C280.861 75.308 280.21 74.629 279.111 74.696C278.149 74.754 261.836 78.016 242.861 81.946ZM515.861 78.342C513.521 79.51 511.596 81.632 510.053 84.74C508.178 88.518 507.127 89.505 504.441 90.009C497.872 91.241 495.175 97.521 499.205 102.199L501.694 105.09L531.332 104.866C547.632 104.742 561.395 104.378 561.915 104.057C564.218 102.634 562.608 100.515 558.361 99.379C555.094 98.505 553.861 97.671 553.861 96.335C553.861 95.323 552.624 93.34 551.111 91.93C548.599 89.587 547.83 89.414 542.226 89.929C536.169 90.486 536.085 90.459 535.546 87.765C534.393 82.001 527.657 76.587 521.643 76.592C520.388 76.592 517.786 77.38 515.861 78.342ZM355.861 92.09V100.59H359.361H362.861V92.09V83.59H359.361H355.861V92.09ZM368.861 92.09V100.59H372.361H375.861V92.09V83.59H372.361H368.861V92.09ZM381.861 92.09V100.59H385.361H388.861V92.09V83.59H385.361H381.861V92.09ZM188.624 92.155C180.164 96.746 181.536 109.914 190.761 112.678C195.853 114.204 200.296 112.564 202.976 108.17C209.011 98.272 198.653 86.714 188.624 92.155ZM304.127 92.687C302.998 93.105 301.352 94.479 300.468 95.741C295.005 103.541 305.636 111.906 312.406 105.135C315.374 102.168 315.542 98.726 312.884 95.346C310.697 92.566 307.269 91.525 304.127 92.687ZM303.432 97.161C300.412 100.182 302.15 104.59 306.361 104.59C309.041 104.59 310.861 102.77 310.861 100.09C310.861 95.879 306.453 94.141 303.432 97.161ZM190.611 97.67C188.574 98.856 188.216 104.545 190.061 106.39C190.721 107.05 192.431 107.59 193.861 107.59C197.3 107.59 198.861 105.873 198.861 102.09C198.861 97.099 195.074 95.071 190.611 97.67ZM410.28 103.939C409.996 104.681 409.897 108.394 410.062 112.189L410.361 119.09H414.361H418.361L418.651 110.84L418.942 102.59H414.87C412.375 102.59 410.598 103.113 410.28 103.939ZM428.861 110.59V118.59H433.361H437.861V110.59V102.59H433.361H428.861V110.59ZM381.861 118.59V126.59H385.361H388.861V118.59V110.59H385.361H381.861V118.59ZM177.77 115.231C172.925 127.548 168.861 139.181 168.861 140.731C168.861 145.419 171.995 141.594 177.235 130.511C182.924 118.477 183.363 116.081 180.339 113.572C179.156 112.59 178.69 112.891 177.77 115.231ZM522.861 117.59C522.861 119.59 523.296 119.617 551.111 119.356C575.437 119.127 579.361 118.882 579.361 117.59C579.361 116.298 575.437 116.053 551.111 115.824C523.296 115.563 522.861 115.59 522.861 117.59ZM99.6106 127.67C97.1576 129.099 97.3596 133.796 99.9436 135.41C101.691 136.501 102.418 136.455 104.444 135.127C107.464 133.149 107.546 130.183 104.638 128.147C102.054 126.336 101.922 126.324 99.6106 127.67ZM582.139 127.712C581.522 128.329 581.255 129.454 581.546 130.212C582.29 132.149 587.776 131.975 588.538 129.989C589.608 127.201 584.476 125.375 582.139 127.712ZM410.528 129.257C410.161 129.623 409.861 133.448 409.861 137.757V145.59H414.302C416.745 145.59 419.031 145.123 419.384 144.553C419.736 143.983 419.71 140.158 419.325 136.053L418.626 128.59H414.91C412.866 128.59 410.894 128.89 410.528 129.257ZM429.575 129.209C429.182 129.602 428.861 133.474 428.861 137.814V145.705L433.111 145.397L437.361 145.09V137.09V129.09L433.825 128.792C431.881 128.629 429.968 128.816 429.575 129.209ZM273.444 137.233C273.098 138.137 273.09 139.149 273.427 139.483C274.235 140.284 356.683 140.101 357.487 139.297C357.829 138.956 357.842 137.982 357.516 137.133C356.995 135.777 351.913 135.59 315.499 135.59C277.996 135.59 274.015 135.746 273.444 137.233ZM381.861 145.09V153.717L385.111 153.403L388.361 153.09V145.09V137.09L385.111 136.777L381.861 136.463V145.09ZM274.382 148.84C273.841 151.189 269.535 170.888 265.255 190.59C260.287 213.458 260.043 216.335 262.207 226.516C263.877 234.368 265.564 234.112 266.3 225.895C267.429 213.291 269.663 199.539 276.821 161.147C277.943 155.129 278.861 149.391 278.861 148.397C278.861 145.685 275.02 146.065 274.382 148.84ZM284.97 150.3C284.426 152.385 282.803 160.84 281.362 169.09C279.922 177.34 278.484 185.215 278.167 186.59L277.59 189.09L280.651 186.224C283.434 183.618 284.469 183.329 292.037 183.043C296.615 182.869 300.934 182.697 301.634 182.659C302.625 182.605 302.847 178.66 302.634 164.84L302.361 147.09L294.16 146.8L285.959 146.511L284.97 150.3ZM312.861 165.09V183.59H321.361H329.861V165.09V146.59H321.361H312.861V165.09ZM338.861 164.473C338.861 185.282 337.697 183.553 351.728 183.576C359.925 183.59 360.082 183.544 359.471 181.34C359.129 180.102 358.408 176.165 357.871 172.59C357.333 169.015 356.218 162.04 355.394 157.09C354.57 152.14 353.888 147.752 353.878 147.34C353.869 146.928 350.486 146.59 346.361 146.59H338.861V164.473ZM162.9 149.988C157.036 165.411 155.596 173.317 159.342 169.518C161.019 167.816 166.861 152.281 166.861 149.522C166.861 146.783 163.99 147.121 162.9 149.988ZM410.28 156.939C409.996 157.681 409.897 161.394 410.062 165.189L410.361 172.09L414.521 172.393L418.68 172.696L419.38 165.225C419.766 161.116 419.78 157.267 419.412 156.672C418.434 155.09 410.906 155.31 410.28 156.939ZM429.071 163.84L429.361 172.09H433.361H437.361L437.651 163.84L437.942 155.59H433.361H428.78L429.071 163.84ZM381.861 171.09C381.861 178.803 382.039 179.59 383.779 179.59C388.396 179.59 388.861 178.757 388.861 170.483V162.59H385.361H381.861V171.09ZM545.861 168.09C545.861 168.915 546.536 169.59 547.361 169.59C548.186 169.59 548.861 168.915 548.861 168.09C548.861 167.265 548.186 166.59 547.361 166.59C546.536 166.59 545.861 167.265 545.861 168.09ZM456.491 180.84C456.16 182.078 455.882 184.102 455.875 185.34C455.86 187.829 455.163 187.692 469.111 187.937L477.861 188.09V183.34V178.59H467.478C457.555 178.59 457.068 178.69 456.491 180.84ZM153.99 185.31C153.459 187.389 152.73 190.665 152.369 192.59C152.007 194.515 151.472 196.934 151.179 197.965C150.87 199.053 151.06 199.585 151.631 199.232C152.523 198.681 153.697 194.977 155.877 185.835C156.304 184.044 156.271 182.343 155.804 182.054C155.336 181.766 154.52 183.231 153.99 185.31ZM409.861 190.645V198.7L414.611 198.395C417.224 198.227 419.248 197.753 419.111 197.34C418.974 196.927 418.861 193.44 418.861 189.59V182.59H414.361H409.861V190.645ZM428.861 190.59V198.59H433.361H437.861V190.59V182.59H433.361H428.861V190.59ZM248.351 199.84C246.837 205.477 244.299 214.808 242.712 220.574C241.125 226.341 240.045 231.628 240.313 232.324C240.58 233.02 241.871 233.59 243.183 233.59C245.43 233.59 245.605 233.152 246.208 226.01C246.561 221.841 248.18 213.853 249.807 208.26C253.841 194.393 254.562 189.59 252.61 189.59C251.545 189.59 250.297 192.594 248.351 199.84ZM310.223 191.09C309.906 191.915 309.924 193.313 310.263 194.196C310.769 195.514 312.177 195.738 318.12 195.446C324.993 195.108 325.377 195.204 325.681 197.34L326 199.59H300.361H274.722L275.041 201.84L275.361 204.09L300.139 204.201C313.767 204.263 325.185 204.581 325.513 204.908C325.84 205.236 325.842 206.198 325.516 207.047C325.004 208.382 321.492 208.59 299.499 208.59C277.544 208.59 273.994 208.8 273.485 210.128C273.16 210.974 273.45 211.873 274.128 212.126C274.806 212.379 286.611 212.699 300.361 212.838C324.61 213.082 325.361 213.15 325.361 215.09C325.361 217.034 324.634 217.095 299.361 217.27C273.907 217.447 273.354 217.494 273.041 219.52C272.725 221.569 272.987 221.59 299.291 221.59C325.194 221.59 325.861 221.64 325.861 223.59C325.861 225.54 325.194 225.59 299.33 225.59C276.339 225.59 272.719 225.796 272.206 227.133C271.88 227.982 271.931 228.994 272.319 229.383C272.707 229.772 284.942 230.224 299.507 230.387C323.819 230.66 325.963 230.824 325.662 232.387C325.365 233.932 322.859 234.115 298.598 234.356C283.893 234.503 271.861 234.996 271.861 235.451C271.861 235.907 272.684 237.025 273.69 237.935C275.296 239.389 278.796 239.59 302.49 239.59C322.134 239.59 329.787 239.264 330.661 238.39C331.931 237.12 332.43 196.316 331.231 191.84C330.657 189.699 330.15 189.59 320.713 189.59C312.822 189.59 310.681 189.896 310.223 191.09ZM337.861 191.876C337.861 194.083 338.312 194.2 351.123 195.316C358.417 195.951 365.123 196.753 366.025 197.099C368.514 198.054 368.833 200.612 368.847 219.733C368.861 237.891 369.012 238.59 372.921 238.59C373.414 238.59 373.94 229.936 374.089 219.359L374.361 200.128L378.853 200.453C381.323 200.632 385.303 201.443 387.698 202.256C390.092 203.069 392.269 203.515 392.537 203.247C393.498 202.286 390.747 198.583 388.081 197.249C384.456 195.436 371.293 192.969 355.361 191.118C337.978 189.099 337.861 189.104 337.861 191.876ZM86.3156 193.045C83.4546 195.905 83.2816 197.318 85.4176 200.367C88.3676 204.579 95.8866 202.159 95.8456 197.011C95.8256 194.526 94.8746 193.16 92.1766 191.74C89.2486 190.199 89.1356 190.224 86.3156 193.045ZM462.056 196.389L455.751 196.688L456.056 200.889L456.361 205.09L467.111 205.374L477.861 205.658V200.816V195.975L473.111 196.032C470.498 196.064 465.524 196.225 462.056 196.389ZM164.861 199.968C164.861 202.099 166.332 202.872 181.861 208.912C199.11 215.621 208.049 218.543 209.212 217.853C210.66 216.993 206.586 213.917 201.861 212.302C199.386 211.457 190.677 208.025 182.508 204.677C166.886 198.275 164.861 197.734 164.861 199.968ZM337.528 200.257C337.161 200.623 336.861 201.523 336.861 202.257C336.861 203.241 338.694 203.59 343.861 203.59C350.194 203.59 350.861 203.4 350.861 201.59C350.861 199.801 350.194 199.59 344.528 199.59C341.044 199.59 337.894 199.89 337.528 200.257ZM381.528 209.257C379.84 210.944 381.316 211.59 386.861 211.59C391.528 211.59 392.861 211.257 392.861 210.09C392.861 208.944 391.602 208.59 387.528 208.59C384.594 208.59 381.894 208.89 381.528 209.257ZM409.861 216.571C409.861 224.18 409.974 224.58 412.282 225.16C417.733 226.528 418.337 225.737 418.651 216.829L418.942 208.59H414.401H409.861V216.571ZM429.07 216.78L429.361 225.09H433.361H437.361V217.09V209.09L433.07 208.78L428.778 208.471L429.07 216.78ZM336.861 210.948C336.861 211.873 338.804 212.508 342.964 212.943C349.501 213.626 350.861 213.297 350.861 211.031C350.861 209.914 349.289 209.59 343.861 209.59C338.632 209.59 336.861 209.933 336.861 210.948ZM459.611 214.318C455.9 214.707 455.861 214.757 455.861 219.15V223.59H466.744H477.628L478.125 220.99C479.063 216.08 478.083 214.895 472.528 214.228C467.313 213.602 466.403 213.608 459.611 214.318ZM380.861 218.59C380.861 219.146 383.528 219.59 386.861 219.59C390.194 219.59 392.861 219.146 392.861 218.59C392.861 218.034 390.194 217.59 386.861 217.59C383.528 217.59 380.861 218.034 380.861 218.59ZM337.335 219.632C336.037 221.732 338.537 222.7 344.465 222.394C348.904 222.165 350.361 221.719 350.361 220.59C350.361 218.706 338.449 217.83 337.335 219.632ZM229.111 222.865C226.224 224.629 223.861 226.592 223.861 227.227C223.861 228.534 231.795 232.749 232.933 232.045C233.802 231.508 236.861 222.838 236.861 220.912C236.861 218.863 234.819 219.377 229.111 222.865ZM183.861 231.028C156.046 238.902 139.27 244.393 137.87 246.079C136.415 247.832 136.139 247.779 145.806 247.592C151.242 247.487 153.945 246.954 155.82 245.619C160.122 242.556 183.113 235.473 196.582 233.062C204.639 231.619 204.909 231.637 210.082 233.945C212.986 235.241 218.061 237.94 221.361 239.943C227.707 243.795 229.861 244.397 229.861 242.319C229.861 240.615 206.698 225.563 204.272 225.69C203.221 225.746 194.036 228.148 183.861 231.028ZM380.861 226.59C380.861 227.146 383.528 227.59 386.861 227.59C390.194 227.59 392.861 227.146 392.861 226.59C392.861 226.034 390.194 225.59 386.861 225.59C383.528 225.59 380.861 226.034 380.861 226.59ZM337.335 228.632C336.037 230.732 338.537 231.7 344.465 231.394C348.904 231.165 350.361 230.719 350.361 229.59C350.361 227.706 338.449 226.83 337.335 228.632ZM456.296 235.082C455.129 241.303 455.616 241.59 467.33 241.59H477.861V236.59V231.59H467.406H456.952L456.296 235.082ZM381.861 234.59C381.861 235.146 384.528 235.59 387.861 235.59C391.194 235.59 393.861 235.146 393.861 234.59C393.861 234.034 391.194 233.59 387.861 233.59C384.528 233.59 381.861 234.034 381.861 234.59ZM410.196 236.158C409.955 236.787 409.894 240.178 410.06 243.695L410.361 250.09L414.611 250.397L418.861 250.705V243.253V235.8L414.748 235.408C412.248 235.169 410.463 235.464 410.196 236.158ZM428.861 242.59V250.59H432.861C437.286 250.59 437.096 250.986 437.262 241.396C437.367 235.329 436.742 234.638 431.111 234.604C428.964 234.591 428.861 234.956 428.861 242.59ZM343.078 241.703C330.125 243.86 322.471 251.969 317.726 268.561C316.7 272.148 315.884 276.885 315.913 279.087C315.962 282.813 316.228 282.423 319.756 273.463C325.622 258.564 329.743 253.163 338.861 248.427C342.751 246.407 344.784 246.093 353.861 246.109C363.338 246.125 365.206 246.452 373.037 249.463C381.498 252.717 386.287 252.977 381.963 249.949C375.346 245.314 367.622 242.548 358.661 241.604C353.546 241.066 349.136 240.669 348.861 240.724C348.586 240.779 345.984 241.22 343.078 241.703ZM167.108 247.724C160.03 250.602 149.839 260.071 146.521 266.852C141.729 276.648 141.891 289.552 146.933 299.59C149.315 304.332 155.697 310.291 159.357 311.193C162.348 311.929 162.345 311.922 157.739 306.799C149.733 297.895 146.78 288.201 148.902 277.788C152.153 261.834 162.823 252.605 178.957 251.793C186.133 251.432 188.335 251.706 192.286 253.454C200.041 256.884 204.49 261.09 208.076 268.381C211.052 274.433 211.361 275.907 211.361 284.075C211.361 294.463 209.563 299.239 202.729 307.002C199.855 310.268 199.162 311.59 200.326 311.59C205.292 311.59 210.963 305.976 214.975 297.089C216.773 293.106 217.236 290.26 217.25 283.09C217.267 274.871 216.977 273.501 213.91 267.304C210.64 260.699 200.395 249.599 197.554 249.584C196.898 249.58 195.011 248.853 193.361 247.968C191.46 246.947 187.065 246.217 181.361 245.973C173.882 245.654 171.473 245.949 167.108 247.724ZM212.861 250.39C212.861 253.415 215.653 253.59 264.061 253.59C312.194 253.59 312.861 253.563 312.861 251.59C312.861 249.617 312.194 249.59 262.861 249.59C235.361 249.59 212.861 249.95 212.861 250.39ZM456.611 250.171C456.198 250.585 455.861 252.873 455.861 255.257V259.59H466.916H477.971L477.666 254.861L477.361 250.133L467.361 249.775C461.861 249.579 457.024 249.757 456.611 250.171ZM541.549 250.236C540.133 251.651 540.934 253.59 542.934 253.59C544.332 253.59 544.902 253.047 544.684 251.923C544.327 250.082 542.62 249.164 541.549 250.236ZM349.45 252.708C341.118 254.663 332.196 263.055 329.353 271.613C327.506 277.175 327.194 291.475 328.852 294.574C330.053 296.818 334.639 300.146 335.434 299.35C335.715 299.069 335.204 296.99 334.3 294.728C332.07 289.155 332.651 275.679 335.362 270.09C338.338 263.956 345.618 257.238 351.63 255.076C359.707 252.171 358.292 250.634 349.45 252.708ZM130.061 253.79C129.401 254.45 128.861 255.8 128.861 256.79C128.861 258.348 129.78 258.59 135.687 258.59C141.529 258.59 142.826 258.256 144.687 256.276C145.883 255.003 146.861 253.653 146.861 253.276C146.861 252.044 131.331 252.52 130.061 253.79ZM387.322 259.653C385.98 261.825 390.008 264.59 394.516 264.59C399.514 264.59 399.949 263.591 396.226 260.663C393.421 258.456 388.413 257.888 387.322 259.653ZM67.8606 261.59C66.7606 262.69 65.8606 264.265 65.8606 265.09C65.8606 266.813 69.3396 270.59 70.9266 270.59C75.8296 270.59 77.7196 264.006 73.6376 261.147C70.7776 259.143 70.2686 259.182 67.8606 261.59ZM221.05 262.34C221.352 263.91 223.106 264.118 238.124 264.364C254.351 264.63 254.861 264.577 254.861 262.614C254.861 260.661 254.262 260.59 237.788 260.59C222.066 260.59 220.741 260.729 221.05 262.34ZM429.071 268.84L429.361 277.09L432.984 277.393C437.553 277.775 438.061 276.589 437.217 267.51L436.574 260.59H432.677H428.78L429.071 268.84ZM125.657 266.878C124.876 270.961 125.719 271.59 131.969 271.59C137.427 271.59 137.99 271.381 138.886 269.025C140.48 264.831 140.16 264.59 132.978 264.59C126.6 264.59 126.062 264.758 125.657 266.878ZM171.361 267.451C163.106 272.55 159.551 283.118 163.478 290.89C167.231 298.317 172.238 301.59 179.851 301.59C198.452 301.59 205.448 278.535 190.027 268.057C185.379 264.898 175.986 264.593 171.361 267.451ZM357.173 267.535C352.327 269.735 347.216 276.182 346.255 281.305C344.878 288.642 349.816 297.302 357.32 300.71C362.451 303.041 366.291 303.032 371.477 300.677C386.6 293.809 385.037 271.065 369.138 266.65C363.918 265.2 362.004 265.342 357.173 267.535ZM455.861 273.09V277.59H466.861H477.861V273.09V268.59H466.861H455.861V273.09ZM394.214 272.776C394.555 274.049 394.84 275.427 394.847 275.84C394.855 276.253 396.691 276.59 398.927 276.59C402.774 276.59 402.977 276.441 402.677 273.84C402.393 271.364 401.924 271.059 397.978 270.776C393.826 270.479 393.627 270.584 394.214 272.776ZM278.861 273.036C275.836 273.718 269.625 275.472 265.059 276.933C257.571 279.33 255.264 279.59 241.509 279.59C226.248 279.59 223.861 280.09 223.861 283.29C223.861 284.307 227.613 284.585 241.111 284.569C259.525 284.546 258.473 284.747 276.361 277.855C278.952 276.856 285.206 276.141 294.111 275.824C306.706 275.375 307.861 275.176 307.861 273.462C307.861 271.733 306.963 271.598 296.111 271.692C289.649 271.749 281.886 272.353 278.861 273.036ZM175.845 274.447C168.012 278.62 167.847 288.536 175.545 292.473C182.189 295.87 190.861 290.786 190.861 283.493C190.861 279.994 188.063 275.914 184.504 274.225C180.206 272.186 180.083 272.189 175.845 274.447ZM360.117 274.619C356.623 276.024 353.676 281.491 354.27 285.464C354.93 289.873 357.288 292.359 362.016 293.632C370.223 295.842 376.72 287.974 373.349 279.907C371.244 274.868 365.353 272.514 360.117 274.619ZM128.111 277.296C126.548 277.597 125.861 278.438 125.861 280.051C125.861 282.772 128.974 283.917 133.763 282.96C139.258 281.861 137.013 276.047 131.361 276.74C130.811 276.807 129.349 277.057 128.111 277.296ZM395.861 284.571C395.861 286.931 396.391 287.685 398.408 288.191C401.479 288.962 401.668 288.803 402.476 284.767C403.096 281.665 403.025 281.59 399.486 281.59C396.13 281.59 395.861 281.811 395.861 284.571ZM456.568 287.34C456.341 287.753 456.202 289.89 456.259 292.09L456.361 296.09L466.861 295.753C472.636 295.567 477.73 295.063 478.181 294.633C478.632 294.203 478.694 292.217 478.319 290.22L477.638 286.59H467.309C461.627 286.59 456.794 286.927 456.568 287.34ZM126.861 289.899C126.861 292.664 129.446 294.464 133.861 294.774C138.518 295.101 138.924 294.526 137.345 289.84C136.751 288.076 126.861 288.132 126.861 289.899ZM223.31 293.058C222.513 294.965 221.861 296.974 221.861 297.522C221.861 298.071 220.736 300.534 219.362 302.996C217.987 305.458 217.267 307.723 217.763 308.029C219.187 308.909 231.645 304.717 239.861 300.593C243.986 298.523 251.861 295.386 257.361 293.622C262.861 291.858 267.811 290.265 268.361 290.081C268.911 289.898 259.326 289.712 247.06 289.669L224.759 289.59L223.31 293.058ZM528.216 297.438C519.496 301.755 508.844 306.976 504.546 309.04C500.247 311.104 496.933 312.995 497.18 313.242C497.427 313.49 504.059 311.162 511.916 308.068C533.565 299.546 538.947 297.59 540.73 297.595C541.627 297.597 553.301 308.445 566.671 321.701C580.042 334.957 591.216 345.569 591.501 345.283C592.403 344.381 546.59 289.59 544.934 289.59C544.459 289.59 536.936 293.122 528.216 297.438ZM392.836 297.155C391.38 300.985 391.607 301.59 394.501 301.59C397.333 301.59 399.778 299.182 399.829 296.34C399.853 295.052 399.062 294.59 396.836 294.59C394.51 294.59 393.586 295.182 392.836 297.155ZM76.8606 303.871C68.8496 306.786 66.6916 307.929 60.3606 312.612C53.9246 317.373 46.8846 324.95 42.4356 331.905C38.6556 337.815 33.5686 348.632 34.2496 349.313C34.4786 349.541 37.1196 346.659 40.1186 342.909C59.4356 318.753 77.8206 307.304 99.8606 305.706C107.853 305.127 108.211 305.005 105.861 303.668C104.319 302.79 99.5306 302.103 93.3606 301.875C84.7596 301.557 82.4516 301.836 76.8606 303.871ZM298.311 304.671C297.419 306.114 302.752 311.59 305.048 311.59C307.744 311.59 307.255 309.837 303.638 306.534C300.12 303.32 299.319 303.04 298.311 304.671ZM384.861 309.09C382.136 311.991 383.215 312.233 388.841 309.981C393.528 308.106 394.062 306.59 390.035 306.59C388.314 306.59 386.292 307.567 384.861 309.09ZM423.861 327.531C423.861 329.048 424.918 329.325 433.611 330.081C440.524 330.682 441.861 330.56 441.861 329.33C441.861 328.341 440.345 327.654 437.221 327.226C430.452 326.298 423.861 326.449 423.861 327.531ZM101.611 330.282C98.6346 331.939 96.8606 333.611 96.8606 334.758C96.8606 335.766 97.1986 336.555 97.6106 336.511C99.6726 336.295 107.4 330.743 107.683 329.275C108.118 327.017 107.207 327.168 101.611 330.282ZM268.297 335.165C267.464 340.722 269.194 343.476 270.824 339.188C272.355 335.161 272.141 330.59 270.422 330.59C269.48 330.59 268.747 332.17 268.297 335.165ZM442.861 350.09C442.861 351.369 445.583 351.59 461.361 351.59C477.139 351.59 479.861 351.369 479.861 350.09C479.861 348.811 477.139 348.59 461.361 348.59C445.583 348.59 442.861 348.811 442.861 350.09ZM129.111 351.84C129.412 352.742 132.683 353.09 140.861 353.09C149.039 353.09 152.31 352.742 152.611 351.84C152.929 350.886 150.15 350.59 140.861 350.59C131.572 350.59 128.793 350.886 129.111 351.84ZM158.528 368.257C156.629 370.155 159.02 370.59 171.361 370.59C182.694 370.59 184.861 370.349 184.861 369.09C184.861 367.835 182.768 367.59 172.028 367.59C164.969 367.59 158.894 367.89 158.528 368.257ZM53.8226 397.84C50.3376 399.597 48.7396 401.294 46.5256 405.59C43.9666 410.555 43.7396 411.795 44.1986 418.335C45.1266 431.591 51.7956 438.59 63.4976 438.59C73.6016 438.59 80.2746 433.973 81.5526 426.1L82.1226 422.59H77.4396C73.1276 422.59 72.6726 422.83 71.7036 425.611C70.4696 429.15 68.2006 430.59 63.8606 430.59C59.4386 430.59 56.9116 428.957 55.2756 425.042C52.6256 418.699 53.7216 410.002 57.6676 406.056C59.7256 403.998 61.0306 403.552 64.2936 403.792C67.7446 404.045 68.7196 404.654 70.7756 407.84C72.9596 411.224 73.6186 411.59 77.5286 411.59C81.2226 411.59 81.8606 411.289 81.8606 409.55C81.8606 408.428 80.9346 405.694 79.8016 403.475C75.9226 395.872 63.1986 393.112 53.8226 397.84ZM113.868 397.12C109.595 399.05 106.144 402.181 104.226 405.868C102.126 409.904 101.356 420.529 102.837 425.017C104.419 429.811 109.419 435.507 113.563 437.239C118.296 439.216 127.697 438.959 131.877 436.738C135.957 434.57 139.861 429.291 139.861 425.942C139.861 423.823 139.418 423.59 135.387 423.59C131.468 423.59 130.727 423.948 129.424 426.469C128.605 428.052 127.207 429.627 126.316 429.969C123.062 431.218 118.208 430.562 116.089 428.588C111.341 424.165 110.727 412.573 114.955 407.198C119.03 402.017 127.596 403.133 129.881 409.142C130.684 411.255 131.448 411.59 135.467 411.59H140.123L139.568 408.171C138.827 403.606 136.232 399.833 132.508 397.907C128.058 395.606 118.146 395.188 113.868 397.12ZM157.507 397.539C152.157 400.285 151.019 401.37 148.604 406.023C145.632 411.752 145.599 422.567 148.538 428.09C152.783 436.068 157.332 438.59 167.476 438.59C174.936 438.59 178.254 437.185 182.67 432.154C186.544 427.742 188.244 421.674 187.537 414.778C186.813 407.714 184.089 402.73 178.979 399.12C173.435 395.204 163.484 394.471 157.507 397.539ZM195.308 396.868C195.038 397.571 194.94 407.134 195.089 418.118L195.361 438.09L199.517 438.393L203.673 438.696L204.39 430.083C204.785 425.346 204.882 419.472 204.607 417.03C204.332 414.588 204.389 412.593 204.734 412.597C205.079 412.6 208.687 417.998 212.753 424.592C216.819 431.186 220.725 437.062 221.433 437.65C222.142 438.238 224.44 438.578 226.541 438.405L230.361 438.09L230.631 417.34L230.902 396.59H226.411H221.921L221.641 409.34L221.361 422.09L212.62 408.84L203.878 395.59H199.838C197.481 395.59 195.594 396.122 195.308 396.868ZM245.982 397.3C242.018 399.253 238.87 403.936 238.865 407.89C238.856 414.517 244.03 418.912 255.049 421.637C263.401 423.702 265.527 429.68 258.387 431.019C253.57 431.923 249.869 430.741 248.813 427.963C248.047 425.948 247.228 425.59 243.386 425.59C238.117 425.59 237.598 427.005 240.887 432.4C243.528 436.733 248.241 438.591 256.579 438.586C267.642 438.58 273.727 433.085 272.533 424.179C271.836 418.985 268.621 416.136 261.076 414.029C251.576 411.376 248.861 409.818 248.861 407.018C248.861 402.064 258.175 401.368 261.27 406.091C262.495 407.961 263.681 408.453 266.857 408.409C269.075 408.379 271.061 408.069 271.271 407.722C272.372 405.9 268.447 399.726 264.932 397.75C260.162 395.069 250.954 394.851 245.982 397.3ZM278.556 396.318C277.151 396.66 276.818 397.563 277.056 400.384L277.361 404.01L282.509 403.731C285.341 403.578 287.89 403.829 288.175 404.288C288.459 404.748 288.952 412.542 289.27 421.607L289.848 438.09L294.331 438.394L298.813 438.698L299.087 421.394L299.361 404.09L302.861 404.382C304.786 404.542 307.4 404.414 308.669 404.098C310.641 403.606 310.933 402.981 310.669 399.806L310.361 396.09L295.361 395.984C287.111 395.925 279.549 396.075 278.556 396.318ZM359.134 397.322C358.862 398.031 358.806 405.018 359.009 412.85C359.321 424.829 359.696 427.629 361.37 430.485C365.003 436.682 367.964 438.09 377.361 438.09C386.756 438.09 389.708 436.687 393.361 430.485C395.129 427.484 395.361 425.292 395.361 411.59V396.09H390.861H386.361L385.861 411.431C385.384 426.054 385.25 426.862 383 428.681C379.632 431.404 374.337 431.157 371.316 428.135C368.935 425.755 368.861 425.244 368.861 411.155C368.861 396.911 368.817 396.618 366.611 396.109C363.182 395.318 359.685 395.885 359.134 397.322ZM413.361 397.163C405.456 401.274 402.441 407.596 403.01 418.869C403.316 424.929 403.893 427.04 406.195 430.519C414.691 443.357 438.688 440.22 440.068 426.09C440.348 423.221 440.175 423.077 436.108 422.782C432.375 422.512 431.741 422.775 430.921 424.931C429.077 429.783 422.536 432.092 417.806 429.56C412.797 426.88 411.034 414.098 414.817 407.894C418.423 401.981 427.132 402.347 430.339 408.547C431.692 411.163 432.47 411.59 435.887 411.59C439.745 411.59 439.861 411.49 439.861 408.167C439.861 404.024 435.923 398.932 431.19 396.954C426.787 395.114 417.081 395.228 413.361 397.163ZM446.528 396.257C446.161 396.623 445.861 398.681 445.861 400.829V404.735L451.378 404.479C454.412 404.339 457.325 404.654 457.851 405.18C458.377 405.706 458.932 413.326 459.084 422.113L459.361 438.09H463.361H467.361L467.635 421.34C467.836 409.054 468.236 404.542 469.135 404.409C469.809 404.31 472.611 404.198 475.361 404.159C480.3 404.091 480.365 404.048 480.685 400.695C480.88 398.653 480.482 396.965 479.685 396.46C478.124 395.47 447.502 395.282 446.528 396.257ZM488.091 416.784L488.361 438.09H492.861H497.361V417.09V396.09L492.591 395.784L487.821 395.479L488.091 416.784ZM516.253 397.625C511.111 400.171 508.619 402.916 506.513 408.36C504.646 413.185 504.399 419.386 505.863 424.655C507.219 429.536 513.155 436.202 517.391 437.6C522.83 439.395 531.137 439.106 535.51 436.971C540.152 434.704 545.317 427.391 546.207 421.826C547.127 416.072 545.124 406.666 542.14 402.731C536.938 395.871 524.681 393.453 516.253 397.625ZM556.111 396.402C553.862 396.729 553.861 396.736 553.861 417.16V437.59H558.331H562.801L563.081 424.84L563.361 412.09L571.651 424.742L579.941 437.395L584.471 437.755C586.963 437.953 589.195 437.922 589.432 437.686C589.668 437.45 589.861 428.107 589.861 416.923V396.59H585.457H581.053L580.4 407.34C580.041 413.253 579.636 418.765 579.5 419.59C579.364 420.415 575.693 415.614 571.342 408.922C563.162 396.34 562.166 395.521 556.111 396.402ZM604.361 397.432C598.352 401.106 596.039 406.687 598.291 412.077C600.067 416.328 602.626 418.014 612.072 421.16C620.543 423.981 622.988 426.32 620.289 429.019C616.725 432.583 609.041 431.662 606.759 427.398C605.95 425.888 604.843 425.546 601.547 425.786C597.758 426.061 597.387 426.324 597.637 428.553C598.28 434.292 605.442 438.59 614.361 438.59C624.843 438.59 629.934 434.75 630.634 426.315C631.017 421.697 630.759 420.761 628.48 418.482C626.914 416.915 622.531 414.823 617.379 413.182C607.811 410.134 605.432 407.827 608.436 404.507C610.734 401.968 615.883 402.03 618.672 404.629C619.876 405.75 620.861 407.1 620.861 407.629C620.861 409.257 628.854 408.772 629.493 407.105C630.391 404.766 626.632 399.261 622.827 397.342C618.093 394.953 608.336 395.001 604.361 397.432ZM1.09064 417.34L1.36064 438.09L11.5636 437.98C20.4156 437.885 22.4686 437.524 27.0636 435.257C34.2656 431.704 37.1596 427.257 37.6896 418.928C38.3966 407.824 34.1906 400.818 24.9616 397.728C23.0916 397.102 16.8956 396.59 11.1906 396.59H0.819636L1.09064 417.34ZM317.861 417.59V438.59H322.361H326.861V431.712C326.861 419.878 331.774 419.294 338.434 430.337C342.092 436.4 342.928 437.18 346.625 437.97C354.066 439.559 354.438 438.532 349.373 430.393C344.492 422.549 344.065 421.11 346.355 420.231C348.809 419.289 351.853 413.345 351.857 409.488C351.862 405.315 348.474 399.713 344.831 397.869C343.261 397.075 337.898 396.614 330.111 396.605L317.861 396.59V417.59ZM12.2066 404.357C10.9736 405.141 10.3176 413.158 10.6546 423.34L10.8606 429.59H15.4106C24.7866 429.59 29.2046 424.48 27.9506 415.086C27.5826 412.333 26.9336 409.517 26.5076 408.828C24.7376 405.964 14.6436 402.807 12.2066 404.357ZM161.749 405.09C155.505 408.483 154.428 422.307 159.95 428.185C161.624 429.967 163.272 430.59 166.313 430.59C171.297 430.59 174.609 428.438 176.467 423.991C181.597 411.713 172.072 399.479 161.749 405.09ZM327.267 404.976C326.974 405.738 326.876 408.325 327.048 410.726L327.361 415.09L333.223 415.393C339.732 415.73 342.861 414.014 342.861 410.109C342.861 406.237 338.863 403.59 333.015 403.59C329.492 403.59 327.626 404.04 327.267 404.976ZM519.631 405.691C514.101 409.817 513.531 422.455 518.631 427.84C522.401 431.821 528.862 431.743 532.938 427.667C535.582 425.023 535.861 424.11 535.861 418.101C535.861 414.448 535.345 410.494 534.714 409.316C531.635 403.562 524.713 401.898 519.631 405.691ZM281.881 457.552C281.138 458.941 280.833 463.591 281.039 470.409C281.301 479.093 281.641 481.09 282.861 481.09C284.095 481.09 284.411 478.973 284.644 469.173C284.93 457.125 284.063 453.476 281.881 457.552ZM506.327 456.818C506.033 457.585 505.92 463.36 506.076 469.651C506.31 479.026 506.632 481.09 507.861 481.09C509.114 481.09 509.361 479.044 509.361 468.673C509.361 459.632 509.021 456.143 508.112 455.84C507.424 455.611 506.621 456.051 506.327 456.818ZM0.293637 457.904C0.0166369 458.627 -0.082363 464.14 0.074637 470.154L0.360636 481.09L8.11064 481.382C15.3426 481.655 15.8606 481.538 15.8606 479.632C15.8606 477.803 15.2356 477.59 9.86064 477.59H3.86064V474.178C3.86064 471.004 4.12264 470.726 7.61064 470.19C9.67364 469.873 12.2606 469.721 13.3606 469.852C14.5726 469.996 15.3606 469.503 15.3606 468.599C15.3606 467.46 14.0636 467.106 9.86064 467.099C4.38864 467.09 4.35864 467.073 4.04764 463.84C3.73564 460.61 3.76164 460.59 8.21564 460.59C13.6446 460.59 15.8606 459.834 15.8606 457.983C15.8606 456.045 1.03564 455.97 0.293637 457.904ZM60.0506 458.34C60.2366 459.302 61.0506 460.09 61.8606 460.09C62.6706 460.09 63.4846 459.302 63.6706 458.34C63.9066 457.112 63.3666 456.59 61.8606 456.59C60.3546 456.59 59.8146 457.112 60.0506 458.34ZM140.051 458.34C140.237 459.302 141.051 460.09 141.861 460.09C142.671 460.09 143.485 459.302 143.671 458.34C143.907 457.112 143.367 456.59 141.861 456.59C140.355 456.59 139.815 457.112 140.051 458.34ZM198.08 468.84L198.361 481.09H205.846C212.18 481.09 213.384 480.821 213.67 479.34C213.962 477.828 213.181 477.59 207.934 477.59H201.861V474.09V470.59L206.611 470.575C211.793 470.558 215.51 469.125 212.833 468.176C212.023 467.889 209.336 467.527 206.861 467.372C202.439 467.095 202.361 467.03 202.361 463.59V460.09L208.111 459.79C212.33 459.57 213.861 459.104 213.861 458.04C213.861 456.894 212.179 456.59 205.83 456.59H197.799L198.08 468.84ZM272.861 469.09C272.861 480.596 273.019 481.706 274.611 481.4C276.161 481.102 276.361 479.699 276.361 469.096C276.361 458.494 276.161 457.088 274.611 456.785C273.019 456.474 272.861 457.582 272.861 469.09ZM383.294 457.904C383.017 458.627 382.918 464.14 383.075 470.154L383.361 481.09L391.111 481.382C398.343 481.655 398.861 481.538 398.861 479.632C398.861 477.803 398.236 477.59 392.861 477.59H386.861V467.09C386.861 458.328 386.608 456.59 385.33 456.59C384.487 456.59 383.571 457.181 383.294 457.904ZM402.597 457.188C401.658 458.127 402.935 460.59 404.361 460.59C405.787 460.59 407.064 458.127 406.125 457.188C405.797 456.859 405.003 456.59 404.361 456.59C403.719 456.59 402.925 456.859 402.597 457.188ZM428.861 458.59C428.861 460.096 429.383 460.636 430.611 460.4C431.573 460.214 432.361 459.4 432.361 458.59C432.361 457.78 431.573 456.966 430.611 456.78C429.383 456.544 428.861 457.084 428.861 458.59ZM485.861 469.048V481.59L490.111 481.579C496.929 481.561 501.861 480.462 501.861 478.959C501.861 477.954 500.282 477.59 495.92 477.59C492.652 477.59 489.769 477.25 489.512 476.834C489.255 476.419 489.281 474.844 489.57 473.334C490.064 470.747 490.402 470.59 495.478 470.59C500.194 470.59 500.861 470.342 500.861 468.59C500.861 466.812 500.194 466.59 494.861 466.59C489.808 466.59 488.863 466.314 488.876 464.84C488.905 461.517 490.518 460.457 495.962 460.182C499.811 459.987 501.361 459.504 501.361 458.499C501.361 457.433 499.473 457.019 493.611 456.798L485.861 456.506V469.048ZM26.9076 463.54C26.1086 464.045 24.1646 464.201 22.5876 463.885L19.7216 463.312L20.0406 472.189C20.3116 479.698 20.6306 481.118 22.1106 481.402C23.6326 481.693 23.8606 480.887 23.8606 475.22C23.8606 469.681 24.1836 468.477 26.0156 467.194C29.9056 464.47 31.7266 466.624 32.0656 474.351C32.2926 479.543 32.7046 481.09 33.8606 481.09C35.0576 481.09 35.3606 479.608 35.3606 473.751C35.3606 467.244 35.0926 466.195 32.9996 464.501C30.3816 462.382 29.0666 462.174 26.9076 463.54ZM44.2886 463.627C41.0716 464.817 39.7236 467.174 39.5396 471.931C39.2936 478.287 41.8676 480.962 47.6076 480.315C51.2456 479.905 51.8606 480.102 51.8606 481.678C51.8606 482.691 50.9096 484.029 49.7466 484.651C48.0656 485.551 46.9476 485.413 44.2866 483.98C40.1866 481.772 38.6786 482.853 41.6766 485.851C44.7166 488.89 51.4996 488.754 54.0516 485.602C56.5096 482.566 56.7766 463.59 54.3606 463.59C53.5356 463.59 52.8606 464.095 52.8606 464.712C52.8606 465.465 52.4486 465.513 51.6106 464.857C49.6816 463.347 46.4926 462.812 44.2886 463.627ZM74.8686 463.538C74.0486 464.071 72.3426 464.247 71.0786 463.93C68.7966 463.357 68.7816 463.419 69.0696 471.977C69.4116 482.12 71.1416 483.84 71.8646 474.757C72.2396 470.036 72.8616 468.062 74.3056 467.007C76.5246 465.384 76.9036 465.33 78.5856 466.399C80.0416 467.324 80.6856 470.378 80.7866 476.84C80.8416 480.363 81.2486 481.59 82.3606 481.59C83.5586 481.59 83.8546 480.132 83.8286 474.34C83.8096 470.041 83.2756 466.405 82.5166 465.406C80.8946 463.272 76.8146 462.276 74.8686 463.538ZM90.7836 465.513C83.0086 473.289 91.7916 486.23 100.638 480.033C102.823 478.503 103.705 475.59 101.983 475.59C101.501 475.59 100.546 476.265 99.8606 477.09C97.3296 480.139 91.8606 478.293 91.8606 474.39C91.8606 472.857 92.7496 472.59 97.8606 472.59C103.535 472.59 103.861 472.459 103.861 470.179C103.861 467.368 98.7266 462.59 95.7066 462.59C94.6066 462.59 92.3916 463.905 90.7836 465.513ZM112.163 463.602C109.583 464.641 106.861 469.447 106.861 472.964C106.861 476.996 111.435 481.59 115.45 481.59C118.751 481.59 122.861 478.817 122.861 476.59C122.861 475.111 120.932 475.376 119.218 477.09C117.277 479.031 114.415 479.001 112.432 477.019C109.167 473.753 110.46 472.59 117.361 472.59C121.233 472.59 123.861 472.166 123.861 471.54C123.861 469.106 120.58 464.434 118.248 463.547C115.312 462.431 115.066 462.433 112.163 463.602ZM134.452 463.333C134.073 463.711 132.362 464.037 130.651 464.056L127.538 464.09L127.62 472.59C127.685 479.378 128.01 481.153 129.234 481.404C130.47 481.658 130.824 480.4 131.064 474.914C131.339 468.605 131.562 468.013 134.111 466.795C135.623 466.072 136.861 465.082 136.861 464.594C136.861 463.342 135.273 462.511 134.452 463.333ZM149.519 463.265C148.697 464.087 148.643 480.038 149.459 480.854C149.788 481.183 150.677 481.214 151.434 480.923C152.41 480.549 152.787 478.618 152.727 474.309C152.659 469.536 153.029 467.94 154.442 466.907C156.57 465.351 156.894 465.326 158.861 466.568C159.922 467.238 160.411 469.5 160.531 474.303C160.663 479.596 161.048 481.161 162.281 481.413C163.617 481.687 163.861 480.494 163.861 473.686C163.861 466.12 163.705 465.534 161.26 463.932C159.099 462.516 158.14 462.424 155.587 463.387C153.584 464.144 152.108 464.21 151.346 463.577C150.703 463.044 149.881 462.903 149.519 463.265ZM173.187 463.351C169.672 463.93 167.553 468.161 168.145 473.419C168.794 479.177 170.919 480.902 176.611 480.291C181.408 479.777 182.165 481.1 178.811 484.135C176.814 485.943 176.671 485.942 173.305 484.13C169.56 482.113 167.8 482.684 169.492 485.366C170.868 487.548 176.385 488.652 179.857 487.441C183.749 486.085 184.861 482.749 184.861 472.426V463.357L182.162 463.873C180.677 464.157 178.539 464.075 177.412 463.691C176.284 463.308 174.383 463.155 173.187 463.351ZM238.881 463.85C236.063 465.304 233.897 468.998 233.876 472.39C233.854 475.751 236.521 480.347 238.937 481.114C242.273 482.173 247.723 480.716 248.941 478.44C250.542 475.449 248.648 474.063 246.382 476.566C243.991 479.209 241.355 479.134 239.418 476.367C237.015 472.937 237.441 468.911 240.413 466.964C242.84 465.374 243.109 465.397 245.873 467.441C249.266 469.949 249.861 470.069 249.861 468.245C249.861 464.592 242.869 461.793 238.881 463.85ZM258.163 463.58C255.622 464.629 252.861 469.438 252.861 472.818C252.861 475.11 255.235 479.388 257.303 480.825C260.814 483.263 270.726 479.055 267.968 476.297C267.222 475.551 266.36 475.733 265.056 476.914C262.737 479.012 260.462 479.048 258.432 477.019C255.238 473.825 256.473 472.59 262.861 472.59C268.52 472.59 268.861 472.454 268.861 470.201C268.861 465.229 262.984 461.592 258.163 463.58ZM291.548 465.395C285.812 471.382 289.35 481.59 297.161 481.59C300.509 481.59 303.861 479.174 303.861 476.761C303.861 475.133 302.348 475.298 300.861 477.09C298.33 480.139 292.861 478.293 292.861 474.39C292.861 472.857 293.75 472.59 298.861 472.59C305.327 472.59 306.085 471.757 303.698 467.274C300.834 461.898 295.664 461.098 291.548 465.395ZM314.869 463.564C314.049 464.082 312.361 464.252 311.119 463.94C308.899 463.383 308.861 463.525 308.861 472.482C308.861 477.506 309.283 481.59 309.802 481.59C311.321 481.59 311.862 480.046 311.961 475.43C312.088 469.539 312.669 467.763 314.856 466.593C318.425 464.683 319.6 466.315 320.34 474.207C321.249 483.91 323.246 483.704 323.653 473.865C323.927 467.233 323.78 466.672 321.268 464.695C318.315 462.373 317.095 462.157 314.869 463.564ZM331.861 464.23C328.31 466.707 327.894 467.56 327.876 472.385C327.849 479.92 334.829 484.103 340.638 480.033C342.938 478.422 343.672 475.59 341.79 475.59C341.2 475.59 340.043 476.265 339.218 477.09C336.996 479.312 334.119 478.913 332.296 476.131C330.172 472.889 331.19 468.287 334.413 466.562C336.587 465.399 337.133 465.497 339.179 467.419C342.013 470.081 342.861 470.149 342.861 467.712C342.861 463.586 335.93 461.391 331.861 464.23ZM351.861 463.299C348.199 464.646 346.861 466.918 346.861 471.79C346.861 477.933 349.958 481.59 355.161 481.59C358.989 481.59 362.942 478.271 361.195 476.524C360.503 475.832 359.765 476 358.896 477.048C357.11 479.2 353.515 478.971 351.34 476.566C348.849 473.814 350.234 472.768 356.861 472.397C362.059 472.107 362.347 471.953 362.107 469.59C361.639 464.996 356.249 461.686 351.861 463.299ZM443.381 463.557C443.052 464.089 441.433 464.254 439.781 463.924L436.779 463.324L437.07 472.207C437.303 479.307 437.662 481.09 438.861 481.09C440.017 481.09 440.429 479.543 440.656 474.351C440.897 468.87 441.317 467.416 442.906 466.566C444.273 465.834 445.462 465.841 446.861 466.59C448.536 467.486 448.861 468.684 448.861 473.959C448.861 480.627 449.264 481.756 451.356 480.953C452.32 480.584 452.532 478.596 452.178 473.272C451.806 467.682 451.25 465.702 449.67 464.34C447.447 462.424 444.322 462.035 443.381 463.557ZM460.881 463.882C458.16 465.25 455.897 468.966 455.879 472.09C455.873 473.19 456.794 475.608 457.925 477.463C459.87 480.654 460.225 480.809 464.476 480.33C468.56 479.87 468.942 480.009 468.665 481.855C468.147 485.317 465.274 486.348 461.753 484.336C458.1 482.248 456.021 483.004 458.347 485.575C460.476 487.927 465.478 488.864 468.193 487.418C472.189 485.29 472.796 483.45 472.829 473.38L472.861 463.671L470.111 463.834C468.599 463.924 466.461 463.691 465.361 463.316C464.261 462.941 462.245 463.195 460.881 463.882ZM518.163 463.58C516.955 464.079 515.227 465.915 514.325 467.66C509.939 476.141 519.08 485.327 526.638 480.033C529.107 478.304 529.623 475.59 527.483 475.59C526.726 475.59 525.546 476.265 524.861 477.09C523.032 479.294 519.123 478.947 517.793 476.463C516.247 473.574 517.929 472.625 524.63 472.605C529.864 472.59 529.895 472.572 529.259 469.84C528.032 464.575 522.846 461.649 518.163 463.58ZM538.169 463.654C534.512 465.037 532.528 469.071 533.166 473.826C533.476 476.138 534.517 478.597 535.486 479.305C537.631 480.874 542.068 480.983 543.548 479.503C545.471 477.58 546.169 480.472 544.424 483.134C542.608 485.906 539.717 486.327 537.861 484.09C536.301 482.21 533.861 482.136 533.861 483.968C533.861 485.967 535.863 487.318 539.959 488.083C542.897 488.632 544.036 488.327 546.165 486.423C548.606 484.239 548.788 483.453 549.02 474.09L549.267 464.09L545.706 463.987C543.748 463.93 541.744 463.645 541.253 463.354C540.762 463.063 539.375 463.198 538.169 463.654ZM579.361 463.565C578.261 464.024 576.33 464.164 575.07 463.876C572.8 463.357 572.782 463.43 573.07 472.221C573.293 479.018 573.688 481.09 574.761 481.09C575.775 481.09 576.275 479.298 576.575 474.59C576.96 468.54 578.404 465.59 580.981 465.59C583.44 465.59 584.861 469.125 584.861 475.245C584.861 480.008 585.197 481.646 586.111 481.343C586.916 481.077 587.465 478.395 587.654 473.803C587.904 467.723 587.647 466.376 585.904 464.633C583.716 462.445 582.515 462.249 579.361 463.565ZM594.901 465.396C588.835 471.462 592.112 481.59 600.141 481.59C604.345 481.59 609.005 477.331 606.994 475.327C606.008 474.344 605.39 474.571 603.983 476.433C601.626 479.551 597.824 479.02 596.058 475.324C594.625 472.325 595.125 469.469 597.498 467.096C599.583 465.011 601.431 465.212 603.828 467.784C605.423 469.497 606.137 469.714 607.078 468.773C608.744 467.107 605.396 463.847 601.148 462.997C598.452 462.458 597.457 462.841 594.901 465.396ZM614.834 464.282C611.338 466.674 610.894 467.563 610.876 472.205C610.856 477.734 613.869 481.59 618.211 481.59C621.84 481.59 625.861 479.195 625.861 477.033C625.861 475.162 624.438 475.189 622.861 477.09C620.303 480.173 614.861 478.286 614.861 474.316C614.861 472.724 615.576 472.466 619.611 472.605C626.616 472.845 626.861 472.774 626.861 470.513C626.861 467.935 621.666 462.59 619.16 462.59C618.141 462.59 616.193 463.351 614.834 464.282ZM60.3486 467.84C59.3506 474.533 60.0986 481.09 61.8606 481.09C63.0576 481.09 63.4186 479.323 63.6496 472.34C63.8866 465.157 63.6736 463.59 62.4606 463.59C61.4886 463.59 60.7666 465.044 60.3486 467.84ZM140.572 464.34C140.348 464.753 140.209 468.69 140.263 473.09C140.341 479.491 140.661 481.09 141.861 481.09C143.058 481.09 143.419 479.323 143.65 472.34C143.887 465.152 143.675 463.59 142.459 463.59C141.645 463.59 140.796 463.927 140.572 464.34ZM217.861 465.09C217.861 465.915 218.256 466.59 218.74 466.59C219.223 466.59 220.18 467.945 220.865 469.601C221.987 472.308 221.85 473.009 219.504 476.553C216.05 481.772 218.064 483.306 222.073 478.509C225.079 474.911 225.113 474.919 227.93 479.84C229.079 481.849 231.872 482.206 231.839 480.34C231.827 479.653 230.937 477.965 229.861 476.59C227.347 473.376 227.366 471.127 229.943 466.958C231.642 464.208 231.747 463.59 230.515 463.59C229.685 463.59 228.035 464.824 226.848 466.333L224.691 469.076L222.692 466.333C220.528 463.362 217.861 462.676 217.861 465.09ZM403.072 472.259C403.266 478.09 403.77 481.064 404.611 481.343C405.55 481.654 405.861 479.494 405.861 472.673C405.861 465.164 405.594 463.59 404.322 463.59C403.033 463.59 402.83 464.997 403.072 472.259ZM409.861 463.815C409.861 465.269 415.931 481.11 416.564 481.308C418.327 481.86 419.728 479.753 422.234 472.78C425.274 464.321 425.368 463.59 423.412 463.59C422.533 463.59 421.282 465.752 420.229 469.09C419.276 472.115 418.184 474.59 417.804 474.59C417.423 474.59 416.264 472.233 415.229 469.352C414.077 466.15 412.669 463.984 411.603 463.779C410.645 463.594 409.861 463.61 409.861 463.815ZM428.861 472.59C428.861 479.923 429.139 481.59 430.361 481.59C431.583 481.59 431.861 479.923 431.861 472.59C431.861 465.257 431.583 463.59 430.361 463.59C429.139 463.59 428.861 465.257 428.861 472.59ZM555.355 465.596C553.226 467.949 554.186 469.572 556.659 467.798C559.724 465.6 561.109 465.257 562.747 466.29C565.526 468.043 564.547 469.962 560.439 470.815C555.327 471.877 553.861 473.197 553.861 476.734C553.861 480.502 557.341 482.315 561.673 480.805C563.696 480.1 564.967 480.096 565.664 480.793C566.227 481.356 567.068 481.58 567.534 481.292C568.903 480.446 568.393 466.936 566.925 465.167C564.966 462.807 557.634 463.078 555.355 465.596ZM44.5156 467.419C42.4356 469.717 42.3946 473.479 44.4176 476.367C46.1886 478.896 47.6016 479.103 50.1076 477.2C52.9846 475.016 53.4236 470.153 50.9646 467.694C48.3796 465.109 46.6716 465.036 44.5156 467.419ZM93.0606 466.79C90.6876 469.163 91.7386 470.59 95.8606 470.59C98.4756 470.59 99.8606 470.14 99.8606 469.29C99.8606 467.503 97.7926 465.59 95.8606 465.59C94.9806 465.59 93.7206 466.13 93.0606 466.79ZM113.084 467.147C109.695 469.52 110.403 470.59 115.361 470.59C120.252 470.59 121.559 468.569 117.927 466.625C115.495 465.324 115.721 465.3 113.084 467.147ZM174.547 466.733C172 468.176 170.966 471.594 172.096 474.835C172.834 476.951 173.702 477.59 175.836 477.59C179.429 477.59 181.077 475.524 180.679 471.519C180.291 467.613 177.222 465.218 174.547 466.733ZM258.399 466.938C255.878 468.782 257.291 470.59 261.253 470.59C265.455 470.59 266.277 469.708 264.208 467.421C262.234 465.24 260.877 465.127 258.399 466.938ZM294.611 466.67C291.425 468.526 292.523 470.59 296.694 470.59C301.446 470.59 302.343 469.78 300.208 467.421C298.34 465.357 297.141 465.196 294.611 466.67ZM351.423 467.171C349.256 469.338 350.331 470.59 354.361 470.59C358.418 470.59 359.869 468.8 357.323 466.938C354.911 465.175 353.358 465.236 351.423 467.171ZM461.418 467.813C457.586 473.283 462.386 481.14 467.006 476.959C470.508 473.79 468.59 465.59 464.346 465.59C463.592 465.59 462.274 466.59 461.418 467.813ZM518.611 466.67C515.425 468.526 516.523 470.59 520.694 470.59C525.446 470.59 526.343 469.78 524.208 467.421C522.34 465.357 521.141 465.196 518.611 466.67ZM537.877 468.297C533.477 473.891 539.348 480.96 544.29 476.019C546.291 474.017 546.297 470.657 544.304 467.813C542.246 464.874 540.464 465.008 537.877 468.297ZM616.611 466.67C613.366 468.56 614.531 470.59 618.861 470.59C622.983 470.59 624.034 469.163 621.661 466.79C620.216 465.345 618.939 465.314 616.611 466.67ZM558.39 473.945C555.976 475.71 557.055 478.59 560.13 478.59C562.916 478.59 564.861 476.864 564.861 474.39C564.861 472.201 561.126 471.945 558.39 473.945ZM365.861 479.121C365.861 480.85 368.248 482.087 369.769 481.147C371.333 480.18 369.865 477.59 367.754 477.59C366.713 477.59 365.861 478.279 365.861 479.121ZM629.861 478.923C629.861 480.804 630.823 481.542 632.459 480.914C634.586 480.098 634.135 477.59 631.861 477.59C630.761 477.59 629.861 478.19 629.861 478.923Z" fill="#013B63"/>
</svg>
