<svg width="650" height="500" viewBox="0 0 650 500" fill="none" xmlns="http://www.w3.org/2000/svg">
<path fill-rule="evenodd" clip-rule="evenodd" d="M311 0.874053C282.799 3.50105 258.72 10.446 232.617 23.482C200.9 39.322 175.508 61.7711 155.298 91.8391C152.514 95.9801 149.621 99.8331 148.869 100.401C148.116 100.969 144.203 102.728 140.173 104.312C133.881 106.783 132.421 107.03 129.841 106.056C126.215 104.687 122.436 105.861 121.558 108.627C120.98 110.448 117.76 112.001 108.77 114.793C105.674 115.755 104.659 115.685 102.798 114.381C99.138 111.818 96.172 112.404 93.976 116.126C92.69 118.305 89.359 120.943 84.26 123.821C79.992 126.229 74.21 129.635 71.41 131.389C68.611 133.144 64.431 134.899 62.121 135.289C56.828 136.184 54.602 139.17 55.532 144.129C56.178 147.574 56.108 147.659 49.343 151.618C41.03 156.483 38.882 158.698 35.576 165.81C31.902 173.715 32.01 182.214 35.889 190.414C38.338 195.59 41.002 198.547 53.408 209.863C61.455 217.202 69.277 223.728 70.791 224.364C72.304 225 74.817 227.192 76.374 229.234C80.322 234.41 87.047 239.168 88.429 237.764C89.193 236.988 88.998 236.304 87.75 235.382C85.262 233.545 85.412 231.425 87.934 232.775C92.508 235.223 92.029 233.29 86.355 226.397L81.709 220.754L82.351 212.405C82.704 207.813 84.301 198.264 85.899 191.183C87.498 184.103 89.778 173.36 90.967 167.31C93.81 152.84 93.821 152.81 96.101 152.81C97.182 152.81 100.189 151.747 102.783 150.448C105.377 149.149 109.975 147.289 113 146.315C116.025 145.341 125.025 141.929 133 138.734C167.801 124.79 215.007 106.81 216.815 106.81C217.824 106.81 217.681 106.443 228.478 136.81C232.682 148.635 236.822 160.11 237.677 162.31C238.532 164.51 240.939 171.26 243.025 177.31C245.112 183.36 247.727 190.608 248.838 193.417L250.858 198.524L246.518 213.917C244.132 222.383 241.671 231.223 241.051 233.56C240.43 235.897 239.378 237.808 238.711 237.806C237.061 237.8 230.17 234.163 220.085 227.974C215.457 225.134 210.903 222.81 209.966 222.81C209.029 222.81 202.691 224.575 195.881 226.733C179.494 231.925 159.286 238.167 150 240.904C137.84 244.488 130.766 250.399 125.406 261.456C122.844 266.74 122.533 268.526 122.207 279.81C121.97 288.027 122.329 294.624 123.254 299.063C124.028 302.777 124.465 306.011 124.227 306.25C123.988 306.488 120.127 305.306 115.647 303.622C105.081 299.652 90.927 298.701 81 301.296C59.265 306.975 42.005 322.165 30.017 346.163C22.418 361.374 21.89 363.791 25.402 367.303L28.027 369.928L107.763 369.744C198.222 369.535 189.818 368.842 211 378.261C237.433 390.014 263.326 395.197 295.5 395.176C329.587 395.154 352.297 390.414 386 376.286C392.875 373.404 399.884 370.75 401.575 370.387C403.267 370.025 453.962 369.574 514.232 369.385C574.502 369.197 624.306 368.739 624.907 368.367C626.997 367.076 626.066 361.955 623.131 358.595C619.682 354.646 591.561 320.99 577.213 303.638C566.69 290.912 563.066 287.81 558.72 287.81C557.36 287.81 544.975 293.435 531.198 300.31C517.42 307.185 505.706 312.81 505.167 312.81C504.627 312.81 507.864 305.497 512.36 296.559C529.637 262.21 536.898 230.604 535.622 195.31C534.652 168.483 530.003 146.8 520.349 124.069C517.957 118.437 516 113.599 516 113.319C516 113.039 525.245 112.81 536.545 112.81C557.026 112.81 557.099 112.802 559.545 110.355C560.895 109.005 562 106.79 562 105.432C562 102.771 557.589 96.8101 555.619 96.8101C554.958 96.8101 552.423 94.779 549.986 92.296C545.452 87.676 540.316 85.4421 536.456 86.4101C534.727 86.8441 533.583 85.9681 530.772 82.0561C526.393 75.9601 521.376 73.3851 514 73.4461C507.878 73.4971 503.19 75.482 500.194 79.29C499.104 80.676 497.768 81.8101 497.226 81.8101C496.684 81.8101 494.441 79.4471 492.243 76.5601C482.562 63.8461 463.512 46.4071 447.484 35.5851C408.145 9.02705 358.642 -3.56295 311 0.874053ZM308 8.79005C261.102 13.4191 214.35 36.3231 181.953 70.5391C173.466 79.5021 163 92.8711 163 94.7481C163 95.3341 165.76 94.754 169.287 93.426C172.745 92.125 176.682 91.032 178.037 90.997C179.392 90.963 187.132 88.714 195.238 85.999C206.912 82.091 210.81 80.311 213.991 77.437C217.604 74.173 218.569 73.8101 223.635 73.8101C230.183 73.8101 234.532 76.0281 237.342 80.8001C238.91 83.4651 239.599 83.8371 241.988 83.3131C245.466 82.5491 250.695 84.6791 253.917 88.1731C259.231 93.9361 256.959 107.854 249.883 112.894C248.297 114.023 247 115.665 247 116.544C247 117.423 248.97 121.33 251.379 125.226C257.904 135.783 259 138.31 259 142.792C259 151.649 263.684 157.2 270.674 156.625C274.182 156.336 274.526 156.04 274.813 153.06C275.1 150.092 274.882 149.809 272.313 149.795C270.766 149.786 268.848 149.367 268.052 148.863C266.214 147.701 265.41 136.391 266.892 132.552L267.957 129.793L323.728 130.052L379.5 130.31L379.794 138.155C380.131 147.163 379.294 148.81 374.378 148.81C371.236 148.81 371 149.036 371 152.049C371 156.21 375.637 178.376 377.92 185.127C379.638 190.209 379.768 190.326 384.586 191.155C406.031 194.841 410.225 200.463 410.049 225.296C409.948 239.641 408.384 250.234 405.56 255.693C404.004 258.702 404.024 258.771 406.89 260.253C411.44 262.606 416.794 269.59 418.472 275.361C421.183 284.688 420.064 298.493 415.888 307.234C414.857 309.392 414.233 311.376 414.5 311.644C415.387 312.531 422.648 309.858 424.211 308.069C426.882 305.011 428.063 299.383 428.09 289.588C428.128 275.782 423.885 264.584 415.753 257.023L413.293 254.736L415.248 247.023C416.732 241.168 417.202 235.917 417.199 225.224C417.194 207.488 415.532 200.691 409.598 194.151C405.926 190.103 404.512 189.35 396 186.911L386.5 184.189L386.211 175.5C385.988 168.778 385.599 166.81 384.496 166.81C382.703 166.81 381 163.711 381 160.445C381 158.618 381.603 157.863 383.25 157.63C385.196 157.353 385.537 156.635 385.772 152.31C385.922 149.56 386.482 145.735 387.017 143.81C388.292 139.219 388.266 132.175 386.964 129.742C386.394 128.677 385.831 124.769 385.714 121.058L385.5 114.31L381.75 114L378 113.689V118.25C378 122.65 377.895 122.81 375 122.81C372.105 122.81 372 122.65 372 118.25V113.689L368.25 114C364.61 114.301 364.491 114.435 364.193 118.56L363.885 122.81H356.943H350V83.3101V43.8101H380.481H410.962L411.231 66.0601L411.5 88.3101L435.197 88.3941C452.961 88.4571 459.283 88.8 460.447 89.766C461.802 90.89 462 95.961 462 129.432V167.81H481H500L500.032 235.06C500.068 311.001 499.352 306.188 507.956 288.31C522.014 259.099 527.983 233.578 527.994 202.632C528.003 178.206 525.619 162.848 518.475 141.31C514.24 128.541 509.441 117.251 506.994 114.303C506.148 113.284 503.859 112.81 499.779 112.81C489.012 112.81 484 108.549 484 99.3941C484 95.8041 484.614 94.1801 487 91.4631C488.65 89.5841 490 87.6961 490 87.2691C490 85.6611 481.978 75.9941 473.394 67.2561C451.192 44.657 423.187 27.2681 393.684 17.7641C385.804 15.2251 380.978 14.0501 361 9.80505C354.094 8.33805 319.323 7.67205 308 8.79005ZM505.701 51.4421C505.316 51.8281 505 53 505 54.046C505 55.448 505.593 55.8651 507.25 55.6301C508.721 55.4211 509.5 54.6221 509.5 53.3241C509.5 51.3401 507.028 50.1161 505.701 51.4421ZM364.714 59.4291C364.321 59.8221 364 63.6381 364 67.909C364 74.797 364.226 75.7471 366 76.3101C367.1 76.6591 368.918 76.6541 370.039 76.2981C371.905 75.7051 372.054 74.957 371.789 67.48L371.5 59.3101L368.464 59.0131C366.794 58.8491 365.107 59.0371 364.714 59.4291ZM378.714 59.4291C378.321 59.8221 378 63.6681 378 67.9771V75.8101H382.04H386.081L385.79 67.5601L385.5 59.3101L382.464 59.0131C380.794 58.8491 379.107 59.0371 378.714 59.4291ZM391.714 59.4291C391.321 59.8221 391 63.6381 391 67.909C391 74.797 391.226 75.7471 393 76.3101C394.1 76.6591 395.918 76.6541 397.039 76.2981C398.905 75.7051 399.054 74.957 398.789 67.48L398.5 59.3101L395.464 59.0131C393.794 58.8491 392.107 59.0371 391.714 59.4291ZM126.364 69.303C126.018 70.206 126.214 71.424 126.8 72.01C128.324 73.534 131.21 72.1411 130.812 70.0751C130.369 67.7731 127.165 67.217 126.364 69.303ZM505.72 81.751C503.741 83.489 501.61 86.4621 500.984 88.3601C500.116 90.9891 499.287 91.8101 497.499 91.8101C496.209 91.8101 493.769 92.9751 492.077 94.3991C488.19 97.6691 487.958 101.859 491.469 105.37L493.938 107.839L524.719 107.574L555.5 107.31V104.848C555.5 102.834 554.828 102.226 551.819 101.514C549.054 100.861 547.891 99.936 547.147 97.801C545.546 93.209 541.871 91.4321 535.519 92.1791L530.096 92.816L528.184 88.5631C525.172 81.8651 521.952 79.506 515.145 79.014C509.746 78.624 509.052 78.825 505.72 81.751ZM218.913 81.092C214.244 84.677 214.489 91.1021 219.473 95.7851C221.424 97.6171 222.563 97.9271 225.401 97.3951C232.642 96.0361 235.568 87.095 230.354 82.262C227.436 79.558 221.678 78.969 218.913 81.092ZM221.25 84.4721C220.563 84.7501 220 86.506 220 88.374C220 91.164 220.447 91.8841 222.498 92.3991C227.434 93.6381 230.166 90.6651 228.153 86.2461C227.083 83.8981 224.388 83.2061 221.25 84.4721ZM364.667 86.4771C363.659 87.4841 363.867 102.61 364.897 103.247C365.391 103.552 367.191 103.522 368.897 103.181L372 102.56V94.1851V85.8101H368.667C366.833 85.8101 365.033 86.1101 364.667 86.4771ZM378 94.7501V103.81H380.878C385.218 103.81 386.129 101.929 385.796 93.652L385.5 86.3101L381.75 86.0001L378 85.689V94.7501ZM391 94.8731V103.937L394.25 103.623C397.491 103.311 397.502 103.291 398.381 96.1231C399.493 87.0571 399.027 85.8101 394.531 85.8101H391V94.8731ZM193 92.469C185.575 95.008 178.713 97.7681 177.75 98.6021C175.969 100.146 175.358 102.81 176.785 102.81C177.216 102.81 183.75 100.56 191.303 97.8101C198.856 95.0601 205.671 92.8101 206.447 92.8101C208.313 92.8101 211.171 89.8961 210.45 88.7291C209.48 87.1591 206.935 87.705 193 92.469ZM245.234 97.8391C243.438 99.4731 241.301 100.81 240.484 100.81C238.445 100.81 238.63 102.691 241.062 106.68L243.116 110.049L245.687 107.68C248.901 104.717 251.283 99.2761 250.477 96.7371C249.671 94.1991 249.105 94.3181 245.234 97.8391ZM158 103.75C152.775 105.865 144.773 109.05 140.218 110.828C131.312 114.304 128.943 116.61 131.573 119.241C133.589 121.256 134.819 121.213 138.5 118.995C140.15 118.001 148.611 114.345 157.303 110.87C171.257 105.292 173.07 104.305 172.803 102.432C172.332 99.136 168.569 99.4711 158 103.75ZM420.714 105.43C420.321 105.822 420 109.629 420 113.889V121.634L424.096 122.326C426.371 122.711 428.614 122.596 429.141 122.069C429.663 121.547 429.957 117.563 429.795 113.215L429.5 105.31L425.464 105.013C423.244 104.85 421.106 105.037 420.714 105.43ZM439.667 105.477C439.3 105.843 439 109.668 439 113.977V121.81H443.371H447.742L448.413 115.001C449.289 106.104 448.737 104.81 444.06 104.81C442.01 104.81 440.033 105.11 439.667 105.477ZM391 121.75V129.81H394.481C398.596 129.81 399.288 128.202 398.809 119.757L398.5 114.31L394.75 114L391 113.689V121.75ZM113.25 120.003C108.713 121.69 105 123.444 105 123.9C105 125.293 110.38 129.81 112.04 129.81C112.898 129.81 114.028 129.419 114.55 128.941C115.072 128.464 117.652 127.272 120.283 126.293C122.913 125.314 125.294 124.143 125.574 123.691C126.179 122.712 123.266 116.782 122.224 116.873C121.826 116.908 117.787 118.316 113.25 120.003ZM527.19 120.56C527.5 122.166 529.416 122.31 550.5 122.31C571.584 122.31 573.5 122.166 573.81 120.56C574.123 118.933 572.482 118.81 550.5 118.81C528.518 118.81 526.877 118.933 527.19 120.56ZM84.5 131.106C71.441 138.687 71.963 138.211 76 138.858C81.375 139.72 96.385 139.983 98.297 139.25C101.751 137.924 99.035 125.772 95.301 125.846C94.31 125.865 89.45 128.233 84.5 131.106ZM580.38 131.262C579.224 134.275 581.141 134.81 593.09 134.81C603.145 134.81 605.161 134.554 605.677 133.209C606.707 130.526 603.984 129.841 592.219 129.825C583.268 129.813 580.822 130.11 580.38 131.262ZM420 140.236C420 148.41 420.102 148.797 422.398 149.374C423.717 149.705 425.855 149.826 427.148 149.643C429.407 149.323 429.5 148.973 429.5 140.81V132.31L424.75 132.005L420 131.7V140.236ZM439.667 132.477C439.3 132.843 439 136.62 439 140.87C439 149.05 439.465 149.829 444.332 149.795C448.752 149.763 449.212 148.664 448.452 139.951L447.742 131.81H444.038C442 131.81 440.033 132.11 439.667 132.477ZM280 141.31V143.831L323.25 143.571C365.746 143.315 366.5 143.275 366.5 141.31C366.5 139.345 365.746 139.305 323.25 139.049L280 138.789V141.31ZM391 148.31V156.81H394.387H397.774L398.219 149.56C398.464 145.572 398.467 141.748 398.225 141.06C397.984 140.373 396.259 139.81 394.393 139.81H391V148.31ZM134.327 142.363C132.581 143.128 130.904 144.156 130.6 144.648C129.264 146.81 124.966 166.286 123.55 176.594C121.377 192.412 121.551 216.261 123.951 231.812C125.013 238.689 126.261 245.34 126.724 246.593L127.567 248.872L130.442 245.871L133.316 242.871L131.477 232.59C129.239 220.087 128.875 191.862 130.772 178.045C132.156 167.966 135.186 154.37 137.523 147.744C140.057 140.562 139.723 139.999 134.327 142.363ZM280.996 151.56C280.99 152.563 276.104 175.89 270.994 199.31C266.9 218.072 266.864 218.416 268.079 226.81C268.756 231.485 269.713 236.11 270.205 237.088C271.609 239.877 272.999 238.098 273.007 233.501C273.015 227.838 276.104 207.712 280.863 182.31C283.027 170.76 285.11 158.947 285.493 156.06C286.176 150.897 286.145 150.81 283.594 150.81C282.167 150.81 280.998 151.148 280.996 151.56ZM292.531 152.021C292.02 153.532 286.468 182.355 285.492 188.56C284.75 193.28 285.894 194.111 288.247 190.56C289.592 188.53 290.753 188.261 300.119 187.81L310.5 187.31V169.31V151.31L301.734 151.021C295.263 150.807 292.853 151.069 292.531 152.021ZM320 169.31V187.885L329.25 187.598L338.5 187.31V169.31V151.31L329.25 151.022L320 150.735V169.31ZM347.227 169.06L347.5 187.31L358 187.869C363.775 188.176 368.653 188.324 368.839 188.196C369.026 188.069 368.688 185.568 368.089 182.638C366.902 176.825 363 153.096 363 151.685C363 151.204 359.39 150.81 354.977 150.81H346.955L347.227 169.06ZM73.053 153.246C71.766 154.797 68.066 187.365 68.025 197.501C67.998 204.082 69.351 206.427 70.974 202.616C72.113 199.945 77.091 153.766 76.367 152.594C75.631 151.404 74.377 151.651 73.053 153.246ZM420.714 159.43C420.321 159.822 420 163.918 420 168.531V176.92L424.75 176.615L429.5 176.31V167.81V159.31L425.464 159.013C423.244 158.85 421.106 159.037 420.714 159.43ZM440.205 159.662C439.28 160.249 438.994 162.742 439.205 168.397L439.5 176.31L443.75 176.617L448 176.925V167.867V158.81L444.75 158.825C442.962 158.834 440.917 159.21 440.205 159.662ZM391 175.31V183.81H394.5H398V175.31V166.81H394.5H391V175.31ZM559.25 173.06C559.479 173.748 560.267 174.31 561 174.31C561.733 174.31 562.521 173.748 562.75 173.06C562.998 172.316 562.289 171.81 561 171.81C559.711 171.81 559.002 172.316 559.25 173.06ZM467.398 184.215C467.102 184.987 467.003 187.125 467.18 188.965L467.5 192.31L478.75 192.593L490 192.876V187.843V182.81H478.969C470.418 182.81 467.816 183.126 467.398 184.215ZM420 195.255V203.81H425.04H430.081L429.79 195.56L429.5 187.31L424.75 187.005L420 186.7V195.255ZM439.419 188.159C439.135 188.901 439.036 192.614 439.201 196.409L439.5 203.31L443.382 203.628C445.517 203.803 447.629 203.578 448.076 203.128C448.523 202.678 448.624 198.822 448.3 194.56L447.711 186.81H443.824C441.485 186.81 439.731 187.347 439.419 188.159ZM253.022 210.02C250.641 218.98 247.99 228.875 247.131 232.011C246.271 235.146 245.781 237.925 246.042 238.185C247.019 239.162 252.493 239.269 252.333 238.308C251.816 235.213 254.301 220.413 256.903 211.084C260.642 197.684 261.026 194.45 258.925 194.039C257.677 193.795 256.453 197.109 253.022 210.02ZM318.699 194.444C318.315 194.829 318 196.174 318 197.435C318 199.6 318.424 199.742 325.739 200.018C332.146 200.26 333.535 200.608 333.809 202.043C334.115 203.645 332.198 203.796 308.428 204.043C285.037 204.286 282.617 204.47 281.608 206.088C280.75 207.465 280.839 208.083 282 208.823C282.851 209.366 294.456 209.786 308.823 209.795C331.288 209.808 334.11 209.987 333.823 211.378C333.539 212.757 330.348 212.935 307.368 212.848C280.073 212.746 280 212.757 280 216.875C280 217.382 291.72 217.894 306.75 218.044C332.745 218.302 333.5 218.366 333.5 220.31C333.5 222.248 332.667 222.325 306.513 222.81C281.935 223.265 279.496 223.465 279.193 225.044C278.884 226.649 280.877 226.797 306.167 227.044C331.256 227.288 333.501 227.452 333.81 229.06C334.124 230.692 332.295 230.81 306.573 230.81C288.958 230.81 278.946 231.171 278.85 231.81C278.767 232.36 278.655 233.373 278.6 234.06C278.523 235.021 284.855 235.426 305.987 235.81C331.14 236.268 333.503 236.459 333.81 238.06C334.124 239.692 332.295 239.81 306.573 239.81C287.724 239.81 279 240.147 279 240.876C279 241.462 279.466 242.812 280.035 243.876C281.02 245.717 282.408 245.81 308.844 245.81C329.485 245.81 337.057 245.489 338.327 244.56C339.873 243.43 340.011 240.957 339.768 218.81L339.5 194.31L329.449 194.027C323.922 193.872 319.084 194.059 318.699 194.444ZM346 197.006C346 199.483 346.093 199.509 357.25 200.155C369.909 200.888 375.898 202.043 377.131 203.988C377.592 204.715 377.976 213.692 377.985 223.938C377.997 239.49 378.255 242.776 379.542 243.845C380.499 244.639 381.44 244.77 382.019 244.191C382.534 243.676 383.077 234.726 383.227 224.302L383.5 205.348L387.857 205.663C390.253 205.836 394.415 206.55 397.107 207.248C401.542 208.398 402 208.358 402 206.819C402 204.737 399.42 202.301 395.732 200.898C391.759 199.387 367.19 195.836 355.75 195.119L346 194.508V197.006ZM88.75 196.89C86.713 198.076 86.355 203.765 88.2 205.61C88.86 206.27 90.795 206.81 92.5 206.81C96.297 206.81 98 205.247 98 201.765C98 197.037 93.012 194.408 88.75 196.89ZM467.398 202.215C467.102 202.987 467.003 205.125 467.18 206.965L467.5 210.31L477.932 210.597C483.67 210.755 488.853 210.697 489.449 210.468C490.09 210.222 490.383 208.159 490.166 205.431L489.799 200.81H478.868C470.403 200.81 467.816 201.127 467.398 202.215ZM347.25 204.516C345.843 204.787 345 205.673 345 206.88C345 208.615 345.757 208.81 352.5 208.81C357.987 208.81 360 208.461 360 207.51C360 204.238 354.904 203.041 347.25 204.516ZM390 215.193C390 216.699 392.962 217.775 397.168 217.796C400.845 217.815 403 216.857 403 215.203C403 214.155 401.389 213.81 396.5 213.81C391.632 213.81 390 214.157 390 215.193ZM420 222.365V230.92L424.75 230.615L429.5 230.31L429.79 222.06L430.081 213.81H425.04H420V222.365ZM439 222.31V230.81H443.421C449.003 230.81 449.272 229.903 448.099 215.06C448.036 214.26 446.381 213.81 443.5 213.81H439V222.31ZM345.5 215.81C344.206 217.904 346.338 218.81 352.559 218.81C358.333 218.81 359 218.603 359 216.81C359 215.017 358.333 214.81 352.559 214.81C349.016 214.81 345.84 215.26 345.5 215.81ZM468.185 219.674C467.335 220.213 466.982 222.065 467.185 224.909L467.5 229.31H478.5H489.5L489.802 224.06L490.105 218.81L479.802 218.825C474.136 218.834 468.908 219.216 468.185 219.674ZM391 223.81C391 224.366 393.667 224.81 397 224.81C400.333 224.81 403 224.366 403 223.81C403 223.254 400.333 222.81 397 222.81C393.667 222.81 391 223.254 391 223.81ZM345.709 224.434C345.319 224.824 345 225.743 345 226.477C345 227.462 346.846 227.81 352.073 227.81C358.27 227.81 359.105 227.593 358.813 226.06C358.547 224.665 357.258 224.251 352.449 224.018C349.132 223.857 346.099 224.044 345.709 224.434ZM198.5 233.796C192.45 235.393 183 238.101 177.5 239.813C172 241.526 163.492 244.036 158.593 245.391C148.133 248.285 141 251.27 141 252.754C141 253.401 143.892 253.81 148.47 253.81C154.74 253.81 156.868 253.341 161.72 250.888C169.915 246.745 192.46 240.051 202.9 238.661L211.745 237.484L222.845 243.723C232.822 249.33 236 250.338 236 247.892C236 246.95 211.73 230.791 210.405 230.851C209.907 230.873 204.55 232.199 198.5 233.796ZM391 232.31C391 233.477 392.333 233.81 397 233.81C401.667 233.81 403 233.477 403 232.31C403 231.143 401.667 230.81 397 230.81C392.333 230.81 391 231.143 391 232.31ZM345.249 234.603C344.539 236.453 344.777 236.534 352.293 236.994C358.594 237.38 359.065 237.268 358.793 235.446C358.539 233.741 357.66 233.471 352.122 233.396C347.763 233.337 345.588 233.719 345.249 234.603ZM467.195 242.56L467.5 247.31L478.75 247.593L490 247.876V242.843V237.81H478.445H466.89L467.195 242.56ZM391 240.31C391 241.477 392.333 241.81 397 241.81C401.667 241.81 403 241.477 403 240.31C403 239.143 401.667 238.81 397 238.81C392.333 238.81 391 239.143 391 240.31ZM420 248.755V256.81H424.481C429.714 256.81 430.315 255.676 429.809 246.757L429.5 241.31L424.75 241.005L420 240.7V248.755ZM439 248.81V256.81H443.5H448V248.81V240.81H443.5H439V248.81ZM346.42 248.712C337.884 251.786 336.168 253.347 329.766 263.864C327.573 267.466 323 282.334 323 285.862C323 291.015 324.55 289.085 328.462 279.06C334.871 262.634 340.633 256.214 351.639 253.235C360.748 250.769 372.108 251.708 382 255.743C389.753 258.907 393 259.522 393 257.83C393 256.279 383.109 250.98 376.145 248.8C367.741 246.169 353.597 246.127 346.42 248.712ZM177.5 251.413C170.04 253.246 158.996 260.327 154.594 266.098C146.688 276.463 144.46 291.315 149.012 303.31C151.89 310.895 159.322 318.81 163.565 318.81H166.416L162.292 314.56C157.069 309.177 154.297 303.785 152.917 296.321C150.304 282.186 157.457 267.41 170.209 260.601C173.899 258.631 175.97 258.31 185 258.31C194.602 258.31 195.892 258.541 200.084 261.005C205.516 264.199 211.034 270.066 214.198 276.015C216.136 279.659 216.484 281.825 216.491 290.31C216.501 302.011 214.604 307.058 207.343 314.635C204.961 317.121 203.224 319.368 203.484 319.627C203.743 319.886 206.024 319.309 208.552 318.343C216.934 315.142 223 303.432 223 290.451C223 273.681 213.719 260.006 198.182 253.882C193.017 251.846 181.387 250.457 177.5 251.413ZM221.25 255.623C217.591 255.976 217.191 256.851 219.75 258.905C221.219 260.085 229.438 260.23 270.987 259.81C316.885 259.346 320.498 259.184 320.806 257.579C321.118 255.96 318.017 255.83 272.82 255.579C246.244 255.431 223.038 255.451 221.25 255.623ZM467.402 257.205C467.108 257.972 467.009 260.334 467.183 262.455L467.5 266.31H478.5H489.5L489.802 261.06L490.105 255.81H479.021C470.463 255.81 467.815 256.128 467.402 257.205ZM554 257.703C554 259.876 556.864 261.346 558.3 259.91C559.773 258.437 558.319 255.81 556.031 255.81C554.705 255.81 554 256.467 554 257.703ZM133.855 259.955C130.108 263.702 131.381 264.81 139.432 264.81C146.548 264.81 146.955 264.683 149 261.81L151.136 258.81L147.318 258.751C145.218 258.719 141.747 258.559 139.605 258.396C136.853 258.187 135.165 258.645 133.855 259.955ZM355.909 259.364C350.055 261.167 343.197 267.195 339.71 273.602C334.072 283.96 333.749 298.713 339.044 304.008C340.585 305.549 342.513 306.81 343.327 306.81C344.579 306.81 344.513 306.034 342.904 301.799C336.991 286.238 345.678 266.558 360.835 261.175C363.676 260.166 366 258.996 366 258.575C366 257.401 361.015 257.791 355.909 259.364ZM398.442 265.061C395.496 266.645 395.496 266.645 398.004 269.314C399.699 271.119 401.392 271.81 404.115 271.81C408.974 271.81 409.737 270.439 406.465 267.589C402.921 264.502 400.751 263.818 398.442 265.061ZM226 268.11C226 271.323 228.378 271.81 244.078 271.81C256.584 271.81 260 271.515 260.964 270.354C263.49 267.31 261.017 266.81 243.441 266.81C229.797 266.81 226 267.093 226 268.11ZM439.422 268.154C439.138 268.893 439.04 272.83 439.203 276.903L439.5 284.309L443.5 283.977C445.7 283.795 447.738 283.345 448.028 282.978C448.319 282.611 448.395 278.822 448.199 274.56L447.842 266.81H443.89C441.503 266.81 439.733 267.342 439.422 268.154ZM70.185 271.56C70.385 272.615 71.605 273.436 73.259 273.626C75.465 273.881 76 273.539 76 271.876C76 270.236 75.366 269.81 72.927 269.81C70.54 269.81 69.927 270.201 70.185 271.56ZM129.19 274.56L129.5 278.31L135.246 278.264C141.508 278.214 142.417 277.689 143.39 273.56L144.038 270.81H136.459H128.879L129.19 274.56ZM178.532 272.49C174.863 273.517 169.698 278.266 167.867 282.297C162.926 293.174 168.811 305.797 180.259 308.88C185.777 310.366 190.595 309.474 195.436 306.071C201.244 301.989 203.489 297.555 203.495 290.153C203.499 284.772 203.114 283.519 200.442 280.218C195.445 274.043 192.661 272.467 186.263 272.189C183.094 272.052 179.614 272.187 178.532 272.49ZM367.625 273.279C351.759 278.935 350.522 300.559 365.646 307.881C376.811 313.286 389.926 305.927 391.659 293.285C392.876 284.405 387.355 275.884 378.724 273.321C372.661 271.52 372.561 271.52 367.625 273.279ZM467 279.81V284.81H478.5H490V279.81V274.81H478.5H467V279.81ZM403 277.36C403 277.662 403.7 279.264 404.556 280.919C405.865 283.45 406.62 283.879 409.306 283.619C412.101 283.349 412.539 282.904 412.813 280.06L413.127 276.81H408.063C405.279 276.81 403 277.057 403 277.36ZM288.103 278.925C285.134 279.426 278.834 281.25 274.103 282.978C265.936 285.962 264.601 286.143 247.75 286.563L230 287.004V289.407V291.81L246.25 291.786C264.456 291.758 268.031 291.174 277.722 286.645C284.239 283.599 285.109 283.46 300.304 283.023C315.736 282.579 316.1 282.518 315.804 280.439C315.516 278.425 314.906 278.302 304.5 278.162C298.45 278.08 291.071 278.423 288.103 278.925ZM179.775 281.369C176.254 283.28 175 285.727 175 290.688C175 293.486 175.73 295.547 177.413 297.504C179.479 299.906 180.572 300.31 185 300.31C189.428 300.31 190.521 299.906 192.587 297.504C196.757 292.656 195.314 284.058 189.855 281.235C186.382 279.439 183.254 279.481 179.775 281.369ZM367.954 282.092C365.008 284.413 363 288.271 363 291.609C363 299.692 374.909 304.248 380.438 298.282C384.844 293.528 384.068 286.072 378.783 282.371C376.146 280.524 370.14 280.369 367.954 282.092ZM129 286.81C129 289.78 129.056 289.81 134.5 289.81C139.944 289.81 140 289.78 140 286.81C140 283.84 139.944 283.81 134.5 283.81C129.056 283.81 129 283.84 129 286.81ZM405.667 288.477C405.3 288.843 405 290.41 405 291.958C405 294.125 405.574 294.916 407.498 295.399C411.241 296.338 413 295.239 413 291.958C413 289.781 412.431 288.891 410.75 288.44C407.807 287.652 406.482 287.661 405.667 288.477ZM467.415 294.171C467.113 294.957 467.009 297.334 467.183 299.455L467.5 303.31H478.5H489.5V298.31V293.31L478.732 293.026C470.13 292.799 467.853 293.029 467.415 294.171ZM130 296.649C130 299 133.809 301.813 137.824 302.427L142.148 303.089L141.824 299.7C141.501 296.318 141.487 296.309 135.75 296.01C132.588 295.845 130 296.133 130 296.649ZM539 305.398C513.69 317.706 508.83 320.247 509.9 320.607C510.937 320.956 516.29 319.042 536 311.275C543.975 308.133 551.682 305.505 553.126 305.436C555.282 305.332 560.166 309.668 580.429 329.674C609.965 358.835 612.999 360.664 594 337.854C589.325 332.241 584.15 325.982 582.5 323.946C578.348 318.822 558.772 295.798 558.622 295.862C558.555 295.891 549.725 300.182 539 305.398ZM229.485 298.06C229.237 298.748 228.334 301.326 227.48 303.789C226.626 306.253 225.043 309.766 223.963 311.597C221.504 315.766 221.508 315.81 224.343 315.81C227.666 315.81 236.46 312.641 246.704 307.751C251.542 305.442 260 302.075 265.5 300.268L275.5 296.984L252.719 296.897C235.337 296.831 229.83 297.106 229.485 298.06ZM404.4 301.575C403.136 302.419 401 306.222 401 307.628C401 309.024 404.249 309.632 406.757 308.704C409.444 307.71 410.883 302.983 408.885 301.718C407.196 300.648 405.853 300.605 404.4 301.575ZM79 311.032C75.425 312.285 70.314 314.595 67.642 316.165C60.53 320.346 48.659 332.051 43.917 339.559C39.213 347.007 33.681 358.81 34.894 358.81C35.34 358.81 37.891 355.998 40.563 352.56C59.829 327.772 80.664 314.632 103.459 312.895C111.085 312.313 111.371 312.207 109 310.835C107.376 309.896 102.819 309.278 96 309.072C87.108 308.803 84.504 309.103 79 311.032ZM305.573 311.692C304.881 312.811 308.51 317.478 311.185 318.909C312.669 319.703 313.522 319.684 314.357 318.839C315.217 317.968 314.575 316.831 311.765 314.246C307.936 310.725 306.529 310.144 305.573 311.692ZM394.099 316.205C392.862 317.521 392.231 318.835 392.698 319.123C393.937 319.889 403.067 315.727 402.425 314.689C401.332 312.92 396.33 313.83 394.099 316.205ZM434.489 334.828C433.244 336.842 435.264 337.538 444.25 338.188C451.611 338.721 453 338.586 453 337.335C453 335.647 451.249 335.169 441.851 334.292C437.294 333.868 434.978 334.036 434.489 334.828ZM103.75 338.502C99.336 340.959 97.901 343.013 99.786 344.178C101.129 345.008 110.456 339.408 110.811 337.56C111.275 335.142 109.318 335.403 103.75 338.502ZM274.98 341.885C273.659 346.789 274.009 349.31 276.009 349.31C276.942 349.31 277.819 347.757 278.375 345.119C279.95 337.656 276.901 334.752 274.98 341.885ZM453.667 357.477C451.704 359.44 454.694 359.81 472.5 359.81C489.167 359.81 492 359.592 492 358.31C492 357.03 489.241 356.81 473.167 356.81C462.808 356.81 454.033 357.11 453.667 357.477ZM132.459 359.877C132.096 360.463 132.109 361.251 132.486 361.627C133.25 362.386 155.94 362.203 156.712 361.431C156.981 361.163 156.904 360.463 156.541 359.877C155.652 358.438 133.348 358.438 132.459 359.877ZM162.249 378.06C162.546 378.956 166.391 379.389 175.832 379.589C187.103 379.828 189 379.648 189 378.339C189 377.042 186.939 376.81 175.417 376.81C164.995 376.81 161.93 377.101 162.249 378.06ZM58.759 406.233C52.744 408.38 50.377 410.401 47.896 415.508C46.085 419.236 45.585 421.875 45.662 427.31C45.777 435.494 46.72 438.283 51.039 443.202C55.318 448.075 62.501 450.232 69.825 448.843C72.701 448.298 75.948 447.373 77.042 446.788C79.58 445.429 84 438.469 84 435.83C84 434.073 83.35 433.81 79 433.81C74.807 433.81 74 434.108 74 435.655C74 439.882 67.306 442.311 61.092 440.339C57.729 439.272 55.573 434.085 55.61 427.157C55.649 419.932 57.466 416.509 62.549 414.085C65.741 412.563 66.256 412.562 69.415 414.068C71.293 414.963 73.153 416.734 73.549 418.003C73.945 419.272 74.771 420.641 75.385 421.045C76.853 422.012 83.751 422.021 84.347 421.057C85.358 419.422 81.921 412.163 78.947 409.653C75.817 407.012 69.213 404.77 64.807 404.854C63.538 404.878 60.817 405.499 58.759 406.233ZM121 405.762C109.721 407.988 104.176 416.744 105.188 430.734C106.172 444.334 119.856 453.192 132.453 448.381C136.948 446.665 143 440.912 143 438.357C143 437.596 143.273 436.262 143.607 435.392C144.111 434.079 143.362 433.81 139.205 433.81C134.564 433.81 134.121 434.026 133.174 436.742C131.794 440.699 126.259 442.363 121.329 440.303C116.747 438.389 114.65 433.327 115.213 425.544C115.565 420.68 116.14 419.208 118.687 416.662C122.729 412.62 128.384 412.392 131.61 416.143C132.808 417.536 133.965 419.204 134.18 419.849C134.664 421.303 142.566 422.321 143.362 421.033C144.311 419.497 142.216 413.67 139.774 411.055C135.439 406.413 128.135 404.354 121 405.762ZM166.687 405.824C164.04 406.285 160.808 407.361 159.504 408.215C153.03 412.457 149.308 422.063 150.555 431.308C151.346 437.164 152.3 439.289 155.872 443.149C160.002 447.611 163.605 448.992 171.551 449.158C178.161 449.296 179.215 449.034 183.152 446.268C185.534 444.596 188.515 441.446 189.776 439.268C191.765 435.836 192.032 434.17 191.785 426.735C191.539 419.323 191.127 417.595 188.749 414.004C184.213 407.153 176.171 404.172 166.687 405.824ZM256.123 405.765C245.687 408.375 241.694 418.295 248.25 425.324C250.699 427.95 253.595 429.487 260 431.559C267.125 433.865 268.553 434.683 268.827 436.615C269.306 439.997 267.258 441.81 262.959 441.81C257.821 441.81 256.015 440.979 254.926 438.116C254.121 435.999 253.471 435.733 249.753 436.002C244.421 436.388 243.65 439.052 247.535 443.669C252.756 449.874 264.738 451.234 273.147 446.577C277.458 444.19 279.008 441.248 278.978 435.513C278.944 429.131 276.851 427.271 265.5 423.535C257.061 420.757 255.449 419.889 255.173 417.972C254.67 414.471 256.738 412.81 261.599 412.81C265.141 412.81 266.26 413.277 267.592 415.31C268.927 417.348 270.041 417.81 273.615 417.81C276.135 417.81 278 417.343 278 416.711C278 414.177 274.77 409.105 272.182 407.577C268.747 405.548 260.645 404.633 256.123 405.765ZM425.625 406.219C416.929 409.453 412.976 416.441 413.022 428.503C413.062 439.188 418.541 446.696 427.721 448.648C439.54 451.16 451 444.575 451 435.272C451 432.725 450.854 432.658 446.75 433.34C444.413 433.728 442.358 434.42 442.183 434.878C441.2 437.462 437.604 440.738 435.162 441.275C428.118 442.821 423.01 437.045 423.004 427.528C422.998 419.04 424.927 415.176 429.827 413.857C434.907 412.489 438.508 413.782 440.791 417.795C442.268 420.39 443.076 420.798 446.75 420.804C450.547 420.809 451 420.559 451 418.458C451 415.238 447.163 409.81 443.288 407.546C438.99 405.036 430.518 404.4 425.625 406.219ZM529.5 407.178C526.75 408.47 523.73 410.394 522.788 411.455C517.458 417.459 516.092 430.237 519.932 438.169C522.9 444.3 527.334 447.57 534.469 448.889C543.158 450.495 548.963 448.795 553.887 443.201C565.315 430.219 559.803 409.293 544.067 405.918C536.838 404.367 535.178 404.511 529.5 407.178ZM623.275 405.801C618.563 406.891 615.136 409.457 613.328 413.248C610.107 420.003 614.127 427.248 622.5 429.777C635.848 433.809 638.712 436.098 635.023 439.787C631.988 442.822 626.796 442.448 622.758 438.903C620.286 436.732 618.503 436.022 615.723 436.101C612.604 436.189 612 436.558 612 438.373C612 441.094 615.345 445.42 618.851 447.233C623.074 449.417 630.179 450.106 635.071 448.807C649.326 445.022 650.39 428.394 636.613 424.708C624.999 421.601 622.51 420.382 622.193 417.65C621.549 412.104 631.346 410.356 634.668 415.426C635.921 417.338 637.098 417.81 640.615 417.81C644.275 417.81 645 417.492 645 415.887C645 413.338 640.337 407.891 637.089 406.645C633.555 405.289 627.171 404.899 623.275 405.801ZM1.447 407.088C1.177 407.791 1.079 417.354 1.228 428.338L1.5 448.31L13.048 448.19C25.703 448.059 28.145 447.304 33.73 441.796C41.291 434.341 40.606 417.365 32.488 410.979C30.968 409.784 27.455 408.132 24.681 407.308C18.292 405.411 2.149 405.258 1.447 407.088ZM200.23 427.06L200.5 448.31H205H209.5L209.78 434.955L210.06 421.6L215.656 430.455C218.734 435.325 222.598 441.47 224.243 444.11C227.185 448.833 227.307 448.905 231.867 448.61L236.5 448.31L236.77 427.06L237.04 405.81H232.548H228.056L227.778 419.56L227.5 433.31L218.5 419.6L209.5 405.889L204.73 405.85L199.96 405.81L200.23 427.06ZM284 409.81V413.81H290.5H297V431.365V448.92L301.575 448.615L306.149 448.31L306.325 431.31L306.5 414.31L312.75 414.012L319 413.715V409.762V405.81H301.5H284V409.81ZM326 427.31V448.81H330.456H334.912L335.206 441.56L335.5 434.31L339.076 434.01C342.534 433.72 342.798 433.949 347.146 441.01L351.641 448.31L356.82 448.612C359.669 448.779 362 448.682 362 448.398C362 448.113 359.934 444.478 357.408 440.318L352.817 432.755L356.408 428.78C359.574 425.276 360 424.179 360 419.53C360 409.162 354.525 405.866 337.25 405.832L326 405.81V427.31ZM368.667 406.477C367.584 407.56 367.906 431.274 369.078 436.739C370.597 443.821 374.136 447.281 381.405 448.79C388.176 450.196 393.226 449.272 398.554 445.653C404.057 441.915 405.115 437.696 404.784 420.81L404.5 406.31L400.341 406.007L396.182 405.704L395.841 421.231C395.526 435.573 395.335 436.923 393.336 438.92C390.054 442.199 383.357 441.927 380.316 438.391C378.118 435.836 378 434.936 378 420.754V405.81H373.667C371.283 405.81 369.033 406.11 368.667 406.477ZM457 409.81V413.81H463.5H470V431.365V448.92L474.75 448.615L479.5 448.31V431.059V413.808L485.75 413.809L492 413.81V409.81V405.81H474.5H457V409.81ZM500.23 427.004L500.5 448.31H504.793H509.086L509.293 427.31L509.5 406.31L504.73 406.004L499.96 405.699L500.23 427.004ZM567.864 411.56C567.658 414.723 567.491 424.285 567.494 432.81L567.5 448.31H572H576.5L576.78 434.962C577.023 423.35 577.251 421.773 578.53 422.835C579.338 423.506 580.004 424.562 580.008 425.182C580.013 425.803 583.285 431.26 587.28 437.31L594.543 448.31L599.272 448.615L604 448.92V427.365V405.81H599.528H595.056L594.778 419.548L594.5 433.286L587.126 421.798C577.538 406.86 576.541 405.81 571.946 405.81H568.24L567.864 411.56ZM169.209 413.867C162.458 415.317 159.32 421.214 160.457 430.314C161.258 436.723 164.213 440.384 169.366 441.351C173.598 442.145 178.744 439.623 180.787 435.755C182.732 432.071 181.966 419.535 179.638 416.962C177.14 414.202 173.156 413.02 169.209 413.867ZM11 427.31V440.81L14.75 440.734C24.39 440.538 29.436 435.997 29.417 427.535C29.398 418.689 24.469 413.81 15.55 413.81H11V427.31ZM335.667 414.477C335.3 414.843 335 417.493 335 420.365C335 425.537 335.033 425.594 338.485 426.241C342.798 427.05 349.588 425.327 350.397 423.217C351.514 420.307 351.012 417.131 349.171 415.465C347.329 413.798 337.095 413.049 335.667 414.477ZM532.75 414.89C529.689 416.673 528 421.4 528 428.184C528 433.67 528.39 435.12 530.56 437.699C534.861 442.811 542.568 442.65 546.96 437.358C550.485 433.111 549.8 420.355 545.82 416.119C544.156 414.347 542.587 413.817 539.076 413.84C536.559 413.857 533.712 414.329 532.75 414.89ZM0.633003 470.895C0.285003 472.636 0 478.279 0 483.435V492.81H8.583C15.003 492.81 17.063 492.495 16.755 491.56C16.515 490.829 13.884 490.102 10.422 489.81L4.5 489.31L4.193 485.612L3.885 481.913L9.614 481.612C17.502 481.196 18.013 479.011 10.316 478.612L4.5 478.31V474.81V471.31L10.817 471.011C19.998 470.575 18.529 468.394 8.803 468.02L1.266 467.731L0.633003 470.895ZM62 469.31C62 470.34 62.655 470.83 63.75 470.62C65.858 470.214 65.725 468.439 63.553 467.987C62.647 467.798 62 468.349 62 469.31ZM144 469.31C144 470.143 144.889 470.81 146 470.81C147.111 470.81 148 470.143 148 469.31C148 468.477 147.111 467.81 146 467.81C144.889 467.81 144 468.477 144 469.31ZM203 480.31V492.81H211C217.444 492.81 219 492.518 219 491.31C219 490.143 217.667 489.81 213 489.81H207V485.86V481.91L212.671 481.61C220.812 481.179 221.161 478.81 213.083 478.81H207V474.81V470.81H213C217.667 470.81 219 470.477 219 469.31C219 468.102 217.444 467.81 211 467.81H203V480.31ZM280 480.31C280 490.754 280.247 492.81 281.5 492.81C282.753 492.81 283 490.754 283 480.31C283 469.866 282.753 467.81 281.5 467.81C280.247 467.81 280 469.866 280 480.31ZM288.835 474.06C288.237 485.213 288.931 492.81 290.548 492.81C291.74 492.81 292 490.572 292 480.31C292 470.201 291.729 467.81 290.585 467.81C289.552 467.81 289.08 469.497 288.835 474.06ZM393 480.31V492.81H401.083C407.103 492.81 409.061 492.491 408.754 491.56C408.506 490.807 406.089 490.191 402.671 490.01L397 489.71V478.76C397 468.477 396.878 467.81 395 467.81C393.107 467.81 393 468.477 393 480.31ZM412.694 468.449C411.761 469.383 412.888 470.81 414.559 470.81C415.352 470.81 416 470.135 416 469.31C416 467.804 413.889 467.254 412.694 468.449ZM439 469.31C439 470.143 439.889 470.81 441 470.81C442.111 470.81 443 470.143 443 469.31C443 468.477 442.111 467.81 441 467.81C439.889 467.81 439 468.477 439 469.31ZM498 480.31V492.81H506C512.444 492.81 514 492.518 514 491.31C514 490.145 512.672 489.81 508.045 489.81H502.091L501.446 486.375C501.092 484.486 501.067 482.51 501.392 481.984C501.717 481.459 504.462 481.206 507.491 481.421C511.898 481.735 513 481.513 513 480.312C513 479.157 511.722 478.81 507.469 478.81C501.433 478.81 500.291 477.772 501.411 473.308C501.992 470.992 502.475 470.81 508.019 470.81C512.669 470.81 514 470.476 514 469.31C514 468.102 512.444 467.81 506 467.81H498V480.31ZM519 479.31C519 485.635 518.976 491.147 518.947 491.56C518.918 491.973 519.593 492.455 520.447 492.633C521.786 492.912 522 491.222 522 480.383C522 469.874 521.754 467.81 520.5 467.81C519.254 467.81 519 469.754 519 479.31ZM76.75 475.391C75.152 476.253 74 476.442 74 475.842C74 475.274 73.325 474.81 72.5 474.81C71.278 474.81 71 476.477 71 483.81C71 491.143 71.278 492.81 72.5 492.81C73.667 492.81 74 491.477 74 486.81C74 482.073 74.436 480.374 76.073 478.737C77.938 476.872 78.366 476.808 80.323 478.104C82.133 479.302 82.55 480.662 82.796 486.177C83.019 491.178 83.449 492.81 84.546 492.81C86.449 492.81 86.623 478.985 84.75 476.602C82.861 474.2 79.814 473.738 76.75 475.391ZM95.407 474.783C90.08 476.937 88.636 488.041 93.262 491.281C96.419 493.492 102.299 493.242 104.506 490.804C107.042 488.001 105.534 487.063 101.922 489.197C99.132 490.845 98.723 490.858 96.453 489.371C95.104 488.487 94 486.861 94 485.757C94 483.925 94.526 483.785 100.02 484.153C103.33 484.374 106.27 484.183 106.551 483.727C107.604 482.023 104.06 475.783 101.483 474.804C98.458 473.654 98.203 473.653 95.407 474.783ZM116.188 474.581C113.55 475.02 110.009 480.189 110.004 483.61C109.999 486.653 112.517 491.411 114.545 492.189C117.885 493.47 122.698 492.801 124.506 490.804C127.109 487.927 125.589 487.178 121.556 489.35C118.19 491.162 118.047 491.163 116.05 489.355C112.365 486.021 113.426 484.81 120.031 484.81C126.834 484.81 128.011 483.669 125.834 479.186C124.367 476.166 119.791 473.981 116.188 474.581ZM159.105 474.895C157.788 475.422 155.875 475.588 154.855 475.264C153.141 474.72 153 475.366 153 483.743C153 491.136 153.277 492.81 154.5 492.81C155.676 492.81 156 491.438 156 486.465C156 479.396 158.1 476.072 161.82 477.253C164.181 478.002 164.968 480.565 164.986 487.56C164.997 491.554 165.359 492.81 166.5 492.81C167.697 492.81 167.997 491.345 167.985 485.56C167.968 477.704 167.62 476.699 164.316 474.96C161.816 473.644 162.22 473.649 159.105 474.895ZM178.5 474.571C173.738 475.632 171.196 480.875 172.52 486.903C173.391 490.868 178.49 493.335 182.591 491.775C185.753 490.573 186.839 491.257 185.398 493.541C183.412 496.69 181.311 497.324 177.469 495.935C173.018 494.325 171.689 495.324 174.861 497.896C178.855 501.134 186.053 500.184 187.878 496.178C188.495 494.824 189 489.462 189 484.263C189 476.699 188.712 474.81 187.559 474.81C186.766 474.81 185.843 475.255 185.507 475.799C185.122 476.422 184.082 476.295 182.698 475.456C181.489 474.724 179.6 474.326 178.5 474.571ZM244.304 475.74C239.413 478.762 238.653 486.368 242.773 491.06C245.127 493.74 252.442 493.444 254.443 490.587C255.299 489.365 256 488.015 256 487.587C256 486.304 253.959 486.709 252.357 488.31C250.554 490.113 246.858 490.268 245.2 488.61C243.478 486.888 243.719 480.234 245.571 478.381C247.734 476.219 250.735 476.412 252.232 478.81C253.65 481.081 256 481.489 256 479.465C256 477.622 253.021 475.091 250 474.366C248.386 473.979 246.367 474.466 244.304 475.74ZM263.633 475.884C258.97 479.552 258.557 486.453 262.725 491.058C264.954 493.521 271.179 493.374 273.506 490.804C275.698 488.381 274.673 486.909 271.968 488.598C268.989 490.459 265.213 490.076 263.989 487.789C262.264 484.566 263.744 483.604 269.864 483.971C274.981 484.279 275.528 484.114 275.804 482.179C276.186 479.499 272.341 475.196 268.871 474.42C267.06 474.016 265.429 474.472 263.633 475.884ZM300.264 475.796C295.206 478.872 294.632 485.891 299.05 490.634C301.743 493.524 307.961 493.616 310.506 490.804C312.8 488.269 311.733 487.079 308.648 488.731C305.672 490.323 302.018 489.811 300.637 487.608C299.129 485.201 300.195 484.579 305.826 484.579C312.697 484.579 313.485 483.906 311.676 479.577C310.059 475.707 309.677 475.367 305.959 474.482C304.322 474.092 302.297 474.559 300.264 475.796ZM339.136 476.349C336.522 478.549 336 479.699 336 483.264C336 489.36 338.918 492.81 344.073 492.81C347.884 492.81 352 490.214 352 487.81C352 486.207 349.272 486.659 348.615 488.371C348.187 489.487 346.949 489.843 344.276 489.621C341.203 489.365 340.361 488.807 339.551 486.492C338.816 484.389 338.938 483.018 340.033 481.091C342.493 476.758 344.558 476.046 347.27 478.593C351.288 482.369 353.745 481.056 350.25 477.001C347.281 473.556 342.77 473.291 339.136 476.349ZM572.607 474.76C569.785 475.297 566.993 478.136 568.15 479.293C568.468 479.612 570.131 479.071 571.845 478.091C575.215 476.165 578.202 477.013 578.804 480.066C579.032 481.225 577.848 481.781 574.038 482.305C568.431 483.076 566.394 485.259 567.43 489.388C568.164 492.313 572.214 493.545 576.176 492.05C577.768 491.449 579 491.382 579 491.897C579 492.399 579.675 492.81 580.5 492.81C581.706 492.81 582 491.268 582 484.932C582 479.819 581.561 476.712 580.75 476.077C578.901 474.63 575.871 474.14 572.607 474.76ZM594 474.831C593.175 475.368 591.263 475.546 589.75 475.229L587 474.651V483.731C587 490.795 587.307 492.81 588.384 492.81C589.38 492.81 589.885 490.957 590.189 486.189C590.507 481.183 591.07 479.232 592.496 478.189C594.897 476.434 595.504 476.457 597.429 478.381C598.535 479.488 599 481.878 599 486.465C599 491.228 599.336 492.866 600.25 492.563C602.045 491.969 602.52 477.473 600.789 476.087C598.639 474.365 595.586 473.8 594 474.831ZM21 483.883C21 491.985 21.187 492.921 22.75 492.623C24.153 492.356 24.559 491.057 24.797 486.074C25.035 481.09 25.512 479.565 27.202 478.381C28.713 477.323 29.831 477.184 31.155 477.893C32.68 478.709 33 480.1 33 485.919C33 492.082 33.218 492.915 34.75 492.624C37.13 492.171 37.659 483.324 35.6 478.396C34.304 475.293 33.651 474.81 30.751 474.81C28.908 474.81 26.911 475.299 26.313 475.897C25.53 476.68 25.038 476.68 24.554 475.897C24.184 475.299 23.234 474.81 22.441 474.81C21.292 474.81 21 476.65 21 483.883ZM42.615 477.275C41.727 478.63 41 481.748 41 484.202C41 487.871 41.485 489.047 43.728 490.81C46.334 492.86 48.324 492.982 52.25 491.332C55.08 490.142 54.439 494.476 51.5 496.402C49.196 497.911 48.807 497.913 46.535 496.425C43.475 494.42 42 494.371 42 496.275C42 499.352 49.868 501.021 53.986 498.818C56.915 497.25 58.226 491.616 57.627 483.17C57.032 474.767 56.711 473.975 54.613 475.716C53.635 476.528 52.972 476.573 52.53 475.859C52.174 475.282 50.16 474.81 48.056 474.81C45.093 474.81 43.866 475.366 42.615 477.275ZM62 483.81C62 491.143 62.278 492.81 63.5 492.81C64.722 492.81 65 491.143 65 483.81C65 476.477 64.722 474.81 63.5 474.81C62.278 474.81 62 476.477 62 483.81ZM131.667 475.477C131.3 475.843 131 479.893 131 484.477C131 491.217 131.287 492.81 132.5 492.81C133.621 492.81 134.003 491.609 134.014 488.06C134.033 481.254 134.903 478.872 137.619 478.191C138.929 477.862 140 476.967 140 476.202C140 474.545 137.843 474.367 136.313 475.897C135.53 476.68 135.038 476.68 134.554 475.897C133.791 474.663 132.647 474.496 131.667 475.477ZM144 483.81C144 491.143 144.278 492.81 145.5 492.81C146.722 492.81 147 491.143 147 483.81C147 476.477 146.722 474.81 145.5 474.81C144.278 474.81 144 476.477 144 483.81ZM223 475.377C223 475.688 224.125 477.418 225.5 479.221C226.875 481.024 228 482.914 228 483.422C228 483.93 226.875 486.001 225.5 488.025C222.601 492.291 222.486 492.81 224.443 492.81C225.237 492.81 226.684 491.46 227.659 489.81C228.634 488.16 229.754 486.81 230.148 486.81C230.541 486.81 231.825 488.16 233 489.81C234.175 491.46 235.781 492.81 236.568 492.81C238.512 492.81 238.409 492.385 235.337 487.743L232.673 483.718L234.561 480.014C235.599 477.977 236.61 475.973 236.807 475.56C237.005 475.147 236.445 474.81 235.562 474.81C234.679 474.81 233.445 475.935 232.818 477.31C232.192 478.685 231.148 479.81 230.5 479.81C229.852 479.81 228.808 478.685 228.182 477.31C227.514 475.843 226.207 474.81 225.021 474.81C223.91 474.81 223 475.065 223 475.377ZM316.952 475.31C316.926 475.585 316.883 479.522 316.857 484.06C316.821 490.328 317.133 492.31 318.155 492.31C319.107 492.31 319.587 490.48 319.798 486.052C320.048 480.798 320.467 479.55 322.407 478.279C324.809 476.705 327.897 477.184 328.14 479.167C328.218 479.796 328.361 482.891 328.46 486.046C328.559 489.201 328.915 492.059 329.253 492.396C332.131 495.274 333.235 481.018 330.443 477.033C328.708 474.554 323.258 473.952 321.2 476.01C320.267 476.943 320 476.943 320 476.01C320 474.891 317.057 474.215 316.952 475.31ZM356.933 478.06C354.537 481.881 354.834 487.864 357.57 490.888C360 493.572 367.045 493.523 369.506 490.804C372.121 487.914 370.583 487.181 366.509 489.375C363.033 491.247 362.991 491.245 360.864 489.119C358.498 486.752 358.927 483.461 361.474 484.439C362.327 484.766 365.006 484.736 367.429 484.373C371.783 483.72 371.823 483.678 370.958 480.664C369.597 475.918 368.159 474.81 363.363 474.81C359.492 474.81 358.729 475.196 356.933 478.06ZM413 483.81C413 491.143 413.278 492.81 414.5 492.81C415.722 492.81 416 491.143 416 483.81C416 476.477 415.722 474.81 414.5 474.81C413.278 474.81 413 476.477 413 483.81ZM420.481 476.459C420.906 477.477 422.277 481.46 423.527 485.31C426.836 495.502 428.658 495.311 432.448 484.378C434.069 479.7 435.112 475.588 434.764 475.241C433.501 473.977 432.044 475.995 430.358 481.344C429.41 484.35 428.326 486.81 427.948 486.81C427.57 486.81 426.394 484.225 425.335 481.065C424.043 477.209 422.801 475.203 421.559 474.964C420.099 474.682 419.871 474.998 420.481 476.459ZM439.688 475.456C439.309 475.834 439 479.893 439 484.477C439 492.196 439.15 492.81 441.039 492.81C442.956 492.81 443.061 492.293 442.789 484.141C442.524 476.182 441.586 473.557 439.688 475.456ZM448 483.989C448 491.163 448.28 492.81 449.5 492.81C450.654 492.81 451 491.525 451 487.244C451 479.05 453.676 475.496 458.072 477.849C459.696 478.717 460 479.992 460 485.919C460 491.965 460.236 492.911 461.676 492.633C463.082 492.362 463.311 491.191 463.099 485.351C462.737 475.346 462.261 474.775 454.465 474.99L448 475.168V483.989ZM470.189 476.849C467.57 479.289 467.18 486.195 469.477 489.473C471.544 492.425 475.659 493.263 478.606 491.333C480.894 489.833 481 489.866 481 492.087C481 493.365 480.46 494.95 479.8 495.61C478.346 497.064 473.359 497.2 472.5 495.81C471.592 494.34 469 494.592 469 496.149C469 497.66 473.112 499.81 476 499.81C478.897 499.81 482.906 497.701 483.417 495.908C483.991 493.893 484.309 486.877 484.134 480.06C484.034 476.12 483.626 474.81 482.5 474.81C481.675 474.81 481 475.35 481 476.01C481 476.943 480.733 476.943 479.8 476.01C477.918 474.128 472.612 474.592 470.189 476.849ZM527.975 477.56C525.382 480.845 525.672 487.685 528.537 490.851C531.156 493.745 538.351 493.57 540.471 490.56C541.918 488.504 541.916 488.281 540.453 487.972C539.572 487.787 538.062 488.349 537.097 489.222C536.132 490.096 534.894 490.81 534.346 490.81C532.849 490.81 528.554 485.923 529.35 485.126C529.731 484.746 532.733 484.24 536.021 484.002C541.388 483.614 542 483.344 542 481.364C542 475.164 532.005 472.453 527.975 477.56ZM548.073 477.445C542.459 484.581 548.559 495.172 556.111 491.404C558.862 490.032 559 490.069 559 492.187C559 496.476 554.3 498.264 550.032 495.598C547.327 493.909 546.302 495.381 548.494 497.804C550.802 500.354 556.994 500.494 559.784 498.06C561.455 496.603 561.892 494.605 562.396 486.12C563.013 475.754 562.372 473.427 559.545 475.772C558.605 476.552 557.975 476.579 557.53 475.859C557.174 475.282 555.366 474.81 553.514 474.81C551.066 474.81 549.579 475.53 548.073 477.445ZM609.78 475.874C607.152 477.405 605.584 484.392 607.066 487.969C608.528 491.499 610.753 492.81 615.279 492.81C618.648 492.81 622 490.401 622 487.981C622 486.281 619.316 486.543 618.638 488.31C617.78 490.547 612.297 490.234 611.035 487.876C609.551 485.103 609.758 481.601 611.557 479.033C613.489 476.274 616.128 476.189 618.5 478.81C620.596 481.126 622 481.389 622 479.465C622 475.693 614.082 473.366 609.78 475.874ZM628.174 477.124C625.572 479.895 625.285 485.527 627.526 489.86C628.852 492.425 629.606 492.81 633.303 492.81C637.425 492.81 642 490.676 642 488.753C642 488.234 641.1 487.81 640 487.81C638.9 487.81 638 488.208 638 488.693C638 490.372 633.545 490.742 631.272 489.253C627.508 486.786 628.384 484.812 633.25 484.796C642.13 484.768 644.037 482.669 639.927 477.445C637.159 473.925 631.329 473.766 628.174 477.124ZM46.223 478.367C42.055 481.286 44.253 489.81 49.174 489.81C53.778 489.81 55.749 481.149 51.777 478.367C50.555 477.511 49.305 476.81 49 476.81C48.695 476.81 47.445 477.511 46.223 478.367ZM95.571 478.381C93.004 480.949 93.74 481.81 98.5 481.81C100.975 481.81 103 481.392 103 480.881C103 479.484 100.044 476.81 98.5 476.81C97.754 476.81 96.436 477.517 95.571 478.381ZM115.75 477.89C112.337 479.878 113.692 481.81 118.5 481.81C123.391 481.81 124.698 479.789 121.066 477.845C118.702 476.58 117.988 476.586 115.75 477.89ZM178.223 478.367C176.599 479.504 176 480.932 176 483.667C176 487.902 177.412 489.81 180.545 489.81C185.519 489.81 187.785 482.595 184 478.81C181.592 476.402 181.083 476.363 178.223 478.367ZM264.494 478.816C262.086 481.477 262.842 481.988 268.643 481.619L273.5 481.31L271.25 479.06C268.474 476.284 266.84 476.225 264.494 478.816ZM301.2 478.01C298.73 480.48 299.885 481.81 304.5 481.81C309.357 481.81 309.526 481.661 307.965 478.744C306.808 476.582 303.037 476.173 301.2 478.01ZM360.75 477.89C357.337 479.878 358.692 481.81 363.5 481.81C368.391 481.81 369.698 479.789 366.066 477.845C363.702 476.58 362.988 476.586 360.75 477.89ZM473 478.81C469.307 482.503 471.244 489.81 475.916 489.81C478.436 489.81 481 486.618 481 483.481C481 480.858 477.966 476.81 476 476.81C475.45 476.81 474.1 477.71 473 478.81ZM530.695 478.595C528.136 481.422 528.55 481.81 534.122 481.81C539.207 481.81 539.233 481.794 537.757 479.56C535.831 476.644 532.831 476.234 530.695 478.595ZM551 478.81C549.9 479.91 549 481.935 549 483.31C549 485.992 552.139 489.81 554.345 489.81C558.508 489.81 560.569 481.54 557.171 478.465C554.781 476.302 553.433 476.377 551 478.81ZM630.529 479.06C628.977 481.262 629.021 481.317 632.577 481.627C634.575 481.801 636.899 481.679 637.741 481.356C639.076 480.844 639.042 480.514 637.481 478.789C635.12 476.18 632.485 476.283 630.529 479.06ZM573.512 484.692C569.897 485.458 569.077 488.246 572.007 489.814C573.694 490.717 574.65 490.614 576.628 489.318C579.033 487.742 579.559 484.696 577.5 484.268C576.95 484.153 575.155 484.344 573.512 484.692ZM375.667 489.477C374.29 490.853 375.073 492.81 377 492.81C378.333 492.81 379 492.143 379 490.81C379 488.883 377.043 488.1 375.667 489.477ZM646 490.81C646 492.316 646.522 492.856 647.75 492.62C648.712 492.434 649.5 491.62 649.5 490.81C649.5 490 648.712 489.186 647.75 489C646.522 488.764 646 489.304 646 490.81Z" fill="#013B63"/>
</svg>
