<svg width="704" height="542" viewBox="0 0 704 542" fill="none" xmlns="http://www.w3.org/2000/svg">
<path fill-rule="evenodd" clip-rule="evenodd" d="M335 0.976413C321.945 2.19341 298.694 7.06542 285.655 11.3174C230.398 29.3344 189.144 62.9904 158.786 114.819C153.463 123.906 152.879 124.521 145.361 128.971C141.037 131.53 133.397 135.8 128.382 138.461C119.932 142.943 119.076 143.198 116.709 141.931C112.939 139.913 109.14 141.241 107.508 145.145C106.423 147.742 103.451 150.036 92.824 156.482C76.195 166.569 73.734 167.819 70.504 167.819C69.06 167.819 66.785 168.943 65.373 170.355C63.234 172.494 62.936 173.482 63.472 176.652C64.185 180.874 63.289 182.015 56.624 185.369C50.868 188.265 44.217 195.156 41.458 201.082C39.533 205.217 39.017 207.964 39.01 214.132C38.993 227.31 42.058 231.843 66.715 255.119C71.783 259.903 77.408 264.528 79.215 265.396C81.022 266.263 84.057 269.245 85.96 272.021C90.104 278.065 96.49 282.729 98.234 280.985C99.104 280.115 98.682 279.096 96.506 276.826C94.43 274.659 94.063 273.819 95.19 273.819C96.051 273.819 97.315 274.494 98 275.319C98.685 276.144 99.64 276.819 100.122 276.819C102.034 276.819 100.757 274.175 95.423 267.087L89.846 259.677L92.961 244.498C96.559 226.971 97.302 224.819 99.756 224.819C105.633 224.819 108.12 217.632 103.5 213.998C102.125 212.916 101 211.356 101 210.532C101 208.06 106.889 185.522 107.726 184.794C108.152 184.423 110.489 183.35 112.919 182.41C115.35 181.469 125.475 176.132 135.419 170.549C181.186 144.855 213.493 127.976 214.656 129.151C215.291 129.793 219.955 138.419 225.02 148.319C233.501 164.897 238.321 174.041 244.786 185.819C246.144 188.294 251.903 199.094 257.583 209.819L267.911 229.319L265.382 238.319C263.991 243.269 262.199 249.682 261.399 252.569C260.599 255.457 259.391 257.819 258.714 257.819C257.069 257.819 249.415 253.743 238.761 247.192C233.954 244.237 228.843 241.819 227.403 241.819C225.963 241.819 217.746 244.049 209.143 246.774C200.539 249.499 185.175 254.279 175 257.396C164.825 260.513 154.345 264.214 151.712 265.621C145.278 269.057 139.497 275.55 135.666 283.639C132.706 289.892 132.482 291.15 132.17 303.319C131.907 313.627 132.277 318.462 133.958 326.669C135.705 335.194 135.851 337.297 134.789 338.595C122.616 353.477 99.528 371.448 79.305 381.784C69.478 386.806 63.263 387.907 43.403 388.141C26.984 388.335 24.988 388.937 25.015 393.691C25.034 396.883 25.822 398.163 28.703 399.679C30.326 400.534 53.515 400.832 116.703 400.813C209.556 400.785 207.014 400.65 219.243 406.244C260.783 425.245 303.702 432.302 347.155 427.275C373.369 424.243 393.402 418.715 420 407.176L433.5 401.319L555.287 400.819C662.087 400.381 677.19 400.134 678.021 398.819C680.303 395.21 678.901 392.514 668.227 379.974C662.302 373.014 654.09 363.278 649.977 358.339C645.865 353.4 641.547 348.225 640.382 346.839C639.217 345.453 632.594 337.506 625.664 329.178C613.397 314.436 610.185 311.731 605.101 311.859C604.22 311.882 590.9 318.145 575.5 325.779C560.1 333.412 547.349 339.243 547.166 338.735C546.982 338.227 548.564 334.776 550.682 331.066C565.863 304.472 576.529 271.769 579.628 242.319C583.302 207.389 578.928 173.153 566.622 140.532L564.062 133.746L566.531 132.807C571.069 131.082 569.077 127.819 563.486 127.819C561.381 127.819 560.066 126.164 560.004 123.436C559.993 122.95 561.533 122.459 563.426 122.344C570.144 121.936 574.072 117.225 572.596 111.347C571.838 108.324 568.24 104.819 565.895 104.819C564.945 104.819 562.732 103.005 560.976 100.789C557.063 95.8494 552.921 93.6044 547.278 93.3664C543.765 93.2184 542.576 92.6344 540.742 90.1544C534.053 81.1084 507.893 55.5864 496.341 46.8364C473.316 29.3944 453.744 19.1644 427.5 10.8554C398.219 1.58442 365.719 -1.88559 335 0.976413ZM336 9.41742C302.307 13.3314 275.197 21.7584 248.5 36.6184C225.932 49.1794 200.488 70.7004 185.009 90.3194C178.235 98.9054 168 114.27 168 115.854C168 117.947 172.867 116.622 179.516 112.72C183.357 110.466 190.33 106.69 195.011 104.33C201.406 101.106 204.142 99.0874 206.011 96.2114C207.38 94.1064 210.075 91.3174 212 90.0144C216.884 86.7074 226.173 87.1884 231.182 91.0084C234.055 93.2004 235.33 93.5364 239.136 93.1074C245.68 92.3704 249.227 94.5404 252.538 101.308C256.422 109.245 255.819 116.506 250.629 124.323C246.118 131.117 244.736 128.255 264.424 152.899C272.166 162.59 281.533 174.412 285.24 179.169C288.946 183.927 292.398 187.819 292.91 187.819C293.422 187.819 294.128 186.357 294.478 184.569C294.828 182.781 295.73 178.619 296.482 175.319C299.527 161.956 299.728 163.168 294.304 162.18L289.5 161.304L289.214 152.214C289 145.375 289.275 142.835 290.326 141.963C291.36 141.105 307.322 140.87 351.612 141.061L411.5 141.319V150.819V160.319L406.792 160.86C404.203 161.158 401.883 161.608 401.637 161.86C400.712 162.809 407.558 195.957 410.249 203.561C411.182 206.2 412.057 206.904 414.948 207.346C430.41 209.713 435.854 211.99 439.701 217.701C443.104 222.754 444.092 227.131 444.691 239.819C445.378 254.383 443.823 267.341 440.523 274.55C439.135 277.581 438 280.166 438 280.295C438 280.424 439.913 281.744 442.25 283.229C450.898 288.723 455.117 298.1 455.095 311.777C455.082 320.007 452.255 332.808 449.906 335.269C448.059 337.205 449.101 338.064 452.606 337.496C461.767 336.009 464.486 329.533 463.817 310.786C463.435 300.055 463.13 298.525 460.179 292.531C458.408 288.933 454.941 283.745 452.475 281.002L447.991 276.015L450.088 267.183C451.906 259.531 452.136 256.013 451.808 240.835C451.469 225.124 451.189 222.779 449.095 218.077C445.119 209.149 440.661 206.081 424.5 201.15L418.5 199.319L418.212 190.069C417.983 182.678 417.626 180.819 416.438 180.819C414.766 180.819 413 176.934 413 173.254C413 171.323 413.518 170.819 415.5 170.819C417.859 170.819 418 170.514 418 165.4C418 162.419 418.688 157.294 419.53 154.01C420.775 149.15 420.84 147.227 419.88 143.679C419.232 141.281 418.51 135.606 418.277 131.069L417.853 122.819H413.927H410V127.702C410 132.784 408.874 133.931 404.75 133.047C403.371 132.752 403 131.628 403 127.746V122.819H399.052H395.105L394.802 128.027L394.5 133.236L387 133.155L379.5 133.074L379.239 90.4464L378.979 47.8194H412.489H446V71.8194V95.8194L471.75 95.7974C500.522 95.7724 499.065 96.1104 504.311 88.2454C507.007 84.2034 513.289 79.8194 516.386 79.8194C517.274 79.8194 518 79.3374 518 78.7474C518 75.5644 492.044 53.1404 476.973 43.3014C453.382 27.9014 425.61 17.0794 394.5 11.1634C386.806 9.70042 344.45 8.43642 336 9.41742ZM546.485 56.8674C545.148 61.0794 550.89 63.7614 552.961 59.8914C554.499 57.0184 553.198 54.8194 549.96 54.8194C547.991 54.8194 546.938 55.4404 546.485 56.8674ZM395.714 64.4384C395.321 64.8314 395 69.1274 395 73.9864V82.8194H399H403L403.15 74.8194C403.232 70.4194 403.345 66.2574 403.4 65.5694C403.509 64.2094 396.914 63.2394 395.714 64.4384ZM410 73.2594V82.8194H414.038H418.075L417.788 73.5694L417.5 64.3194L413.75 64.0094L410 63.6984V73.2594ZM424.714 64.4384C424.321 64.8314 424 69.1274 424 73.9864V82.8194H428.038H432.075L431.788 73.5694L431.5 64.3194L428.464 64.0224C426.794 63.8584 425.107 64.0464 424.714 64.4384ZM135.391 74.3454C133.842 76.7104 133.85 76.9964 135.523 78.8454C138.742 82.4014 144 80.8354 144 76.3194C144 71.4824 138.147 70.1394 135.391 74.3454ZM515.415 86.2404C511.695 87.8604 508.064 92.2504 507.305 96.0464C506.892 98.1114 505.943 99.0414 503.624 99.6584L500.5 100.488L500.737 107.399C500.867 111.199 501.191 114.874 501.456 115.564C501.828 116.534 509.075 116.819 533.346 116.819C560.784 116.819 564.921 116.619 566.07 115.235C567.961 112.956 566.033 110.392 562.137 110.005C559.597 109.752 558.577 108.91 556.95 105.721C554.148 100.229 549.429 98.0244 543.733 99.5454C539.355 100.713 537 99.9204 537 97.2784C537 94.6424 533.439 89.9024 529.577 87.3984C525.143 84.5234 520.274 84.1254 515.415 86.2404ZM395 102.376V111.934L399.241 111.626C404.282 111.261 404.502 110.671 403.518 100.165L402.829 92.8194H398.915H395V102.376ZM410 102.319V111.819H414H418V102.319V92.8194H414H410V102.319ZM424 102.206V111.592L427.25 112.086C429.038 112.358 430.837 112.383 431.25 112.141C431.663 111.899 432 107.453 432 102.26V92.8194H428H424V102.206ZM216.5 95.3344C212.072 97.6734 210.047 100.798 210.022 105.329C209.983 112.376 217.113 117.927 223.497 115.82C231.754 113.095 234.366 103.72 228.5 97.8614C224.76 94.1264 220.489 93.2274 216.5 95.3344ZM216.96 101.65C212.207 105.499 217.775 112.609 223.5 110.001C225.436 109.119 226 108.113 226 105.54C226 99.8624 221.539 97.9424 216.96 101.65ZM592.693 100.519C591.699 100.777 590.44 102.162 589.894 103.599C589.106 105.67 589.294 106.738 590.801 108.764C593.249 112.056 596.339 112.48 598.939 109.88C601.648 107.171 601.575 103.335 598.777 101.376C596.51 99.7884 595.866 99.6974 592.693 100.519ZM241.091 110.826C236.564 116.195 236.393 118.054 240.116 121.424C242.133 123.249 242.213 123.249 243.57 121.392C247.396 116.16 249.101 105.819 246.137 105.819C245.684 105.819 243.413 108.072 241.091 110.826ZM186 115.823C175.285 121.605 171.417 124.192 171.18 125.734C170.965 127.138 171.403 127.819 172.52 127.819C173.433 127.819 181.138 124.171 189.642 119.713C201.077 113.718 205.024 111.178 204.793 109.963C204.2 106.852 200.462 108.018 186 115.823ZM455.445 115.102C455.151 115.869 455.043 120.056 455.205 124.407L455.5 132.319H460.5H465.5V123.319V114.319L460.74 114.014C457.373 113.798 455.823 114.117 455.445 115.102ZM476.424 115.157C476.141 115.894 476.043 120.056 476.205 124.407L476.5 132.319H481H485.5L485.788 123.069L486.075 113.819H481.506C478.613 113.819 476.749 114.31 476.424 115.157ZM424 131.819V140.819H428H432V131.819V122.819H428H424V131.819ZM500.488 125.069C500.186 126.307 500.065 139.469 500.219 154.319L500.5 181.319L521.244 181.589L541.987 181.86L542.244 255.089L542.5 328.319L549.098 315.319C565.37 283.258 572.377 254.191 572.361 218.819C572.347 188.443 567.265 162.26 556.882 139.069L554.084 132.819H549.542C545.752 132.819 545 132.505 545 130.926C545 128.944 546.841 127.819 550.082 127.819C552.283 127.819 552.396 127.427 550.965 124.753C549.985 122.922 548.629 122.819 525.484 122.819H501.038L500.488 125.069ZM158 128.976C154.975 130.693 148.225 134.434 143 137.29C125.558 146.823 120.71 150.126 119.711 153.156C117.835 158.843 120.215 158.275 136.125 149.235C144.581 144.431 154.581 138.569 158.348 136.21C162.114 133.851 165.672 131.762 166.255 131.567C167.704 131.084 166.302 125.814 164.731 125.837C164.054 125.847 161.025 127.26 158 128.976ZM607.654 128.653C606.628 128.847 606.02 129.687 606.206 130.653C606.495 132.153 609.339 132.345 634.763 132.585C662.494 132.845 663 132.814 663 130.835C663 129.726 662.438 128.792 661.75 128.758C656.096 128.485 609.03 128.393 607.654 128.653ZM587.104 141.721C586.328 142.219 585.985 143.338 586.331 144.24C586.881 145.672 589.171 145.831 605.727 145.591C623.743 145.33 624.5 145.238 624.5 143.319C624.5 141.402 623.751 141.309 606.5 141.072C596.6 140.936 587.872 141.228 587.104 141.721ZM455.713 143.44C455.321 143.832 455 148.127 455 152.986V161.819H460.538H466.075L465.788 152.569L465.5 143.319L460.963 143.023C458.467 142.86 456.105 143.048 455.713 143.44ZM476 152.319V161.819H481H486V152.319V142.819H481H476V152.319ZM304.667 150.486C304.3 150.852 304 152.207 304 153.496V155.839L350.667 155.579C384.358 155.391 397.439 155.004 397.711 154.185C397.919 153.561 397.362 152.324 396.473 151.435C395.033 149.995 389.979 149.819 350.095 149.819C325.476 149.819 305.033 150.119 304.667 150.486ZM424 161.379V170.94L427.75 170.629L431.5 170.319L431.788 161.069L432.075 151.819H428.038H424V161.379ZM95.731 162.887C89.258 166.771 84.222 170.37 84.54 170.884C84.858 171.398 88.881 171.819 93.481 171.819C101.398 171.819 102.076 171.643 106.172 168.524C108.611 166.668 110.645 164.223 110.833 162.923C111.307 159.636 110.177 155.818 108.731 155.822C108.054 155.824 102.204 159.003 95.731 162.887ZM304.493 166.069C304.126 167.857 301.876 178.319 299.493 189.319C297.109 200.319 293.788 215.672 292.113 223.436L289.068 237.552L290.641 247.436C292.075 256.443 293.273 259.386 295.056 258.284C295.415 258.063 296.011 253.705 296.381 248.6C297.189 237.45 300.812 214.642 305.548 190.895C307.46 181.311 309.305 171.074 309.649 168.145C310.262 162.935 310.22 162.819 307.717 162.819C305.634 162.819 305.035 163.423 304.493 166.069ZM317.061 165.031C316.549 166.29 314.96 173.844 313.529 181.819C312.098 189.794 310.494 198.206 309.964 200.512C309.434 202.818 309 205.956 309 207.485V210.265L311.944 207.042L314.887 203.819H325.425C335.521 203.819 335.985 203.725 336.515 201.569C336.82 200.331 336.941 191.219 336.785 181.319L336.5 163.319L327.246 163.031C318.413 162.757 317.949 162.848 317.061 165.031ZM347.702 163.451C347.316 163.837 347 173.077 347 183.986V203.819H357.021H367.041L366.771 183.569L366.5 163.319L357.452 163.034C352.475 162.877 348.087 163.065 347.702 163.451ZM376.446 164.1C376.175 164.804 376.077 173.917 376.227 184.35L376.5 203.319L387.838 203.819C394.073 204.094 399.303 204.19 399.458 204.032C399.614 203.873 399.388 201.848 398.955 199.532C398.523 197.215 397.43 190.144 396.528 183.819C395.626 177.494 394.418 170.182 393.844 167.569L392.801 162.819H384.869C379.344 162.819 376.788 163.208 376.446 164.1ZM139.967 173.069C136.109 175.676 135.735 176.811 133.453 192.863C131.123 209.251 131.839 240.145 134.947 257.294C136.14 263.881 137.33 269.482 137.591 269.743C137.851 270.003 139.496 268.785 141.245 267.035L144.427 263.854L142.591 253.586C138.858 232.707 139.462 199.464 143.95 178.781C145.879 169.892 145.491 169.335 139.967 173.069ZM455.424 174.157C455.141 174.894 455.043 179.056 455.205 183.407L455.5 191.319H460.5H465.5L465.788 182.069L466.075 172.819H461.006C457.695 172.819 455.759 173.283 455.424 174.157ZM476.212 182.069L476.5 191.319H481H485.5L485.788 182.069L486.075 172.819H481H475.925L476.212 182.069ZM424 189.76C424 194.678 424.404 198.951 424.897 199.256C425.391 199.561 427.191 199.531 428.897 199.19L432 198.569V189.694V180.819H428H424V189.76ZM82.593 186.668C81.855 187.862 75.997 232.502 76.015 236.79C76.034 240.994 77.471 243.76 78.883 242.311C79.415 241.765 80.321 237.944 80.897 233.819C81.473 229.694 83.081 218.669 84.47 209.319C87.598 188.266 87.659 185.819 85.059 185.819C83.991 185.819 82.882 186.201 82.593 186.668ZM606.229 187.007C606.847 188.861 609 189.168 609 187.402C609 186.531 608.288 185.819 607.417 185.819C606.546 185.819 606.011 186.353 606.229 187.007ZM507 203.319V208.881L519.25 208.6L531.5 208.319V203.319V198.319L519.25 198.038L507 197.757V203.319ZM455.416 202.736C455.187 202.965 455 207.127 455 211.986V220.819H460.5H466V211.916V203.012L460.916 202.666C458.12 202.475 455.645 202.507 455.416 202.736ZM476 211.819V220.819H481H486V211.819V202.819H481H476V211.819ZM279.171 211.128C278.365 212.113 271.757 235.975 267.724 252.469C266.375 257.984 267.241 260.039 270.744 259.636C273.441 259.326 273.512 259.147 274.067 251.319C274.514 245.016 278.636 226.322 282.587 212.687C283.166 210.69 280.52 209.482 279.171 211.128ZM344.362 212.319C342.955 215.985 344.643 216.819 353.469 216.819C359.635 216.819 361.996 217.165 361.985 218.069C361.941 221.622 360.774 221.783 332.951 222.053L305.5 222.319L305.18 224.569L304.861 226.819H333.5H362.139L361.82 228.972C361.501 231.118 361.404 231.125 334.08 231.069C318.999 231.038 306.062 231.242 305.33 231.523C304.599 231.803 304 233.11 304 234.426V236.819H333C361.26 236.819 362 236.87 362 238.804C362 240.732 361.17 240.796 332.75 241.054L303.5 241.319L303.182 243.554L302.865 245.789L332.182 246.054C360.745 246.312 361.5 246.371 361.5 248.319C361.5 250.268 360.745 250.326 331.75 250.584L302 250.849V253.319V255.789L331.737 256.054C359.14 256.298 361.5 256.456 361.81 258.069C362.125 259.704 360.176 259.819 332.073 259.819C300.566 259.819 300.206 259.872 303.392 264.069C304.608 265.671 307.4 265.819 336.36 265.819H368V238.319V210.819H356.469C347.141 210.819 344.827 211.106 344.362 212.319ZM374.336 212.386C373.322 215.028 375.702 216.206 382.751 216.549C393.006 217.048 404.8 218.642 407.017 219.828C408.896 220.834 409 221.974 409 241.654C409 263.153 409.302 264.819 413.2 264.819C414.876 264.819 415 263.375 415 243.819V222.819H419.106C421.364 222.819 425.914 223.519 429.216 224.375C435.641 226.04 437.055 225.729 435.371 223.021C432.183 217.895 419.641 214.658 392 211.827C378.367 210.43 375.046 210.535 374.336 212.386ZM507 223.319V228.881L519.25 228.6L531.5 228.319V223.319V218.319L519.25 218.038L507 217.757V223.319ZM374.175 224.026C374.481 226.184 374.941 226.319 382 226.319C388.833 226.319 389.5 226.141 389.5 224.319C389.5 222.514 388.736 222.29 381.675 222.026C374.017 221.738 373.856 221.781 374.175 224.026ZM375.653 232.642C374.744 232.82 374 233.852 374 234.934C374 236.748 374.609 236.88 381.75 236.611C387.842 236.381 389.5 235.998 389.5 234.819C389.5 233.704 387.934 233.191 383.403 232.819C380.05 232.544 376.563 232.464 375.653 232.642ZM423 233.819C423 235.629 423.667 235.819 430 235.819C436.333 235.819 437 235.629 437 233.819C437 232.009 436.333 231.819 430 231.819C423.667 231.819 423 232.009 423 233.819ZM455.713 232.44C455.321 232.832 455 236.902 455 241.486V249.819H460.539H466.078L465.789 241.069L465.5 232.319L460.963 232.023C458.467 231.86 456.105 232.048 455.713 232.44ZM476.212 241.069L476.5 250.319H481H485.5L485.788 241.069L486.075 231.819H481H475.925L476.212 241.069ZM506.607 239.401C506.273 240.271 506 242.034 506 243.319C506 248.668 506.355 248.819 518.979 248.819H530.744L531.371 244.898C532.48 237.965 532.224 237.819 519 237.819C509.175 237.819 507.113 238.082 506.607 239.401ZM425.25 241.525C420.477 242.444 423.324 243.819 430 243.819C437.522 243.819 439.377 242.474 433.25 241.461C429.336 240.814 428.924 240.817 425.25 241.525ZM374.706 243.446C374.318 243.834 374 244.752 374 245.486C374 246.487 376.012 246.819 382.073 246.819C389.223 246.819 390.108 246.619 389.813 245.069C389.539 243.634 388.211 243.267 382.446 243.029C378.578 242.87 375.095 243.058 374.706 243.446ZM423.736 250.416C422.156 251.996 424.521 252.819 430.642 252.819C435.415 252.819 437.056 252.483 436.754 251.569C436.311 250.226 424.934 249.218 423.736 250.416ZM199.718 257.802C161.248 268.861 153 271.751 153 274.169C153 275.323 154.675 275.612 161.162 275.58C168.077 275.545 169.861 275.174 172.844 273.15C179.359 268.729 217.63 257.819 226.625 257.819C229.244 257.819 236.922 261.463 246.441 267.224C253.015 271.202 254.506 271.548 255.372 269.293C255.783 268.221 254.253 266.697 250.229 264.172C247.078 262.195 241.276 258.381 237.337 255.698C232.135 252.155 229.259 250.839 226.837 250.892C225.001 250.932 212.798 254.042 199.718 257.802ZM374.362 254.318C374.027 255.191 373.921 256.068 374.126 256.267C374.332 256.466 377.875 256.782 382 256.969C388.941 257.284 389.5 257.161 389.5 255.314C389.5 253.531 388.729 253.288 382.236 253.025C376.341 252.786 374.856 253.03 374.362 254.318ZM507 263.319V268.819H518.955H530.909L531.55 265.406C531.902 263.529 531.892 261.054 531.528 259.906C530.905 257.944 530.153 257.819 518.933 257.819H507V263.319ZM423.736 259.416C422.156 260.996 424.521 261.819 430.642 261.819C435.415 261.819 437.056 261.483 436.754 260.569C436.311 259.226 424.934 258.218 423.736 259.416ZM455.443 262.107C455.148 262.877 455.04 266.839 455.203 270.913L455.5 278.319L460.218 278.622C465.821 278.983 466.286 278.08 465.803 267.788L465.5 261.319L460.74 261.014C457.365 260.797 455.823 261.116 455.443 262.107ZM476.211 269.569L476.5 278.319L481.25 278.624L486 278.929V269.874V260.819H480.961H475.922L476.211 269.569ZM375.332 269.606C363.073 273.995 355.74 284.417 351.428 303.58C348.702 315.697 350.597 315.751 355.399 303.694C362.378 286.172 366.931 280.413 377.555 275.673C381.721 273.814 384.233 273.476 393.5 273.526C402.944 273.578 405.49 273.966 411.5 276.273C422.277 280.409 424.944 281.208 425.642 280.511C426.89 279.262 423.787 276.924 415.295 272.717L406.709 268.464L393.604 268.11C382.756 267.817 379.611 268.074 375.332 269.606ZM189 273.712C178.171 277.302 167.023 287.221 162.246 297.514C159.087 304.32 158.069 316.079 159.921 324.355C162.175 334.43 171.737 345.819 177.941 345.819C180.081 345.819 179.897 345.416 175.721 340.952C169.123 333.898 165.932 327.001 165.301 318.429C164.058 301.55 172.714 287.356 188.019 281.179C195.192 278.284 207.068 278.648 214.175 281.979C221.415 285.373 227.845 291.306 231.57 298.031C234.334 303.019 234.5 303.972 234.5 314.819C234.5 325.472 234.295 326.709 231.711 331.614C230.176 334.526 226.863 338.937 224.347 341.417C221.832 343.897 219.962 346.115 220.193 346.345C221.124 347.277 228.128 344.582 230.951 342.207C232.608 340.813 235.659 336.241 237.732 332.047C241.335 324.756 241.5 323.983 241.5 314.35C241.5 304.975 241.271 303.812 238.2 297.574C233.539 288.105 226.379 280.629 218.19 276.682C212.24 273.813 210.394 273.425 201.5 273.17C196 273.012 190.375 273.256 189 273.712ZM236 277.748C236 278.258 236.711 279.387 237.58 280.256C238.988 281.664 245.07 281.808 293.33 281.578L347.5 281.319L347.82 279.069L348.139 276.819H292.07C258.232 276.819 236 277.187 236 277.748ZM506.514 279.775C506.172 280.851 506.192 283.326 506.558 285.275L507.223 288.819H519.004C532.224 288.819 532.48 288.672 531.371 281.74L530.744 277.819H518.94C508.101 277.819 507.084 277.979 506.514 279.775ZM602 279.319C602 280.144 602.45 280.819 603 280.819C603.55 280.819 604 280.144 604 279.319C604 278.494 603.55 277.819 603 277.819C602.45 277.819 602 278.494 602 279.319ZM143.997 283.064C142.774 285.075 142.442 286.474 143.092 286.876C143.657 287.225 147.561 287.29 151.767 287.02C157.946 286.624 159.752 286.125 161.174 284.424C164.424 280.536 163.555 279.952 154.465 279.918C145.934 279.887 145.928 279.889 143.997 283.064ZM384.028 281.891C377.332 284.929 373.204 288.461 369.398 294.411C364.783 301.626 362.587 310.484 363.414 318.554C364.274 326.95 365.345 329.429 368.907 331.271C373.579 333.687 373.956 333.194 371.735 327.569C367.003 315.584 369.865 301.345 378.996 291.439C383.148 286.934 391.763 281.819 395.196 281.819C396.188 281.819 397 281.369 397 280.819C397 279.089 388.693 279.775 384.028 281.891ZM430.75 287.508C428.283 288.153 428.57 289.536 431.75 292.335C434.565 294.813 436.755 295.259 440.791 294.178C443.717 293.394 443.199 291.897 439.025 289.069C435.774 286.866 434.283 286.585 430.75 287.508ZM75.455 290.274C72.594 293.134 72.421 294.547 74.557 297.596C76.292 300.075 81.742 300.677 83.8 298.619C85.858 296.561 85.256 291.111 82.777 289.376C79.728 287.24 78.315 287.413 75.455 290.274ZM245 290.748C245 291.258 245.623 292.299 246.383 293.06C247.48 294.157 251.258 294.373 264.633 294.103C273.91 293.916 282.063 293.564 282.75 293.322C283.438 293.08 284 292.193 284 291.35C284 290.028 281.344 289.819 264.5 289.819C253.167 289.819 245 290.208 245 290.748ZM476 298.819V307.819H481H486V298.819V289.819H481H476V298.819ZM139.411 296.317C138.249 300.946 139.368 301.819 146.455 301.819H152.973L154.487 298.197C155.319 296.205 156 294.405 156 294.197C156 293.989 152.409 293.819 148.019 293.819C140.342 293.819 140.014 293.914 139.411 296.317ZM195.395 294.959C185.92 297.083 179.335 306.784 180.209 317.328C181.11 328.191 189.098 335.266 200.5 335.301C205.704 335.317 207.145 334.871 211.363 331.943C217.867 327.428 221.521 319.862 220.669 312.67C219.226 300.492 207.468 292.252 195.395 294.959ZM398.558 296.311C392.783 298.368 389.823 300.893 386.866 306.285C377.392 323.559 396.592 342.697 413.929 333.261C428.838 325.147 428.102 304.372 412.64 296.887C407.694 294.493 404.078 294.345 398.558 296.311ZM506.828 298.836C506.641 299.396 506.649 301.871 506.845 304.336L507.201 308.819H518.996H530.79L531.229 304.569C531.471 302.232 531.47 299.757 531.227 299.069C530.67 297.491 507.35 297.269 506.828 298.836ZM437.748 300.404C436.484 301.669 439.277 306.85 441.528 307.415C444.853 308.25 448 306.995 448 304.833C448 300.843 446.889 299.819 442.56 299.819C440.235 299.819 438.07 300.082 437.748 300.404ZM317 301.824C310.024 302.766 301.053 305.159 294 307.959C289.171 309.876 286.085 310.195 268.692 310.572L248.885 311.002L249.192 313.66L249.5 316.319L265.383 316.595C284.119 316.921 289.302 316.118 300.287 311.187C308.483 307.507 308.534 307.499 325 307.071C334.075 306.835 341.879 306.28 342.343 305.838C342.806 305.396 342.678 304.085 342.057 302.926C341.027 301.001 340.134 300.83 331.715 300.95C326.647 301.022 320.025 301.415 317 301.824ZM192.4 307.219C189.76 309.859 189 311.445 189 314.315C189 319.44 191.679 323.473 196.316 325.329C204.103 328.444 211 323.494 211 314.79C211 310.918 210.459 309.451 208.099 306.925C205.649 304.303 204.466 303.819 200.499 303.819C196.488 303.819 195.302 304.317 192.4 307.219ZM400.378 305.256C395.955 307.181 394 310.465 394 315.969C394 320.184 394.388 320.993 397.728 323.746C405.461 330.12 414.929 325.754 414.978 315.792C415.003 310.649 413.197 307.489 408.989 305.313C405.497 303.507 404.413 303.5 400.378 305.256ZM140 311.369V314.919L145.75 314.619C151.435 314.322 151.504 314.282 151.813 311.069L152.127 307.819H146.063H140V311.369ZM439.39 314.246C439.088 315.031 438.99 316.719 439.171 317.996C439.445 319.933 440.052 320.293 442.822 320.164C446.756 319.98 446.552 320.165 447.331 316.069C447.946 312.84 447.924 312.819 443.944 312.819C441.396 312.819 439.738 313.339 439.39 314.246ZM506.618 319.371C505.753 321.628 505.875 326.073 506.845 327.602C507.45 328.556 510.715 328.813 519.58 328.602L531.5 328.319V323.319V318.319L519.368 318.039C508.967 317.799 507.149 317.989 506.618 319.371ZM141.392 321.241C140.292 324.107 142.815 326.517 147.987 327.54C150.773 328.091 153.264 328.2 153.522 327.783C153.78 327.366 153.722 325.68 153.393 324.036C152.893 321.533 152.204 320.95 149.148 320.444C143.586 319.524 141.987 319.689 141.392 321.241ZM247.975 324.384C247.439 325.795 247 327.418 247 327.991C247 328.564 245.61 331.945 243.912 335.504C242.213 339.063 241.071 342.223 241.373 342.526C242.518 343.67 252.031 340.456 267 333.867C282.902 326.867 291.601 323.819 295.682 323.819C296.957 323.819 298 323.369 298 322.819C298 322.18 289.158 321.819 273.475 321.819H248.95L247.975 324.384ZM583 331.86C556.179 344.995 552.005 347.175 552.002 348.048C552.001 348.448 553.013 348.362 554.25 347.857C557.324 346.601 577.417 338.789 588.968 334.359C594.175 332.362 599.432 330.861 600.649 331.024C601.971 331.2 613.081 341.396 628.213 356.319C642.155 370.069 654.561 382.176 655.781 383.224C660.072 386.908 657.929 383.093 651.25 375.156C647.538 370.744 640.9 362.725 636.5 357.336C618.054 334.742 606.634 321.819 605.117 321.82C604.228 321.82 594.275 326.338 583 331.86ZM436.602 329.069C434.062 333.027 434.214 335.029 437.081 335.354C440.107 335.697 441.028 335.178 443.308 331.846C445.89 328.073 445.445 326.819 441.523 326.819C439.012 326.819 437.645 327.444 436.602 329.069ZM331.293 338.498C330.844 339.668 331.813 341.183 334.491 343.498C338.827 347.245 339.797 347.512 340.685 345.198C341.108 344.096 340.056 342.506 337.404 340.235C332.917 336.395 332.18 336.186 331.293 338.498ZM427.099 343.214C424.007 346.505 425.636 347.05 431.273 344.61C436.816 342.211 437.33 340.819 432.674 340.819C430.459 340.819 428.598 341.618 427.099 343.214ZM471 363.649C471 365.355 471.83 365.765 476.25 366.241C487.956 367.503 490.419 367.406 490.773 365.666C491.132 363.902 489.661 363.532 477.25 362.262C471.429 361.667 471 361.762 471 363.649ZM112.75 366.883C109.588 368.515 107 370.519 107 371.335C107 373.475 109.374 373.17 115.033 370.302C118.473 368.559 120 367.176 120 365.802C120 363.268 119.653 363.32 112.75 366.883ZM298.656 367.569C298.402 367.982 297.876 370.451 297.486 373.057C296.9 376.968 297.066 377.907 298.431 378.431C300.808 379.343 301.28 378.485 301.792 372.318C302.166 367.801 301.968 366.819 300.683 366.819C299.822 366.819 298.91 367.156 298.656 367.569ZM491.5 387.819C489.916 390.382 492.887 390.818 511.809 390.804C530.917 390.789 535.002 390.249 533.569 387.931C532.671 386.477 492.396 386.37 491.5 387.819ZM143.464 389.877C141.995 392.255 145.089 392.874 157.082 392.601C167.328 392.368 169.5 392.057 169.5 390.819C169.5 389.579 167.301 389.271 156.827 389.04C148.295 388.852 143.929 389.125 143.464 389.877ZM176.571 408.581C176.257 408.895 176 409.752 176 410.486C176 411.536 179.096 411.819 190.573 411.819C203.636 411.819 205.113 411.646 204.823 410.153C204.543 408.709 202.673 408.455 190.821 408.248C183.298 408.117 176.886 408.267 176.571 408.581ZM63.558 440.326C57.939 442.306 54.862 444.857 52 449.908C49.841 453.718 49.5 455.557 49.5 463.397C49.5 471.746 49.742 472.867 52.509 477.343C57.725 485.78 68.887 489.254 79.674 485.798C86.089 483.743 91 477.695 91 471.851C91 470.09 90.359 469.819 86.185 469.819C81.661 469.819 81.269 470.032 79.691 473.342C76.69 479.634 68.731 480.279 63.353 474.665C60.815 472.016 60.471 470.86 60.155 463.905L59.802 456.112L63.746 451.965C66.474 449.098 68.525 447.819 70.395 447.819C74.539 447.819 78.668 450.429 79.84 453.789C80.828 456.623 81.222 456.819 85.948 456.819C91.492 456.819 91.745 456.429 89.905 450.718C88.507 446.376 82.615 440.991 78.604 440.389C69.779 439.065 67.168 439.054 63.558 440.326ZM131.451 439.726C125.74 440.677 121.018 443.718 117.514 448.702C114.633 452.799 114.5 453.445 114.5 463.314C114.5 473.164 114.639 473.84 117.507 477.979C122.912 485.781 134.36 489.165 144.275 485.893C147.897 484.698 154.988 477.878 155.014 475.566C155.021 474.88 155.299 473.306 155.63 472.069C156.196 469.958 155.929 469.819 151.284 469.819C146.68 469.819 146.167 470.077 143.918 473.517C139.488 480.294 130.133 479.83 126.405 472.648C122.888 465.873 125.052 452.467 130.098 449.767C134.066 447.643 139.594 448.089 142.439 450.762C143.848 452.085 145 453.989 145 454.993C145 456.515 145.824 456.819 149.941 456.819C152.659 456.819 155.091 456.48 155.347 456.066C156.226 454.645 153.156 447.592 150.414 444.729C146.37 440.508 138.778 438.505 131.451 439.726ZM180.184 439.866C173.941 441.126 169.368 444.337 166.241 449.656C163.769 453.862 163.5 455.257 163.5 463.892C163.5 472.642 163.734 473.819 166.228 477.587C170.371 483.847 176.337 486.89 184.773 487.047C194.05 487.219 200.198 484.267 204.75 477.456C207.758 472.956 208 471.981 208 464.385C208 457.398 207.591 455.38 205.25 450.816C200.85 442.237 190.609 437.763 180.184 439.866ZM277.5 439.748C269.917 441.578 266.01 446.398 266.004 453.933C265.998 460.987 269.21 463.558 284 468.338C290.808 470.538 292 471.442 292 474.406C292 477.387 289.313 478.819 283.721 478.819C279.319 478.819 276 476.721 276 473.938C276 473.09 274.387 472.807 270.75 473.017C265.8 473.302 265.518 473.462 265.81 475.819C266.685 482.88 273.195 486.816 284 486.816C295.847 486.816 301.699 482.67 302.727 473.547C303.185 469.489 302.903 468.684 299.867 465.383C297.148 462.425 294.867 461.246 288.018 459.26C278.688 456.554 275.418 454.228 276.436 451.02C277.048 449.092 281.563 446.819 284.781 446.819C285.597 446.819 287.667 448.298 289.382 450.105C291.914 452.774 293.252 453.385 296.5 453.355C300.431 453.32 300.497 453.259 300.327 449.819C299.959 442.348 288.208 437.164 277.5 439.748ZM463.5 439.712C455.44 441.787 450.873 446.269 448.38 454.55C444.304 468.096 450.461 482.925 461.425 485.967C467.539 487.663 475.365 487.184 479.976 484.831C484.446 482.551 489 476.246 489 472.339C489 469.982 488.677 469.819 484 469.819C480.669 469.819 478.998 470.236 478.995 471.069C478.992 471.757 477.974 473.589 476.732 475.141C475.03 477.268 473.402 478.067 470.127 478.382C466.273 478.753 465.409 478.428 462.481 475.5C457.269 470.288 456.57 459.344 460.984 452.086C464.679 446.01 474.654 446.87 477.921 453.546C479.367 456.502 479.9 456.775 484.25 456.796C488.288 456.816 489 456.529 489 454.884C489 449.988 484.966 443.913 479.999 441.327C476.765 439.644 467.348 438.722 463.5 439.712ZM575.828 440.353C559.728 445.456 555.811 470.666 569.281 482.493C575.353 487.824 587.558 489.111 595.16 485.222C599.326 483.09 603.92 476.827 605.647 470.925C607.438 464.806 606.891 455.913 604.42 450.959C602.722 447.556 596.87 442.1 593.574 440.847C588.968 439.096 580.536 438.861 575.828 440.353ZM675.5 439.694C667.944 441.654 664.01 446.436 664.004 453.669C663.998 459.96 668.231 463.919 678.047 466.804C686.932 469.415 690 471.203 690 473.771C690 477.076 687.224 478.819 681.959 478.819C677.675 478.819 676.781 478.442 674.842 475.819C672.9 473.193 672.011 472.819 667.704 472.819C662.862 472.819 662.794 472.862 663.458 475.508C664.506 479.682 667.609 483.406 671.629 485.313C677.093 487.906 690.429 487.074 694.945 483.858C698.625 481.238 701 476.468 701 471.696C701 466.85 694.981 461.621 686.887 459.434C676.855 456.725 675.032 455.793 674.337 453.024C673.855 451.103 674.252 450.034 675.96 448.65C679.39 445.873 683.653 446.318 687.154 449.819C689.608 452.273 690.982 452.819 694.702 452.819H699.25L698.613 449.635C697.408 443.61 692.408 440.142 683.836 439.386C680.901 439.127 677.15 439.266 675.5 439.694ZM1.231 462.933L1.5 486.319L8.5 486.652C23.379 487.36 34.512 483.406 39.208 475.746C42.168 470.917 42.865 459.371 40.56 453.338C37.044 444.13 30.169 440.793 13.231 440.071L0.961998 439.548L1.231 462.933ZM217.232 463.069L217.5 486.319L219.852 486.652C221.145 486.835 223.283 486.714 224.602 486.383C226.992 485.783 227 485.733 227 471.586C227 459.653 227.214 457.624 228.341 458.855C229.079 459.66 233.424 466.303 237.996 473.616L246.309 486.913L251.404 486.616L256.5 486.319L256.768 463.069L257.037 439.819H252.018H247V454.319C247 462.294 246.663 468.819 246.25 468.818C245.837 468.817 241.27 462.292 236.1 454.318L226.7 439.819H221.831H216.963L217.232 463.069ZM308 444.273V448.728L314.75 449.023L321.5 449.319V467.819V486.319L326.75 486.621L332 486.924V467.871V448.819H338.333C341.817 448.819 344.868 448.617 345.115 448.371C345.361 448.125 345.389 446.1 345.176 443.871L344.79 439.819H326.395H308V444.273ZM353.448 441.093C353.18 441.793 353.081 452.256 353.23 464.343L353.5 486.319L358.209 486.622L362.917 486.925L363.209 478.622L363.5 470.319H367.473C371.296 470.319 371.586 470.558 375.103 476.607C380.799 486.404 381.566 487.016 387.458 486.468C390.231 486.21 392.643 485.958 392.818 485.909C392.993 485.859 392.093 484.36 390.818 482.577C389.543 480.795 387.019 476.885 385.21 473.89C382.206 468.917 382.071 468.359 383.655 467.472C389.413 464.25 391.866 457.748 389.974 450.723C387.725 442.369 381.773 439.819 364.526 439.819C356.873 439.819 353.802 440.172 353.448 441.093ZM399.17 457.569C399.539 477.267 400.182 479.673 406.235 483.99C408.871 485.87 411.042 486.379 417.5 486.629C424.279 486.891 426.183 486.586 429.977 484.629C437.722 480.633 438.5 478.187 438.5 457.819V440.319L433.816 440.017L429.133 439.715L428.816 456.742C428.517 472.829 428.376 473.892 426.259 476.007C424.596 477.668 422.973 478.203 419.957 478.083C410.238 477.695 408.544 474.633 409.57 459.314C409.949 453.658 409.948 446.958 409.568 444.425L408.877 439.819H403.858H398.838L399.17 457.569ZM495.667 440.486C495.3 440.852 495 442.877 495 444.986V448.819H501.978H508.956L509.228 467.569L509.5 486.319H514.5H519.5L520 467.428L520.5 448.538L527 448.428L533.5 448.319L533.807 444.069L534.115 439.819H515.224C504.834 439.819 496.033 440.119 495.667 440.486ZM542 463.319V486.819H547H552V463.319V439.819H547H542V463.319ZM615.667 440.486C614.742 441.41 614.824 485.592 615.751 486.165C616.164 486.421 618.527 486.401 621.001 486.123L625.5 485.616L625.245 471.718C625.017 459.308 625.722 455.046 627.315 459.197C627.605 459.954 631.531 466.254 636.038 473.197L644.233 485.819H649.617H655V462.819V439.819H650.026H645.052L644.776 455.069L644.5 470.319L642.052 466.319C640.705 464.119 636.306 457.257 632.276 451.069L624.949 439.819H620.641C618.272 439.819 616.033 440.119 615.667 440.486ZM180.449 449.321C175.803 451.689 174 455.589 174 463.273C174 471.015 175.746 475.119 179.967 477.302C183.953 479.363 187.86 479.202 191.775 476.815C196.339 474.032 197.399 470.6 197.101 459.554C196.886 451.539 187.461 445.748 180.449 449.321ZM578.19 449.845C572.28 453.448 570.226 463.344 573.624 471.837C576.374 478.711 583.733 480.835 590.021 476.569C597.875 471.24 597.924 455.363 590.102 450.104C585.916 447.289 582.504 447.215 578.19 449.845ZM11.958 449.069C11.771 450.17 11.686 463.819 11.826 470.069L12 477.819L15.75 477.813C25.653 477.799 30.957 473.529 31.739 464.941C32.635 455.114 26.986 448.83 17.25 448.823C14.363 448.821 11.981 448.931 11.958 449.069ZM363.201 455.024L363.5 461.319L367.977 461.638C375.694 462.187 378.682 461.169 379.939 457.564C380.879 454.869 380.759 453.972 379.173 451.843C377.513 449.614 376.452 449.285 370.098 449.024L362.902 448.729L363.201 455.024ZM156 508.819C156 510.325 156.522 510.865 157.75 510.629C158.712 510.443 159.5 509.629 159.5 508.819C159.5 508.009 158.712 507.195 157.75 507.009C156.522 506.773 156 507.313 156 508.819ZM220.412 507.736C220.185 507.965 220 513.927 220 520.986V533.819H229.083C235.904 533.819 238.064 533.508 237.754 532.569C237.492 531.776 234.882 531.21 230.615 531.022L223.89 530.725L224.195 526.522L224.5 522.319L230.817 522.02C239.209 521.622 238.738 519.435 230.171 519.021L224 518.724V514.817V510.91L230.67 510.615C234.653 510.438 237.497 509.846 237.729 509.144C238 508.321 235.529 507.872 229.47 507.644C224.715 507.465 220.639 507.507 220.412 507.736ZM303.667 507.486C303.3 507.852 303 513.927 303 520.986C303 533.152 303.104 533.819 305 533.819C306.901 533.819 307 533.152 307 520.319C307 509.736 306.712 506.819 305.667 506.819C304.933 506.819 304.033 507.119 303.667 507.486ZM313.222 520.322C313.39 528.472 313.896 533.825 314.5 533.825C315.104 533.825 315.61 528.472 315.778 520.322C316.019 508.649 315.845 506.819 314.5 506.819C313.155 506.819 312.981 508.649 313.222 520.322ZM447 508.819C447 510.152 447.667 510.819 449 510.819C450.333 510.819 451 510.152 451 508.819C451 507.486 450.333 506.819 449 506.819C447.667 506.819 447 507.486 447 508.819ZM476.667 507.486C475.29 508.862 476.073 510.819 478 510.819C479.333 510.819 480 510.152 480 508.819C480 506.892 478.043 506.109 476.667 507.486ZM562 520.319C562 533.152 562.099 533.819 564 533.819C565.901 533.819 566 533.152 566 520.319C566 507.486 565.901 506.819 564 506.819C562.099 506.819 562 507.486 562 520.319ZM0 520.819V533.819H9C16.208 533.819 18 533.529 18 532.365C18 531.265 16.355 530.838 11.26 530.615C3.99099 530.296 3.116 529.479 4.43 524.24C4.989 522.016 5.525 521.819 11.019 521.819C15.669 521.819 17 521.485 17 520.319C17 519.153 15.669 518.819 11.019 518.819C5.475 518.819 4.992 518.637 4.411 516.321C3.249 511.69 4.36699 510.819 11.469 510.819C16.608 510.819 18 510.499 18 509.319C18 508.097 16.333 507.819 9 507.819H0V520.819ZM67 509.319C67 510.152 67.889 510.819 69 510.819C70.111 510.819 71 510.152 71 509.319C71 508.486 70.111 507.819 69 507.819C67.889 507.819 67 508.486 67 509.319ZM425.806 520.821L425.5 533.823L434.333 533.821C440.953 533.819 443.063 533.506 442.754 532.569C442.498 531.795 439.991 531.206 436.171 531.021L430 530.724V519.271C430 508.595 429.868 507.819 428.056 507.819C426.245 507.819 426.09 508.714 425.806 520.821ZM539.667 508.486C539.3 508.852 539 514.702 539 521.486V533.819H548.583C555.804 533.819 558.065 533.511 557.754 532.569C557.492 531.778 554.893 531.211 550.67 531.023L544 530.728V526.273V521.819H550.583C555.403 521.819 557.056 521.484 556.754 520.569C556.499 519.798 554.011 519.206 550.26 519.024C543.696 518.705 542.499 517.664 543.609 513.24C544.173 510.995 544.681 510.819 550.608 510.819C555.623 510.819 557 510.496 557 509.319C557 508.106 555.407 507.819 548.667 507.819C544.083 507.819 540.033 508.119 539.667 508.486ZM83.402 515.454C81.538 516.421 80.417 516.569 80.187 515.879C79.992 515.296 79.196 514.819 78.417 514.819C77.289 514.819 77 516.854 77 524.788C77 533.238 77.228 534.669 78.5 534.181C79.574 533.769 80 532.091 80 528.277C80 521.67 81.237 518.252 83.877 517.561C87.896 516.51 89.5 519.057 89.5 526.488C89.5 532.719 90.176 534.761 92.25 534.804C93.23 534.824 93.198 518.678 92.214 517.132C90.665 514.696 86.421 513.888 83.402 515.454ZM103.329 515.285C99.346 517.007 98 519.491 98 525.117C98 533.409 106.072 537.696 112.365 532.746C113.814 531.607 115 530.257 115 529.746C115 528.292 112.016 528.661 110.357 530.319C107.337 533.339 102 531.015 102 526.68C102 524.997 102.588 524.722 105.75 524.927C107.813 525.06 110.971 525.09 112.769 524.994C115.798 524.832 115.991 524.617 115.399 522.069C114.659 518.88 111.38 515.269 108.5 514.469C107.4 514.164 105.073 514.531 103.329 515.285ZM192.428 514.959C187.171 516.37 184.827 524.391 187.961 530.246C189.589 533.289 195.279 534.75 198.257 532.891C200.823 531.288 201.588 532.242 200.418 535.589C199.408 538.476 195.046 539.863 192.69 538.046C188.627 534.915 185.564 536.404 189.166 539.759C192.424 542.794 199.319 542.591 202.545 539.364C204.855 537.055 205 536.258 205 525.864C205 516.914 204.727 514.819 203.559 514.819C202.766 514.819 201.826 515.291 201.47 515.868C201.078 516.501 200.363 516.563 199.661 516.023C197.576 514.418 195.552 514.121 192.428 514.959ZM23 524.319C23 533.152 23.14 533.819 25 533.819C26.804 533.819 27 533.152 27 527.019C27 519.738 27.973 517.819 31.665 517.819C34.78 517.819 36 520.614 36 527.753C36 532.873 36.274 533.819 37.757 533.819C39.319 533.819 39.477 532.902 39.175 525.569C38.924 519.469 38.416 516.993 37.227 516.069C35.248 514.532 29.363 514.423 28.446 515.906C27.962 516.689 27.47 516.689 26.687 515.906C23.776 512.995 23 514.764 23 524.319ZM45.974 517.569C43.061 521.259 43.621 529.284 46.982 532.005C49.519 534.06 55.007 534.412 56.783 532.636C58.681 530.738 59.299 532.421 57.833 535.493C56.191 538.936 52.242 539.679 48.526 537.244C45.233 535.086 44.25 536.025 46.388 539.288C48.568 542.615 55.411 542.857 59.365 539.746C61.937 537.723 62 537.401 62 526.246C62 517.054 61.723 514.819 60.583 514.819C59.804 514.819 58.96 515.382 58.708 516.069C58.342 517.069 57.985 517.069 56.925 516.069C56.196 515.382 53.923 514.819 51.873 514.819C48.999 514.819 47.648 515.449 45.974 517.569ZM67 524.319C67 533.152 67.14 533.819 69 533.819C70.86 533.819 71 533.152 71 524.319C71 515.486 70.86 514.819 69 514.819C67.14 514.819 67 515.486 67 524.319ZM122.092 517.221C118.905 520.613 118.378 526.494 120.9 530.515C124.282 535.906 133.166 536.115 135.973 530.869C136.902 529.135 136.776 528.819 135.158 528.819C134.106 528.819 132.685 529.494 132 530.319C130.083 532.629 126.26 532.146 124.437 529.363C123.552 528.012 123.118 526.437 123.473 525.863C123.828 525.289 127.016 524.819 130.559 524.819C136.793 524.819 137 524.737 137 522.274C137 515.642 126.818 512.191 122.092 517.221ZM142 524.392C142 532.973 142.181 533.93 143.75 533.624C145.475 533.288 145.633 532.477 145.919 522.482C145.982 520.283 146.675 519.391 149 518.513C152.387 517.234 153.041 514.819 150 514.819C148.9 514.819 148 515.269 148 515.819C148 516.369 147.325 516.819 146.5 516.819C145.675 516.819 145 516.369 145 515.819C145 515.269 144.325 514.819 143.5 514.819C142.271 514.819 142 516.549 142 524.392ZM156 524.246C156 533.268 156.12 533.819 158.075 533.819C160.051 533.819 160.133 533.377 159.798 524.578C159.502 516.795 159.174 515.284 157.723 515.004C156.189 514.709 156 515.723 156 524.246ZM165.667 515.486C165.3 515.852 165 520.127 165 524.986C165 533.152 165.151 533.819 167 533.819C168.794 533.819 169 533.152 169 527.358C169 521.999 169.373 520.549 171.189 518.858C173.764 516.459 174.066 516.415 176.382 518.109C177.752 519.111 178.186 521.013 178.323 526.609C178.474 532.741 178.762 533.818 180.25 533.818C181.768 533.819 182 532.779 182 525.974C182 519.644 181.647 517.809 180.171 516.474C178.109 514.608 171.965 514.254 170.313 515.906C169.53 516.689 169.038 516.689 168.554 515.906C167.791 514.672 166.647 514.505 165.667 515.486ZM242 515.339C242 515.625 243.125 517.641 244.5 519.819C245.875 521.997 247 524.022 247 524.319C247 524.616 245.875 526.641 244.5 528.819C243.125 530.997 242 533.196 242 533.706C242 534.722 245.986 533.976 246.022 532.952C246.034 532.604 246.872 531.243 247.883 529.928L249.721 527.538L251.576 530.678C252.799 532.749 254.214 533.819 255.728 533.819H258.025L255.513 529.839C252.486 525.044 252.398 523.248 255 519.319C257.397 515.7 257.486 514.819 255.453 514.819C254.603 514.819 253.14 516.166 252.203 517.813C251.267 519.459 250.193 520.809 249.818 520.813C249.443 520.816 248.175 519.469 247 517.819C245.179 515.262 242 513.685 242 515.339ZM262.924 517.4C261.025 519.421 260.5 521.064 260.5 524.986C260.5 529.231 260.926 530.359 263.306 532.406C264.849 533.733 267.234 534.819 268.605 534.819C271.746 534.819 276.575 532.368 277.335 530.388C278.295 527.886 275.999 527.471 273.612 529.714C270.751 532.402 268.599 532.378 266.039 529.63C261.164 524.398 266.051 514.635 271.962 517.799C273.083 518.399 274 519.324 274 519.854C274 520.385 274.675 520.819 275.5 520.819C276.325 520.819 277 520.176 277 519.39C277 514.395 267.067 512.99 262.924 517.4ZM284.667 516.634C281.733 519.876 280.699 524.377 281.989 528.286C284.196 534.974 291.219 536.942 296.545 532.365C299.045 530.216 299.185 529.827 297.664 529.243C296.641 528.851 295.188 529.244 294.134 530.198C293.149 531.089 291.376 531.819 290.194 531.819C287.84 531.819 284.442 527.531 285.473 525.863C285.828 525.289 289.016 524.819 292.559 524.819C299.889 524.819 300.532 523.844 297.011 518.069C295.263 515.202 294.515 514.819 290.67 514.819C287.728 514.819 285.776 515.409 284.667 516.634ZM323.452 517.465C319.794 521.412 320.009 527.982 323.923 531.896C325.829 533.802 327.87 534.819 329.788 534.819C332.696 534.819 338 531.542 338 529.746C338 528.287 335.374 528.663 334 530.319C331.358 533.503 325 530.798 325 526.49C325 525.088 326.126 524.819 332 524.819C337.686 524.819 339 524.525 339 523.253C339 515.708 328.651 511.855 323.452 517.465ZM343 524.319C343 533.152 343.14 533.819 345 533.819C346.804 533.819 347 533.152 347 527.019C347 519.542 347.954 517.819 352.093 517.819C355.427 517.819 356 519.225 356 527.401C356 533.152 356.208 533.819 358 533.819C359.797 533.819 360 533.152 360 527.253C360 520.909 358.895 517.117 356.6 515.584C354.913 514.458 349.202 514.683 348.446 515.906C347.962 516.689 347.47 516.689 346.687 515.906C343.776 512.995 343 514.764 343 524.319ZM366.452 517.465C363.501 520.65 363.156 526.581 365.674 530.843C368.298 535.286 374.042 536.147 378.365 532.746C381.125 530.575 381.895 527.819 379.741 527.819C379.048 527.819 377.919 528.719 377.232 529.819C375.671 532.318 371.84 532.405 369.655 529.99C366.175 526.145 368.788 516.819 373.345 516.819C374.085 516.819 375.505 517.719 376.5 518.819C378.571 521.107 381 521.461 381 519.474C381 516.927 377.432 514.819 373.124 514.819C369.846 514.819 368.357 515.409 366.452 517.465ZM387.455 517.274C383.755 520.973 383.979 527.951 387.923 531.896C391.588 535.561 395.814 535.743 399.694 532.404C403.152 529.428 401.991 527.802 398.065 530.122C396.485 531.055 394.505 531.819 393.667 531.819C391.586 531.819 389 529.072 389 526.862C389 525.284 389.836 525.066 395.416 525.183C398.945 525.258 402.14 525.012 402.516 524.636C403.638 523.514 400.985 516.881 398.986 515.811C395.518 513.956 390.083 514.645 387.455 517.274ZM447 524.319C447 533.152 447.14 533.819 449 533.819C450.86 533.819 451 533.152 451 524.319C451 515.486 450.86 514.819 449 514.819C447.14 514.819 447 515.486 447 524.319ZM455.51 516.569C455.908 517.531 457.419 521.773 458.867 525.995C462.119 535.476 464.278 536.682 466.915 530.493C469.77 523.793 472.25 515.736 471.645 515.131C470.134 513.619 468.147 516.235 466.589 521.788C465.639 525.171 464.385 527.781 463.8 527.586C463.216 527.391 461.881 524.439 460.833 521.025C459.299 516.028 458.524 514.819 456.857 514.819C455.275 514.819 454.957 515.233 455.51 516.569ZM476.667 515.486C476.3 515.852 476 520.127 476 524.986C476 533.152 476.151 533.819 478 533.819C479.86 533.819 480 533.152 480 524.319C480 517.069 479.684 514.819 478.667 514.819C477.933 514.819 477.033 515.119 476.667 515.486ZM486 524.319C486 532.097 486.272 533.819 487.5 533.819C488.649 533.819 489 532.548 489 528.384C489 520.479 490.259 517.819 494 517.819C497.871 517.819 499.348 521.158 498.755 528.569C498.389 533.145 498.571 533.819 500.168 533.819C501.788 533.819 502 532.913 502 525.974C502 519.644 501.647 517.809 500.171 516.474C498.013 514.521 492.955 514.295 491.075 516.069C490.015 517.069 489.658 517.069 489.292 516.069C489.04 515.382 488.196 514.819 487.417 514.819C486.294 514.819 486 516.79 486 524.319ZM509.073 517.454C506.048 521.299 506.236 528.146 509.455 531.364C512.098 534.008 516.782 534.637 518.8 532.619C520.768 530.651 522.118 532.946 520.688 535.83C519.171 538.888 515.071 539.567 511.65 537.326C508.253 535.1 506.776 537.409 509.952 539.981C513.327 542.714 519.498 542.412 522.545 539.364C524.855 537.055 525 536.258 525 525.864C525 517.468 524.688 514.819 523.7 514.819C522.985 514.819 521.911 515.308 521.313 515.906C520.53 516.689 520.038 516.689 519.554 515.906C519.184 515.308 517.141 514.819 515.014 514.819C512.026 514.819 510.673 515.419 509.073 517.454ZM573.025 516.794C569.331 520.488 569.142 528.109 572.649 531.984C575.915 535.592 585.174 535.134 586.649 531.291C587.642 528.704 586.205 528.394 582.491 530.394C578.744 532.412 576.715 531.92 574.567 528.474C573.009 525.975 575.379 524.853 582.25 524.834C587.088 524.821 588 524.537 588 523.042C588 521.207 585.422 516.879 583.558 515.584C581.377 514.07 575.019 514.8 573.025 516.794ZM594.566 516.746C590.85 520.852 590.915 527.858 594.708 532.048C596.435 533.957 602.47 534.486 603.5 532.819C604.603 531.034 606 531.761 606 534.119C606 538.713 601.206 540.31 596.557 537.265C593.504 535.264 592.073 537.137 594.557 539.882C597.22 542.824 604.37 542.54 607.545 539.364C609.855 537.055 610 536.258 610 525.864C610 517.468 609.688 514.819 608.7 514.819C607.985 514.819 606.911 515.308 606.313 515.906C605.53 516.689 605.038 516.689 604.554 515.906C603.4 514.04 596.49 514.621 594.566 516.746ZM616.952 516.657C613.194 519.7 615.474 521.181 619.951 518.605C623.2 516.735 624.032 516.601 625.393 517.731C626.277 518.464 627 519.909 627 520.941C627 522.447 626.251 522.819 623.223 522.819C617.942 522.819 615 525.122 615 529.254C615 532.038 615.511 532.788 618.149 533.881C620.845 534.998 621.704 534.952 624.126 533.561C625.757 532.625 627.202 532.336 627.537 532.878C627.856 533.396 628.766 533.819 629.559 533.819C631.925 533.819 631.586 518.659 629.171 516.474C626.679 514.219 619.836 514.321 616.952 516.657ZM636.667 515.486C636.3 515.852 636 520.127 636 524.986C636 533.152 636.151 533.819 638 533.819C639.78 533.819 640 533.152 640 527.753C640 519.06 642.578 515.452 647.072 517.858C648.712 518.735 649 520.006 649 526.354C649 533.152 649.179 533.819 651 533.819C652.817 533.819 653 533.152 653 526.542C653 517.851 651.417 514.819 646.878 514.819C645.223 514.819 642.998 515.285 641.934 515.854C640.601 516.568 640 516.568 640 515.854C640 514.702 637.704 514.448 636.667 515.486ZM660.078 517.236C658.385 519.038 657.769 520.965 657.654 524.82C657.519 529.34 657.852 530.291 660.306 532.403C664.151 535.714 669.098 535.63 672.532 532.196C674.386 530.343 674.843 529.262 674.091 528.51C673.338 527.757 672.344 528.087 670.699 529.632C667.752 532.4 665.619 532.4 663.039 529.63C660.073 526.447 660.349 521.476 663.635 518.892C666.954 516.28 667.14 516.292 670.423 519.335C672.956 521.682 675 521.89 675 519.799C675 519.303 674.015 517.979 672.811 516.858C669.613 513.878 663.049 514.073 660.078 517.236ZM680.924 517.4C679.025 519.421 678.5 521.064 678.5 524.986C678.5 529.282 678.916 530.35 681.431 532.513C683.82 534.568 685.082 534.937 688.258 534.511C693.78 533.771 698.882 528.819 694.122 528.819C693.09 528.819 691.685 529.494 691 530.319C689.325 532.337 686.703 532.209 683.944 529.975C681.36 527.882 681.847 524.738 684.716 524.983C685.697 525.067 688.638 525.065 691.25 524.977C695.533 524.835 696 524.587 696 522.454C696 521.153 695.067 518.903 693.927 517.454C691.002 513.735 684.393 513.708 680.924 517.4ZM49.977 518.842C47.405 521.414 47.396 526.794 49.961 529.547C52.353 532.114 55.275 531.574 57.519 528.15C61.365 522.279 54.73 514.089 49.977 518.842ZM103.655 518.648C100.814 521.787 101.641 522.819 107 522.819C112.422 522.819 113.098 521.917 110 518.819C107.517 516.336 105.789 516.289 103.655 518.648ZM124.952 518.657C121.826 521.188 123.24 522.819 128.559 522.819C133.441 522.819 134.333 521.335 131.171 518.474C128.835 516.36 127.749 516.392 124.952 518.657ZM192.455 519.274C189.777 521.951 189.505 523.386 190.952 527.193C192.285 530.698 195.393 532.215 197.959 530.612C202.388 527.847 202.48 520.217 198.114 517.88C195.416 516.436 195.251 516.477 192.455 519.274ZM286.964 518.855C284.193 521.626 285.275 522.819 290.559 522.819C295.595 522.819 296.509 520.989 292.777 518.376C289.911 516.368 289.409 516.41 286.964 518.855ZM327.223 518.376C323.333 521.1 324.408 522.819 330 522.819C335.445 522.819 336.45 521.442 333.171 518.474C330.905 516.423 330.03 516.409 327.223 518.376ZM391.065 518.486C387.481 520.996 388.48 522.819 393.441 522.819C398.188 522.819 399.867 521.568 398.053 519.383C396.31 517.283 393.329 516.9 391.065 518.486ZM576.223 518.376C572.333 521.1 573.408 522.819 579 522.819C582.69 522.819 584 522.441 584 521.376C584 520.086 580.415 516.819 579 516.819C578.695 516.819 577.445 517.52 576.223 518.376ZM597.909 518.692C596.205 520.072 595.624 521.526 595.7 524.221C595.824 528.585 597.438 530.819 600.467 530.819C605.592 530.819 607.959 522.778 604 518.819C601.529 516.348 600.821 516.334 597.909 518.692ZM683.964 518.855C681.193 521.626 682.275 522.819 687.559 522.819C692.441 522.819 693.333 521.335 690.171 518.474C687.773 516.304 686.433 516.386 683.964 518.855ZM511.977 519.861C510.475 522.668 511.155 528.9 513.095 530.115C513.973 530.664 515.84 530.825 517.245 530.472C520.749 529.593 522.215 525.237 520.434 520.999C519.351 518.425 518.522 517.819 516.083 517.819C514.073 517.819 512.707 518.499 511.977 519.861ZM621.335 525.496C617.266 526.322 617.336 531.819 621.416 531.819C624.258 531.819 626.776 529.853 627.181 527.319C627.517 525.215 625.625 524.626 621.335 525.496ZM407.059 531.709C406.245 533.23 406.432 533.699 408.023 534.115C410.268 534.702 411.443 533.416 410.62 531.271C409.849 529.261 408.265 529.456 407.059 531.709ZM700.688 530.465C699.272 531.88 700.073 533.819 702.073 533.819C703.471 533.819 704.041 533.276 703.823 532.152C703.466 530.311 701.759 529.393 700.688 530.465Z" fill="#013B63"/>
</svg>
