<svg width="664" height="509" viewBox="0 0 664 509" fill="none" xmlns="http://www.w3.org/2000/svg">
<path fill-rule="evenodd" clip-rule="evenodd" d="M317.494 0.574849C286.166 4.47085 267.561 9.83685 241.345 22.5368C209.194 38.1118 179.542 64.4038 159.7 94.9308C154.353 103.157 143.06 124.818 141.496 129.847C140.326 133.608 134.964 145.294 134.138 145.88C133.735 146.167 129.434 151.473 124.582 157.672C119.729 163.87 114.503 169.945 112.969 171.172C111.434 172.398 106.484 178.352 101.97 184.402C86.6926 204.873 80.6056 211.375 72.1776 216.223C57.8206 224.482 51.9236 227.101 49.2156 226.422C45.2486 225.426 41.2386 227.628 39.9596 231.506C38.7106 235.291 38.0296 235.552 27.6436 236.236C18.4596 236.842 10.8556 240.711 5.85963 247.321C-2.07237 257.816 -1.97436 267.261 6.29364 288.902C11.7986 303.311 14.7346 310.116 17.5126 314.902C18.3106 316.277 18.9706 318.654 18.9786 320.184C19.0056 325.266 24.0186 334.622 26.0446 333.371C26.4756 333.104 26.3866 331.288 25.8476 329.335C24.4346 324.218 25.4836 322.74 27.3956 327.152C28.9306 330.696 30.9936 332.211 30.9936 329.795C30.9936 329.187 30.2626 324.691 29.3686 319.805L27.7426 310.922L31.1186 307.071C32.9746 304.952 42.3086 293.014 51.8606 280.541C61.4116 268.069 70.3126 257.01 71.6396 255.966C72.9666 254.922 75.7606 253.779 77.8496 253.426C79.9376 253.074 82.8366 252.024 84.2916 251.093C85.7466 250.163 95.8376 238.316 106.716 224.766C117.594 211.216 133.019 191.997 140.994 182.057C148.969 172.117 156.222 163.966 157.112 163.943C158.61 163.905 178.205 177.4 226.994 212.07C237.719 219.691 247.355 226.587 248.408 227.394C250.154 228.734 250.218 229.322 249.133 234.132C247.205 242.682 247.205 242.682 238.858 238.16C234.808 235.966 228.282 232.281 224.356 229.972L217.217 225.773L193.856 232.919C145.771 247.628 147.842 246.892 142.106 251.326C135.787 256.211 129.626 265.727 128.062 273.02C126.516 280.231 126.751 294.812 128.556 303.549C129.415 307.708 129.929 311.3 129.698 311.532C129.466 311.763 127.167 311.048 124.587 309.942C112.414 304.724 97.5376 303.162 85.9506 305.886C69.5346 309.745 51.8436 322.49 41.1236 338.18C36.1156 345.51 27.0126 365.029 27.0026 368.461C26.9976 370.143 27.5796 372.322 28.2966 373.302C29.5286 374.987 33.8906 375.076 108.636 374.951C197.467 374.802 195.628 374.675 212.333 382.081C250.346 398.935 288.297 404.891 328.994 400.39C336.419 399.568 345.869 398.184 349.994 397.314C361.867 394.809 382.3 388.179 394.909 382.739C401.281 379.99 409.419 377.108 412.994 376.334C418.353 375.175 438.448 374.927 527.494 374.924C586.894 374.921 636.293 374.916 637.269 374.911C638.261 374.906 639.485 373.74 640.045 372.267C641.249 369.101 640.591 367.955 631.659 357.674C628.184 353.674 615.162 338.182 602.721 323.246C590.28 308.31 579.076 295.373 577.825 294.496C573.025 291.134 569.389 292.275 542.942 305.448C529.087 312.348 517.523 317.765 517.244 317.485C516.964 317.205 520.36 309.647 524.791 300.689C539.239 271.477 545.949 247.674 548.042 218.204C549.963 191.153 545.929 162.079 536.552 135.402C534.619 129.902 533.028 125.064 533.016 124.652C533.004 124.24 541.544 123.902 551.994 123.902C570.327 123.902 570.994 123.832 570.994 121.902C570.994 119.967 570.327 119.902 550.462 119.902C530.083 119.902 529.923 119.885 529.094 117.652C528.26 115.407 528.289 115.401 541.048 114.902C552.771 114.444 554.049 114.204 556.362 112.029C557.749 110.724 559.022 108.478 559.189 107.037C559.386 105.346 560.202 104.291 561.494 104.057C564.213 103.565 566.994 100.959 566.994 98.9018C566.994 97.9718 566.112 96.4139 565.034 95.4379C562.572 93.2099 558.01 94.1258 557.259 96.9978C556.825 98.6548 556.192 98.8928 553.614 98.3668C551.898 98.0168 549.819 96.7568 548.994 95.5658C544.993 89.7938 539.925 87.0308 532.994 86.8458C531.256 86.7998 529.579 85.5199 527.494 82.6469C522.795 76.1739 518.915 74.3968 509.561 74.4308L501.628 74.4598L497.587 69.9308C480.577 50.8668 460.208 35.0708 437.856 23.6108C413.609 11.1778 396.008 5.68285 366.866 1.44685C357.146 0.033849 326.232 -0.512151 317.494 0.574849ZM324.494 7.96685C295.677 9.92685 271.924 16.4049 245.162 29.6028C206.799 48.5219 176.133 78.2448 157.175 114.884L151.74 125.389L155.974 126.111C159.247 126.67 161.08 126.388 164.061 124.868C170.012 121.832 176.17 122.239 180.394 125.949C186.299 131.133 187.884 137.949 185.849 149.402C185.383 152.029 188.313 153.499 252.726 182.945C267.593 189.741 274.218 192.314 274.826 191.527C275.922 190.108 282.994 158.082 282.994 154.536C282.994 152.333 282.544 151.899 280.244 151.887C278.732 151.878 276.884 151.485 276.139 151.013C274.365 149.888 273.469 138.263 274.877 134.644L275.951 131.885L332.722 132.144L389.494 132.402L389.788 140.247C390.132 149.451 389.318 150.902 383.81 150.902H379.871L380.534 155.652C381.674 163.827 385.815 182.374 387.757 188.008L389.616 193.402L397.055 194.629C414.604 197.524 419.594 203.587 420.681 223.339C421.388 236.181 419.662 250.334 416.525 257.429L414.102 262.907L417.185 264.501C421.631 266.8 424.936 270.653 427.632 276.681C431.063 284.348 431.004 298.733 427.501 309.056C426.13 313.096 425.005 316.503 425.001 316.627C424.986 317.099 431.575 315.579 433.246 314.725C436.948 312.833 438.378 307.099 438.437 293.902C438.492 281.886 438.371 281.143 435.329 274.722C433.589 271.049 430.261 265.978 427.935 263.453L423.704 258.864L425.599 251.133C427.058 245.181 427.494 239.72 427.494 227.402C427.494 210.544 426.465 205.369 421.78 198.656C418.99 194.658 411.759 190.794 403.616 188.948L396.494 187.333L396.204 178.571C395.967 171.383 395.607 169.696 394.204 169.178C391.786 168.287 391.027 166.871 391.009 163.222C390.997 160.679 391.445 159.977 393.244 159.722C395.29 159.431 395.576 158.632 396.4 150.902C397.428 141.265 397.405 136.036 396.281 123.902L395.494 115.402L391.801 115.095L388.108 114.788L387.801 119.595C387.521 123.974 387.271 124.402 384.994 124.402C382.721 124.402 382.466 123.971 382.189 119.652L381.884 114.902H377.994H374.104L373.799 119.652L373.494 124.402H366.494H359.494V84.4018V44.4018H390.494H421.494V65.9018C421.494 77.7268 421.85 87.9518 422.286 88.6238C422.877 89.5358 428.833 89.8018 445.786 89.6718C458.275 89.5758 469.507 89.8438 470.744 90.2668L472.994 91.0368V130.448V169.859L492.244 170.13L511.494 170.402L511.994 238.902L512.494 307.402L518.254 296.149C527.856 277.389 534.396 257.919 538.153 236.902C539.951 226.85 540.388 220.68 540.386 205.402C540.384 194.754 539.829 183.105 539.122 178.902C535.276 156.031 530.25 138.645 523.036 123.25L519.124 114.902H505.375C493.446 114.902 491.05 114.624 487.282 112.8C484.854 111.624 482.29 109.442 481.467 107.849C477.904 100.96 481.048 92.0658 488.25 88.6578C492.231 86.7738 495.438 81.8759 494.541 79.0499C493.754 76.5709 473.852 57.0828 465.494 50.6068C448.583 37.5048 426.01 25.2558 406.377 18.5288C380.965 9.82085 352.053 6.09185 324.494 7.96685ZM516.565 51.4728C514.581 53.4578 514.591 54.3558 516.619 56.3839C518.906 58.6709 522.417 57.9428 522.821 55.0968C523.448 50.6738 519.596 48.4428 516.565 51.4728ZM373.994 68.4018V76.9018H377.994H381.994V68.4018V59.9018H377.994H373.994V68.4018ZM387.994 68.3419V76.9018H391.475C395.63 76.9018 396.262 75.3588 395.8 66.3598L395.494 60.4018L391.744 60.0919L387.994 59.7808V68.3419ZM400.994 68.4018V76.9018H404.994H408.994V68.4018V59.9018H404.994H400.994V68.4018ZM131.421 67.6668C129.209 69.1818 129.031 71.9389 131.017 73.9249C133.477 76.3849 135.21 76.4258 137.339 74.0728C139.293 71.9138 139.457 69.7648 137.794 68.1018C136.459 66.7668 133.073 66.5358 131.421 67.6668ZM506.327 80.0018C502.604 81.0768 498.118 86.0318 497.338 89.9298C496.884 92.2028 496.126 92.7848 492.964 93.2908C485.776 94.4398 482.723 101.722 487.449 106.447L489.903 108.902H520.826C547.093 108.902 551.937 108.676 552.994 107.402C554.605 105.46 552.7 102.909 549.622 102.887C546.841 102.867 545.708 101.982 544.269 98.7048C542.25 94.1048 538.751 92.5378 532.06 93.2368C526.308 93.8388 526.185 93.7988 525.518 91.1258C524.719 87.9228 520.641 82.3048 518.203 81.0468C515.286 79.5418 509.64 79.0448 506.327 80.0018ZM376.744 86.6258L373.994 87.0349V96.0288V105.023L377.744 104.712L381.494 104.402V95.4848C381.494 86.1818 381.364 85.9398 376.744 86.6258ZM387.994 95.9018V105.023L391.744 104.712L395.494 104.402V95.9018V87.4018L391.744 87.0919L387.994 86.7808V95.9018ZM400.994 95.9618V105.023L404.744 104.712L408.494 104.402L408.783 95.6518L409.072 86.9018H405.033H400.994V95.9618ZM451.244 106.564C450.383 106.912 449.994 109.688 449.994 115.485V123.902H454.387C459.644 123.902 459.994 123.28 459.994 113.945V107.152L456.869 106.527C453.409 105.835 453.045 105.837 451.244 106.564ZM430.836 108.152C430.327 112.176 430.247 118.786 430.677 121.203C431.149 123.855 431.424 123.988 435.835 123.703L440.494 123.402L440.8 117.444C441.287 107.963 440.751 106.902 435.475 106.902C432.641 106.902 430.936 107.361 430.836 108.152ZM400.994 123.402V132.023L404.744 131.712L408.494 131.402V123.402V115.402L404.744 115.092L400.994 114.781V123.402ZM622.076 121.303C620.8 122.841 621.651 123.902 624.161 123.902C626.322 123.902 626.631 121.361 624.567 120.568C623.782 120.267 622.661 120.598 622.076 121.303ZM151.308 133.852C145.965 137.11 144.543 142.195 147.419 147.757C149.804 152.369 158.256 154.602 162.04 151.62C167.959 146.956 168.593 140.301 163.594 135.302C159.635 131.343 156.106 130.926 151.308 133.852ZM579.317 133.503C578.979 134.383 579.303 135.475 580.036 135.928C581.233 136.668 613.963 136.086 614.868 135.309C615.073 135.133 614.975 134.294 614.649 133.445C613.743 131.085 580.224 131.14 579.317 133.503ZM108.157 133.78C105.945 135.182 107.152 139.354 109.881 139.739C113.591 140.264 115.095 137.146 112.423 134.473C110.636 132.686 110.036 132.589 108.157 133.78ZM174.584 138.921C172.632 144.351 173.407 146.902 177.009 146.902C179.106 146.902 179.994 144.968 179.994 140.402C179.994 132.504 177.17 131.731 174.584 138.921ZM430.818 134.411C430.538 134.691 430.455 138.403 430.633 142.661C430.811 146.919 430.965 150.765 430.975 151.209C430.986 151.654 432.907 151.879 435.244 151.709L439.494 151.402L440.373 145.232C440.856 141.839 440.96 137.901 440.603 136.482C440.033 134.207 439.445 133.902 435.642 133.902C433.269 133.902 431.098 134.131 430.818 134.411ZM449.994 142.328C449.994 150.599 450.072 150.883 452.494 151.491C453.869 151.836 456.144 151.83 457.549 151.477C460.082 150.842 460.101 150.762 459.629 142.619L459.153 134.402L454.574 134.097L449.994 133.792V142.328ZM152.994 138.902C151.894 140.002 150.994 141.776 150.994 142.845C150.994 145.014 154.516 147.902 157.16 147.902C158.98 147.902 161.994 144.334 161.994 142.179C161.994 140.422 158.326 136.902 156.494 136.902C155.669 136.902 154.094 137.802 152.994 138.902ZM288.374 142.354C288.068 143.153 288.108 144.278 288.464 144.854C288.9 145.559 303.348 145.902 332.553 145.902H375.994V143.402V140.902H332.463C295.329 140.902 288.849 141.115 288.374 142.354ZM400.994 150.402V159.023L404.744 158.712L408.494 158.402V150.402V142.402L404.744 142.092L400.994 141.781V150.402ZM137.397 151.112C130.877 158.106 117.911 175.152 118.276 176.249C119.353 179.484 122.317 177.169 131.572 165.862C143.394 151.421 143.256 151.643 141.696 149.509C140.578 147.98 140.177 148.129 137.397 151.112ZM331.744 152.623L328.994 153.035V172.006V190.977L338.244 190.69L347.494 190.402L347.811 171.652L348.127 152.902H342.642C339.626 152.902 336.558 152.747 335.826 152.557C335.093 152.367 333.256 152.397 331.744 152.623ZM286.567 166.652C282.662 185.406 279.233 201.132 277.369 208.825C274.992 218.643 274.715 224.65 276.238 233.401C277.213 239.009 278.087 241.489 279.159 241.695C280.4 241.934 280.809 240.335 281.328 233.196C281.68 228.359 282.668 220.577 283.523 215.902C284.379 211.227 285.714 203.352 286.49 198.402C287.266 193.452 289.054 183.552 290.464 176.402C291.873 169.252 293.306 161.039 293.648 158.152C294.247 153.094 294.181 152.902 291.849 152.902C289.545 152.902 289.292 153.562 286.567 166.652ZM300.599 154.652C299.249 159.107 293.024 195.266 293.521 195.763C293.83 196.071 295.075 195.11 296.288 193.626C298.385 191.061 298.99 190.914 308.494 190.665L318.494 190.402L318.766 171.652L319.038 152.902H310.083C302.424 152.902 301.052 153.155 300.599 154.652ZM356.454 154.145C356.174 154.875 356.068 163.331 356.219 172.937L356.494 190.402L367.532 190.683L378.569 190.964L375.5 172.183L372.43 153.402L364.697 153.11C358.979 152.893 356.831 153.163 356.454 154.145ZM430.707 162.523C430.315 162.915 429.994 166.76 429.994 171.069V178.902H434.914H439.835L440.515 172.546C441.53 163.075 441.257 162.453 435.948 162.106C433.457 161.943 431.099 162.131 430.707 162.523ZM449.994 170.402V178.902H454.494H458.994V170.402V161.902H454.494H449.994V170.402ZM400.994 177.373C400.994 186.815 401.881 188.186 406.6 186.036C408.969 184.956 409.065 184.564 408.786 177.154L408.494 169.402L404.744 169.092L400.994 168.781V177.373ZM571.994 175.402C571.994 176.432 572.649 176.922 573.744 176.712C575.852 176.306 575.719 174.531 573.547 174.079C572.641 173.89 571.994 174.441 571.994 175.402ZM105.494 189.051C102.194 193.505 98.0186 199.23 96.2166 201.775C93.0036 206.312 92.3676 209.875 94.6376 210.622C96.1556 211.121 115.372 185.984 115.441 183.409C115.475 182.121 114.777 181.322 113.494 181.178C112.034 181.015 109.874 183.141 105.494 189.051ZM479.692 185.537C479.308 185.921 478.994 188.425 478.994 191.101V195.968L490.244 195.685L501.494 195.402V190.402V185.402L490.942 185.12C485.139 184.965 480.077 185.153 479.692 185.537ZM430.449 190.158C430.147 190.945 430.034 194.922 430.197 198.996L430.494 206.402H435.405H440.316L440.083 198.413C439.954 194.019 439.769 190.358 439.672 190.277C439.574 190.197 437.582 189.815 435.246 189.429C432.003 188.893 430.868 189.066 430.449 190.158ZM453.744 189.63L449.994 190.023V198.517V207.012L454.744 206.707L459.494 206.402L459.623 200.247C459.764 193.554 459.129 188.804 458.127 189.07C457.779 189.163 455.807 189.415 453.744 189.63ZM264.033 200.652C258.738 219.72 254.793 235.134 254.308 238.652C253.731 242.834 253.77 242.902 256.71 242.902H259.698L260.326 235.152C260.672 230.89 262.327 222.529 264.004 216.574C268.079 202.105 268.784 196.902 266.67 196.902C265.678 196.902 264.68 198.32 264.033 200.652ZM326.659 199.076C326.346 200.271 326.32 201.621 326.601 202.076C326.882 202.53 330.685 202.902 335.053 202.902C342.327 202.902 342.994 203.07 342.994 204.902C342.994 206.002 342.657 206.919 342.244 206.939C341.831 206.959 330.019 207.169 315.994 207.406L290.494 207.836V210.119V212.402L316.814 212.669C341.164 212.916 343.109 213.065 342.801 214.669C342.496 216.253 340.182 216.425 315.832 216.668C292.309 216.903 289.123 217.124 288.571 218.561C288.228 219.456 288.199 220.44 288.506 220.748C288.814 221.055 301.2 221.497 316.03 221.729C341.498 222.128 342.994 222.254 342.994 224.011C342.994 225.773 341.534 225.884 315.244 226.136C288.249 226.395 287.494 226.456 287.494 228.402C287.494 230.348 288.249 230.409 315.314 230.668C341.092 230.914 343.11 231.061 342.801 232.668C342.495 234.256 340.129 234.424 314.693 234.668C290.424 234.9 286.842 235.134 286.311 236.519C285.976 237.391 286.331 238.502 287.098 238.988C287.866 239.474 300.789 239.878 315.817 239.887C341.296 239.901 343.118 240.02 342.804 241.652C342.495 243.261 340.229 243.423 314.731 243.668C299.476 243.814 286.994 244.291 286.994 244.727C286.994 245.163 287.557 246.288 288.244 247.227C289.382 248.781 292.148 248.911 318.994 248.668L348.494 248.402L348.761 222.652L349.028 196.902H338.128C327.778 196.902 327.199 197.012 326.659 199.076ZM354.994 199.94V202.902L362.244 202.922C369.14 202.941 381.484 204.32 385.244 205.491C386.833 205.987 386.994 207.851 386.994 225.769C386.994 246.192 387.319 247.902 391.194 247.902C392.866 247.902 392.994 246.513 392.994 228.402V208.902H397.276C399.631 208.902 403.93 209.517 406.828 210.269C411.964 211.601 412.091 211.583 411.796 209.553C411.262 205.869 405.947 203.381 394.869 201.628C381.817 199.563 370.42 198.138 361.744 197.485L354.994 196.977V199.94ZM130.107 203.152L126.792 207.402L127.437 218.402C128.077 229.298 131.246 250.488 132.41 251.652C132.743 251.984 134.289 251.035 135.847 249.543L138.678 246.83L136.853 235.116C135.849 228.673 134.908 217.89 134.761 211.154C134.614 204.418 134.253 198.905 133.958 198.904C133.663 198.903 131.93 200.814 130.107 203.152ZM478.994 208.902V213.902H490.494H501.994V208.902V203.902H490.494H478.994V208.902ZM358.744 207.644C354.831 207.947 353.994 208.354 353.994 209.957C353.994 211.711 354.731 211.902 361.494 211.902C368.327 211.902 368.994 211.724 368.994 209.902C368.994 208.802 368.356 207.902 367.576 207.902C366.796 207.902 365.558 207.761 364.826 207.589C364.093 207.418 361.357 207.442 358.744 207.644ZM400.18 218.652C400.438 220.012 401.711 220.47 405.884 220.709C412.293 221.075 414.164 220.508 413.37 218.44C412.923 217.275 411.21 216.902 406.314 216.902C400.695 216.902 399.891 217.131 400.18 218.652ZM430.416 218.246C430.132 218.985 430.034 222.922 430.197 226.996L430.494 234.402H434.994H439.494L440.045 226.402C440.349 222.002 440.435 218.064 440.236 217.652C439.583 216.293 430.965 216.814 430.416 218.246ZM450.205 225.571L450.494 234.24L454.494 234.242L458.494 234.245L459.371 229.156C459.853 226.358 459.945 222.455 459.576 220.485C458.923 217.006 458.773 216.902 454.41 216.902H449.916L450.205 225.571ZM354.67 219.304C353.816 221.53 354.89 221.902 362.161 221.902C368.327 221.902 368.994 221.707 368.994 219.902C368.994 218.095 368.327 217.902 362.101 217.902C357.11 217.902 355.06 218.289 354.67 219.304ZM70.4936 224.436C57.5036 232.151 57.1696 232.433 58.9936 234.169C59.8186 234.954 63.5196 237.225 67.2186 239.216L73.9426 242.836L77.1556 238.166C81.0786 232.465 82.8916 227.609 82.9496 222.652C83.0086 217.617 81.6456 217.812 70.4936 224.436ZM478.994 227.902V232.902H490.494H501.994V227.902V222.902H490.494H478.994V227.902ZM400.688 226.541C399.187 228.043 401.504 228.902 407.053 228.902C411.667 228.902 412.994 228.567 412.994 227.402C412.994 226.24 411.679 225.902 407.161 225.902C403.952 225.902 401.04 226.19 400.688 226.541ZM353.994 229.383C353.994 231.288 357.354 232.107 363.551 231.714C367.295 231.477 368.556 230.982 368.808 229.652C369.101 228.11 368.24 227.902 361.567 227.902C355.545 227.902 353.994 228.205 353.994 229.383ZM400.994 235.352C400.994 236.582 402.25 236.902 407.077 236.902C415.155 236.902 414.806 234.533 406.665 234.102C402.081 233.86 400.994 234.099 400.994 235.352ZM203.994 237.499C176.002 245.701 151.56 253.143 149.441 254.108C148.095 254.721 146.994 255.826 146.994 256.563C146.994 257.561 148.873 257.902 154.368 257.902C160.307 257.902 162.594 257.43 166.118 255.474C171.463 252.508 197.164 244.453 206.43 242.84C216.495 241.087 220.228 241.91 231.268 248.318C240.488 253.669 243.028 254.38 242.969 251.593C242.955 250.938 237.521 246.914 230.893 242.652C217.153 233.816 216.797 233.748 203.994 237.499ZM354.494 237.902C353.179 240.03 355.377 240.902 362.053 240.902C368.327 240.902 368.994 240.71 368.994 238.902C368.994 237.094 368.327 236.902 362.053 236.902C358.235 236.902 354.834 237.352 354.494 237.902ZM478.994 246.369V251.902H490.546H502.099L501.796 246.652L501.494 241.402L490.244 241.119L478.994 240.836V246.369ZM400.994 244.538C400.994 245.909 401.746 246.071 405.634 245.538C408.185 245.188 411.137 244.902 412.193 244.902C413.248 244.902 413.834 244.452 413.494 243.902C413.154 243.352 410.203 242.902 406.935 242.902C402.101 242.902 400.994 243.207 400.994 244.538ZM450.557 244.672C450.247 244.982 449.994 248.76 449.994 253.069V260.902H454.494H458.994L458.988 252.652L458.983 244.402L455.051 244.256C452.889 244.175 450.867 244.363 450.557 244.672ZM430.202 252.652L430.494 260.402L435.244 260.707L439.994 261.012V252.957V244.902H434.952H429.91L430.202 252.652ZM37.7576 266.689C26.3566 284.965 23.0846 291.326 24.4056 292.647C24.7596 293.001 25.8896 292.416 26.9176 291.346C29.3426 288.823 53.9936 250.158 53.9936 248.878C53.9936 248.341 52.9776 247.902 51.7356 247.902C49.8866 247.902 47.3496 251.312 37.7576 266.689ZM355.876 252.283C347.059 255.434 342.117 260.397 337.242 270.998C333.349 279.465 330.524 293.902 332.761 293.902C333.183 293.902 334.843 290.19 336.45 285.652C344.66 262.473 354.7 254.924 375.724 256.122C382.553 256.512 386.179 257.324 391.984 259.763C399.67 262.992 402.994 263.641 402.994 261.915C402.994 260.334 395.051 255.743 387.994 253.245C382.694 251.369 379.464 250.948 370.494 250.967C364.092 250.98 357.982 251.53 355.876 252.283ZM182.494 255.79C171.657 258.707 161.953 266.646 156.47 277.079C152.844 283.98 152.639 284.854 152.656 293.386C152.683 307.031 157.839 318.185 166.093 322.453C171.731 325.368 172.673 324.174 168.302 319.652C166.042 317.315 162.912 312.927 161.345 309.902C158.832 305.05 158.497 303.341 158.497 295.402C158.496 287.585 158.862 285.658 161.276 280.741C164.592 273.986 170.315 267.835 176.203 264.698C179.887 262.735 181.979 262.411 190.994 262.407C199.215 262.403 202.303 262.804 205.219 264.254C211.398 267.326 217.71 273.624 220.688 279.688C223.195 284.793 223.494 286.468 223.493 295.402C223.493 304.292 223.198 305.96 220.839 310.429C219.38 313.194 216.343 317.244 214.091 319.429C209.297 324.08 208.95 325.373 212.744 324.45C218.495 323.05 222.728 319.188 226.161 312.208C229.328 305.771 229.494 304.885 229.489 294.418C229.484 283.971 229.32 283.092 226.306 277.402C219.316 264.203 207.51 256.358 193.301 255.47C189.007 255.202 184.144 255.346 182.494 255.79ZM225.335 260.16C224.972 260.746 225.558 261.941 226.636 262.814C228.379 264.226 234.171 264.372 278.834 264.134C323.574 263.895 329.137 263.692 329.678 262.283C330.012 261.412 329.657 260.311 328.89 259.836C326.781 258.531 226.147 258.845 225.335 260.16ZM566.714 260.19C565.921 262.256 567.469 264.15 569.614 263.737C572.271 263.225 572.075 259.485 569.371 259.099C568.204 258.933 567.008 259.423 566.714 260.19ZM478.742 260.62C478.517 261.05 478.528 263.554 478.766 266.184L479.2 270.966L490.347 270.684L501.494 270.402V265.402V260.402L490.323 260.12C484.179 259.965 478.967 260.19 478.742 260.62ZM140.105 262.867C139.241 263.436 136.994 267.388 136.994 268.336C136.994 268.647 140.542 268.902 144.879 268.902C152.257 268.902 152.873 268.736 154.459 266.315C155.391 264.893 156.005 263.593 155.824 263.428C155.187 262.847 140.907 262.338 140.105 262.867ZM366.994 262.837C355.578 266.322 348.038 274.872 345 287.776C343.505 294.129 344.289 304.177 346.55 307.628C347.94 309.75 352.756 312.473 353.609 311.62C353.795 311.435 353.057 308.942 351.97 306.082C348.238 296.259 349.988 284.491 356.491 275.677C360.017 270.898 368.162 265.34 373.244 264.245C374.757 263.919 375.994 263.258 375.994 262.777C375.994 261.73 370.5 261.767 366.994 262.837ZM407.02 269.865C405.779 270.65 405.932 271.207 407.989 273.396C409.958 275.492 411.197 275.938 414.385 275.699C419.469 275.317 420.017 273.496 415.817 270.936C412.222 268.744 409.346 268.394 407.02 269.865ZM73.6486 271.731C69.1446 276.708 74.9926 284.098 80.5526 280.455C83.7326 278.372 84.4886 275.307 82.5536 272.353C80.6026 269.375 76.0676 269.058 73.6486 271.731ZM232.994 272.202C232.994 275.428 235.362 275.902 251.494 275.902C267.669 275.902 270.479 275.331 269.309 272.28C268.555 270.316 232.994 270.239 232.994 272.202ZM450.661 271.569C450.294 271.935 449.994 275.985 449.994 280.569V288.902H454.494H458.994V279.902V270.902H455.161C453.052 270.902 451.027 271.202 450.661 271.569ZM134.384 276.329C134.082 277.114 133.984 278.802 134.165 280.079C134.464 282.189 135.069 282.429 140.751 282.7C146.696 282.983 147.057 282.868 148.001 280.385C149.947 275.264 149.548 274.902 141.963 274.902C136.794 274.902 134.786 275.28 134.384 276.329ZM183.494 277.323C176.626 280.398 171.966 287.938 172.016 295.895C172.114 311.563 191.686 320.135 203.558 309.711C211.593 302.657 212.791 292.832 206.717 283.818C202.02 276.849 191.27 273.842 183.494 277.323ZM373.929 278.875C371.969 279.912 369.044 282.667 367.429 284.999C364.89 288.667 364.495 290.149 364.498 295.982C364.501 302.018 364.824 303.124 367.576 306.525C374.519 315.103 384.595 317.079 393.008 311.511C405.435 303.288 404.62 284.724 391.573 278.798C386.307 276.407 378.534 276.441 373.929 278.875ZM478.727 281.516C478.453 282.953 478.545 285.316 478.933 286.766L479.638 289.402H490.566H501.494L501.796 284.152L502.099 278.902H490.663H479.227L478.727 281.516ZM413.769 281.46C413.463 281.767 413.711 283.342 414.322 284.96C415.277 287.49 415.954 287.902 419.154 287.902C423.48 287.902 423.997 287.37 423.285 283.646C422.812 281.171 422.348 280.902 418.544 280.902C416.225 280.902 414.076 281.153 413.769 281.46ZM297.994 283.071C294.419 283.579 287.444 285.434 282.494 287.193C273.967 290.225 272.548 290.419 255.494 290.897L237.494 291.402L237.167 294.263L236.84 297.124L255.167 296.718L273.494 296.312L283.681 292.175C293.626 288.135 294.236 288.021 309.431 287.326C324.976 286.615 326.777 286.085 323.794 283.102C322.381 281.689 307.856 281.672 297.994 283.071ZM186.099 285.984C182.302 288.294 180.994 290.782 180.994 295.7C180.994 298.603 181.676 300.312 183.606 302.241C192.186 310.821 205.35 301.869 200.66 290.644C198.233 284.837 191.519 282.688 186.099 285.984ZM377.375 286.812C371.497 290.396 370.884 298.949 376.185 303.41C383.105 309.232 393.028 304.689 392.962 295.729C392.928 291.112 391.957 289.319 388.021 286.606C384.798 284.385 381.242 284.453 377.375 286.812ZM134.398 289.291C132.931 293.115 134.329 294.392 140.321 294.704L146.128 295.006L145.811 291.704C145.501 288.471 145.383 288.396 140.233 288.099C136.285 287.872 134.828 288.17 134.398 289.291ZM415.661 293.569C415.294 293.935 414.994 295.51 414.994 297.069C414.994 299.694 415.28 299.902 418.881 299.902C422.436 299.902 422.805 299.646 423.208 296.896C423.451 295.243 423.427 293.668 423.155 293.396C422.419 292.661 416.431 292.798 415.661 293.569ZM478.994 302.902V307.902H490.494H501.994V302.902V297.902H490.494H478.994V302.902ZM136.009 301.6C136.036 304.773 137.628 306.092 142.534 307.008C145.17 307.501 147.502 307.728 147.717 307.512C147.932 307.297 147.718 305.609 147.242 303.762C146.414 300.549 146.148 300.389 141.185 300.1C136.734 299.841 135.996 300.054 136.009 301.6ZM237.247 302.152C236.701 302.84 235.696 305.202 235.013 307.402C234.33 309.602 232.696 313.371 231.382 315.778C230.069 318.185 228.994 320.322 228.994 320.528C228.994 322.636 243.803 318.002 254.994 312.392C261.645 309.058 278.91 302.902 281.61 302.902C282.436 302.902 282.834 302.452 282.494 301.902C281.525 300.334 238.501 300.572 237.247 302.152ZM546.004 313.023C532.534 319.637 521.321 325.241 521.087 325.476C519.268 327.295 524.235 325.692 542.005 318.727C553.274 314.309 563.844 310.504 565.494 310.27C568.26 309.878 570.473 311.797 593.888 334.896C617.868 358.55 624.645 364.353 616.963 354.652C603.036 337.063 572.158 300.875 571.141 300.949C570.785 300.975 559.473 306.408 546.004 313.023ZM412.567 309.056C410.366 313.467 410.537 313.902 414.468 313.902C417.325 313.902 418.221 313.363 419.509 310.873C421.418 307.181 420.774 305.902 417.008 305.902C414.79 305.902 413.784 306.616 412.567 309.056ZM82.6506 316.389C69.6816 320.881 56.9536 331.131 48.1236 344.195C44.2536 349.918 37.6626 363.904 38.4586 364.701C38.7526 364.995 39.1246 365.048 39.2836 364.819C47.1416 353.529 63.1646 336.9 71.4246 331.461C84.1946 323.051 98.9146 317.902 110.182 317.902C116.889 317.902 117.693 316.728 112.128 315.06C105.341 313.027 90.4156 313.7 82.6506 316.389ZM313.994 317.206C313.994 318.824 320.152 324.902 321.792 324.902C324.218 324.902 322.899 320.932 319.65 318.453C315.965 315.643 313.994 315.208 313.994 317.206ZM404.093 321.297C402.856 322.613 402.225 323.927 402.692 324.215C403.931 324.981 413.061 320.819 412.419 319.781C411.326 318.012 406.324 318.922 404.093 321.297ZM445.737 339.492C443.468 341.761 445.392 342.803 453.244 343.559C464.021 344.597 463.421 344.641 463.778 342.787C464.027 341.494 462.83 341.029 457.791 340.46C454.328 340.069 450.366 339.524 448.987 339.249C447.608 338.974 446.146 339.084 445.737 339.492ZM109.244 343.67C105.846 345.382 103.994 346.948 103.994 348.109C103.994 350.325 105.181 350.364 109.294 348.281C113.506 346.148 115.994 343.908 115.994 342.247C115.994 340.449 115.376 340.579 109.244 343.67ZM283.668 344.652C282.567 346.515 282.068 353.548 282.942 354.894C284.473 357.251 285.969 354.911 286.66 349.075C287.17 344.768 287.008 343.902 285.692 343.902C284.823 343.902 283.912 344.239 283.668 344.652ZM464.243 364.152C464.553 365.083 469.679 365.471 484.327 365.673C501.382 365.908 503.994 365.742 503.994 364.423C503.994 363.112 501.22 362.902 483.911 362.902C468.289 362.902 463.92 363.18 464.243 364.152ZM138.393 365.213C135.117 367.058 138.778 367.902 150.053 367.902C159.77 367.902 161.994 367.634 161.994 366.464C161.994 365.32 159.738 364.963 150.915 364.714C144.821 364.543 139.186 364.767 138.393 365.213ZM168.244 384.152C168.55 385.069 172.216 385.402 181.994 385.402C191.772 385.402 195.438 385.069 195.744 384.152C196.064 383.191 192.883 382.902 181.994 382.902C171.105 382.902 167.924 383.191 168.244 384.152ZM59.9636 414.152C52.2416 418.053 48.2506 426.703 49.4916 436.847C50.7836 447.405 55.7956 453.935 64.1456 455.938C73.4126 458.162 81.8676 455.181 86.7196 447.98C90.4446 442.454 89.8616 440.902 84.0606 440.902C80.0286 440.902 79.0136 441.262 78.5016 442.876C78.1576 443.962 76.6766 445.793 75.2116 446.945C70.1866 450.898 62.0206 447.28 60.0766 440.24C58.9846 436.287 60.0696 427.273 62.0036 424.223C65.7896 418.255 75.4416 418.741 78.0476 425.032C79.1316 427.649 79.6746 427.902 84.2236 427.902C89.1616 427.902 89.2036 427.875 88.5326 425.152C86.4686 416.778 79.6466 411.902 69.9936 411.902C66.1976 411.902 62.9956 412.62 59.9636 414.152ZM121.994 413.496C113.385 417.225 109.393 425.252 110.242 437.124C110.848 445.592 114.162 450.998 120.994 454.662C124.828 456.719 126.489 457.009 132.223 456.624C141.55 455.998 146.721 451.951 149.435 443.152C150.097 441.005 149.874 440.902 144.561 440.902C139.817 440.902 138.994 441.175 138.994 442.747C138.994 445.213 136.055 447.74 132.317 448.487C127.957 449.359 123.182 446.596 121.311 442.118C119.184 437.027 119.931 428.203 122.836 424.124C126.971 418.316 135.99 418.782 138.308 424.924C139.34 427.656 139.827 427.902 144.213 427.902C148.366 427.902 148.994 427.633 148.994 425.852C148.994 423.108 146.714 418.879 143.839 416.291C138.952 411.89 128.723 410.582 121.994 413.496ZM166.994 414.257C160.512 417.567 156.876 423.824 156.236 432.768C155.814 438.657 156.109 440.473 158.24 445.127C161.097 451.369 164.613 454.274 171.37 455.975C189.864 460.632 203.217 445.484 197.521 426.306C193.895 414.096 178.898 408.176 166.994 414.257ZM260.082 413.7C254.856 416.307 252.528 420.109 252.746 425.68C252.991 431.93 256.458 434.888 267.905 438.61C275.534 441.09 276.528 441.691 276.795 443.988C277.19 447.389 275.115 448.963 269.967 449.169C266.468 449.308 265.351 448.855 263.295 446.465C261.301 444.147 260.023 443.599 256.66 443.618C252.987 443.639 252.523 443.898 252.738 445.804C253.079 448.823 256.698 453.446 259.849 454.885C266.853 458.084 278.495 456.955 283.576 452.585C287.101 449.553 288.059 442.036 285.522 437.325C283.643 433.835 282.603 433.29 271.197 429.816C263.351 427.427 261.159 425.33 262.971 421.945C264.255 419.547 270.028 418.315 272.866 419.833C274.011 420.446 275.424 421.838 276.006 422.925C276.818 424.441 278.105 424.902 281.529 424.902C286.561 424.902 287.056 423.856 284.428 418.774C281.253 412.635 267.827 409.836 260.082 413.7ZM304.744 412.617L291.994 412.962V417.014V421.067L296.244 420.815C305.818 420.247 304.994 418.591 304.994 438.402V455.902H309.994H314.994V438.45V420.997L321.244 420.7L327.494 420.402L327.804 416.652C328.085 413.26 327.882 412.902 325.679 412.902C324.34 412.902 321.95 412.76 320.369 412.587C318.788 412.413 311.756 412.427 304.744 412.617ZM434.994 413.02C419.996 418.969 418.988 446.734 433.494 454.31C439.004 457.187 449.125 457.206 453.991 454.348C458.403 451.756 461.994 446.495 461.994 442.623C461.994 439.733 461.878 439.66 458.244 440.26C456.182 440.601 453.932 440.885 453.244 440.891C452.557 440.897 451.994 441.769 451.994 442.829C451.994 443.89 450.757 445.732 449.244 446.925C443.465 451.48 435.057 447.383 433.535 439.27C432.415 433.301 434.036 425.707 437.077 422.665C441.73 418.012 449.764 419.537 452.032 425.503C452.815 427.561 453.606 427.902 457.6 427.902H462.256L461.701 424.483C460.374 416.309 454.01 411.862 443.784 411.965C440.324 412 436.369 412.475 434.994 413.02ZM540.536 414.123C538.358 415.386 535.248 418.311 533.622 420.623C531.115 424.191 530.599 426.013 530.214 432.667C529.809 439.661 530.044 441.066 532.391 445.7C535.84 452.505 540.919 455.905 548.677 456.602C557.287 457.375 562.12 455.702 566.873 450.303C576.108 439.811 574.289 422.44 563.158 414.812C557.956 411.247 546.116 410.887 540.536 414.123ZM633.418 413.797C630.664 415.048 628.799 416.793 627.668 419.176C623.424 428.12 627.386 434.261 639.701 437.823C647.451 440.065 650.994 442.129 650.994 444.402C650.994 446.55 647.399 448.902 644.116 448.902C640.703 448.902 634.994 446.445 634.994 444.977C634.994 444.497 632.969 443.942 630.494 443.745C626.323 443.414 625.994 443.561 625.994 445.762C625.994 447.177 627.524 449.667 629.777 451.921C632.954 455.097 634.475 455.818 639.265 456.417C646.122 457.273 650.376 456.578 654.804 453.877C661.232 449.956 662.779 439.764 657.625 435.284C656.285 434.119 651.454 431.961 646.889 430.488C642.325 429.016 638.006 427.327 637.292 426.734C633.937 423.95 637.502 418.902 642.823 418.902C645.922 418.902 649.994 421.772 649.994 423.957C649.994 424.591 651.887 424.89 654.744 424.707C658.85 424.443 659.452 424.131 659.187 422.402C657.843 413.641 643.965 409.007 633.418 413.797ZM4.05563 434.408L3.93463 456.145L16.2146 455.711C29.6166 455.237 32.3426 454.371 37.7086 448.882C44.6876 441.744 44.6806 426.552 37.6956 419.071C33.3836 414.452 30.2076 413.542 16.8346 413.095L4.17564 412.671L4.05563 434.408ZM206.994 434.402V455.902H211.494H215.994V442.402C215.994 434.977 216.331 428.911 216.744 428.921C217.157 428.932 219.179 431.744 221.24 435.171C223.3 438.598 226.948 444.552 229.348 448.402L233.711 455.402L238.852 455.704L243.994 456.007V434.454V412.902H239.522H235.05L234.772 426.61L234.494 440.317L225.494 426.634L216.494 412.95L211.744 412.926L206.994 412.902V434.402ZM334.994 434.325V455.902H339.494H343.994V448.345V440.787L348.221 441.095C351.279 441.317 352.73 441.966 353.471 443.442C354.033 444.564 356.003 447.826 357.848 450.692L361.202 455.902H366.598C372.308 455.902 372.84 455.513 370.593 452.981C369.823 452.112 367.606 448.753 365.667 445.515L362.142 439.628L365.483 436.477C371.504 430.799 371.098 420.256 364.675 415.493C362.208 413.663 360.177 413.361 348.425 413.075L334.994 412.747V434.325ZM377.996 428.652C377.997 441.651 378.303 445.01 379.746 447.882C385.711 459.755 407.36 459.745 413.196 447.866C414.572 445.065 414.907 441.389 414.946 428.652L414.994 412.902H410.494H405.994L405.979 427.152C405.963 442.511 405.273 445.327 400.922 447.769C397.255 449.827 391.665 448.551 389.341 445.125C387.714 442.727 387.528 440.644 387.783 427.652L388.073 412.902H383.033H377.994L377.996 428.652ZM467.994 416.902V420.902H474.494H480.994V438.402V455.902H485.994H490.994V438.402V420.902H497.494H503.994V416.902V412.902H485.994H467.994V416.902ZM511.994 434.457V456.012L516.632 455.707L521.269 455.402L521.639 434.152L522.008 412.902H517.001H511.994V434.457ZM580.765 425.597C580.638 432.64 580.52 442.34 580.501 447.152L580.467 455.902H585.23H589.994V442.402C589.994 434.977 590.331 428.908 590.744 428.916C591.157 428.924 592.67 431.065 594.108 433.673C595.546 436.282 599.287 442.35 602.421 447.159L608.12 455.902H613.057H617.994V434.402V412.902H612.938H607.883L608.188 425.904C608.356 433.055 608.185 438.905 607.808 438.904C607.431 438.903 605.181 435.874 602.808 432.173C590.334 412.717 590.974 413.433 585.744 413.097L580.994 412.792L580.765 425.597ZM173.494 420.856C167.46 423.352 164.596 432.019 166.937 440.698C169.71 450.976 183.418 451.797 187.37 441.92C192.379 429.401 183.912 416.547 173.494 420.856ZM344.403 421.279C344.112 422.036 344.014 424.849 344.184 427.529L344.494 432.402L350.496 432.693C357.233 433.02 359.529 431.879 360.535 427.702C361.039 425.609 360.613 424.43 358.635 422.452C356.511 420.328 355.153 419.902 350.508 419.902C346.695 419.902 344.764 420.337 344.403 421.279ZM546.994 421.171C542.604 422.715 539.998 427.587 539.996 434.251C539.992 445.465 547.633 451.725 556.027 447.385C560.582 445.029 562.268 440.763 561.815 432.739C561.495 427.083 560.995 425.449 558.961 423.416C555.91 420.367 551.586 419.556 546.994 421.171ZM14.2146 434.152L14.4936 447.402L20.2116 447.288C29.5296 447.103 32.9936 443.579 32.9936 434.287C32.9936 425.417 28.2776 420.902 19.0146 420.902H13.9356L14.2146 434.152ZM149.474 475.934C149.086 476.562 149.239 477.547 149.814 478.122C151.158 479.466 154.291 478.294 153.744 476.651C153.188 474.98 150.358 474.504 149.474 475.934ZM288.661 475.569C288.294 475.935 287.994 481.785 287.994 488.569C287.994 498.865 288.242 500.902 289.494 500.902C290.75 500.902 290.994 498.791 290.994 487.902C290.994 476.016 290.552 473.678 288.661 475.569ZM296.994 487.819C296.994 498.895 297.229 500.902 298.524 500.902C299.831 500.902 300.013 499.06 299.774 488.234C299.574 479.194 299.136 475.447 298.244 475.15C297.287 474.832 296.994 477.797 296.994 487.819ZM531.661 475.569C531.294 475.935 530.994 481.785 530.994 488.569C530.994 498.865 531.242 500.902 532.494 500.902C533.75 500.902 533.994 498.791 533.994 487.902C533.994 476.016 533.552 473.678 531.661 475.569ZM3.99364 487.402C3.99364 493.727 3.88064 499.239 3.74364 499.652C3.60664 500.065 7.20664 500.533 11.7436 500.692C18.6326 500.935 19.9936 500.729 19.9936 499.442C19.9936 498.229 18.7406 497.902 14.1006 497.902C10.3056 497.902 8.03864 497.457 7.73264 496.652C6.93864 494.56 8.15064 488.859 9.35964 489.003C9.98364 489.078 12.6686 489.086 15.3266 489.02C22.3456 488.848 20.9286 486.536 13.4156 485.902C7.61364 485.412 7.49364 485.341 7.49364 482.402C7.49364 479.42 7.53164 479.4 13.7436 479.104C18.4046 478.882 19.9936 478.437 19.9936 477.354C19.9936 476.206 18.3216 475.902 11.9936 475.902H3.99364V487.402ZM65.9936 477.402C65.9936 478.235 66.8826 478.902 67.9936 478.902C69.1046 478.902 69.9936 478.235 69.9936 477.402C69.9936 476.569 69.1046 475.902 67.9936 475.902C66.8826 475.902 65.9936 476.569 65.9936 477.402ZM209.879 477.652C209.816 478.614 209.8 484.127 209.845 489.902L209.925 500.402L217.96 500.692C224.547 500.931 225.994 500.714 225.994 499.49C225.994 498.358 224.486 497.926 219.744 497.7L213.494 497.402V493.902V490.402L219.263 489.902C222.436 489.627 225.023 489.065 225.013 488.652C225.003 488.239 224.994 487.565 224.995 487.152C224.995 486.739 222.831 486.552 220.186 486.736C214.785 487.11 212.621 485.56 213.167 481.707C213.463 479.619 214.084 479.374 219.744 479.104C224.405 478.882 225.994 478.437 225.994 477.354C225.994 476.206 224.322 475.902 217.994 475.902C211.085 475.902 209.978 476.141 209.879 477.652ZM402.994 488.402V500.902H410.994C417.438 500.902 418.994 500.61 418.994 499.402C418.994 498.235 417.661 497.902 412.994 497.902H406.994V486.902C406.994 476.569 406.873 475.902 404.994 475.902C403.101 475.902 402.994 476.569 402.994 488.402ZM422.994 477.402C422.994 478.235 423.883 478.902 424.994 478.902C426.105 478.902 426.994 478.235 426.994 477.402C426.994 476.569 426.105 475.902 424.994 475.902C423.883 475.902 422.994 476.569 422.994 477.402ZM449.994 477.402C449.994 478.235 450.883 478.902 451.994 478.902C453.105 478.902 453.994 478.235 453.994 477.402C453.994 476.569 453.105 475.902 451.994 475.902C450.883 475.902 449.994 476.569 449.994 477.402ZM509.765 476.652C509.575 477.065 509.587 482.707 509.793 489.191L510.168 500.98L518.331 500.691C527.997 500.349 528.879 498.629 519.761 497.902L513.494 497.402V493.402V489.402L519.811 489.103C524.185 488.895 526.002 488.434 525.719 487.603C525.495 486.942 524.227 486.353 522.902 486.294C521.578 486.234 518.778 486.121 516.681 486.044C513.005 485.907 512.879 485.785 513.181 482.652C513.494 479.402 513.494 479.402 519.744 479.104C524.405 478.882 525.994 478.437 525.994 477.354C525.994 476.206 524.329 475.902 518.053 475.902C513.685 475.902 509.956 476.239 509.765 476.652ZM24.9936 491.402C24.9936 499.18 25.2656 500.902 26.4936 500.902C27.6246 500.902 27.9936 499.687 27.9936 495.967C27.9936 489.719 29.3016 486.256 31.9846 485.405C35.6736 484.234 36.9936 486.504 36.9936 494.024C36.9936 499.471 37.3056 500.902 38.4936 500.902C39.7016 500.902 39.9936 499.349 39.9936 492.925C39.9936 485.437 39.8346 484.844 37.3926 483.244C35.2206 481.821 34.2786 481.733 31.6846 482.713C29.6306 483.488 28.2406 483.549 27.5856 482.894C25.4486 480.757 24.9936 482.252 24.9936 491.402ZM49.3086 482.909C46.3646 484.095 44.7206 487.451 44.7206 492.275C44.7206 495.409 45.3236 496.789 47.5136 498.673C50.2206 501.001 52.1056 501.163 56.2436 499.424C59.0316 498.252 58.4546 502.554 55.5696 504.444C53.3506 505.898 52.8786 505.894 49.9766 504.393C46.2836 502.483 45.3886 502.904 46.9476 505.816C48.6396 508.978 56.2316 508.755 59.5386 505.447C61.8156 503.171 61.9936 502.273 61.9936 493.054C61.9936 485.342 61.6726 482.993 60.5586 482.565C59.7686 482.262 58.9276 482.552 58.6886 483.208C58.3556 484.124 57.7616 484.111 56.1376 483.152C53.7116 481.72 52.3786 481.672 49.3086 482.909ZM67.2436 482.61C66.3706 482.931 65.9936 485.778 65.9936 492.059C65.9936 500.081 66.1816 501.013 67.7436 500.714C69.2156 500.433 69.5406 499.047 69.7866 491.984C70.0796 483.581 69.5836 481.752 67.2436 482.61ZM81.9936 482.916C81.1686 483.456 79.2376 483.635 77.7036 483.312L74.9136 482.725L75.2036 491.564C75.4356 498.624 75.7956 500.402 76.9936 500.402C78.1496 500.402 78.5616 498.855 78.7886 493.663C79.0296 488.182 79.4496 486.728 81.0386 485.878C82.4056 485.146 83.5946 485.153 84.9936 485.902C86.6996 486.815 86.9936 487.996 86.9936 493.937C86.9936 500.235 87.1846 500.902 88.9936 500.902C90.8156 500.902 90.9936 500.235 90.9936 493.402C90.9936 487.235 90.6376 485.546 88.9936 483.902C86.8166 481.725 84.3426 481.376 81.9936 482.916ZM98.4066 484.223C95.9146 486.367 95.4936 487.448 95.4936 491.71C95.4936 498.309 97.7506 500.902 103.494 500.902C106.418 500.902 108.232 500.296 109.5 498.896C112.036 496.093 110.528 495.155 106.916 497.289C104.126 498.937 103.717 498.95 101.447 497.463C100.098 496.579 98.9936 494.928 98.9936 493.793C98.9936 492.036 99.5496 491.763 102.744 491.956C104.807 492.08 107.78 492.119 109.352 492.042C111.947 491.915 112.149 491.649 111.539 489.152C109.951 482.649 103.189 480.11 98.4066 484.223ZM119.744 482.982C117.576 484.245 114.994 489.093 114.994 491.902C114.994 499.853 123.976 503.982 129.713 498.667C133.063 495.564 131.392 494.613 127.016 497.132C123.226 499.313 123.113 499.32 121.073 497.474C119.93 496.439 118.994 494.766 118.994 493.756C118.994 492.146 119.76 491.95 125.244 492.161C131.312 492.395 131.503 492.326 131.798 489.786C132.02 487.865 131.269 486.47 128.971 484.536C125.69 481.776 122.684 481.269 119.744 482.982ZM137.224 483.902C136.718 485.277 136.257 489.665 136.2 493.652C136.107 500.149 136.294 500.902 137.999 500.902C139.653 500.902 139.941 500.017 140.198 494.161C140.472 487.923 140.699 487.323 143.244 486.107C144.756 485.384 145.994 484.394 145.994 483.906C145.994 482.108 143.755 481.713 142.227 483.241C140.793 484.674 140.539 484.662 139.397 483.109C138.253 481.551 138.063 481.62 137.224 483.902ZM150.632 482.679C150.357 483.124 150.031 487.293 149.908 491.945C149.717 499.13 149.932 500.451 151.339 500.725C152.781 501.007 152.994 499.887 152.994 492.034C152.994 483.995 152.073 480.347 150.632 482.679ZM158.573 490.485C157.858 499.298 158.163 500.902 160.553 500.902C161.656 500.902 161.994 499.415 161.994 494.557C161.994 487.928 163.653 484.902 167.288 484.902C169.15 484.902 171.191 488.141 170.935 490.691C170.377 496.264 171.085 500.902 172.494 500.902C173.972 500.902 174.495 496.679 174.042 488.402C173.763 483.305 167.394 479.902 164.169 483.127C163.235 484.061 162.506 484.078 161.101 483.201C159.381 482.127 159.211 482.615 158.573 490.485ZM183.994 482.611C179.195 484.376 177.104 489.676 178.974 495.34C180.317 499.41 185.443 501.802 188.879 499.963C191.704 498.451 192.175 498.624 191.814 501.037C191.638 502.212 190.583 503.775 189.469 504.51C187.76 505.638 186.987 505.611 184.532 504.337C180.336 502.16 178.491 502.765 180.523 505.652C182.602 508.604 189.669 508.795 193.133 505.992C195.339 504.208 195.494 503.404 195.494 493.742V483.402H192.833C191.369 483.402 189.832 483.065 189.416 482.652C188.564 481.806 186.231 481.789 183.994 482.611ZM241.03 483.866C239.91 484.986 238.994 486.352 238.994 486.902C238.994 488.902 236.286 487.838 235.176 485.402C234.478 483.871 233.209 482.902 231.9 482.902C229.918 482.902 229.87 483.065 231.226 485.152C235.633 491.934 235.566 491.44 232.682 495.797C229.555 500.522 229.47 500.902 231.541 500.902C232.391 500.902 233.854 499.555 234.791 497.908C235.727 496.262 236.944 494.915 237.494 494.915C238.044 494.915 239.261 496.262 240.197 497.908C241.134 499.555 242.597 500.902 243.447 500.902C245.511 500.902 245.429 500.516 242.387 495.919L239.78 491.98L242.31 487.452C245.041 482.565 244.329 480.567 241.03 483.866ZM251.295 483.674C244.14 489.297 247.397 500.902 256.129 500.902C259.683 500.902 263.994 498.058 263.994 495.713C263.994 494.349 261.315 494.811 259.994 496.402C257.063 499.934 250.994 496.562 250.994 491.402C250.994 485.737 257.344 482.83 260.277 487.152C261.545 489.021 262.031 489.178 263.149 488.082C264.272 486.98 264.031 486.362 261.688 484.332C258.41 481.492 254.395 481.238 251.295 483.674ZM271.293 483.405C268.07 485.663 266.576 491.104 267.997 495.41C268.633 497.339 269.989 499.364 271.008 499.91C274.163 501.598 279.523 501.08 281.5 498.896C283.692 496.473 282.667 495.001 279.962 496.69C275.799 499.29 269.95 497.065 271.351 493.415C271.78 492.296 273.501 491.902 277.963 491.902C283.402 491.902 283.994 491.698 283.994 489.825C283.994 487.013 278.704 481.902 275.793 481.902C274.499 481.902 272.473 482.578 271.293 483.405ZM307.594 484.232C303.624 487.409 303.286 494.454 306.918 498.321C310.223 501.839 315.73 501.876 318.994 498.402C320.975 496.293 321.075 495.902 319.633 495.902C318.693 495.902 316.921 496.559 315.695 497.362C313.871 498.557 313.016 498.597 310.98 497.583C309.592 496.891 308.494 495.472 308.494 494.372C308.494 492.729 309.242 492.373 312.994 492.229C315.469 492.133 318.282 492.021 319.244 491.979C321.98 491.859 321.379 487.645 318.189 484.589C314.749 481.293 311.408 481.18 307.594 484.232ZM331.994 482.916C331.169 483.456 329.256 483.638 327.744 483.321L324.994 482.743V491.823C324.994 500.235 325.141 500.902 326.994 500.902C328.803 500.902 328.994 500.235 328.994 493.937C328.994 487.953 329.281 486.819 331.032 485.882C332.153 485.282 333.953 485.071 335.032 485.414C336.67 485.934 337.015 487.015 337.119 491.969C337.295 500.315 337.3 500.337 339.244 500.712C340.778 501.007 340.994 500.171 340.994 493.93C340.994 487.705 340.686 486.503 338.539 484.357C335.895 481.712 334.35 481.372 331.994 482.916ZM347.681 484.707C342.042 490.592 345.329 500.902 352.844 500.902C356.903 500.902 360.994 498.615 360.994 496.345C360.994 494.44 358.368 494.484 357.632 496.402C356.671 498.907 351.285 498.275 349.427 495.44C348.084 493.39 348.009 492.386 348.982 489.44C350.484 484.886 354.196 483.668 357.093 486.778C359.309 489.157 361.002 489.537 360.979 487.652C360.953 485.558 359.59 484.079 356.659 482.965C352.349 481.326 350.594 481.666 347.681 484.707ZM367.449 484.357C365.514 486.291 364.994 487.844 364.994 491.682C364.994 497.591 367.813 500.902 372.844 500.902C376.09 500.902 380.994 498.426 380.994 496.787C380.994 495.571 377.258 495.666 376.494 496.902C375.357 498.741 370.134 498.032 368.983 495.881C367.355 492.84 368.743 491.605 373.128 492.193C378.551 492.92 381 492.09 380.962 489.535C380.924 486.958 379.252 484.632 376.31 483.065C372.931 481.266 370.131 481.674 367.449 484.357ZM430.806 482.423C430.52 482.71 431.763 486.872 433.568 491.673C437.865 503.095 439.456 503.299 443.181 492.902C446.332 484.108 446.494 482.902 444.522 482.902C443.587 482.902 442.453 484.998 441.411 488.652C440.51 491.815 439.406 494.795 438.959 495.276C438.511 495.757 437.471 493.88 436.647 491.105C434.323 483.279 432.564 480.665 430.806 482.423ZM459.652 482.577C459.29 482.939 458.994 487.21 458.994 492.069C458.994 499.254 459.274 500.902 460.494 500.902C461.661 500.902 461.994 499.569 461.994 494.902C461.994 490.235 462.438 488.458 463.994 486.902C466.331 484.565 467.033 484.465 469.267 486.152C470.447 487.043 471.005 489.271 471.209 493.902C471.427 498.886 471.844 500.402 472.994 500.402C474.859 500.402 475.61 490.651 474.059 486.572C472.642 482.846 468.742 481.163 465.52 482.888C463.665 483.881 462.725 483.923 461.686 483.061C460.929 482.433 460.014 482.215 459.652 482.577ZM482.188 483.891C477.552 487.756 478.555 498.024 483.762 500.004C485.498 500.664 487.06 500.517 489.097 499.501C492.465 497.82 493.396 498.715 492.026 502.318C491.267 504.314 490.352 504.902 488.005 504.902C486.334 504.902 484.093 504.357 483.026 503.69C480.114 501.871 479.139 503.786 481.855 505.988C485.22 508.717 490.515 508.472 493.539 505.447C495.814 503.173 495.994 502.269 495.994 493.114C495.994 482.937 495.559 481.189 493.458 482.932C492.633 483.616 491.365 483.613 489.551 482.923C485.881 481.528 484.861 481.662 482.188 483.891ZM540.917 484.825C536.617 489.126 537.359 496.611 542.436 500.137C544.79 501.772 550.905 500.914 553.02 498.652C555.643 495.847 553.736 495.117 549.511 497.309C546.397 498.924 543.374 498.056 542.292 495.236C541.478 493.114 543.756 491.942 548.494 492.047C554.618 492.182 554.994 492.053 554.994 489.825C554.994 486.842 549.694 481.902 546.494 481.902C544.894 481.902 542.679 483.063 540.917 484.825ZM561.753 484.25C558.322 487.43 557.441 491.931 559.479 495.872C561.754 500.273 564.987 501.551 568.903 499.597C571.893 498.106 571.994 498.128 571.994 500.279C571.994 501.501 571.454 503.042 570.794 503.702C569.34 505.156 564.353 505.292 563.494 503.902C562.549 502.373 559.994 502.713 559.994 504.367C559.994 507.922 569.2 509.195 572.9 506.152C574.71 504.663 575.117 502.952 575.63 494.685C575.962 489.34 575.945 484.216 575.593 483.298C575.011 481.783 574.793 481.773 573.223 483.19C571.717 484.548 571.244 484.566 569.553 483.326C566.794 481.302 564.661 481.555 561.753 484.25ZM584.222 482.941C581.961 483.85 580.26 486.502 581.284 487.525C581.579 487.82 582.958 487.316 584.349 486.405C587.633 484.253 591.494 484.757 591.494 487.337C591.494 488.816 590.341 489.565 586.593 490.521C583.898 491.209 581.317 492.363 580.859 493.087C577.619 498.196 584.124 503.044 589.999 499.899C591.251 499.229 592.078 499.229 592.492 499.899C592.833 500.451 593.823 500.902 594.691 500.902C597.252 500.902 595.666 486.02 592.852 483.652C590.59 481.748 587.771 481.516 584.222 482.941ZM600.625 482.604C600.278 482.951 599.994 487.21 599.994 492.069C599.994 500.235 600.145 500.902 601.994 500.902C603.774 500.902 603.994 500.235 603.994 494.836C603.994 487.531 605.201 484.902 608.554 484.902C611.692 484.902 612.994 488.024 612.994 495.55C612.994 499.519 613.345 500.953 614.244 500.656C615.865 500.12 616.472 487.663 615.01 484.933C613.655 482.4 609.816 481.392 607.087 482.852C605.657 483.618 604.402 483.656 603.125 482.972C602.098 482.422 600.973 482.257 600.625 482.604ZM625.014 483.186C621.574 484.927 619.832 488.695 620.37 493.23C621.014 498.653 623.395 500.902 628.494 500.902C632.642 500.902 635.994 498.744 635.994 496.073C635.994 494.373 633.31 494.635 632.632 496.402C631.774 498.639 626.291 498.326 625.029 495.968C623.42 492.962 623.807 488.382 625.823 486.557C628.25 484.36 629.906 484.47 632.606 487.007C634.993 489.25 637.289 488.835 636.329 486.333C635.705 484.706 630.905 481.893 628.794 481.917C628.079 481.925 626.378 482.496 625.014 483.186ZM642.681 484.707C639.477 488.051 639.076 493.54 641.71 497.998C643.21 500.538 644.005 500.902 648.055 500.902C651.419 500.902 653.18 500.354 654.5 498.896C657.038 496.091 655.702 495.338 651.621 497.275C647.801 499.087 645.453 498.628 643.923 495.77C642.722 493.525 643.187 493.308 650.88 492.518C653.842 492.213 656.456 491.774 656.688 491.541C656.921 491.309 656.448 489.531 655.637 487.591C653.035 481.363 647.141 480.051 642.681 484.707ZM422.994 491.975C422.994 499.65 423.233 500.999 424.547 500.725C425.401 500.547 426.076 500.065 426.047 499.652C426.018 499.239 425.994 495.302 425.994 490.902C425.994 484.458 425.702 482.902 424.494 482.902C423.271 482.902 422.994 484.577 422.994 491.975ZM450.682 483.548C450.303 483.926 449.994 487.985 449.994 492.569C449.994 500.288 450.144 500.902 452.033 500.902C453.95 500.902 454.055 500.385 453.783 492.233C453.518 484.274 452.58 481.649 450.682 483.548ZM49.6486 486.731C46.0406 490.718 48.7086 497.902 53.7966 497.902C56.3556 497.902 59.2966 492.92 58.3346 490.215C56.5136 485.096 52.5626 483.511 49.6486 486.731ZM100.194 486.102C97.7236 488.572 98.8786 489.902 103.494 489.902C108.254 489.902 108.99 489.041 106.423 486.473C104.551 484.602 101.855 484.441 100.194 486.102ZM120.744 485.982C117.331 487.97 118.686 489.902 123.494 489.902C128.109 489.902 129.264 488.572 126.794 486.102C125.344 484.652 123.104 484.607 120.744 485.982ZM184.217 486.459C180.614 488.982 181.591 496.512 185.654 497.531C190.928 498.855 194.406 490.395 190.165 486.557C187.899 484.506 187.024 484.492 184.217 486.459ZM272.194 486.102C269.724 488.572 270.879 489.902 275.494 489.902C278.52 489.902 279.994 489.476 279.994 488.602C279.994 486.655 277.863 484.902 275.494 484.902C274.339 484.902 272.854 485.442 272.194 486.102ZM309.744 485.982C306.331 487.97 307.686 489.902 312.494 489.902C317.109 489.902 318.264 488.572 315.794 486.102C314.344 484.652 312.104 484.607 309.744 485.982ZM369.649 486.731C367.174 489.466 367.565 489.902 372.494 489.902C377.109 489.902 378.264 488.572 375.794 486.102C374.061 484.369 371.554 484.626 369.649 486.731ZM484.565 486.473C482.193 488.846 482.493 495.563 485.032 496.922C487.793 498.4 490.452 497.387 491.847 494.325C494.572 488.345 488.857 482.182 484.565 486.473ZM543.194 486.102C540.724 488.572 541.879 489.902 546.494 489.902C549.52 489.902 550.994 489.476 550.994 488.602C550.994 486.655 548.863 484.902 546.494 484.902C545.339 484.902 543.854 485.442 543.194 486.102ZM563.649 486.731C560.51 490.2 562.748 497.902 566.896 497.902C571.449 497.902 573.776 489.825 570.165 486.557C567.788 484.406 565.703 484.462 563.649 486.731ZM645.194 486.102C642.724 488.572 643.879 489.902 648.494 489.902C653.351 489.902 653.52 489.753 651.959 486.836C650.802 484.674 647.031 484.265 645.194 486.102ZM586.244 492.598C583.544 493.13 583.095 497.343 585.635 498.318C587.848 499.167 592.196 496.189 591.794 494.1C591.449 492.312 589.868 491.884 586.244 492.598ZM384.994 498.902C384.994 500.235 385.661 500.902 386.994 500.902C388.327 500.902 388.994 500.235 388.994 498.902C388.994 497.569 388.327 496.902 386.994 496.902C385.661 496.902 384.994 497.569 384.994 498.902ZM660.661 497.569C659.284 498.945 660.067 500.902 661.994 500.902C663.327 500.902 663.994 500.235 663.994 498.902C663.994 496.975 662.037 496.192 660.661 497.569Z" fill="#013B63"/>
</svg>
