<svg width="680" height="523" viewBox="0 0 680 523" fill="none" xmlns="http://www.w3.org/2000/svg">
<path fill-rule="evenodd" clip-rule="evenodd" d="M324.06 0.581779C297.15 3.10678 271.501 10.3148 247.148 22.1948C222.646 34.1478 204.804 46.8858 187.383 64.8648C165.576 87.3678 151.833 108.71 140.572 137.559C137.663 145.012 136.017 147.782 132.932 150.417C127.623 154.951 126.06 158.358 126.06 165.397C126.06 170.296 124.906 174.367 119.459 188.673C115.609 198.785 112.066 206.567 110.959 207.342C109.915 208.074 109.06 209.551 109.06 210.625C109.06 211.699 105.624 221.798 101.424 233.068C95.151 249.903 93.447 253.559 91.879 253.559C90.828 253.559 88.857 254.671 87.498 256.03C85.435 258.093 85.127 259.127 85.634 262.294C86.086 265.125 85.542 267.861 83.489 273.073C81.976 276.915 80.624 280.208 80.484 280.39C80.345 280.572 79.263 280.203 78.079 279.569C75.113 277.982 71.06 280.618 71.06 284.134C71.06 286.056 71.795 286.919 74.121 287.73C76.397 288.524 77.005 289.216 76.493 290.428C76.113 291.325 75.581 293.085 75.309 294.339C75.037 295.593 73.975 297.069 72.948 297.619C70.943 298.692 68.06 303.559 68.06 305.87C68.06 306.645 69.21 308.975 70.617 311.047L73.173 314.815L69.377 321.937C65.896 328.467 65.579 329.724 65.57 337.059C65.557 347.478 68.911 354.898 76.11 360.378C78.77 362.403 80.972 364.58 81.003 365.216C81.096 367.105 66.638 372.539 58.815 373.555C54.825 374.073 45.912 374.511 39.01 374.528C30.62 374.549 26.062 374.957 25.26 375.759C23.631 377.388 23.746 381.748 25.481 384.118C26.866 386.011 28.943 386.061 110.231 386.133C174.878 386.191 194.793 386.499 199.06 387.507C202.085 388.222 210.855 391.492 218.548 394.774C268.089 415.91 323.569 419.179 374.362 403.955C380.852 402.009 393.227 397.444 401.862 393.811L417.56 387.204L465.56 386.474C491.96 386.073 544.325 385.945 581.927 386.19C642.706 386.587 650.558 386.463 652.677 385.075C656.903 382.305 655.742 379.608 644.81 366.806C639.172 360.204 632.085 351.769 629.06 348.062C607.725 321.918 591.53 303.336 588.887 301.97C587.062 301.026 584.634 300.594 582.995 300.922C581.461 301.229 568.49 307.332 554.171 314.485C539.851 321.637 527.924 327.147 527.665 326.729C527.406 326.31 529.315 322.164 531.905 317.514C562.917 261.853 568.619 199.024 548.016 140.001C546.3 135.083 544.655 130.272 544.361 129.309C543.879 127.731 544.724 127.559 552.943 127.559C561.393 127.559 562.06 127.413 562.06 125.559C562.06 123.695 561.393 123.559 552.26 123.559C542.152 123.559 540.06 122.839 540.06 119.359C540.06 117.89 540.895 117.559 544.605 117.559C550.237 117.559 554.06 114.316 554.06 109.539C554.06 105.193 552.667 103.047 548.848 101.509C547.04 100.78 544.051 98.4548 542.207 96.3418C538.33 91.8998 533.428 89.5588 528.005 89.5588C525.134 89.5588 524.045 89.0888 523.589 87.6508C523.256 86.6018 520.863 83.8898 518.272 81.6248C515.68 79.3598 512.428 76.5058 511.044 75.2828C509.66 74.0598 507.048 71.2098 505.24 68.9498C503.431 66.6898 497.228 60.6208 491.454 55.4648C459.656 27.0628 420.52 8.75878 377.06 1.96178C365.334 0.12778 336.814 -0.615221 324.06 0.581779ZM325.56 8.65778C259.713 14.7178 201.386 49.4058 166.827 103.059C161.526 111.289 151.955 129.784 149.042 137.428C147.14 142.417 147.121 142.748 148.778 142.093C149.758 141.706 151.998 141.147 153.756 140.852C163.663 139.187 171.852 148.187 172.989 161.989L173.56 168.918L182.06 171.731C200.191 177.73 250.003 193.529 258.517 195.98C263.502 197.416 270.025 198.559 273.228 198.559H278.983L279.893 194.809C280.977 190.348 284.717 173.644 286.642 164.675C287.395 161.163 287.808 157.96 287.558 157.556C287.309 157.152 285.327 156.537 283.154 156.19C279.211 155.56 279.203 155.548 278.507 149.979C278.123 146.91 278.205 142.523 278.689 140.229L279.569 136.059H338.064H396.56L396.854 144.54C397.186 154.111 396.334 155.559 390.369 155.559C388.549 155.559 387.06 155.93 387.06 156.383C387.06 159.15 390.627 177.509 392.683 185.324C396.496 199.815 396.086 199.207 402.593 200.02C416.117 201.71 423.312 206.072 426.571 214.559C430.527 224.863 429.385 254.8 424.641 265.164L422.135 270.637L424.504 271.538C428.136 272.919 433.994 279.28 436.376 284.43C438.161 288.29 438.512 290.886 438.488 300.059C438.461 310.67 437.694 314.401 433.606 323.809C431.826 327.906 442.417 324.703 444.598 320.485C447.375 315.115 448.54 303.435 447.183 294.57C445.51 283.641 442.282 276.927 434.888 268.998L432.034 265.937L434.138 257.498C435.975 250.131 436.189 246.899 435.825 232.059C435.381 213.927 434.663 210.769 429.4 203.794C426.459 199.897 419.556 196.231 412.233 194.677C403.055 192.73 403.06 192.737 403.06 182.524C403.06 174.425 402.879 173.559 401.185 173.559C399.885 173.559 399.118 172.601 398.685 170.434C397.669 165.353 397.91 164.559 400.475 164.559C402.72 164.559 402.923 164.12 403.362 158.309C403.621 154.872 404.268 150.179 404.799 147.882C405.418 145.204 405.42 141.973 404.804 138.882C404.275 136.229 403.632 130.571 403.375 126.309L402.908 118.559H398.984H395.06V123.625C395.06 128.562 394.99 128.684 392.31 128.375C389.792 128.086 389.534 127.659 389.255 123.309L388.95 118.559H385.06H381.17L380.865 123.309L380.56 128.059H373.31C369.322 128.059 366.06 127.721 366.06 127.309C366.06 126.897 366.06 108.334 366.06 86.0588V45.5588H398.042H430.023L430.292 68.8088L430.56 92.0588L454.06 92.3558C480.434 92.6888 484.174 92.1118 486.119 87.4148C487.559 83.9398 493.327 78.7098 497.216 77.3548C498.78 76.8088 500.06 76.0058 500.06 75.5698C500.06 74.4468 484.077 59.4558 476.055 53.0548C460.029 40.2678 438.274 28.1098 418.88 21.1018C387.458 9.74778 357.346 5.73178 325.56 8.65778ZM527.631 53.1298C526.767 53.9948 526.06 55.0878 526.06 55.5588C526.06 57.0978 529.159 59.5588 531.096 59.5588C532.685 59.5588 535.06 56.9448 535.06 55.1958C535.06 54.1508 531.853 51.5588 530.56 51.5588C529.814 51.5588 528.496 52.2658 527.631 53.1298ZM381.06 70.5588V79.5588H385.06H389.06V70.5588V61.5588H385.06H381.06V70.5588ZM395.06 70.5588V79.5588H399.06H403.06V70.5588V61.5588H399.06H395.06V70.5588ZM408.91 68.9988C408.827 73.1568 408.715 77.1218 408.66 77.8088C408.595 78.6168 409.973 79.0588 412.56 79.0588H416.56V70.5588V62.0588L412.81 61.7488L409.06 61.4378L408.91 68.9988ZM131.631 70.1298C128.531 73.2308 130.366 77.5588 134.781 77.5588C136.315 77.5588 137.508 76.6708 138.295 74.9418C139.348 72.6308 139.215 72.1028 137.163 70.4418C134.337 68.1528 133.648 68.1138 131.631 70.1298ZM498.278 83.2218C494.593 85.0378 491.527 88.8508 490.518 92.8698C490.05 94.7338 489.186 95.5638 487.702 95.5738C483.539 95.6038 482.949 96.8108 483.263 104.647L483.56 112.059L513.56 112.339C530.06 112.493 544.523 112.384 545.7 112.098C550.375 110.958 548.57 105.559 543.514 105.559C541.872 105.559 540.635 104.637 539.606 102.647C538.778 101.046 536.853 98.7488 535.33 97.5428C532.914 95.6308 531.779 95.4298 526.438 95.9698L520.316 96.5878L519.741 93.7128C518.971 89.8658 514.411 84.6028 510.389 82.9228C506.114 81.1368 502.319 81.2308 498.278 83.2218ZM381.06 98.5588V107.559H385.06H389.06V98.5588V89.5588H385.06H381.06V98.5588ZM395.06 98.5588V107.559H399.06H403.06V98.5588V89.5588H399.06H395.06V98.5588ZM409.272 98.8048L409.56 108.05L412.56 108.055L415.56 108.059L416.427 100.334C417.509 90.6798 417.107 89.5588 412.554 89.5588H408.985L409.272 98.8048ZM571.283 98.1158C567.442 100.806 569.363 106.432 574.155 106.527C576.14 106.567 579.06 103.447 579.06 101.287C579.06 99.8658 575.562 96.5588 574.06 96.5588C573.755 96.5588 572.505 97.2598 571.283 98.1158ZM439.727 110.226C439.36 110.592 439.06 114.642 439.06 119.226V127.559H444.06H449.06V118.559V109.559H444.727C442.343 109.559 440.093 109.859 439.727 110.226ZM459.727 110.226C459.36 110.592 459.06 114.667 459.06 119.28V127.669L463.81 127.364L468.56 127.059L468.849 118.309L469.138 109.559H464.766C462.361 109.559 460.093 109.859 459.727 110.226ZM483.06 146.6V175.642L499.81 175.557C509.022 175.51 518.019 175.492 519.803 175.516L523.046 175.559L523.303 245.809L523.56 316.059L530.742 301.559C545.345 272.075 552.109 243.699 552.196 211.559C552.28 180.767 545.861 150.705 534.098 126.795C532.944 124.45 531.575 121.413 531.055 120.045L530.11 117.559H506.585H483.06V146.6ZM409.06 126.999V135.559H412.56C414.485 135.559 416.084 135.109 416.113 134.559C416.142 134.009 416.191 130.297 416.224 126.309L416.282 119.059L412.671 118.749L409.06 118.438V126.999ZM605.521 124.623C603.99 127.099 607.332 127.599 623.635 127.334C637.891 127.102 640.56 126.822 640.56 125.559C640.56 124.294 637.863 124.016 623.383 123.786C611.599 123.598 605.991 123.861 605.521 124.623ZM574.598 136.907C570.54 139.875 573.811 140.559 592.06 140.559C610.078 140.559 612.559 140.07 610.024 137.015C608.334 134.979 577.365 134.885 574.598 136.907ZM439.06 146.559V155.559H444.06H449.06V146.559V137.559H444.06H439.06V146.559ZM459.06 146.559V155.559H464.06H469.06V146.559V137.559H464.06H459.06V146.559ZM107.63 140.446C106.877 141.664 109.725 143.884 111.016 143.086C112.787 141.991 112.169 139.559 110.119 139.559C109.051 139.559 107.931 139.958 107.63 140.446ZM292.717 146.763C292.388 148.019 292.663 149.323 293.348 149.758C294.827 150.698 352.615 150.803 370.359 149.898C382.604 149.274 383.145 149.155 382.859 147.152C382.561 145.068 382.365 145.058 337.929 144.799L293.299 144.539L292.717 146.763ZM409.06 155.122V164.686L412.31 164.372L415.56 164.059L415.847 155.435C416.122 147.183 416.036 146.785 413.847 146.199C409.128 144.935 409.06 145.062 409.06 155.122ZM159.489 152.995C158.212 158.07 163.092 167.86 165.633 165.32C166.962 163.99 164.885 155.467 162.58 152.79L160.227 150.059L159.489 152.995ZM138.994 154.449C134.356 156.929 131.667 161.649 132.466 165.909C133.327 170.497 137.904 174.594 142.92 175.267C146.601 175.761 147.353 175.466 150.532 172.287C154.662 168.157 155.398 163.885 152.855 158.816C150.342 153.808 143.956 151.796 138.994 154.449ZM295.223 157.438C294.488 157.904 293.031 162.284 291.987 167.172C290.943 172.06 287.556 187.759 284.461 202.059L278.833 228.059L280.11 237.822C281.241 246.472 282.996 250.957 284.615 249.338C284.893 249.059 285.335 244.665 285.597 239.572C285.858 234.479 286.928 225.98 287.974 220.686C289.02 215.391 290.178 208.809 290.547 206.059C290.917 203.309 292.751 193.407 294.622 184.055C299.347 160.447 299.476 154.745 295.223 157.438ZM306.325 157.809C305.786 158.497 304.332 164.684 303.094 171.559C301.857 178.434 300.057 187.997 299.095 192.809C297.757 199.505 297.638 201.559 298.588 201.559C299.271 201.559 300.567 200.434 301.468 199.059C303.032 196.672 303.553 196.559 312.961 196.559C320.074 196.559 323.131 196.179 323.95 195.192C325.057 193.858 325.425 162.327 324.38 158.309C323.993 156.819 322.689 156.559 315.615 156.559C310.156 156.559 306.969 156.988 306.325 157.809ZM335.753 157.271C335.303 158.022 334.619 187.99 334.918 193.847L335.06 196.634L344.31 196.347L353.56 196.059V176.559V157.059L344.892 156.771C340.125 156.613 336.012 156.838 335.753 157.271ZM363.505 157.841C363.235 158.546 363.136 167.434 363.287 177.591L363.56 196.059L374.31 196.343C383.206 196.578 385.06 196.374 385.06 195.164C385.06 192.343 379.811 161.035 378.965 158.809C378.189 156.769 377.451 156.559 371.053 156.559C366.237 156.559 363.841 156.966 363.505 157.841ZM139.715 160.388C137.779 162.527 137.544 166.643 139.26 168.359C142.362 171.461 149.06 168.403 149.06 163.885C149.06 159.304 142.812 156.966 139.715 160.388ZM439.06 175.559V184.559H444.06H449.06V175.559V166.559H444.06H439.06V175.559ZM459.06 175.614V184.669L463.81 184.364L468.56 184.059L468.849 175.309L469.138 166.559H464.099H459.06V175.614ZM409.06 182.559V191.559H412.56H416.06V182.559V173.559H412.56H409.06V182.559ZM127.575 183.267C120.957 199.722 117.936 209.704 119.136 211.151C119.779 211.925 120.632 212.559 121.031 212.559C121.431 212.559 124.601 205.304 128.077 196.437C132.753 184.507 134.139 179.908 133.407 178.747C131.456 175.654 130.266 176.576 127.575 183.267ZM584.748 179.205C583.443 180.509 584.066 181.559 586.143 181.559C587.307 181.559 588.052 181.035 587.831 180.372C587.344 178.91 585.674 178.278 584.748 179.205ZM150.545 188.809C150.296 189.497 147.356 197.259 144.012 206.059C128.853 245.948 121.017 266.841 117.568 276.559C115.519 282.334 112.977 288.003 111.919 289.157C110.014 291.236 110.036 291.37 114.278 303.892L118.56 316.529L123.846 318.675C126.753 319.855 129.319 320.634 129.547 320.406C129.775 320.177 129.265 315.956 128.413 311.025C127.427 305.321 126.991 298.022 127.214 290.963C127.548 280.376 127.743 279.515 131.445 272.22C134.227 266.74 136.844 263.278 140.687 259.995C146.516 255.014 150.726 253.334 178.06 245.072C186.585 242.495 199.393 238.553 206.523 236.312L219.486 232.237L224.023 234.764C226.518 236.153 233.06 239.826 238.56 242.925C244.06 246.024 248.982 248.418 249.497 248.247C250.798 247.813 252.363 242.79 251.719 241.114C251.428 240.355 247.223 237.61 242.375 235.013C173.186 197.957 153.432 187.559 152.219 187.559C151.547 187.559 150.794 188.122 150.545 188.809ZM489.06 196.059V201.622L500.81 201.341L512.56 201.059V196.059V191.059L500.81 190.777L489.06 190.496V196.059ZM439.727 195.226C439.36 195.592 439.06 199.642 439.06 204.226V212.559H444.06H449.06V204.166C449.06 197.435 448.747 195.653 447.478 195.166C445.367 194.356 440.56 194.393 439.727 195.226ZM459.774 195.179C459.381 195.571 459.06 199.642 459.06 204.226V212.559H464.099H469.138L468.849 203.809L468.56 195.059L464.524 194.762C462.304 194.599 460.166 194.786 459.774 195.179ZM268.722 203.309C268.472 203.721 267.495 207.209 266.552 211.059C265.609 214.909 263.088 224.359 260.951 232.059C258.814 239.759 257.064 246.794 257.063 247.692C257.06 249.367 261.16 250.76 262.849 249.658C263.355 249.329 264.036 245.459 264.363 241.059C264.69 236.659 266.294 228.334 267.928 222.559C271.974 208.257 272.773 202.559 270.733 202.559C269.878 202.559 268.973 202.897 268.722 203.309ZM333.31 203.221C332.623 203.499 332.06 204.795 332.06 206.102C332.06 208.388 332.373 208.489 340.31 208.769C347.797 209.032 348.56 209.244 348.56 211.059C348.56 212.997 347.727 213.074 321.56 213.559L294.56 214.059L294.24 216.309L293.921 218.559H321.49C348.32 218.559 349.06 218.612 349.06 220.543C349.06 222.468 348.23 222.535 321.31 222.793L293.56 223.059L293.243 225.293L292.925 227.527L320.743 227.793L348.56 228.059L348.88 230.309L349.199 232.559H320.56H291.921L292.24 234.809L292.56 237.059L320.81 237.325C348.23 237.582 349.06 237.648 349.06 239.575C349.06 241.508 348.317 241.559 320.06 241.559H291.06V244.059V246.559H320.133C347.284 246.559 349.184 246.675 348.87 248.309C348.56 249.92 346.248 250.08 319.797 250.324C289.591 250.603 288.367 250.812 292.889 254.904C294.501 256.363 298.107 256.559 323.307 256.559C339.031 256.559 352.608 256.286 353.478 255.952C354.865 255.42 355.06 252.096 355.06 228.952V202.559L344.81 202.638C339.173 202.681 333.998 202.944 333.31 203.221ZM361.24 205.809C361.542 207.934 362.171 208.1 372.56 208.791C388.809 209.873 393.723 211.079 394.5 214.176C394.847 215.559 395.079 225.05 395.014 235.266C394.923 249.743 395.191 254.026 396.228 254.684C399.881 257 400.06 256.082 400.06 235.059V214.559H403.85C405.934 214.559 410.273 215.245 413.492 216.083C416.711 216.922 419.547 217.406 419.794 217.159C420.041 216.912 419.932 215.731 419.552 214.534C418.714 211.893 412.43 208.978 405.56 208.045C402.81 207.672 395.16 206.509 388.56 205.463C381.96 204.416 373.041 203.559 368.74 203.559C361.203 203.559 360.932 203.64 361.24 205.809ZM91.506 207.001C89.314 210.347 90.021 213.692 93.31 215.526C95.78 216.903 96.34 216.903 98.81 215.527C104.226 212.511 102.137 204.559 95.928 204.559C94.039 204.559 92.577 205.367 91.506 207.001ZM488.997 209.777C488.962 209.932 488.85 212.309 488.747 215.059L488.56 220.059H500.56H512.56V215.059V210.059L500.81 209.777C494.348 209.622 489.032 209.622 488.997 209.777ZM361.06 216.059C361.06 218.632 361.102 218.645 368.31 218.353C374.795 218.09 375.56 217.848 375.56 216.059C375.56 214.27 374.795 214.028 368.31 213.765C361.102 213.473 361.06 213.486 361.06 216.059ZM106.723 235.584C102.508 246.598 99.07 256.386 99.082 257.334C99.094 258.283 99.943 260.149 100.967 261.482L102.83 263.905L104.294 260.982C105.1 259.374 108.864 248.937 112.66 237.788C118.554 220.474 119.341 217.377 118.06 216.554C117.235 216.023 116.071 215.583 115.473 215.574C114.875 215.566 110.938 224.57 106.723 235.584ZM441.272 223.27C439.07 223.692 438.995 224.034 439.272 232.384L439.56 241.059L444.31 241.364L449.06 241.669V232.73C449.06 224.307 448.931 223.758 446.81 223.189C445.572 222.858 444.335 222.641 444.06 222.709C443.785 222.776 442.53 223.029 441.272 223.27ZM459.484 223.897C459.201 224.634 459.103 228.796 459.265 233.147L459.56 241.059H464.06H468.56L468.847 232.441L469.134 223.824L465.972 223.191C461.338 222.265 460.057 222.404 459.484 223.897ZM361.768 224.185C361.378 224.574 361.06 225.717 361.06 226.726C361.06 228.342 361.956 228.559 368.63 228.559C375.907 228.559 376.187 228.472 375.88 226.309C375.59 224.273 374.937 224.031 369.018 223.768C365.419 223.608 362.157 223.796 361.768 224.185ZM408.25 225.309C408.526 226.743 409.667 227.059 414.56 227.059C419.453 227.059 420.594 226.743 420.87 225.309C421.163 223.784 420.352 223.559 414.56 223.559C408.768 223.559 407.957 223.784 408.25 225.309ZM489.485 229.859C487.985 230.7 487.682 233.545 488.69 237.309C489.273 239.483 489.697 239.559 501.229 239.559H513.165L512.862 234.504L512.56 229.449L501.735 229.254C495.781 229.147 490.269 229.419 489.485 229.859ZM408.306 233.809C408.562 234.583 411.069 235.172 414.889 235.357C419.921 235.599 421.06 235.369 421.06 234.107C421.06 232.866 419.752 232.559 414.477 232.559C409.657 232.559 408.004 232.894 408.306 233.809ZM361.25 236.309C361.533 237.776 362.714 238.059 368.56 238.059C374.406 238.059 375.587 237.776 375.87 236.309C376.167 234.766 375.304 234.559 368.56 234.559C361.816 234.559 360.953 234.766 361.25 236.309ZM408.589 241.512C407.347 243.521 408.907 244.057 415.015 243.718C419.108 243.49 421.038 242.988 420.784 242.218C420.295 240.735 409.457 240.108 408.589 241.512ZM134.492 245.201C132.554 249.64 131.35 259.559 132.749 259.559C133.264 259.559 134.848 258.321 136.268 256.809C138.682 254.237 138.796 253.681 138.028 248.216C137.577 245.002 136.975 242.141 136.692 241.858C136.409 241.575 135.419 243.079 134.492 245.201ZM204.06 245.069C152.989 259.915 147.06 261.955 147.06 264.681C147.06 265.164 150.702 265.559 155.152 265.559C161.741 265.559 163.719 265.186 165.797 263.551C168.245 261.626 189.964 254.155 201.864 251.145C204.997 250.353 210.577 249.397 214.264 249.02C221.504 248.281 221.42 248.249 240.309 259.021C244.509 261.416 245.131 261.538 245.692 260.077C246.472 258.043 246.972 258.478 233.189 249.207C224.75 243.531 221.012 241.581 218.689 241.643C216.968 241.689 210.385 243.231 204.06 245.069ZM361.06 245.477C361.06 247.157 361.944 247.436 368.19 247.727C373.087 247.955 375.463 247.683 375.778 246.857C376.719 244.392 374.755 243.559 368.001 243.559C361.826 243.559 361.06 243.771 361.06 245.477ZM489.257 253.777L489.56 259.059L499.914 259.345C512.078 259.681 513.296 259.098 512.86 253.145L512.56 249.059L500.757 248.777L488.953 248.495L489.257 253.777ZM408.754 250.198C407.257 251.696 409.563 252.559 415.06 252.559C420.843 252.559 423.57 251.352 420.472 250.164C418.38 249.361 409.565 249.387 408.754 250.198ZM439.27 259.809L439.56 268.059H444.06H448.56L448.85 259.809L449.141 251.559H444.06H438.979L439.27 259.809ZM459.06 260.114V268.669L463.81 268.364L468.56 268.059L468.85 259.809L469.141 251.559H464.1H459.06V260.114ZM368.06 258.477C360.723 259.515 353.002 263.582 349.162 268.43C343.344 275.776 338.06 290.311 338.06 298.969C338.06 304.135 339.111 302.846 342.472 293.559C351.008 269.974 360.761 262.726 382.489 263.82C390.794 264.238 393.855 264.874 399.948 267.443C407.52 270.637 411.06 271.315 411.06 269.572C411.06 267.975 403.076 263.38 396.029 260.921C388.693 258.361 376.443 257.291 368.06 258.477ZM183.56 263.542C174.903 265.789 165.23 272.545 160.197 279.86C158.545 282.261 156.221 287.112 155.032 290.641C150.758 303.33 154.094 319.946 162.566 328.168C166.457 331.943 171.546 334.406 172.822 333.13C173.111 332.841 171.596 330.893 169.454 328.802C167.312 326.711 164.213 322.538 162.567 319.529C159.809 314.489 159.574 313.273 159.567 304.059C159.561 294.958 159.826 293.534 162.515 288.222C166.327 280.691 174.38 273.278 181.213 271.008C188.154 268.703 198.245 268.666 204.822 270.922C211.806 273.319 219.821 280.72 223.556 288.222C226.137 293.407 226.466 295.121 226.5 303.56C226.534 311.904 226.209 313.735 223.832 318.593C222.343 321.636 219.002 326.248 216.408 328.842C212.045 333.206 211.874 333.558 214.126 333.543C219.337 333.507 224.234 329.424 228.496 321.559C232.547 314.083 232.56 314.024 232.56 303.059C232.56 292.191 232.513 291.972 228.668 284.774C222.474 273.181 212.792 265.784 200.849 263.519C195.01 262.412 187.88 262.421 183.56 263.542ZM227.65 267.414C227.359 267.884 228.12 269.121 229.341 270.164C231.466 271.979 233.746 272.048 283.21 271.791C329.099 271.554 334.927 271.348 335.463 269.951C335.795 269.086 335.813 267.969 335.504 267.469C334.785 266.305 228.368 266.251 227.65 267.414ZM580.19 267.902C578.805 269.571 580.461 272.003 582.459 271.236C583.34 270.898 584.06 269.981 584.06 269.197C584.06 267.264 581.446 266.389 580.19 267.902ZM488.516 268.63C488.152 269.219 488.153 271.694 488.518 274.13L489.183 278.559H500.514C513.236 278.559 513.535 278.381 512.431 271.48L511.804 267.559H500.491C493.528 267.559 488.924 267.971 488.516 268.63ZM90.923 273.309C85.812 285.062 82.964 292.81 83.25 294.183C83.48 295.287 85.243 294.5 90.06 291.145C96.553 286.622 99.813 281.938 99.986 276.886C100.062 274.656 95.632 268.559 93.936 268.559C93.415 268.559 92.059 270.696 90.923 273.309ZM140.46 270.324C139.37 271.052 137.06 274.904 137.06 275.993C137.06 276.304 140.833 276.559 145.445 276.559C153.254 276.559 153.941 276.39 155.445 274.094C156.333 272.739 157.06 271.267 157.06 270.824C157.06 269.798 141.93 269.343 140.46 270.324ZM369.883 271.942C355.459 277.874 347.114 296.189 351.39 312.528C352.246 315.796 353.475 317.611 355.969 319.285C357.844 320.544 359.577 321.375 359.82 321.133C360.063 320.89 359.269 317.849 358.057 314.375C354.097 303.029 356.665 290.739 364.947 281.393C369.012 276.806 377.714 271.559 381.256 271.559C382.248 271.559 383.06 271.109 383.06 270.559C383.06 268.775 375.705 269.547 369.883 271.942ZM415.31 277.221C411.432 278.786 417.016 283.48 422.81 283.526C428.099 283.567 428.529 281.425 423.81 278.548C420.652 276.623 417.87 276.188 415.31 277.221ZM236.06 279.859C236.06 283.12 238.4 283.559 255.791 283.559C270.76 283.559 273.207 283.341 273.737 281.958C274.075 281.078 273.723 279.959 272.956 279.473C272.188 278.987 263.572 278.583 253.81 278.574C239.905 278.562 236.06 278.841 236.06 279.859ZM462.772 279.299L458.984 279.684L459.272 288.372L459.56 297.059L462.56 297.199C468.995 297.498 469.164 297.246 468.848 287.81C468.689 283.079 468.111 279.151 467.56 279.067C467.01 278.982 464.855 279.086 462.772 279.299ZM134.667 284.141C134.333 285.011 134.06 286.811 134.06 288.141C134.06 290.466 134.327 290.559 141.001 290.559C144.819 290.559 148.141 290.222 148.383 289.809C148.626 289.396 149.138 287.597 149.522 285.809L150.219 282.559H142.746C136.855 282.559 135.146 282.894 134.667 284.141ZM186.271 284.688C179.47 286.649 173.043 296.137 173.07 304.175C173.087 309.337 177.519 317.173 182.157 320.242C185.757 322.624 187.435 323.054 193.137 323.056C199.167 323.059 200.268 322.737 203.714 319.966C215.216 310.716 215.942 297.907 205.486 288.703C199.737 283.642 194.031 282.45 186.271 284.688ZM382.56 286.001C373.288 290.214 368.54 300.786 371.758 310.055C375.977 322.21 390.002 327.345 400.318 320.512C407.868 315.51 411.15 307.171 408.871 298.774C405.877 287.737 392.756 281.367 382.56 286.001ZM488.727 287.226C488.36 287.592 488.06 290.067 488.06 292.726V297.559H499.929H511.798L512.355 294.132C513.543 286.81 513.153 286.559 500.61 286.559C494.441 286.559 489.093 286.859 488.727 287.226ZM422.06 290.494C422.06 291.008 422.499 292.583 423.035 293.994C423.823 296.066 424.676 296.559 427.476 296.559C431.473 296.559 432.497 295.437 431.635 292.002C431.099 289.866 430.459 289.559 426.541 289.559C424.076 289.559 422.06 289.98 422.06 290.494ZM299.06 292.113C295.485 292.88 289.185 294.734 285.06 296.234C278.22 298.72 275.931 299.009 259.06 299.51L240.56 300.059V302.559V305.059L259.06 305.021L277.56 304.983L288.06 300.588L298.56 296.193L314.31 295.771L330.06 295.349V292.954V290.559L317.81 290.638C311.072 290.682 302.635 291.346 299.06 292.113ZM186.223 295.407C180.667 300.597 181.029 308.267 187.02 312.309C194.065 317.061 202.661 313.319 203.674 305.059C204.916 294.938 193.49 288.618 186.223 295.407ZM384.177 295.19C381.04 297.387 378.939 302.704 379.701 306.516C381.191 313.965 391.995 317.351 397.312 312.035C401.951 307.395 401.744 300.154 396.854 296.039C393.371 293.108 387.692 292.727 384.177 295.19ZM134.588 297.513C134.264 298.038 134.286 299.613 134.638 301.013C135.224 303.347 135.725 303.559 140.668 303.559H146.06V300.059V296.559H140.619C137.626 296.559 134.913 296.988 134.588 297.513ZM423.444 303.001C422.201 306.24 423.509 308.053 427.318 308.369C429.89 308.583 431.064 308.27 431.074 307.369C431.081 306.649 431.359 305.047 431.69 303.809C432.245 301.74 431.959 301.559 428.145 301.559C425.455 301.559 423.803 302.066 423.444 303.001ZM93.22 306.799C92.582 307.437 92.06 308.541 92.06 309.252C92.06 311.569 109.501 345.559 110.69 345.559C113.093 345.559 113 342.124 110.451 336.688C102.294 319.292 95.979 306.627 95.232 306.165C94.763 305.876 93.858 306.161 93.22 306.799ZM488.757 307.196C487.799 308.154 487.906 314.768 488.906 316.343C489.51 317.295 492.677 317.554 501.14 317.343L512.56 317.059V312.059V307.059L501.007 306.779C494.652 306.625 489.14 306.812 488.757 307.196ZM136.554 309.568C135.579 311.147 136.984 314.408 138.861 314.921C143.115 316.082 147.943 316.55 148.335 315.84C148.572 315.41 148.37 313.597 147.885 311.809C147.042 308.703 146.785 308.559 142.09 308.559C139.389 308.559 136.897 309.013 136.554 309.568ZM241.499 310.545C240.23 311.043 238.937 313.028 238.136 315.707C237.42 318.101 235.76 322.182 234.447 324.776C233.134 327.37 232.06 329.768 232.06 330.105C232.06 331.814 248.183 326.443 258.514 321.292C261.789 319.66 269.595 316.641 275.86 314.585C283.21 312.173 286.654 310.617 285.568 310.2C283.149 309.272 243.959 309.579 241.499 310.545ZM557.41 322.508C543.193 329.61 532.129 335.452 532.824 335.49C533.937 335.551 545.404 331.214 569.886 321.474C573.915 319.871 577.969 318.559 578.895 318.559C579.821 318.559 590.25 328.039 602.069 339.626C613.889 351.213 625.922 363.01 628.81 365.842C631.698 368.674 634.06 370.549 634.06 370.008C634.06 369.468 630.348 364.497 625.81 358.962C609.811 339.447 596.153 323.019 593.05 319.559C591.324 317.634 589.206 315.028 588.344 313.768C584.938 308.79 584.788 308.833 557.41 322.508ZM420.58 318.165C418.748 322.549 419.332 323.765 422.871 322.938C425.924 322.224 429.005 318.912 429.038 316.309C429.055 314.973 428.236 314.559 425.573 314.559C422.514 314.559 421.902 315.001 420.58 318.165ZM319.357 326.227C318.592 328.22 325.659 334.65 327.739 333.852C329.865 333.036 329.3 331.678 325.31 328.013C321.063 324.112 320.261 323.871 319.357 326.227ZM411.763 331.09C410.187 333.256 410.161 333.559 411.553 333.559C413.246 333.559 421.06 329.843 421.06 329.039C421.06 328.775 419.373 328.573 417.31 328.59C414.496 328.614 413.111 329.238 411.763 331.09ZM454.452 349.98C454.1 350.896 453.988 351.82 454.201 352.034C455.314 353.147 472.337 354.682 473.267 353.752C475.074 351.945 473.253 350.864 467.341 350.238C464.161 349.901 460.104 349.331 458.325 348.97C455.827 348.464 454.945 348.694 454.452 349.98ZM108.31 353.712C103.462 356.52 101.354 359.589 104.31 359.537C106.406 359.5 113.477 355.977 114.896 354.261C116.157 352.738 115.76 350.492 114.251 350.615C113.871 350.646 111.197 352.04 108.31 353.712ZM287.627 355.743C286.329 361.698 286.689 365.559 288.541 365.559C290.086 365.559 290.815 363.441 291.283 357.589C291.492 354.972 291.138 354.033 289.846 353.772C288.715 353.544 287.96 354.214 287.627 355.743ZM476.31 373.379C475.073 373.554 474.06 374.342 474.06 375.129C474.06 376.321 477.373 376.559 494.001 376.559C507.046 376.559 514.17 376.19 514.601 375.492C514.964 374.906 515.103 374.274 514.91 374.088C514.433 373.628 479.126 372.979 476.31 373.379ZM138.757 375.196C138.374 375.579 138.06 376.492 138.06 377.226C138.06 378.266 140.822 378.559 150.633 378.559C162.069 378.559 163.176 378.401 162.871 376.809C162.579 375.283 161.06 375.023 150.995 374.779C144.647 374.625 139.14 374.812 138.757 375.196ZM169.781 394.172C167.959 395.994 171.374 396.559 184.202 396.559C194.977 396.559 198.13 396.269 197.811 395.309C197.513 394.41 193.609 393.981 183.922 393.782C176.511 393.63 170.147 393.805 169.781 394.172ZM58.034 425.809C54.967 427.359 52.647 429.591 50.572 432.985C47.834 437.462 47.56 438.699 47.56 446.565C47.56 454.432 47.834 455.666 50.572 460.139C54.485 466.532 60.183 469.559 68.304 469.559C75.138 469.559 79.533 467.904 83.246 463.932C85.732 461.274 88.06 456.709 88.06 454.494C88.06 453.98 85.585 453.559 82.56 453.559C78.266 453.559 77.06 453.898 77.06 455.104C77.06 455.954 75.955 457.754 74.605 459.104C69.448 464.262 60.241 460.659 58.081 452.638C56.987 448.575 57.589 440.308 59.197 437.302C60.42 435.019 65.928 431.568 68.36 431.563C71.666 431.556 75.832 434.466 76.9 437.529C77.888 440.363 78.282 440.559 83.008 440.559C88.535 440.559 88.483 440.623 87.061 435.502C84.244 425.364 68.989 420.27 58.034 425.809ZM124.183 424.561C107.846 428.418 103.899 456.246 118.276 466.208C121.636 468.537 123.605 469.092 129.457 469.359C140.534 469.864 147.345 465.451 149.599 456.309C150.272 453.578 150.241 453.559 145.144 453.559C140.646 453.559 139.898 453.856 139.098 455.958C137.139 461.112 129.892 463.231 125.277 459.998C121.849 457.597 120.06 453.2 120.06 447.174C120.06 437.074 123.319 432.559 130.608 432.559C134.241 432.559 135.649 433.091 137.608 435.205C138.956 436.66 140.06 438.46 140.06 439.205C140.06 440.163 141.522 440.559 145.06 440.559C150.53 440.559 150.482 440.619 149.064 435.515C146.591 426.613 135.735 421.834 124.183 424.561ZM168.231 426.058C159.761 430.9 156.631 437.399 157.214 448.935C157.536 455.322 158.041 457.071 160.618 460.737C165.106 467.123 170.021 469.523 178.653 469.543C184.171 469.555 186.724 469.042 190.153 467.231C201.157 461.42 204.485 444.043 196.811 432.46C191.39 424.277 176.989 421.051 168.231 426.058ZM264.08 425.311C255.535 429.604 253.502 440.225 260.161 445.785C263.402 448.49 264.71 449.033 274.447 451.714C277.424 452.533 279.929 453.964 280.855 455.374C282.247 457.494 282.208 457.855 280.394 459.67C279.115 460.948 276.89 461.712 274.121 461.822C270.511 461.966 269.433 461.531 267.326 459.082C265.302 456.729 263.983 456.155 260.441 456.089C256.725 456.019 256.06 456.305 256.06 457.971C256.06 460.715 260.029 466.215 263.042 467.644C264.427 468.302 268.935 469.029 273.06 469.261C278.962 469.592 281.291 469.296 283.989 467.871C288.524 465.475 291.082 461.811 291.763 456.737C292.226 453.283 291.875 452.005 289.666 449.109C287.516 446.29 285.641 445.237 279.786 443.563C269.35 440.579 266.06 438.922 266.06 436.647C266.06 431.651 274.6 429.619 278.871 433.598C280.075 434.719 281.06 436.066 281.06 436.59C281.06 437.113 282.522 437.351 284.31 437.118C286.098 436.885 288.123 436.664 288.81 436.626C290.507 436.535 290.382 434.082 288.494 430.431C285.309 424.272 271.79 421.437 264.08 425.311ZM442.407 425.616C429.827 431.844 427.168 453.156 437.628 463.926C441.447 467.858 446.158 469.545 453.342 469.553C461.871 469.563 468.775 464.982 471.17 457.725C472.636 453.283 471.41 452.155 466.094 453.053C463.038 453.57 461.704 454.366 461.061 456.056C458.2 463.58 447.548 463.271 443.554 455.548C441.161 450.92 441.58 440.568 444.324 436.495C448.523 430.265 458.278 430.843 461.029 437.485C462.268 440.475 462.607 440.64 466.952 440.358C471.423 440.068 471.55 439.97 471.235 437.059C470.034 425.99 454.283 419.738 442.407 425.616ZM553.551 425.424C548.326 427.798 543.434 433.455 541.999 438.785C539.25 448.995 543.051 461.539 550.358 466.375C554.017 468.796 555.311 469.059 563.565 469.059C572.117 469.059 572.964 468.87 576.509 466.166C578.82 464.403 581.279 461.137 582.805 457.804C586.219 450.348 585.727 440.08 581.622 433.075C576.641 424.575 563.377 420.96 553.551 425.424ZM649.279 424.815C647.474 425.393 644.611 427.445 642.917 429.375C640.144 432.533 639.885 433.382 640.318 437.89C640.948 444.445 644.671 447.597 655.394 450.652C660.99 452.247 663.669 453.559 664.775 455.247C666.191 457.408 666.17 457.78 664.537 459.585C661.847 462.557 654.105 462.328 650.946 459.183C649.402 457.645 647.06 456.665 644.31 456.406C640.419 456.04 640.06 456.201 640.06 458.321C640.06 459.626 641.742 462.439 643.915 464.769C647.757 468.888 647.8 468.904 656.165 469.291C665.994 469.747 670.083 468.193 673.878 462.559C675.764 459.761 676.138 458.159 675.744 454.571C675.102 448.712 671.146 445.327 662.193 442.976C652.164 440.342 650.107 439.032 650.075 435.258C650.056 433.009 655.818 430.448 659.152 431.224C660.477 431.532 662.46 432.822 663.56 434.09C664.991 435.74 666.841 436.478 670.06 436.682C674.296 436.95 674.544 436.825 674.284 434.547C673.306 425.989 660.802 421.122 649.279 424.815ZM1.06 447.023V469.693L11.81 469.044C17.722 468.687 24.677 467.728 27.263 466.912C43.948 461.651 45.582 435.66 29.752 427.336C26.26 425.5 23.516 425.067 13.31 424.743L1.06 424.353V447.023ZM209.06 446.559V468.559H214.032H219.004L219.282 454.945L219.56 441.331L227.06 453.048C237.09 468.718 236.79 468.404 242.06 468.738L246.56 469.024L247.235 450.042C247.606 439.601 247.668 429.597 247.373 427.809C246.864 424.721 246.62 424.559 242.476 424.559H238.115L237.837 438.809L237.56 453.059L230.962 443.059C227.333 437.559 223.164 431.146 221.699 428.809C219.144 424.733 218.83 424.559 214.047 424.559H209.06V446.559ZM297.06 428.559V432.559H303.537H310.015L310.287 450.809L310.56 469.059H315.06H319.56L319.833 450.809L320.105 432.559H326.583H333.06V428.559V424.559H315.06H297.06V428.559ZM340.893 431.309C340.581 443.938 340.995 468.058 341.529 468.309C341.821 468.446 343.86 468.559 346.06 468.559H350.06V461.059V453.559H354.034C357.887 453.559 358.152 453.786 362.784 461.057L367.56 468.555L373.276 468.557L378.992 468.559L376.164 464.309C374.608 461.972 372.279 458.196 370.989 455.92L368.643 451.781L371.785 449.137C380.003 442.222 377.338 428.397 367.246 425.594C365.219 425.031 358.498 424.568 352.31 424.565L341.06 424.559L340.893 431.309ZM385.227 441.989C385.528 457.735 385.759 459.684 387.622 462.177C391.992 468.024 394.464 469.059 404.06 469.059C413.656 469.059 416.128 468.024 420.498 462.177C422.361 459.684 422.592 457.735 422.893 441.989L423.225 424.559H418.287H413.349L413.195 440.809C413.042 456.877 413.012 457.084 410.495 459.309C406.219 463.087 398.389 461.771 396.17 456.902C395.515 455.463 395.06 448.341 395.06 439.512V424.559H389.977H384.895L385.227 441.989ZM477.68 425.364C477.407 425.807 477.224 427.607 477.274 429.364L477.364 432.559H484.19H491.015L491.287 450.681L491.56 468.802L496.31 469.21L501.06 469.617V451.088V432.559H508.06H515.06V428.559V424.559H496.619C486.476 424.559 477.954 424.921 477.68 425.364ZM523.06 441.919C523.06 451.468 522.774 461.368 522.424 463.919L521.788 468.559H527.424H533.06V446.559V424.559H528.06H523.06V441.919ZM593.06 446.559V468.559H598.06H603.06V455.059C603.06 447.634 603.398 441.559 603.812 441.559C604.225 441.559 605.688 443.681 607.062 446.276C608.436 448.87 610.494 452.132 611.636 453.526C612.779 454.919 615.43 458.872 617.529 462.309L621.344 468.559H626.702H632.06V446.559V424.559H627.087H622.115L621.837 438.8L621.56 453.041L613.868 441.05C602.471 423.283 603.697 424.559 598.013 424.559H593.06V446.559ZM11.06 446.559V460.559H15.592C21.233 460.559 26.423 458.461 28.456 455.358C30.427 452.35 30.766 443.677 29.073 439.589C27.416 435.59 21.608 432.559 15.6 432.559H11.06V446.559ZM172.413 434.024C167.434 437.512 165.65 446.994 168.589 454.34C172.197 463.357 184.181 464.027 188.611 455.46C189.441 453.855 190.06 449.876 190.06 446.143C190.06 440.282 189.749 439.274 186.956 436.094C184.235 432.994 183.277 432.559 179.179 432.559C176.608 432.559 173.564 433.218 172.413 434.024ZM350.262 438.809L350.56 445.059H357.391C362.998 445.059 364.475 444.711 365.641 443.118C367.491 440.587 367.441 437.548 365.503 434.782C364.147 432.845 363.046 432.559 356.956 432.559H349.965L350.262 438.809ZM556.81 433.639C553.832 435.373 551.86 440.522 551.86 446.559C551.86 456.03 556.042 461.559 563.206 461.559C570.928 461.559 575.933 453.541 574.539 443.403C573.573 436.382 569.565 432.548 563.233 432.589C560.663 432.606 557.772 433.078 556.81 433.639ZM150.748 489.205C149.332 490.62 150.133 492.559 152.133 492.559C153.531 492.559 154.101 492.016 153.883 490.892C153.526 489.051 151.819 488.133 150.748 489.205ZM292.495 489.867C292.219 490.587 292.121 496.544 292.277 503.105C292.524 513.539 292.779 515.077 294.31 515.37C295.907 515.676 296.06 514.52 296.06 502.132C296.06 490.61 295.829 488.559 294.529 488.559C293.686 488.559 292.771 489.148 292.495 489.867ZM301.495 489.867C301.219 490.587 301.121 496.549 301.277 503.117C301.51 512.94 301.826 515.059 303.06 515.059C304.304 515.059 304.608 512.796 304.839 501.809C305.08 490.351 304.907 488.559 303.558 488.559C302.699 488.559 301.771 489.148 301.495 489.867ZM410.524 489.793C410.232 490.553 410.121 496.549 410.277 503.117L410.56 515.059L418.56 515.001C424.834 514.955 426.56 514.631 426.56 513.501C426.56 512.461 424.888 511.92 420.56 511.559L414.56 511.059V500.082C414.56 490.419 414.35 489.064 412.807 488.758C411.843 488.567 410.815 489.033 410.524 489.793ZM431.727 489.226C430.35 490.602 431.133 492.559 433.06 492.559C434.393 492.559 435.06 491.892 435.06 490.559C435.06 488.632 433.103 487.849 431.727 489.226ZM459.748 489.205C458.332 490.62 459.133 492.559 461.133 492.559C462.531 492.559 463.101 492.016 462.883 490.892C462.526 489.051 460.819 488.133 459.748 489.205ZM542.527 489.784C542.233 490.549 542.121 496.549 542.277 503.117C542.51 512.94 542.826 515.059 544.06 515.059C545.316 515.059 545.56 512.957 545.56 502.144C545.56 492.706 545.224 489.117 544.311 488.811C543.623 488.581 542.821 489.019 542.527 489.784ZM0.280003 502.309L0.560001 515.059L8.891 515.351C16.445 515.615 17.191 515.475 16.881 513.851C16.604 512.397 15.364 512.003 10.3 511.761L4.06 511.464V507.511V503.559H10.06C14.635 503.559 16.06 503.215 16.06 502.109C16.06 501.045 14.529 500.579 10.31 500.359L4.56 500.059L4.25 496.309L3.939 492.559H10.5C15.664 492.559 17.06 492.24 17.06 491.059C17.06 489.843 15.446 489.559 8.53 489.559H0L0.280003 502.309ZM64.31 490.809C64.94 492.701 68.06 492.97 68.06 491.132C68.06 490.205 67.205 489.559 65.977 489.559C64.755 489.559 64.065 490.076 64.31 490.809ZM212.06 502.599V515.64L220.31 515.349C226.848 515.119 228.56 514.748 228.56 513.559C228.56 512.417 227.067 511.988 222.31 511.761L216.06 511.464V507.511V503.559H222.06C226.635 503.559 228.06 503.215 228.06 502.109C228.06 501.045 226.529 500.579 222.31 500.359L216.56 500.059L216.25 496.309L215.939 492.559H222.5C227.664 492.559 229.06 492.24 229.06 491.059C229.06 489.843 227.449 489.559 220.56 489.559H212.06V502.599ZM520.28 502.309L520.56 515.059H529.06C535.949 515.059 537.56 514.775 537.56 513.559C537.56 512.403 536.012 511.991 530.81 511.763L524.06 511.468V507.513V503.559H530.56C535.576 503.559 537.06 503.227 537.06 502.107C537.06 501.024 535.471 500.579 530.81 500.357L524.56 500.059V496.559V493.059L530.81 492.761C535.471 492.539 537.06 492.094 537.06 491.011C537.06 489.855 535.321 489.559 528.53 489.559H520L520.28 502.309ZM22.729 496.223C22.361 496.591 22.06 501.092 22.06 506.226C22.06 513.855 22.334 515.559 23.56 515.559C24.665 515.559 25.06 514.406 25.06 511.184C25.06 504.143 26.058 500.881 28.563 499.74C32.485 497.953 33.954 500.091 34.277 508.059C34.496 513.489 34.897 515.059 36.06 515.059C37.218 515.059 37.628 513.499 37.858 508.207C38.234 499.573 36.613 496.559 31.596 496.559C29.716 496.559 27.882 497.038 27.52 497.624C27.083 498.33 26.278 498.161 25.13 497.122C24.177 496.26 23.097 495.856 22.729 496.223ZM47.08 496.843C43.64 498.584 41.898 502.352 42.436 506.887C43.147 512.878 45.585 514.891 51.31 514.214C56.33 513.621 57.319 514.614 54.81 517.728C52.876 520.128 50.495 520.552 48.156 518.914C46.983 518.092 45.249 517.569 44.303 517.751C42.781 518.044 42.841 518.34 44.821 520.32C48.009 523.508 54.308 523.402 57.605 520.104C59.901 517.809 60.06 516.968 60.06 507.104C60.06 498.589 59.783 496.559 58.619 496.559C57.826 496.559 56.897 497.014 56.553 497.57C56.158 498.209 55.137 498.026 53.772 497.07C51.169 495.247 50.294 495.217 47.08 496.843ZM81.56 496.283C80.46 496.553 78.998 497.231 78.31 497.789C77.45 498.488 77.06 498.454 77.06 497.681C77.06 497.064 76.385 496.559 75.56 496.559C74.331 496.559 74.06 498.29 74.06 506.142C74.06 513.362 74.368 515.624 75.31 515.314C76.033 515.076 76.67 512.828 76.821 509.981C76.965 507.274 77.308 504.059 77.583 502.838C78.263 499.822 81.473 498.174 84.016 499.536C85.633 500.401 86.024 501.84 86.266 507.81C86.515 513.93 86.845 515.092 88.42 515.393C90.135 515.72 90.251 515.108 89.908 507.556C89.584 500.408 89.237 499.12 87.187 497.461C85.895 496.415 84.551 495.611 84.199 495.675C83.848 495.739 82.66 496.012 81.56 496.283ZM98.835 497.094C95.292 499.048 94.06 501.484 94.06 506.541C94.06 511.657 97.705 515.559 102.484 515.559C106.049 515.559 110.06 513.147 110.06 511.002C110.06 509.131 108.637 509.158 107.06 511.059C105.568 512.857 100.936 513.035 99.26 511.359C98.6 510.699 98.06 509.349 98.06 508.359C98.06 506.81 98.967 506.559 104.56 506.559C111.026 506.559 111.06 506.544 111.06 503.733C111.06 498.204 103.888 494.309 98.835 497.094ZM120.368 496.547C116.617 498.095 114.742 502.045 115.321 507.182C115.957 512.828 117.585 514.551 122.962 515.273C126.415 515.736 127.566 515.432 129.6 513.522C130.953 512.25 132.06 510.839 132.06 510.385C132.06 509.009 129.387 509.46 128.06 511.059C126.568 512.857 121.936 513.035 120.26 511.359C119.6 510.699 119.06 509.349 119.06 508.359C119.06 506.81 119.967 506.559 125.56 506.559C132.026 506.559 132.06 506.544 132.06 503.733C132.06 498.667 125.3 494.512 120.368 496.547ZM165.563 496.932C164.194 497.934 163.185 498.078 162.357 497.39C159.962 495.403 159.06 497.761 159.06 506.011C159.06 512.238 159.414 514.481 160.462 514.883C162.658 515.726 163.06 514.669 163.06 508.047C163.06 503.332 163.493 501.477 164.889 500.214C169.289 496.232 172.06 499.512 172.06 508.704C172.06 514.614 172.312 515.655 173.674 515.382C175.234 515.07 175.675 511.341 175.198 502.5C174.914 497.241 169.453 494.084 165.563 496.932ZM185.56 496.504C181.262 498.263 179.767 501.161 180.299 506.699C180.63 510.144 181.413 512.344 182.62 513.227C184.795 514.817 189.439 514.962 192.126 513.524C193.719 512.671 194.06 512.82 194.06 514.369C194.06 516.609 191.058 519.559 188.778 519.559C187.885 519.559 186.006 519.036 184.603 518.397C181.297 516.89 180.243 517.999 182.554 520.553C185.053 523.313 191.893 523.295 194.871 520.52C196.075 519.399 197.084 518.161 197.113 517.77C197.142 517.379 197.412 514.431 197.713 511.219C198.433 503.539 197.378 496.559 195.499 496.559C194.707 496.559 194.06 496.982 194.06 497.5C194.06 498.017 192.822 497.795 191.31 497.006C188.202 495.385 188.279 495.391 185.56 496.504ZM253.86 498.605C251.075 501.39 250.856 502.088 251.304 506.75C251.877 512.706 254.597 515.501 259.855 515.537C263.822 515.564 269.033 511.132 267.196 509.295C266.383 508.482 265.429 508.803 263.629 510.495C260.215 513.702 256.423 512.707 255.249 508.296C253.287 500.929 258.678 495.973 263.611 500.607C266.314 503.146 267.579 502.771 266.61 499.718C266.014 497.839 261.476 495.559 258.334 495.559C257.549 495.559 255.536 496.93 253.86 498.605ZM276.467 496.511C275.315 496.988 273.586 499.038 272.624 501.066C268.062 510.679 277.486 519.731 285.496 513.43C288.895 510.757 287.449 508.473 283.922 510.943C281.011 512.982 278.64 512.996 276.631 510.988C273.366 507.722 274.659 506.559 281.56 506.559C287.787 506.559 288.06 506.456 288.06 504.115C288.06 498.99 281.254 494.526 276.467 496.511ZM313.132 498.227C305.424 505.174 310.819 517.593 320.49 515.166C323.086 514.514 326.06 512.016 326.06 510.488C326.06 509.028 323.435 509.403 322.06 511.059C320.359 513.108 316.719 512.945 314.715 510.73C311.777 507.484 312.731 506.665 319.81 506.355C326.351 506.068 326.551 505.982 326.281 503.559C325.936 500.469 322.436 496.895 318.917 496.039C316.871 495.541 315.564 496.036 313.132 498.227ZM338.06 496.573C337.235 497.113 335.322 497.295 333.81 496.978L331.06 496.4V506.063C331.06 513.346 331.368 515.624 332.31 515.314C333.033 515.076 333.67 512.828 333.821 509.981C334.202 502.809 334.846 500.744 337.072 499.553C338.479 498.8 339.645 498.802 341.06 499.559C342.759 500.468 343.06 501.653 343.06 507.428C343.06 514.664 343.434 515.737 345.658 514.883C346.674 514.493 347.06 512.437 347.06 507.407C347.06 501.373 346.74 500.148 344.605 498.014C341.961 495.369 340.416 495.029 338.06 496.573ZM354.089 498.376C351.628 500.837 351.06 502.237 351.06 505.836C351.06 514.581 359.806 518.904 365.659 513.051C368.782 509.928 367.817 507.499 364.64 510.484C363.425 511.625 361.2 512.559 359.695 512.559C357.519 512.559 356.662 511.851 355.516 509.107C353.73 504.833 354.913 501.039 358.55 499.382C360.711 498.397 361.416 498.545 363.384 500.394C365.751 502.617 368.06 503.247 368.06 501.67C368.06 499.577 364.281 496.611 360.839 496.004C357.584 495.43 356.738 495.727 354.089 498.376ZM474.376 497.035C472.998 498.01 471.961 498.207 471.567 497.57C471.223 497.014 470.277 496.559 469.463 496.559C468.245 496.559 468.035 498.182 468.272 505.798C468.517 513.666 468.82 515.086 470.31 515.371C471.842 515.664 472.06 514.833 472.06 508.704C472.06 500.836 473.653 497.995 477.415 499.149C480.524 500.103 480.514 500.08 481.06 507.658C481.335 511.474 482.01 514.591 482.56 514.585C484.12 514.567 484.372 500.355 482.848 498.356C480.943 495.86 476.923 495.233 474.376 497.035ZM493.029 497.23C491.671 498.146 490.408 499.009 490.223 499.148C490.037 499.287 489.535 500.952 489.108 502.848C488.293 506.461 490.024 512.281 492.353 513.761C494.209 514.941 499.519 514.7 500.843 513.376C502.633 511.586 503.554 513.25 502.478 516.329C501.737 518.448 500.78 519.131 498.198 519.379C496.14 519.578 494.184 519.077 493.066 518.064C491.692 516.821 491.077 516.723 490.5 517.656C489.364 519.495 493.761 522.559 497.536 522.559C499.326 522.559 501.976 521.626 503.425 520.486C505.983 518.475 506.06 518.096 506.06 507.545C506.06 497.571 505.214 493.883 503.545 496.583C503.186 497.165 501.917 497.361 500.726 497.02C499.535 496.679 497.871 496.212 497.029 495.982C496.187 495.752 494.387 496.313 493.029 497.23ZM555.417 496.529C548.872 499.236 548.308 510.493 554.502 514.794C557.704 517.018 566.06 514.277 566.06 511.002C566.06 509.191 565.097 509.216 562.619 511.091C561.551 511.898 559.664 512.559 558.426 512.559C556.115 512.559 552.734 508.895 553.661 507.396C553.945 506.936 557.076 506.559 560.619 506.559C566.784 506.559 567.06 506.454 567.06 504.115C567.06 498.963 560.254 494.529 555.417 496.529ZM575.325 496.854C574.112 497.395 572.41 499.695 571.543 501.965C570.129 505.666 570.122 506.464 571.476 509.704C572.306 511.691 573.714 513.596 574.605 513.938C577.154 514.916 581.555 514.664 582.747 513.472C584.197 512.022 585.111 513.648 584.392 516.396C583.614 519.372 579.416 520.3 575.889 518.275C572.285 516.207 570.81 518.128 574.012 520.721C577.295 523.38 582.613 523.097 585.605 520.104C587.899 517.81 588.06 516.964 588.06 507.163C588.06 496.64 587.357 494.292 585.041 497.082C584.282 497.997 583.358 498.244 582.677 497.716C580.729 496.203 577.605 495.836 575.325 496.854ZM598.56 496.259C596.287 496.835 593.06 499.448 593.06 500.714C593.06 502.121 596.1 501.662 597.757 500.005C599.983 497.779 604.483 498.522 604.862 501.179C605.175 503.372 602.972 504.517 598.381 504.545C593.033 504.579 590.858 512.598 595.609 514.763C597.581 515.662 598.969 515.632 601.733 514.633C604.563 513.609 605.466 513.598 606.072 514.578C607.718 517.242 608.964 514.195 608.943 507.554C608.927 502.526 608.457 500.061 607.24 498.626C605.411 496.469 601.715 495.461 598.56 496.259ZM621.75 496.202C621.396 496.556 619.454 496.894 617.434 496.952L613.761 497.059L613.978 506.043C614.097 510.984 614.36 515.192 614.561 515.393C615.856 516.689 617.06 513.649 617.06 509.082C617.06 506.134 617.338 502.998 617.678 502.113C618.657 499.56 621.749 498.322 624.06 499.559C625.764 500.471 626.06 501.653 626.06 507.535C626.06 514.603 626.655 516.046 628.977 514.61C629.941 514.014 630.188 511.835 629.89 506.556C629.546 500.472 629.111 499.019 627.16 497.439C624.773 495.506 622.879 495.073 621.75 496.202ZM640.33 496.336C637.003 496.868 634.06 501.225 634.06 505.617C634.06 514.036 643.554 518.92 648.886 513.245C650.082 511.972 651.06 510.622 651.06 510.245C651.06 508.948 647.304 509.56 646.06 511.059C644.306 513.173 640.326 512.925 639.095 510.625C637.44 507.532 637.858 502.052 639.889 500.214C642.334 498.001 643.973 498.128 646.759 500.746C648.296 502.19 649.423 502.596 650.077 501.942C652.521 499.498 645.568 495.498 640.33 496.336ZM660.33 496.357C659.104 496.542 657.192 497.97 656.08 499.53C651.434 506.056 655.521 515.559 662.975 515.559C665.624 515.559 667.366 514.862 668.961 513.164C671.601 510.354 670.006 508.393 667.168 510.961C664.04 513.792 658.06 512.222 658.06 508.57C658.06 506.896 658.924 506.613 664.81 506.355C671.37 506.067 671.55 505.988 671.221 503.559C670.551 498.626 665.86 495.524 660.33 496.357ZM65.06 506.059C65.06 513.837 65.332 515.559 66.56 515.559C67.788 515.559 68.06 513.837 68.06 506.059C68.06 498.281 67.788 496.559 66.56 496.559C65.332 496.559 65.06 498.281 65.06 506.059ZM136.849 504.809C136.616 509.347 136.624 513.641 136.866 514.351C137.738 516.91 139.565 514.823 139.817 510.982C140.38 502.366 140.979 500.783 144.089 499.699C145.723 499.129 147.06 498.19 147.06 497.611C147.06 496.156 143.746 496.289 142.135 497.809C141.075 498.809 140.718 498.809 140.352 497.809C140.1 497.122 139.303 496.559 138.583 496.559C137.642 496.559 137.152 498.887 136.849 504.809ZM150.272 505.809C150.503 513.237 150.855 515.059 152.06 515.059C153.265 515.059 153.617 513.237 153.848 505.809C154.121 497.022 154.031 496.559 152.06 496.559C150.089 496.559 149.999 497.022 150.272 505.809ZM233.06 497.015C233.06 497.265 234.185 499.128 235.56 501.154C236.935 503.18 238.06 505.163 238.06 505.559C238.06 505.955 236.935 507.938 235.56 509.964C232.721 514.147 232.444 515.559 234.461 515.559C235.232 515.559 236.833 513.914 238.02 511.902L240.177 508.246L243.191 511.902C248.255 518.045 249.903 516.301 245.427 509.538L242.794 505.559L245.427 501.58C248.416 497.063 248.554 496.563 246.81 496.55C246.123 496.545 244.389 497.965 242.959 499.706L240.357 502.871L238.493 499.715C237.468 497.979 235.826 496.559 234.844 496.559C233.863 496.559 233.06 496.764 233.06 497.015ZM373.133 499.194C368.219 505.44 372.45 515.559 379.975 515.559C382.624 515.559 384.366 514.862 385.961 513.164C388.601 510.354 387.006 508.393 384.168 510.961C381.715 513.181 377.366 513 376.095 510.625C374.189 507.064 374.868 506.559 381.56 506.559C388.019 506.559 388.06 506.541 388.06 503.748C388.06 499.349 384.774 496.559 379.594 496.559C376.044 496.559 374.809 497.063 373.133 499.194ZM431.272 505.809C431.503 513.237 431.855 515.059 433.06 515.059C434.265 515.059 434.617 513.237 434.848 505.809C435.121 497.022 435.031 496.559 433.06 496.559C431.089 496.559 430.999 497.022 431.272 505.809ZM439.254 497.708C439.521 498.451 440.986 502.517 442.51 506.744C445.217 514.253 447.575 516.924 449.217 514.343C450.011 513.096 455.06 498.199 455.06 497.105C455.06 496.805 454.44 496.559 453.681 496.559C452.303 496.559 451.247 498.679 449.026 505.901C447.62 510.473 446.791 509.879 444.375 502.563C443.139 498.819 441.955 496.954 440.664 496.712C439.409 496.476 438.932 496.813 439.254 497.708ZM459.484 497.897C459.201 498.634 459.103 502.796 459.265 507.147C459.497 513.382 459.878 515.059 461.06 515.059C462.265 515.059 462.617 513.237 462.848 505.809C463.092 497.951 462.899 496.559 461.566 496.559C460.703 496.559 459.766 497.161 459.484 497.897ZM48.283 500.116C44.453 502.798 46.284 512.559 50.617 512.559C55.286 512.559 57.922 503.554 54.231 500.214C51.965 498.163 51.09 498.149 48.283 500.116ZM99.631 500.13C96.705 503.057 97.698 504.559 102.56 504.559C106.366 504.559 107.06 504.256 107.06 502.594C107.06 500.75 104.42 498.559 102.197 498.559C101.65 498.559 100.496 499.266 99.631 500.13ZM120.81 499.639C119.847 500.2 119.06 501.536 119.06 502.609C119.06 504.254 119.765 504.559 123.56 504.559C127.366 504.559 128.06 504.256 128.06 502.594C128.06 501.514 127.19 500.164 126.126 499.594C123.762 498.329 123.048 498.335 120.81 499.639ZM185.419 501.109C182.626 503.903 182.762 507.446 185.793 510.809C187.849 513.09 189.599 513.02 192.06 510.559C194.862 507.757 194.743 502.151 191.837 500.116C188.887 498.049 188.404 498.124 185.419 501.109ZM276.587 500.175C274.225 502.537 275.216 504.017 279.395 504.37C283.782 504.74 285.6 502.158 282.531 499.914C280.099 498.136 278.558 498.204 276.587 500.175ZM314.554 500.565C312.241 503.122 313.037 503.865 318.205 503.972C322.78 504.068 324.016 502.658 321.533 500.175C319.353 497.995 316.749 498.14 314.554 500.565ZM376.589 499.914C375.425 500.765 374.977 501.9 375.384 502.962C375.905 504.32 376.778 504.52 379.797 503.975C385.016 503.034 385.436 502.632 383.47 500.46C381.443 498.22 379.154 498.038 376.589 499.914ZM494.548 500.572C492.07 503.311 492.226 508.17 494.878 510.821L497.029 512.973L499.795 510.88C502.021 509.195 502.535 508.048 502.43 504.997C502.23 499.135 497.999 496.759 494.548 500.572ZM555.589 499.914C552.52 502.158 554.338 504.74 558.725 504.37C562.904 504.017 563.895 502.537 561.533 500.175C559.562 498.204 558.021 498.136 555.589 499.914ZM576.099 500.748C573.374 503.673 573.526 507.116 576.514 510.104C578.637 512.226 579.305 512.404 581.465 511.42C584.462 510.055 585.692 505.623 583.977 502.368C581.669 497.987 579.153 497.469 576.099 500.748ZM659.617 500.496C658.653 501.561 658.16 502.911 658.521 503.496C659.326 504.798 665.018 504.871 667.02 503.605C668.27 502.814 668.212 502.384 666.615 500.62C664.279 498.038 661.88 497.996 659.617 500.496ZM597.071 508.046C595.216 510.281 596.608 512.559 599.829 512.559C603.073 512.559 605.06 510.964 605.06 508.359C605.06 506.981 604.268 506.559 601.682 506.559C599.825 506.559 597.749 507.228 597.071 508.046ZM392.235 513.228C392.659 515.429 396.56 515.728 396.56 513.559C396.56 512.734 395.507 511.91 394.221 511.728C392.407 511.471 391.961 511.808 392.235 513.228ZM675.248 513.298C675.75 515.904 679.06 516.195 679.06 513.632C679.06 512.201 678.418 511.559 676.987 511.559C675.556 511.559 675.017 512.098 675.248 513.298Z" fill="#013B63"/>
</svg>
