<svg width="668" height="514" viewBox="0 0 668 514" fill="none" xmlns="http://www.w3.org/2000/svg">
<path fill-rule="evenodd" clip-rule="evenodd" d="M319.06 0.226447C296.316 2.95145 278.478 6.88345 263.06 12.5694C252.114 16.6064 233.903 25.3404 224.185 31.2164C197.624 47.2734 169.016 75.9964 154.033 101.651C145.631 116.037 137.258 134.839 133.346 148.104C132.389 151.347 130.53 154.404 128.056 156.804C125.954 158.843 123.919 161.969 123.524 163.767C123.13 165.561 121.002 170.871 118.796 175.567C116.589 180.262 112.385 189.268 109.453 195.58C103.571 208.242 101.562 210.108 99.103 205.19C97.279 201.542 93.751 200.669 90.978 203.179C87.118 206.671 89.891 212.004 95.566 212.004C98.228 212.004 99.06 212.421 99.06 213.756C99.06 215.533 89.673 236.58 84.428 246.561C80.289 254.437 60.168 272.604 55.583 272.604C51.658 272.604 49.376 274.934 48.319 280.022C47.538 283.777 47.407 283.87 40.367 285.658C30.943 288.051 28.398 289.466 22.854 295.393C19.699 298.766 17.706 302.057 16.635 305.662C13.499 316.225 15.113 324.417 22.843 337.156C25.495 341.527 29.612 348.704 31.991 353.104C34.371 357.504 36.934 361.992 37.689 363.077C40.302 366.835 39.457 367.604 32.715 367.604C27.838 367.604 25.987 368.027 24.715 369.433C22.307 372.093 22.684 375.163 25.71 377.544C28.349 379.619 28.723 379.628 110.678 379.581L192.995 379.533L200.622 382.093C204.816 383.501 211.112 385.992 214.613 387.629C218.113 389.265 221.333 390.607 221.768 390.61C222.204 390.614 223.829 391.278 225.379 392.087C229.86 394.424 254.569 401.197 266.06 403.239C282.292 406.122 326.921 405.925 343.56 402.897C358.759 400.13 376.302 394.651 396.06 386.499L411.56 380.104L526.157 379.604C648.885 379.069 644.086 379.287 644.041 374.232C644.031 373.038 640.471 367.932 635.935 362.604C631.487 357.379 618.247 341.586 606.512 327.509C582.264 298.419 579.453 295.604 574.658 295.604C572.396 295.604 563.013 299.735 545.443 308.465C528.89 316.691 519.451 320.875 519.258 320.074C519.091 319.385 520.91 315.285 523.3 310.962C535.981 288.025 545.696 259.198 549.203 234.104C551.076 220.701 550.837 190.377 548.755 177.231C546.639 163.875 543.189 150.075 538.567 136.484C536.638 130.812 535.06 126.043 535.06 125.887C535.06 125.732 541.305 125.604 548.938 125.604C559.232 125.604 563.099 125.262 563.914 124.28C566.352 121.343 563.032 120.604 547.395 120.604C533.327 120.604 532.049 120.452 531.095 118.67C530.526 117.606 530.06 116.481 530.06 116.17C530.06 115.859 533.682 115.604 538.11 115.604C546.495 115.604 551.277 114.087 552.439 111.059C554.375 106.014 551.632 100.288 546.686 99.0464C545.41 98.7264 542.732 96.5095 540.734 94.1185C536.895 89.5265 531.663 87.0644 527.452 87.8694C525.466 88.2494 524.424 87.5494 522.025 84.2224C518.09 78.7664 513.056 75.4714 507.742 74.8724C503.781 74.4254 502.446 73.4214 492.481 63.3895C460.116 30.8074 424.044 11.7514 378.06 2.94345C366.706 0.768446 361.221 0.313446 343.56 0.0814464C332.01 -0.0695536 320.985 -0.00455312 319.06 0.226447ZM314.095 8.62945C291.414 10.9794 267.611 18.2384 243.56 30.1384C197.65 52.8554 165.029 88.4375 145.611 136.98C143.658 141.861 142.06 146.684 142.06 147.696C142.06 149.44 142.243 149.429 145.562 147.47C151.349 144.056 158.691 145.224 163.274 150.288C166.878 154.27 169.331 161.669 168.73 166.744L168.16 171.554L172.36 172.65C174.67 173.252 185.56 176.159 196.56 179.11C247.167 192.684 255.647 194.604 264.98 194.604C274.845 194.604 274.448 194.89 276.091 186.604C276.581 184.129 278.352 176.102 280.026 168.765C281.699 161.429 282.851 155.076 282.586 154.647C282.321 154.218 280.357 153.587 278.222 153.246L274.34 152.625L273.844 146.865C273.572 143.696 273.559 139.413 273.815 137.346L274.281 133.588L332.42 133.846L390.56 134.104L390.388 142.442C390.294 147.029 389.993 151.004 389.721 151.277C389.448 151.549 387.388 152.019 385.143 152.32C381.338 152.83 381.06 153.084 381.06 156.041C381.06 161.22 387.999 191.493 389.814 194.23C390.224 194.849 393.825 195.902 397.815 196.571C408.339 198.334 414.957 201.995 417.809 207.629C421.099 214.13 422.34 223.37 421.609 235.929C420.73 251.043 419.426 257.011 415.299 264.795C415.097 265.176 416.226 266.156 417.807 266.973C422.526 269.413 426.931 274.642 429.059 280.33C432.86 290.49 430.968 312.122 425.719 318.516C424.743 319.705 425.235 319.838 428.849 319.356C437.646 318.183 439.551 314.223 439.556 297.104C439.56 284.58 439.444 283.86 436.395 277.424C434.655 273.751 431.322 268.674 428.989 266.143L424.747 261.541L426.654 253.323C428.093 247.116 428.56 241.31 428.56 229.604C428.56 211.71 427.167 205.942 421.267 199.411C417.346 195.072 413.76 193.295 404.071 190.891C400.49 190.003 397.229 188.787 396.825 188.19C396.421 187.593 396.084 183.391 396.075 178.854C396.063 172.345 395.756 170.604 394.619 170.604C392.789 170.604 392.402 169.942 391.539 165.346C390.879 161.826 390.987 161.604 393.363 161.604C395.747 161.604 395.915 161.252 396.341 155.354C396.589 151.917 397.267 147.364 397.847 145.237C398.58 142.549 398.587 139.804 397.867 136.237C397.298 133.414 396.623 127.591 396.368 123.298L395.904 115.493L392.232 115.798C388.605 116.1 388.559 116.159 388.484 120.604C388.411 124.894 388.271 125.104 385.484 125.104C382.7 125.104 382.545 124.874 382.253 120.297L381.946 115.49L378.253 115.797C374.607 116.1 374.556 116.164 374.255 120.854L373.95 125.604H366.505H359.06V85.1044V44.6044H390.541H422.022L422.291 67.3544L422.56 90.1044L447.848 90.3714C469.102 90.5964 473.227 90.8754 473.705 92.1214C474.437 94.0304 476.956 94.0384 477.687 92.1344C477.997 91.3264 479.746 90.1244 481.573 89.4634C483.4 88.8034 485.361 87.2384 485.932 85.9874C486.502 84.7354 488.563 81.9464 490.513 79.7884L494.058 75.8644L483.284 65.4844C454.216 37.4804 421.835 20.4374 380.56 11.4164C367.717 8.60945 364.742 8.33145 344.56 8.05445C332.46 7.88845 318.751 8.14745 314.095 8.62945ZM519.54 53.6364C519.152 54.2644 519.305 55.2494 519.88 55.8244C521.224 57.1684 524.357 55.9964 523.81 54.3534C523.254 52.6824 520.424 52.2064 519.54 53.6364ZM374.06 69.1044V77.6044H378.06H382.06V69.1044V60.6044H378.06H374.06V69.1044ZM388.27 68.8544L388.56 77.1044L392.31 77.4144L396.06 77.7254V69.1644V60.6044H392.02H387.979L388.27 68.8544ZM401.91 67.6044C401.827 71.4544 401.715 75.1674 401.66 75.8544C401.6 76.6004 403.071 77.2294 405.31 77.4144L409.06 77.7254V69.1644V60.6044H405.56H402.06L401.91 67.6044ZM500.56 80.2924C496.631 81.3065 492.131 85.6355 490.966 89.5235C489.95 92.9165 489.355 93.4614 486.103 93.9814C477.052 95.4284 475.708 106.877 484.293 109.396C486.09 109.924 500.177 110.448 515.598 110.562C541.774 110.755 543.791 110.643 545.969 108.879C548.161 107.104 548.2 106.887 546.61 105.297C545.679 104.366 543.869 103.604 542.587 103.604C540.994 103.604 539.618 102.521 538.236 100.178C535.068 94.8085 531.918 93.2304 525.781 93.9384L520.56 94.5405L518.06 89.3734C516.573 86.3004 514.344 83.5074 512.56 82.4814C509.187 80.5404 503.568 79.5164 500.56 80.2924ZM377.31 87.3934L374.06 87.7314V96.6674V105.604H378.06H382.06V96.6635C382.06 91.7455 381.723 87.5725 381.31 87.3895C380.897 87.2065 379.098 87.2084 377.31 87.3934ZM388.06 96.6044V105.604H392.06H396.06V96.6044V87.6044H392.06H388.06V96.6044ZM402.06 96.6044V105.604H405.56H409.06V96.6044V87.6044H405.56H402.06V96.6044ZM560.06 95.6044C556.096 99.5684 558.708 105.604 564.389 105.604C568.03 105.604 571.364 102.163 570.493 99.3035C568.78 93.6785 563.765 91.8994 560.06 95.6044ZM431.743 109.303C431.336 110.817 431.462 121.286 431.92 123.909C431.997 124.351 434.197 124.576 436.81 124.409L441.56 124.104V116.104V108.104L436.894 107.803C433.091 107.557 432.138 107.835 431.743 109.303ZM451.727 108.271C451.36 108.637 451.06 112.462 451.06 116.771V124.604H456.06H461.06V116.104V107.604H456.727C454.343 107.604 452.093 107.904 451.727 108.271ZM474.673 111.324C474.336 111.661 474.06 125.353 474.06 141.75V171.562L493.81 171.833L513.56 172.104L514.06 241.104L514.56 310.104L521.731 295.604C531.281 276.291 536.501 260.333 540.701 237.604C542.918 225.601 543.2 192.252 541.191 179.604C537.857 158.62 532.278 139.528 524.919 123.912L521.059 115.721L501.14 115.412C482.453 115.123 481.038 114.968 478.254 112.908C476.621 111.7 475.01 110.987 474.673 111.324ZM402.06 124.104V132.604H405.56H409.06V124.104V115.604H405.56H402.06V124.104ZM612.31 121.247C610.258 122.107 610.893 124.524 613.331 125.136C614.58 125.449 618.742 125.57 622.581 125.405C628.793 125.137 629.56 124.884 629.56 123.104C629.56 121.287 628.83 121.087 621.56 120.914C617.16 120.809 612.998 120.959 612.31 121.247ZM104.06 134.604C101.577 137.087 101.53 138.815 103.889 140.949C107.484 144.203 113.06 142.209 113.06 137.67C113.06 136.083 109.283 132.604 107.56 132.604C106.735 132.604 105.16 133.504 104.06 134.604ZM574.06 135.604C574.06 137.527 574.727 137.604 591.453 137.604C605.452 137.604 608.951 137.33 609.384 136.202C609.68 135.431 609.653 134.531 609.324 134.202C608.996 133.873 600.927 133.604 591.393 133.604C574.727 133.604 574.06 133.681 574.06 135.604ZM431.698 135.381C431.433 135.809 431.311 139.707 431.426 144.044C431.655 152.681 432.394 153.649 438.12 152.809C440.766 152.42 440.961 152.04 441.606 146.023C441.981 142.517 442.003 138.514 441.655 137.127C441.098 134.906 440.493 134.604 436.6 134.604C434.168 134.604 431.962 134.954 431.698 135.381ZM451.774 135.224C451.381 135.616 451.06 139.687 451.06 144.271V152.604H456.099H461.138L460.849 143.854L460.56 135.104L456.524 134.807C454.304 134.644 452.166 134.831 451.774 135.224ZM287.998 143.721C287.104 145.391 287.149 146.06 288.207 146.782C289.843 147.899 375.579 147.418 376.711 146.286C377.139 145.858 377.006 144.742 376.416 143.806C375.436 142.253 371.569 142.081 332.242 141.843L289.142 141.583L287.998 143.721ZM402.06 152.104V160.604H405.56H409.06V152.104V143.604H405.56H402.06V152.104ZM289.289 154.775C288.613 155.451 288.06 156.78 288.06 157.728C288.06 158.677 287.178 163.424 286.101 168.278C285.023 173.133 281.848 187.651 279.044 200.541L273.948 223.978L275.177 233.041C277.167 247.712 279.877 248.805 280.617 235.236C280.882 230.372 281.531 224.464 282.059 222.106C282.588 219.749 283.947 212.041 285.08 204.978C286.213 197.914 288.438 185.825 290.025 178.114C293.619 160.64 294.146 154.294 292.039 153.86C291.203 153.687 289.965 154.099 289.289 154.775ZM300.599 154.815C300.363 155.524 299.212 161.279 298.04 167.604C296.868 173.929 295.124 183.154 294.164 188.104C293.203 193.054 292.801 197.259 293.271 197.448C293.74 197.637 295.03 196.64 296.138 195.233C298.031 192.826 298.76 192.656 308.355 192.388L318.56 192.104V173.104V154.104L309.794 153.815C303.32 153.601 300.915 153.863 300.599 154.815ZM329.763 154.235C329.376 154.621 329.06 163.412 329.06 173.771V192.604H338.468H347.875L347.718 173.354L347.56 154.104L339.013 153.818C334.312 153.661 330.149 153.848 329.763 154.235ZM357.369 154.854C356.356 156.419 355.881 189.698 356.849 191.261C357.29 191.972 361.668 192.541 368.357 192.756C378.926 193.097 379.142 193.059 378.622 190.991C378.33 189.829 377.667 186.004 377.15 182.491C374.463 164.243 372.966 155.26 372.481 154.476C371.618 153.079 358.302 153.413 357.369 154.854ZM156.29 158.374C154.665 163.036 156.594 168.604 159.835 168.604C161.648 168.604 162.118 168.198 161.667 167.022C161.333 166.152 161.06 164.177 161.06 162.633C161.06 161.089 160.23 158.801 159.216 157.548L157.372 155.271L156.29 158.374ZM138.022 158.356C132.28 159.903 129.06 163.962 129.06 169.654C129.06 174.321 134.633 179.604 139.556 179.604C146.434 179.604 152.127 172.705 150.523 166.314C149.305 161.46 142.525 157.144 138.022 158.356ZM135.438 166.149C134.008 168.332 133.96 169.048 135.099 171.176C137.545 175.748 142.52 175.35 145.186 170.369C145.936 168.967 145.785 167.833 144.608 166.037C142.394 162.658 137.688 162.716 135.438 166.149ZM431.773 164.225C431.381 164.617 431.06 168.417 431.06 172.67V180.403L435.634 180.766C438.339 180.982 440.605 180.652 441.18 179.96C441.714 179.316 442.018 175.485 441.856 171.446L441.56 164.104L437.023 163.808C434.527 163.645 432.165 163.833 431.773 164.225ZM451.06 172.104V180.604H456.06H461.06V172.104V163.604H456.06H451.06V172.104ZM402.06 179.667V188.731L405.31 188.417L408.56 188.104L408.849 179.354L409.138 170.604H405.599H402.06V179.667ZM574.603 176.535C573.863 177.732 575.744 178.917 577.076 178.094C578.195 177.403 577.46 175.604 576.06 175.604C575.575 175.604 574.919 176.023 574.603 176.535ZM122.462 181.296C121.501 183.39 118.099 190.67 114.902 197.473C111.705 204.277 109.334 210.239 109.634 210.723C109.933 211.208 110.983 211.604 111.966 211.604C114.423 211.604 128.749 181.919 127.356 179.712C125.64 176.991 124.227 177.448 122.462 181.296ZM481.291 187.773C480.614 188.45 480.06 190.953 480.06 193.336V197.667L491.81 197.386L503.56 197.104V192.104V187.104L493.041 186.823C485.713 186.626 482.15 186.914 481.291 187.773ZM143.206 191.354C139.842 197.725 104.729 271.531 102.173 277.604C97.294 289.196 96.842 289.856 91.212 293.596C87.887 295.805 84.659 299.124 82.495 302.558C77.779 310.046 77.941 310.612 84.31 308.899C92.926 306.581 106.761 307.61 117.495 311.366C122.409 313.086 126.764 314.287 127.171 314.035C127.579 313.783 127.48 312.121 126.952 310.341C126.424 308.56 125.542 302.084 124.993 295.948C123.141 275.262 128.301 261.829 141.662 252.558C145.47 249.915 151.497 247.776 177.56 239.816C183.06 238.136 193.444 234.926 200.635 232.683C207.826 230.44 214.448 228.604 215.35 228.604C216.252 228.604 221.076 231.082 226.07 234.11C231.064 237.138 237.336 240.724 240.009 242.078C245.272 244.745 246.234 244.418 247.386 239.573C247.956 237.179 247.378 236.759 236.774 231.855C230.606 229.002 216.335 222.34 205.06 217.049C193.785 211.758 182.76 206.602 180.56 205.59C178.36 204.578 169.81 200.569 161.56 196.681C153.31 192.794 146.013 189.611 145.345 189.609C144.677 189.606 143.715 190.391 143.206 191.354ZM431.27 199.854L431.56 208.104L436.31 208.409L441.06 208.714V200.159V191.604H436.02H430.979L431.27 199.854ZM451.06 200.104V208.604H456.06H461.06V200.104V191.604H456.06H451.06V200.104ZM264.012 200.874C263.119 202.89 261.783 207.787 254.902 234.268C252.549 243.323 252.847 245.604 256.386 245.604C258.649 245.604 258.804 245.197 259.349 237.854C259.665 233.592 261.337 225.154 263.064 219.104C267.476 203.648 268.112 199.838 266.39 199.177C265.577 198.865 264.589 199.569 264.012 200.874ZM329.501 199.61C327.411 199.97 326.468 200.766 326.24 202.36C325.938 204.485 326.283 204.612 332.74 204.756C336.491 204.84 340.235 204.953 341.06 205.008C341.885 205.062 342.56 206.006 342.56 207.105C342.56 209.047 341.799 209.112 315.81 209.37L289.06 209.637V212.12V214.604H316.06C342.393 214.604 343.06 214.653 343.06 216.604C343.06 218.556 342.393 218.604 315.56 218.604H288.06V221.104V223.604H315.63H343.199L342.88 225.756C342.562 227.892 342.4 227.906 319.98 227.699C293.298 227.452 287.06 228.024 287.06 230.717C287.06 232.473 288.543 232.587 314.797 232.838C340.199 233.082 342.561 233.25 342.867 234.838C343.176 236.446 341.135 236.592 314.88 236.838L286.56 237.104L286.243 239.338L285.925 241.573L314.229 241.838C340.268 242.083 342.56 242.244 342.87 243.854C343.184 245.488 341.308 245.604 314.633 245.604C284.687 245.604 284.276 245.669 287.463 249.869C288.699 251.497 291.118 251.614 318.681 251.369L348.56 251.104V225.156V199.208L340.501 199.156C336.069 199.127 331.119 199.332 329.501 199.61ZM355.06 202.104C355.06 204.48 355.346 204.604 360.81 204.612C368.778 204.624 383.887 206.441 386.169 207.662C387.929 208.604 388.06 210.089 388.06 229.032C388.06 250.082 388.158 250.604 392.121 250.604C392.614 250.604 393.14 241.717 393.289 230.854L393.56 211.104L399.942 211.287C403.451 211.388 407.628 212.011 409.224 212.672C410.819 213.333 412.41 213.587 412.76 213.237C414.173 211.824 410.514 207.563 406.653 206.124C401.549 204.222 369.302 199.604 361.126 199.604C355.322 199.604 355.06 199.712 355.06 202.104ZM480.727 206.271C480.36 206.637 480.06 209.127 480.06 211.802V216.667L491.81 216.386L503.56 216.104L503.862 210.854L504.165 205.604H492.779C486.517 205.604 481.093 205.904 480.727 206.271ZM354.44 211.056C353.394 213.781 355.176 214.604 362.119 214.604C368.856 214.604 369.06 214.531 369.06 212.104C369.06 209.674 368.862 209.604 362.029 209.604C356.804 209.604 354.854 209.977 354.44 211.056ZM104.172 218.781C103.68 220.059 100.959 226.047 98.125 232.087C93.594 241.745 93.12 243.347 94.197 245.36C94.871 246.62 95.812 247.52 96.288 247.361C97.722 246.883 109.083 221.258 108.812 219.114C108.444 216.205 105.251 215.976 104.172 218.781ZM401.785 219.213C401.386 219.611 401.06 220.537 401.06 221.271C401.06 222.245 402.81 222.604 407.56 222.604C412.671 222.604 414.06 222.283 414.06 221.104C414.06 220.04 412.971 219.6 410.31 219.59C408.248 219.583 405.649 219.332 404.535 219.032C403.421 218.733 402.183 218.814 401.785 219.213ZM432.137 220.012C431.413 220.884 431.081 224.209 431.264 228.762L431.56 236.104L436.229 236.405L440.898 236.707L441.254 228.905C441.45 224.615 441.206 220.542 440.713 219.854C439.496 218.159 433.584 218.268 432.137 220.012ZM451.774 219.224C451.381 219.616 451.06 223.712 451.06 228.325V236.714L455.81 236.409L460.56 236.104V227.604V219.104L456.524 218.807C454.304 218.644 452.166 218.831 451.774 219.224ZM355.405 221.147C354.535 223.415 355.21 223.705 362.465 224.171C368.943 224.587 369.06 224.55 369.06 222.099C369.06 219.694 368.825 219.604 362.529 219.604C357.564 219.604 355.855 219.974 355.405 221.147ZM480.462 225.999C480.168 226.766 480.069 229.128 480.243 231.249L480.56 235.104H492.06H503.56L503.862 229.854L504.165 224.604H492.581C483.595 224.604 480.877 224.917 480.462 225.999ZM129.733 230.604C128.274 233.629 127.075 237.14 127.07 238.407C127.055 241.872 130.113 254.604 130.96 254.604C131.367 254.604 132.732 253.417 133.993 251.966C136.506 249.075 136.453 245.77 133.665 231.604L132.386 225.104L129.733 230.604ZM401.06 229.604C401.06 230.168 403.893 230.604 407.56 230.604C411.227 230.604 414.06 230.168 414.06 229.604C414.06 229.04 411.227 228.604 407.56 228.604C403.893 228.604 401.06 229.04 401.06 229.604ZM354.56 230.604C353.245 232.732 355.443 233.604 362.119 233.604C368.393 233.604 369.06 233.412 369.06 231.604C369.06 229.796 368.393 229.604 362.119 229.604C358.301 229.604 354.9 230.054 354.56 230.604ZM206.06 239.14C200.835 240.494 193.635 242.483 190.06 243.561C147.148 256.501 144.06 257.58 144.06 259.63C144.06 260.18 147.49 260.604 151.934 260.604C158.435 260.604 160.574 260.176 164.201 258.149C170.015 254.899 194.511 247.296 206.35 245.066L215.78 243.29L220.532 245.59C223.145 246.856 228.599 249.884 232.651 252.319C239.612 256.503 242.101 257.027 242.029 254.295C241.998 253.15 218.942 237.328 216.668 236.891C216.059 236.774 211.285 237.786 206.06 239.14ZM401.754 237.243C400.253 238.745 402.57 239.604 408.119 239.604C412.733 239.604 414.06 239.269 414.06 238.104C414.06 236.942 412.745 236.604 408.227 236.604C405.018 236.604 402.106 236.892 401.754 237.243ZM360.81 239.353C355.896 239.653 355.06 239.987 355.06 241.654C355.06 243.403 355.787 243.604 362.13 243.604C368.817 243.604 369.182 243.487 368.88 241.432C368.509 238.915 368.408 238.889 360.81 239.353ZM480.475 244.966C480.173 245.751 480.069 248.128 480.243 250.249L480.56 254.104H492.06H503.56V249.104V244.104L492.291 243.821C483.261 243.594 480.914 243.822 480.475 244.966ZM403.81 245.42C398.459 246.036 401.152 247.604 407.56 247.604C411.135 247.604 414.06 247.201 414.06 246.709C414.06 245.702 407.992 244.939 403.81 245.42ZM431.479 247.953C431.195 248.695 431.096 252.408 431.261 256.203L431.56 263.104L436.31 263.409L441.06 263.714V255.159V246.604H436.529C433.648 246.604 431.809 247.096 431.479 247.953ZM451.774 247.224C451.381 247.616 451.06 251.487 451.06 255.825V263.714L455.81 263.409L460.56 263.104V255.104V247.104L456.524 246.807C454.304 246.644 452.166 246.831 451.774 247.224ZM355.917 254.993C346.055 258.517 339.454 266.2 335.191 279.117C332.669 286.761 331.255 296.604 332.679 296.604C333.173 296.604 334.643 293.566 335.945 289.854C344.445 265.615 354.65 257.72 375.995 258.869C383.69 259.284 387.004 259.992 392.948 262.494C400.732 265.771 404.5 266.425 403.819 264.38C403.214 262.567 394.746 257.856 388.017 255.59C380.962 253.213 361.893 252.858 355.917 254.993ZM180.06 258.484C163.722 263.989 152.001 277.709 150.43 293.167C148.954 307.692 157.15 324.653 166.816 327.079C170.739 328.064 170.643 326.937 166.454 322.847C164.312 320.756 161.215 316.583 159.572 313.574C156.852 308.595 156.583 307.252 156.572 298.604C156.561 290.14 156.867 288.504 159.377 283.604C165.358 271.929 173.85 265.849 185.781 264.697C198.437 263.475 205.361 265.943 213.405 274.542C220.513 282.141 222.478 287.218 222.523 298.104C222.555 305.815 222.178 307.92 219.89 312.8C218.421 315.934 215.103 320.614 212.515 323.202L207.81 327.906L211.354 327.331C218.385 326.19 223.42 320.686 227.178 310.031C230.191 301.487 229.52 289.427 225.569 281.104C221.591 272.724 212.296 263.738 204.528 260.762C198.084 258.293 184.405 257.02 180.06 258.484ZM75.32 266.774C70.502 271.356 66.56 275.773 66.56 276.59C66.56 279.003 69.479 278.849 70.562 276.38C71.705 273.774 76.361 272.779 78.624 274.658C79.418 275.316 80.432 277.261 80.878 278.98C83.007 287.199 87.302 277.974 86.834 266.184C86.66 261.776 86.11 259.115 85.32 258.854C84.638 258.629 80.138 262.193 75.32 266.774ZM223.65 262.459C223.359 262.929 224.12 264.166 225.341 265.209C227.465 267.023 229.727 267.093 278.21 266.836C324.23 266.593 328.918 266.417 329.494 264.916C329.842 264.007 329.55 262.897 328.844 262.449C327.125 261.359 224.324 261.368 223.65 262.459ZM480.257 267.822L480.56 273.104H492.06H503.56V268.104V263.104L491.757 262.822L479.953 262.54L480.257 267.822ZM570.06 264.104C570.06 264.929 570.735 265.604 571.56 265.604C572.385 265.604 573.06 264.929 573.06 264.104C573.06 263.279 572.385 262.604 571.56 262.604C570.735 262.604 570.06 263.279 570.06 264.104ZM136.629 266.809C133.688 271.007 134.474 271.604 142.945 271.604C150.222 271.604 150.954 271.414 152.445 269.139C153.333 267.784 154.056 266.321 154.05 265.889C154.045 265.457 150.476 264.983 146.12 264.836C138.89 264.591 138.062 264.764 136.629 266.809ZM367.06 265.539C361.503 267.235 356.049 270.784 352.779 274.83C345.022 284.427 342.574 294.576 345.135 306.52C346.014 310.616 346.847 311.927 349.688 313.683C351.6 314.865 353.41 315.587 353.71 315.287C354.01 314.987 353.311 312.219 352.158 309.135C345.839 292.248 355.285 272.707 372.31 267.446C374.373 266.809 376.06 265.909 376.06 265.446C376.06 264.426 370.517 264.484 367.06 265.539ZM407.451 273.027C406.496 275.516 410.676 278.604 415.001 278.604C420.829 278.604 421.2 276.794 416.087 273.296C413.075 271.235 408.197 271.083 407.451 273.027ZM232.06 274.959C232.06 278.204 234.658 278.656 251.692 278.379C267.802 278.116 268.56 278.014 268.56 276.104C268.56 274.187 267.802 274.093 250.31 273.831C235.203 273.606 232.06 273.8 232.06 274.959ZM451.701 274.296C451.349 274.649 451.06 278.712 451.06 283.325V291.714L455.81 291.409L460.56 291.104V282.655V274.205L456.451 273.93C454.191 273.779 452.054 273.943 451.701 274.296ZM132.727 278.271C132.36 278.637 132.06 280.437 132.06 282.271V285.604H138.585C144.669 285.604 145.175 285.431 146.085 283.039C148.004 277.991 147.586 277.604 140.227 277.604C136.468 277.604 133.093 277.904 132.727 278.271ZM181.56 280.177C169.088 286.663 166.336 302.115 175.942 311.722C185.876 321.655 202.07 318.399 207.512 305.372C211.493 295.846 207.444 285.427 197.85 280.507C193.333 278.19 185.677 278.035 181.56 280.177ZM375.426 281.079C371.175 283.027 365.23 290.182 364.462 294.273C363.362 300.138 364.864 306.015 368.569 310.343C372.982 315.499 377.546 317.61 384.211 317.579C388.716 317.558 390.304 317.008 394.277 314.093C400.183 309.76 402.114 306.078 402.317 298.758C402.504 292.019 400.518 287.899 394.892 283.351C391.875 280.913 390.1 280.321 384.892 280.015C380.781 279.773 377.461 280.146 375.426 281.079ZM480.06 287.104V292.667L491.81 292.386L503.56 292.104V287.104V282.104L491.81 281.822L480.06 281.541V287.104ZM414.808 284.189C414.487 284.511 414.689 286.109 415.258 287.741C416.207 290.465 416.63 290.683 420.426 290.406C424.632 290.099 425.056 289.343 423.544 284.854C423.123 283.605 415.939 283.058 414.808 284.189ZM303.06 285.252C293.931 286.623 287.491 288.162 280.06 290.749C272.29 293.454 270.035 293.76 253.81 294.311L236.06 294.914V297.352V299.791L254.81 299.424L273.56 299.056L283.06 295.106C292.456 291.199 292.734 291.15 308.479 290.63C324.828 290.09 326.82 289.507 323.533 286.22C322.282 284.969 320.069 284.635 313.739 284.74C309.24 284.815 304.435 285.045 303.06 285.252ZM183.427 289.376C178.505 293.363 177.545 300.732 181.369 305.177C183.134 307.229 184.848 307.973 188.649 308.339C193.157 308.772 193.933 308.525 196.966 305.692C200.108 302.757 200.281 302.253 199.814 297.394C199.429 293.384 198.714 291.703 196.633 289.913C193.33 287.072 186.608 286.799 183.427 289.376ZM379.438 289.041C369.276 293.464 371.855 308.671 382.816 308.959C387.724 309.088 391.977 306.354 393.37 302.175C394.805 297.869 392.63 291.922 388.756 289.56C385.017 287.281 383.657 287.205 379.438 289.041ZM132.06 294.604V297.604H138.06H144.06V294.604V291.604H138.06H132.06V294.604ZM61.726 295.292C58.774 301.017 44.882 336.927 44.35 340.207C43.932 342.778 44.155 343.604 45.268 343.604C46.756 343.604 66.13 299.21 66.42 295.135C66.645 291.978 63.378 292.087 61.726 295.292ZM416.774 296.223C415.576 297.421 415.979 302.359 417.316 302.872C418.007 303.137 419.695 303.298 421.066 303.229C423.226 303.121 423.56 302.635 423.56 299.604C423.56 296.438 423.27 296.076 420.524 295.807C418.854 295.643 417.167 295.831 416.774 296.223ZM480.475 301.966C480.173 302.751 480.069 305.128 480.243 307.249L480.56 311.104H492.06H503.56V306.104V301.104L492.291 300.821C483.261 300.594 480.914 300.822 480.475 301.966ZM134.075 305.354C134.103 308.48 135.505 309.461 140.984 310.188C146.315 310.895 146.365 310.878 145.729 308.503C145.376 307.184 145.081 305.542 145.074 304.854C145.064 304.007 143.286 303.604 139.56 303.604C134.983 303.604 134.063 303.898 134.075 305.354ZM235.545 305.854C235.297 306.542 234.394 309.12 233.54 311.583C232.686 314.047 231.103 317.56 230.023 319.391C227.719 323.296 227.561 324.604 229.395 324.604C231.978 324.604 243.674 320.345 254.06 315.621C259.835 312.994 267.935 309.835 272.06 308.6C276.185 307.365 280.46 305.991 281.56 305.547C282.665 305.101 272.917 304.709 259.779 304.672C241.611 304.62 235.891 304.899 235.545 305.854ZM547.133 316.867C533.698 323.533 523.184 329.145 523.768 329.34C524.651 329.634 542.997 322.742 563.245 314.509C565.822 313.461 568.522 312.613 569.245 312.623C569.968 312.633 582.208 324.123 596.444 338.155C620.831 362.192 627.781 368.144 620.029 358.354C600.013 333.073 575.187 304.593 573.24 304.676C572.316 304.716 560.568 310.202 547.133 316.867ZM415.997 309.257C415.138 309.489 413.901 311.156 413.247 312.962C411.68 317.298 411.728 317.604 413.978 317.604C417.282 317.604 419.081 316.464 420.691 313.35C421.98 310.857 422.017 310.192 420.904 309.487C419.501 308.597 418.602 308.555 415.997 309.257ZM88.56 317.11C88.01 317.302 85.002 318.17 81.877 319.04C74.749 321.023 70.426 324.615 67.458 331.021C66.185 333.77 65.275 336.152 65.437 336.314C65.599 336.477 69.479 334.358 74.058 331.605C83.926 325.674 92.219 322.931 104.833 321.425C109.933 320.815 113.892 320.102 113.629 319.84C111.64 317.851 92.437 315.76 88.56 317.11ZM314.185 319.954C313.266 321.061 313.87 322.103 317.152 325.068C320.196 327.818 321.566 328.498 322.394 327.67C323.812 326.252 322.553 324.126 318.395 320.919C315.833 318.944 315.152 318.788 314.185 319.954ZM404.727 324.771C403.718 325.871 403.146 327.023 403.454 327.332C404.249 328.126 413.06 324.631 413.06 323.521C413.06 321.775 406.582 322.747 404.727 324.771ZM446.246 344.332C446.639 346.37 453.813 347.867 460.962 347.403C467.708 346.964 466.203 345.276 457.853 343.917C447.398 342.215 445.849 342.27 446.246 344.332ZM106.572 347.379C101.879 349.943 99.318 353.615 102.237 353.595C104.543 353.578 114.205 347.539 113.812 346.36C113.152 344.379 111.683 344.586 106.572 347.379ZM282.738 349.297C281.275 354.668 281.217 356.436 282.45 358.123C283.753 359.905 283.83 359.902 284.83 358.033C285.399 356.971 286.018 354.308 286.207 352.116C286.474 349.022 286.179 348.058 284.891 347.81C283.953 347.629 283.016 348.277 282.738 349.297ZM466.06 368.104C466.06 369.451 468.563 369.612 485.81 369.375C498.129 369.206 505.56 368.728 505.56 368.104C505.56 367.48 498.129 367.002 485.81 366.833C468.563 366.596 466.06 366.757 466.06 368.104ZM135.06 370.104C135.06 371.357 137.116 371.604 147.56 371.604C158.004 371.604 160.06 371.357 160.06 370.104C160.06 368.851 158.004 368.604 147.56 368.604C137.116 368.604 135.06 368.851 135.06 370.104ZM166.727 387.271C164.821 389.176 167.264 389.604 180.06 389.604C191.838 389.604 194.06 389.366 194.06 388.104C194.06 386.846 191.912 386.604 180.727 386.604C173.393 386.604 167.093 386.904 166.727 387.271ZM60.539 416.968C54.217 418.996 51.352 421.377 48.608 426.884C42.102 439.94 48.226 457.394 60.389 460.457C71.364 463.22 80.205 460.073 84.412 451.904C87.186 446.518 86.702 445.604 81.079 445.604C76.702 445.604 76.027 445.885 75.515 447.926C74.674 451.28 69.68 453.943 65.65 453.187C59.039 451.947 55.618 445.219 56.74 435.667C57.604 428.314 61.055 424.604 67.029 424.604C71.398 424.604 76.06 427.936 76.06 431.059C76.06 432.246 77.217 432.604 81.06 432.604C86.874 432.604 87.244 431.681 84.06 425.104C80.577 417.909 69.524 414.085 60.539 416.968ZM171.56 416.543C160.37 418.454 154.048 426.753 154.07 439.503C154.094 453.653 163.376 462.326 177.529 461.425C189.466 460.665 197.066 452.403 197.054 440.197C197.047 432.162 195.598 427.286 191.999 423.188C187.089 417.595 179.619 415.167 171.56 416.543ZM263.56 416.495C255.82 418.459 252.06 422.745 252.06 429.602C252.06 436.718 255.452 439.647 267.995 443.367C275.727 445.66 278.057 448.21 275.337 451.4C274.359 452.547 272.435 453.561 271.06 453.655C265.331 454.046 263.943 453.562 262.263 450.585C260.711 447.835 260.16 447.593 256.06 447.864C252.065 448.129 251.587 448.414 251.802 450.407C252.475 456.64 258.191 460.604 267.592 461.359C278.333 462.221 285.611 457.481 286.736 448.892C287.114 446.005 286.672 444.279 284.877 441.635C282.867 438.674 281.231 437.766 273.694 435.427C263.645 432.309 262.06 431.3 262.06 428.017C262.06 422.889 270.471 421.927 274.407 426.604C276.438 429.018 277.713 429.604 280.936 429.604C283.139 429.604 285.163 429.247 285.433 428.81C286.589 426.939 282.215 419.906 278.937 418.365C274.704 416.375 267.492 415.498 263.56 416.495ZM438.097 416.778C432.706 418.325 429.232 421.331 426.417 426.886C424.098 431.463 423.875 432.855 424.266 440.314C424.644 447.509 425.102 449.208 427.65 452.87C431.749 458.759 436.835 461.09 445.604 461.098C450.605 461.102 453.413 460.602 455.287 459.375C459.121 456.862 462.86 451.56 463.235 448.104C463.538 445.303 463.318 445.084 459.901 444.799C457.407 444.591 455.815 445.025 454.901 446.161C448.845 453.688 446.356 454.808 440.571 452.608C436.515 451.066 433.656 443.696 434.46 436.856C435.572 427.392 438.015 424.653 445.376 424.618C449.341 424.598 451.587 426.047 453.044 429.566C454.171 432.287 454.753 432.604 458.622 432.604C460.998 432.604 463.151 432.265 463.407 431.851C463.663 431.437 463.258 429.3 462.508 427.101C459.415 418.039 449.021 413.644 438.097 416.778ZM548.054 416.527C537.225 419.869 532.06 427.087 532.06 438.876C532.06 452.042 539.516 460.656 551.578 461.424C562.237 462.103 568.333 458.945 572.593 450.539C575.317 445.163 575.874 437.076 573.988 430.283C572.641 425.433 566.881 419.007 562.744 417.741C557.866 416.247 550.84 415.667 548.054 416.527ZM641.06 416.526C629.272 418.855 624.974 432.134 633.94 438.519C635.601 439.701 640.46 441.667 644.738 442.886C651.507 444.816 652.646 445.473 653.515 447.951C654.346 450.318 654.191 451.035 652.596 452.201C649.065 454.783 641.426 453.602 638.56 450.031C638.01 449.346 635.647 448.62 633.31 448.418C629.44 448.084 629.06 448.256 629.06 450.342C629.06 453.836 634.897 459.557 639.56 460.633C652.269 463.567 663.177 458.883 664.084 450.104C664.957 441.647 662.224 438.633 650.41 435.03C642.164 432.515 639.06 430.644 639.06 428.188C639.06 425.867 642.664 423.604 646.359 423.604C649.245 423.604 650.46 424.226 652.218 426.604C654.103 429.153 655.103 429.604 658.873 429.604H663.31L662.687 426.354C661.914 422.317 657.379 418.064 652.363 416.671C648.191 415.513 646.309 415.488 641.06 416.526ZM1.06 438.604V460.604H10.617C23.498 460.604 28.359 459.249 33.592 454.199C43.029 445.091 41.831 428.084 31.25 420.953C26.909 418.028 19.791 416.604 9.511 416.604H1.06V438.604ZM118.56 418.269C110.816 422.361 108.114 427.68 108.082 438.894C108.04 453.646 115.403 461.604 129.092 461.604C137.63 461.604 147.06 454.441 147.06 447.956C147.06 445.807 146.637 445.604 142.168 445.604C137.923 445.604 137.202 445.903 136.71 447.864C135.878 451.176 130.656 453.938 126.65 453.187C121.098 452.145 118.679 448.55 118.234 440.679C117.62 429.805 121.071 424.604 128.903 424.604C132.299 424.604 135.906 427.069 137.098 430.205C137.881 432.263 138.672 432.604 142.666 432.604H147.322L146.751 429.088C146.055 424.797 142.964 420.678 138.73 418.396C134.546 416.142 122.727 416.067 118.56 418.269ZM205.48 417.952C205.196 418.693 205.097 428.481 205.261 439.702L205.56 460.104L210.31 460.409L215.06 460.714V446.959C215.06 438.371 215.413 433.561 216 434.154C216.516 434.676 220.469 440.729 224.783 447.604L232.628 460.104L237.844 460.406L243.06 460.709V438.656V416.604H238.587H234.115L233.837 430.854L233.56 445.104L224.197 430.854L214.834 416.604H210.416C207.632 416.604 205.806 417.103 205.48 417.952ZM291.45 418.031C291.148 418.816 291.05 420.504 291.231 421.781C291.528 423.877 292.194 424.153 298.06 424.604L304.56 425.104L304.833 442.854L305.106 460.604H310.194H315.282L314.95 450.354C314.767 444.717 314.717 436.616 314.839 432.354L315.06 424.604H321.06H327.06V420.604V416.604H309.529C295.265 416.604 291.895 416.87 291.45 418.031ZM335.06 438.471V460.604H339.56H344.06V453.047V445.489L348.287 445.797C351.291 446.015 352.819 446.682 353.57 448.104C354.151 449.204 356.112 452.467 357.929 455.354L361.232 460.604H366.646C369.624 460.604 372.06 460.309 372.06 459.948C372.06 459.588 371.024 457.9 369.757 456.198C366.385 451.667 363.06 445.687 363.06 444.154C363.06 443.419 363.732 442.56 364.554 442.245C368.959 440.554 371.277 431.392 368.972 424.78C366.962 419.015 362.515 417.33 347.92 416.803L335.06 416.339V438.471ZM378.224 432.854C378.517 447.015 378.83 449.618 380.658 453.104C383.753 459.007 387.946 461.049 397.037 461.079C406.409 461.11 410.57 459.012 413.81 452.619C415.862 448.571 416.06 446.785 416.06 432.337V416.494L411.31 416.799L406.56 417.104L406.06 433.445C405.573 449.364 405.496 449.838 403.075 451.795C399.962 454.313 393.755 453.742 390.663 450.654C388.732 448.725 388.534 447.25 388.241 432.579L387.922 416.604H382.905H377.888L378.224 432.854ZM469.727 417.271C469.36 417.637 469.06 419.417 469.06 421.225V424.513L475.81 424.808L482.56 425.104L482.833 442.854L483.106 460.604H488.083H493.06V442.604V424.604H499.56H506.06V420.604V416.604H488.227C478.418 416.604 470.093 416.904 469.727 417.271ZM514.06 438.604V460.714L518.81 460.409L523.56 460.104V438.604V417.104L518.81 416.799L514.06 416.494V438.604ZM583.774 417.224C583.381 417.616 583.06 427.537 583.06 439.271V460.604H588.06H593.06L593.119 446.854C593.166 435.852 593.416 433.467 594.369 434.919C595.024 435.918 599.08 442.105 603.381 448.669L611.202 460.604H616.131H621.06V438.549V416.494L616.31 416.799L611.56 417.104V430.355C611.56 437.643 611.19 443.482 610.737 443.331C610.284 443.179 606.009 437.216 601.237 430.08C592.686 417.293 592.501 417.1 588.524 416.807C586.304 416.644 584.166 416.831 583.774 417.224ZM11.727 425.271C11.36 425.637 11.06 432 11.06 439.41V452.882L17.209 452.324C22.231 451.869 23.886 451.24 26.232 448.894C32.751 442.374 30.406 429.56 22.084 426.23C17.901 424.557 12.904 424.094 11.727 425.271ZM170.49 425.569C167.213 426.895 165.139 431.005 164.628 437.185C163.632 449.235 171.368 456.61 180.593 452.407C188.504 448.802 189.333 431.411 181.843 426.165C179.457 424.493 173.872 424.2 170.49 425.569ZM344.469 425.981C344.178 426.738 344.08 429.551 344.25 432.231L344.56 437.104H351.26C358.42 437.104 359.563 436.545 360.546 432.561C360.985 430.779 360.535 429.207 359.044 427.311C357.155 424.909 356.242 424.604 350.956 424.604C346.818 424.604 344.836 425.025 344.469 425.981ZM547.441 426.514C539.733 431.214 540.608 448.799 548.733 452.501C555.367 455.523 563.145 451 564.594 443.276C567.135 429.732 557.54 420.355 547.441 426.514ZM533.495 480.912C533.219 481.632 533.121 487.483 533.277 493.916C533.674 510.307 535.487 509.555 535.839 492.854C536.025 484.009 535.766 479.604 535.058 479.604C534.474 479.604 533.771 480.193 533.495 480.912ZM0.280003 493.313L0.560001 506.104H8.56C15.004 506.104 16.56 505.812 16.56 504.604C16.56 503.462 15.067 503.033 10.31 502.806L4.06 502.509V498.556V494.604H10.06C14.727 494.604 16.06 494.271 16.06 493.104C16.06 491.936 14.72 491.604 10 491.604H3.939L4.25 487.854L4.56 484.104L10.329 483.604C19.059 482.847 17.811 481.148 8.28 480.813L0 480.522L0.280003 493.313ZM63.06 481.937C63.06 483.818 64.022 484.556 65.658 483.928C67.785 483.112 67.334 480.604 65.06 480.604C63.96 480.604 63.06 481.204 63.06 481.937ZM147.075 481.354C147.11 483.046 148.911 484.814 149.948 484.173C151.798 483.03 151.195 480.604 149.06 480.604C147.96 480.604 147.067 480.941 147.075 481.354ZM208.28 493.354L208.56 506.104H216.56C223.004 506.104 224.56 505.812 224.56 504.604C224.56 503.462 223.067 503.033 218.31 502.806L212.06 502.509V498.556V494.604H218.06C222.727 494.604 224.06 494.271 224.06 493.104C224.06 491.936 222.72 491.604 218 491.604H211.939L212.25 487.854L212.56 484.104L218.81 483.806C223.471 483.584 225.06 483.139 225.06 482.056C225.06 480.9 223.321 480.604 216.53 480.604H208L208.28 493.354ZM287.06 492.997C287.06 502.707 287.364 505.507 288.462 505.928C289.233 506.224 290.133 506.197 290.462 505.868C290.791 505.54 291.06 499.721 291.06 492.937C291.06 481.271 290.952 480.604 289.06 480.604C287.168 480.604 287.06 481.271 287.06 492.997ZM296.28 493.354C296.512 503.896 296.82 506.104 298.06 506.104C299.3 506.104 299.608 503.896 299.84 493.354C300.11 481.057 300.047 480.604 298.06 480.604C296.073 480.604 296.01 481.057 296.28 493.354ZM403.522 481.841C403.23 482.603 403.119 488.371 403.275 494.659L403.56 506.093L411.56 505.759C415.96 505.575 419.718 505.27 419.91 505.081C421.256 503.759 418.008 502.604 412.945 502.604H406.949L407.135 491.854C407.295 482.613 407.092 481.059 405.688 480.78C404.789 480.602 403.815 481.079 403.522 481.841ZM424.06 482.104C424.06 482.937 424.949 483.604 426.06 483.604C427.171 483.604 428.06 482.937 428.06 482.104C428.06 481.271 427.171 480.604 426.06 480.604C424.949 480.604 424.06 481.271 424.06 482.104ZM451.06 482.104C451.06 482.937 451.949 483.604 453.06 483.604C454.171 483.604 455.06 482.937 455.06 482.104C455.06 481.271 454.171 480.604 453.06 480.604C451.949 480.604 451.06 481.271 451.06 482.104ZM511.727 481.271C511.36 481.637 511.06 487.21 511.06 493.654C511.06 507.133 510.596 506.566 521.643 506.59C528.168 506.605 529.226 506.2 528.384 504.006C528 503.006 526.015 502.604 521.453 502.604H515.06V498.652V494.699L521.231 494.402C529.798 493.988 530.269 491.801 521.877 491.403L515.56 491.104V487.604V484.104L521.81 483.806C526.471 483.584 528.06 483.139 528.06 482.056C528.06 480.91 526.409 480.604 520.227 480.604C515.918 480.604 512.093 480.904 511.727 481.271ZM21.484 488.942C21.201 489.679 21.103 493.841 21.265 498.192C21.497 504.427 21.878 506.104 23.06 506.104C24.207 506.104 24.631 504.585 24.863 499.642C25.201 492.434 26.182 490.604 29.707 490.604C32.797 490.604 34.188 494.104 33.829 500.969C33.619 504.986 33.886 506.104 35.06 506.104C36.218 506.104 36.628 504.544 36.858 499.252C37.233 490.633 35.611 487.604 30.62 487.604C28.754 487.604 26.964 488.167 26.643 488.854C26.177 489.854 25.943 489.854 25.477 488.854C24.704 487.198 22.131 487.255 21.484 488.942ZM44.941 488.611C40.658 491.113 40.122 500.541 44.061 504.105C45.596 505.494 47.007 505.746 50.542 505.262C55.294 504.61 55.887 505.19 54.025 508.67C52.768 511.018 48.889 511.193 45.617 509.05C42.418 506.954 41.338 508.882 44.14 511.684C45.921 513.465 47.093 513.748 50.907 513.318C57.459 512.579 58.512 510.571 58.714 498.421C58.877 488.624 58.184 486.426 55.605 488.566C54.665 489.346 54.035 489.373 53.59 488.653C52.789 487.356 47.135 487.329 44.941 488.611ZM63.484 488.942C63.201 489.679 63.103 493.841 63.265 498.192C63.497 504.427 63.878 506.104 65.06 506.104C66.265 506.104 66.617 504.282 66.848 496.854C67.092 488.996 66.899 487.604 65.566 487.604C64.703 487.604 63.766 488.206 63.484 488.942ZM72.484 488.942C72.201 489.679 72.103 493.841 72.265 498.192C72.497 504.427 72.878 506.104 74.06 506.104C75.207 506.104 75.631 504.585 75.863 499.642C76.208 492.288 77.306 490.375 80.935 490.803C83.905 491.154 84.812 493.53 84.96 501.354C85.035 505.31 85.43 506.604 86.56 506.604C88.98 506.604 88.694 491.487 86.231 489.259C84.161 487.385 79.009 487.055 77.373 488.691C76.59 489.474 76.098 489.474 75.614 488.691C74.692 487.199 73.104 487.326 72.484 488.942ZM94.984 490.185C89.717 495.793 93.356 506.604 100.512 506.604C104.053 506.604 108.06 504.185 108.06 502.047C108.06 500.176 106.637 500.203 105.06 502.104C103.255 504.279 98.349 504.012 97.095 501.67C95.189 498.109 95.868 497.604 102.56 497.604C108.858 497.604 109.06 497.525 109.06 495.059C109.06 488.423 99.688 485.178 94.984 490.185ZM115.034 490.354C113.271 492.587 112.951 494.031 113.333 498.04C113.873 503.724 116.521 506.604 121.206 506.604C124.612 506.604 129.06 503.991 129.06 501.989C129.06 500.207 127.932 500.234 125.501 502.072C124.434 502.88 122.573 503.555 121.367 503.572C119.109 503.605 115.74 499.931 116.661 498.441C116.945 497.981 120.076 497.604 123.619 497.604C129.716 497.604 130.06 497.478 130.06 495.25C130.06 488.286 119.407 484.815 115.034 490.354ZM134.484 488.942C134.201 489.679 134.103 493.841 134.265 498.192C134.497 504.427 134.878 506.104 136.06 506.104C137.203 506.104 137.679 504.438 138.06 499.112C138.519 492.69 138.784 492.013 141.31 490.808C142.822 490.086 144.06 489.069 144.06 488.549C144.06 487.14 140.299 487.406 139.768 488.854C139.402 489.854 139.045 489.854 137.985 488.854C136.274 487.24 135.126 487.269 134.484 488.942ZM147.634 496.241C146.944 504.748 147.62 507.612 149.973 506.158C151.682 505.102 151.422 487.604 149.698 487.604C148.707 487.604 148.144 489.961 147.634 496.241ZM156.615 495.663C156.12 501.339 156.263 504.144 157.099 505.152C159.138 507.607 160.06 505.723 160.06 499.102C160.06 493.638 160.38 492.493 162.283 491.161C165.051 489.222 165.536 489.223 167.489 491.175C168.615 492.302 169.06 494.71 169.06 499.675C169.06 505.167 169.371 506.604 170.56 506.604C173.236 506.604 173.023 490.914 170.319 488.854C168.299 487.316 162.848 487.216 161.373 488.691C160.59 489.474 160.098 489.474 159.614 488.691C158.074 486.2 157.28 488.047 156.615 495.663ZM179.349 489.854C178.217 491.091 176.981 493.124 176.603 494.37C175.698 497.352 177.734 503.359 180.074 504.612C182.546 505.934 187.774 505.876 188.614 504.517C189.077 503.767 189.607 503.751 190.322 504.466C191.811 505.955 188.528 510.604 185.987 510.604C184.873 510.604 182.69 509.947 181.137 509.144C177.452 507.238 176.465 508.341 179.225 511.28C182.288 514.54 188.278 514.477 191.605 511.149C193.901 508.854 194.06 508.013 194.06 498.149C194.06 487.532 193.351 485.713 190.373 488.691C189.59 489.474 189.098 489.474 188.614 488.691C187.395 486.719 181.547 487.453 179.349 489.854ZM229.06 488.124C229.06 488.41 230.217 490.477 231.631 492.717L234.203 496.79L231.631 500.676C228.701 505.104 228.423 506.604 230.534 506.604C231.345 506.604 232.707 505.254 233.56 503.604C235.441 499.966 237.281 499.78 239.032 503.051C240.33 505.476 242.881 507.116 243.849 506.148C244.126 505.871 243.126 503.791 241.626 501.525C239.21 497.874 239.035 497.078 240.088 494.538C240.741 492.961 241.902 491.15 242.668 490.515C244.467 489.022 244.45 487.604 242.632 487.604C241.847 487.604 240.112 489.001 238.775 490.709L236.345 493.813L234.135 490.709C232.255 488.07 229.06 486.442 229.06 488.124ZM248.984 490.185C245.457 493.94 245.7 501.037 249.466 504.277C253.142 507.438 258.001 507.361 261.072 504.091C262.663 502.398 263.104 501.248 262.423 500.567C261.743 499.887 260.815 500.217 259.581 501.58C255.304 506.307 249.205 501.973 250.491 495.121C251.472 489.892 256.875 488.161 259.36 492.279C260.293 493.825 263.06 494.068 263.06 492.604C263.06 492.054 262.16 490.704 261.06 489.604C258.073 486.617 252.064 486.906 248.984 490.185ZM269.366 489.854C266.455 493.06 265.781 497.001 267.458 501.015C269.882 506.816 275.594 508.332 280.496 504.475C283.895 501.802 282.449 499.518 278.922 501.988C275.914 504.095 273.757 504.031 271.715 501.775C268.699 498.443 269.673 497.604 276.56 497.604C282.728 497.604 283.06 497.483 283.06 495.239C283.06 493.938 282.127 491.688 280.987 490.239C278.242 486.749 272.362 486.554 269.366 489.854ZM307.072 489.393C305.593 490.591 304.694 492.673 304.354 495.689C303.92 499.54 304.239 500.663 306.542 503.4C308.538 505.772 310.066 506.604 312.426 506.604C316.041 506.604 320.06 504.205 320.06 502.047C320.06 500.176 318.637 500.203 317.06 502.104C315.568 503.902 310.936 504.08 309.26 502.404C308.6 501.744 308.06 500.394 308.06 499.404C308.06 497.855 308.967 497.604 314.56 497.604C320.858 497.604 321.06 497.525 321.06 495.059C321.06 488.962 312.09 485.33 307.072 489.393ZM325.272 496.854C325.503 504.282 325.855 506.104 327.06 506.104C328.215 506.104 328.604 504.649 328.751 499.777C328.969 492.589 330.259 490.372 333.974 490.803C336.447 491.091 336.582 491.433 337.06 498.604C337.445 504.382 337.904 506.104 339.06 506.104C340.218 506.104 340.628 504.544 340.858 499.252C341.234 490.618 339.613 487.604 334.596 487.604C332.716 487.604 330.876 488.093 330.506 488.691C330.022 489.474 329.53 489.474 328.747 488.691C328.149 488.093 327.058 487.604 326.322 487.604C325.281 487.604 325.049 489.655 325.272 496.854ZM347.515 490.059C341.944 495.629 345.797 506.604 353.324 506.604C356.564 506.604 361.06 503.675 361.06 501.565C361.06 500.078 358.449 500.43 357.06 502.104C355.43 504.068 351.651 504.021 349.987 502.016C348.368 500.065 348.426 494.072 350.084 492.075C351.664 490.171 355.469 490.187 357.06 492.104C358.607 493.969 361.06 494.064 361.06 492.259C361.06 487.486 351.62 485.953 347.515 490.059ZM367.234 489.918C364.043 493.316 364.19 500.825 367.515 504.149C370.527 507.162 375.572 507.361 378.886 504.599C381.94 502.054 380.774 499.906 377.503 502.05C374.19 504.22 371.442 503.987 369.617 501.381C368.761 500.159 368.06 498.809 368.06 498.381C368.06 497.954 370.958 497.604 374.501 497.604C378.044 497.604 381.188 497.206 381.489 496.719C382.388 495.264 379.988 489.636 378.021 488.583C374.697 486.804 369.563 487.44 367.234 489.918ZM424.06 496.604C424.06 505.09 424.18 505.604 426.167 505.604C427.677 505.604 428.102 505.156 427.667 504.022C427.333 503.152 427.06 499.102 427.06 495.022C427.06 489.095 426.759 487.604 425.56 487.604C424.338 487.604 424.06 489.271 424.06 496.604ZM432.06 488.35C432.06 488.761 433.298 492.801 434.81 497.329C437.355 504.949 439.05 507.346 441.026 506.125C442.165 505.421 447.473 488.684 446.778 487.989C445.591 486.802 444.17 488.761 442.514 493.866C441.579 496.747 440.469 499.482 440.048 499.943C439.627 500.404 438.296 497.817 437.09 494.193C435.761 490.202 434.338 487.604 433.478 487.604C432.698 487.604 432.06 487.94 432.06 488.35ZM451.559 492.797C450.603 500.504 451.234 506.104 453.06 506.104C454.281 506.104 454.56 504.447 454.56 497.187C454.56 491.264 454.167 488.14 453.389 487.88C452.642 487.631 451.98 489.409 451.559 492.797ZM460.272 496.854C460.503 504.282 460.855 506.104 462.06 506.104C463.18 506.104 463.626 504.711 463.819 500.604C464.234 491.795 464.718 490.604 467.879 490.604C472.041 490.604 473.06 492.315 473.06 499.304C473.06 504.237 473.385 505.604 474.56 505.604C476.97 505.604 476.685 491.48 474.231 489.259C472.161 487.385 467.009 487.055 465.373 488.691C464.59 489.474 464.098 489.474 463.614 488.691C463.244 488.093 462.277 487.604 461.463 487.604C460.245 487.604 460.035 489.229 460.272 496.854ZM483.338 489.56C480.384 492.312 479.653 496.695 481.437 500.965C483.157 505.08 486.795 506.52 491.236 504.844C493.805 503.874 494.06 503.978 494.06 505.991C494.06 510.542 489.219 512.065 484.525 508.989C482.186 507.456 482.06 507.477 482.06 509.391C482.06 510.755 483.081 511.764 485.209 512.506C490.065 514.199 491.969 513.849 495.137 510.681C497.958 507.86 498.06 507.426 498.06 498.24C498.06 488.667 497.242 486.378 494.605 488.566C493.665 489.346 493.035 489.373 492.59 488.653C491.5 486.889 485.582 487.469 483.338 489.56ZM542.649 490.681C535.39 499.308 545.742 511.362 554.496 504.475C557.895 501.802 556.449 499.518 552.922 501.988C549.914 504.095 547.757 504.031 545.715 501.775C542.699 498.443 543.673 497.604 550.56 497.604C557.026 497.604 557.06 497.589 557.06 494.778C557.06 490.841 553.348 487.604 548.834 487.604C546.046 487.604 544.656 488.295 542.649 490.681ZM563.412 490.354C561.272 492.66 560.938 493.797 561.342 497.395C561.607 499.754 562.621 502.567 563.597 503.645C565.581 505.837 570.975 506.289 572.843 504.421C574.511 502.753 575.415 504.053 574.665 507.042C573.818 510.414 569.748 511.442 566.001 509.228C562.334 507.062 560.729 509.108 564.012 511.766C567.295 514.425 572.613 514.142 575.605 511.149C577.901 508.854 578.06 508.013 578.06 498.149C578.06 489.718 577.776 487.604 576.643 487.604C575.864 487.604 575.02 488.167 574.768 488.854C574.402 489.854 574.045 489.854 572.985 488.854C570.678 486.677 566.169 487.384 563.412 490.354ZM584.589 489.854C583.182 491.853 583.175 492.14 584.531 492.427C585.37 492.605 586.789 492.018 587.683 491.124C589.681 489.126 592.978 489.495 594.458 491.882C595.849 494.127 593.91 495.567 589.465 495.589C584.061 495.615 581.066 501.467 584.631 505.033C586.472 506.873 587.93 506.984 591.658 505.567C593.542 504.851 594.707 504.851 595.423 505.567C597.556 507.7 598.06 506.398 598.06 498.759C598.06 489.464 596.764 487.604 590.288 487.604C587.157 487.604 585.795 488.142 584.589 489.854ZM603.272 496.854C603.503 504.282 603.855 506.104 605.06 506.104C606.213 506.104 606.628 504.57 606.853 499.47C607.075 494.453 607.614 492.413 609.066 491.099C613.019 487.521 616.384 492.287 615.931 500.822C615.792 503.441 615.989 505.588 616.369 505.594C616.749 505.599 617.51 505.604 618.06 505.604C618.636 505.604 619.06 502.489 619.06 498.259C619.06 492.413 618.687 490.576 617.231 489.259C615.161 487.385 610.009 487.055 608.373 488.691C607.59 489.474 607.098 489.474 606.614 488.691C606.244 488.093 605.277 487.604 604.463 487.604C603.245 487.604 603.035 489.229 603.272 496.854ZM626.284 489.865C625.116 491.109 623.869 493.947 623.513 496.173C622.96 499.634 623.255 500.682 625.552 503.412C628.788 507.257 633.406 507.693 637.425 504.531C640.567 502.06 640.802 500.604 638.06 500.604C636.96 500.604 636.06 501.045 636.06 501.585C636.06 502.124 634.917 502.853 633.52 503.203C629.815 504.133 627.06 501.263 627.06 496.472C627.06 491.723 630.569 488.735 633.993 490.568C635.13 491.177 636.06 492.109 636.06 492.639C636.06 493.17 636.96 493.604 638.06 493.604C640.682 493.604 640.587 492.448 637.746 489.778C634.601 486.824 629.102 486.865 626.284 489.865ZM645.411 490.354C643.203 492.732 642.922 493.771 643.33 498.04C643.885 503.841 646.532 506.604 651.536 506.604C655.421 506.604 660.75 502.894 659.155 501.299C658.425 500.569 657.546 500.759 656.255 501.928C652.759 505.092 647.06 503.528 647.06 499.404C647.06 497.855 647.967 497.604 653.56 497.604C659.728 497.604 660.06 497.483 660.06 495.239C660.06 488.023 650.527 484.844 645.411 490.354ZM47.283 491.161C43.453 493.843 45.284 503.604 49.617 503.604C52.073 503.604 55.06 499.763 55.06 496.604C55.06 493.854 52.159 489.604 50.283 489.604C49.855 489.604 48.505 490.305 47.283 491.161ZM97.715 491.433C94.948 494.49 95.708 495.604 100.56 495.604C104.366 495.604 105.06 495.301 105.06 493.639C105.06 491.826 102.429 489.604 100.281 489.604C99.78 489.604 98.625 490.427 97.715 491.433ZM118.81 490.684C117.847 491.245 117.06 492.581 117.06 493.654C117.06 495.258 117.76 495.604 121.001 495.604C125.861 495.604 127.137 493.895 124.108 491.442C121.511 489.339 121.197 489.294 118.81 490.684ZM182.475 491.923C180.111 493.957 179.859 494.718 180.469 497.973C181.379 502.819 185.043 504.834 188.03 502.131C190.683 499.73 191.31 497.393 190.133 494.297C188.526 490.07 185.662 489.182 182.475 491.923ZM271.617 491.541C269.224 494.185 270.426 495.604 275.06 495.604C279.809 495.604 280.786 494.33 278.096 491.64C275.549 489.093 273.856 489.067 271.617 491.541ZM309.81 490.996C306.414 493.574 308.322 495.604 314.142 495.604C316.376 495.604 317.06 495.143 317.06 493.639C317.06 492.559 316.19 491.209 315.126 490.639C312.661 489.32 311.955 489.368 309.81 490.996ZM370.81 490.684C369.848 491.245 369.06 492.574 369.06 493.638C369.06 495.286 369.677 495.531 373.242 495.292C378.118 494.965 379.1 493.446 375.89 491.197C373.249 489.348 373.126 489.335 370.81 490.684ZM486.06 491.604C483.258 494.406 483.377 500.012 486.283 502.047C489.143 504.051 489.652 504.012 492.06 501.604C494.862 498.802 494.743 493.196 491.837 491.161C488.977 489.157 488.468 489.196 486.06 491.604ZM546.012 491.442C542.995 493.885 544.254 495.604 549.06 495.604C553.809 495.604 554.786 494.33 552.096 491.64C549.594 489.138 548.886 489.115 546.012 491.442ZM566.419 492.154C564.426 494.147 564.016 495.294 564.545 497.399C565.482 501.134 566.913 502.604 569.611 502.604C574.233 502.604 576.373 497.967 573.91 493.288C571.625 488.947 569.889 488.684 566.419 492.154ZM648.715 491.433C646.027 494.403 646.712 495.604 651.091 495.604C655.783 495.604 657.575 493.185 654.531 490.959C652.045 489.141 650.689 489.252 648.715 491.433ZM587.165 498.977C585.513 500.968 586.897 503.604 589.596 503.604C592.195 503.604 595.06 501.207 595.06 499.033C595.06 497.15 588.719 497.105 587.165 498.977ZM385.235 504.273C385.659 506.474 389.56 506.773 389.56 504.604C389.56 503.779 388.507 502.955 387.221 502.773C385.407 502.516 384.961 502.853 385.235 504.273ZM664.06 504.677C664.06 506.108 664.599 506.647 665.799 506.416C668.405 505.914 668.696 502.604 666.133 502.604C664.702 502.604 664.06 503.246 664.06 504.677Z" fill="#013B63"/>
</svg>
