<svg width="645" height="497" viewBox="0 0 645 497" fill="none" xmlns="http://www.w3.org/2000/svg">
<path fill-rule="evenodd" clip-rule="evenodd" d="M308 0.505248C306.625 0.704248 301.45 1.36925 296.5 1.98325C283.55 3.58825 263.37 8.90125 249.5 14.3582C220.202 25.8822 197.892 40.6652 175.5 63.3902C164.265 74.7912 161.685 76.8972 156.5 78.8992C153.2 80.1742 149.469 82.3112 148.208 83.6492C146.947 84.9862 139.747 88.6143 132.208 91.7113C120.398 96.5603 117.705 97.3112 112.762 97.1332C107.435 96.9412 106.922 97.1222 105.608 99.6492C104.829 101.147 99.536 106.967 93.846 112.584C77.181 129.032 77 129.244 77 132.268C77 133.806 77.876 136.293 78.946 137.797L80.893 140.53L77.581 146.027C72.769 154.016 71.686 158.101 72.219 166.259C72.78 174.846 75.156 179.917 81.247 185.532C86.53 190.402 92.789 192.86 107.5 195.844C113.55 197.071 118.771 198.51 119.101 199.042C119.432 199.574 119.998 205.49 120.358 212.19C121.189 227.627 124.237 246.946 125.821 246.817C126.194 246.786 127.584 245.392 128.908 243.718L131.316 240.674L129.699 230.023C128.81 224.165 127.787 215.15 127.425 209.989L126.767 200.606L130.381 201.284C132.369 201.657 136.359 203.062 139.247 204.407C144.445 206.827 150 207.663 150 206.025C150 205.559 148.987 204.689 147.75 204.092C145.959 203.229 145.857 202.994 147.25 202.94C151.536 202.774 147.328 197.16 140.907 194.478C136.255 192.534 135.584 191.606 133.236 183.872C130.145 173.691 129.768 168.997 131.458 161.711C133.805 151.588 140.456 132.205 144.499 123.701C147.74 116.887 148.607 115.846 152.269 114.381C154.537 113.474 158.666 112.493 161.446 112.202C164.226 111.911 168.879 110.818 171.788 109.772C174.696 108.727 178.21 107.872 179.598 107.872C183.185 107.872 208.92 102.549 233.413 96.7412C248.024 93.2762 254.533 92.1172 255.015 92.8962C255.394 93.5092 255.959 100.993 256.27 109.526C256.582 118.06 257.096 125.302 257.414 125.619C257.732 125.937 259.14 125.674 260.543 125.034C261.946 124.395 266.871 123.872 271.488 123.872C276.105 123.872 280.152 123.435 280.482 122.901C280.812 122.368 280.388 120.59 279.541 118.951C277.24 114.502 277.561 112.879 280.75 112.83C284.433 112.774 289.326 110.028 292.134 106.442C293.827 104.28 294.511 101.923 294.743 97.4423C295.127 90.0453 294.027 88.4982 284.758 83.4032C278.705 80.0762 278.202 79.5342 277.585 75.6802C277.116 72.7472 275.889 70.5612 273.39 68.2042C270.341 65.3282 269.161 64.8722 264.773 64.8722C260.844 64.8722 258.918 65.4602 256.295 67.4602C253.308 69.7392 251.201 70.2232 238.701 71.5002C230.89 72.2992 222.475 72.8362 220 72.6942C213.519 72.3222 189.897 75.4252 175.75 78.5062C171.054 79.5292 172.508 77.0512 182.25 67.4302C213.71 36.3582 247.152 18.9532 292 10.3082C303.402 8.11025 338.265 7.22725 351.747 8.79425C395.3 13.8572 439.279 35.4232 469.165 66.3722C480.694 78.3112 489.167 89.0092 488.569 90.8722C485.843 99.3622 485.746 100.382 487.31 104.1C489.136 108.436 494.128 111.863 498.628 111.868C500.348 111.87 502.313 112.544 502.994 113.365C505.267 116.103 509.824 126.643 513.916 138.626C521.653 161.279 524.631 182.679 523.676 208.741C522.628 237.312 517.051 258.815 503.671 285.872L496.5 300.372L496 233.439L495.5 166.507L477 166.439L458.5 166.372L458.238 127.622C458.094 106.31 457.869 88.7802 457.738 88.6672C457.607 88.5542 446.475 88.2162 433 87.9172L408.5 87.3722L408 65.3722L407.5 43.3722H377.5H347.5L347.238 82.6222L346.977 121.872H353.988H361V117.497C361 113.404 361.2 113.082 364.103 112.501C368.355 111.651 369 112.3 369 117.431C369 121.699 369.117 121.872 372 121.872C374.889 121.872 375 121.705 375 117.372C375 112.896 375.019 112.872 378.5 112.872C381.987 112.872 382 112.888 382 117.425C382 119.929 382.684 124.991 383.52 128.675C384.737 134.038 384.816 136.368 383.914 140.372C383.295 143.122 382.569 147.735 382.302 150.622C381.906 154.886 381.468 155.872 379.966 155.872C377.521 155.872 377.138 156.714 377.751 160.75C378.076 162.885 378.93 164.303 380.073 164.601C381.406 164.95 382.052 166.439 382.531 170.272C382.888 173.13 383.086 176.122 382.972 176.921C382.298 181.608 382.99 182.609 387.75 183.839C401.392 187.363 406.201 190.391 409.957 197.819C414.586 206.973 415.534 229.786 411.9 244.55L409.799 253.082L413.243 256.727C421.66 265.637 424.368 273.044 424.446 287.372C424.529 302.754 421.371 308.872 413.346 308.872C411.285 308.872 410.934 308.531 411.546 307.122C414.856 299.506 416.11 293.841 416.222 286.012C416.407 272.995 412.836 264.641 405.027 259.823C402.842 258.475 401.042 257.072 401.027 256.705C401.012 256.338 401.872 254.003 402.938 251.516C406.817 242.467 408.211 220.35 405.667 208.213C403.326 197.045 397.94 192.602 384.156 190.471L376.608 189.304L374.901 184.338C372.792 178.202 368.248 157.755 367.818 152.467C367.503 148.595 367.537 148.553 372 147.467L376.5 146.372V137.872V129.372H320.5H264.5L264.206 137.853C263.887 147.033 264.793 148.872 269.632 148.872C272.402 148.872 273.338 150.233 272.462 152.991C271.857 154.898 271.204 155.054 265.398 154.685L259 154.277L259.07 159.325C259.108 162.101 259.485 169.547 259.906 175.872C260.437 183.835 260.339 187.598 259.587 188.107C258.989 188.511 256.83 188.848 254.788 188.857L251.076 188.872L248.716 196.622C247.419 200.885 244.375 211.46 241.954 220.122C239.219 229.903 237.068 235.872 236.278 235.872C234.843 235.872 226.059 231.288 215.254 224.901L208.008 220.618L191.254 225.832C182.039 228.7 168.65 232.835 161.5 235.022C154.35 237.208 146.253 239.717 143.507 240.596C136.689 242.778 127.935 251.227 123.81 259.606C121.068 265.177 120.609 267.292 120.218 276.182C119.914 283.068 120.286 289.107 121.365 294.808C122.242 299.449 122.738 303.467 122.467 303.738C122.196 304.009 117.744 302.8 112.575 301.052C104.609 298.357 101.751 297.877 93.838 297.908C80.297 297.959 68.875 301.319 58.431 308.323C51.772 312.788 40.101 324.868 35.266 332.3C28.789 342.255 21.658 358.373 22.408 361.361C23.872 367.196 19.007 366.872 105.129 366.872C160.656 366.872 185.508 367.209 188.807 368.008C191.388 368.632 198.45 371.271 204.5 373.872C236.98 387.834 268.24 393.933 300 392.505C331.046 391.109 352.32 386.28 382 373.891C388.325 371.251 395.3 368.594 397.5 367.987C400.303 367.213 434.036 366.881 510.227 366.878L618.954 366.872L620.58 364.391C622.095 362.078 622.079 361.71 620.353 358.984C617.343 354.233 564.385 291.374 560.974 288.503C559.087 286.915 556.632 285.872 554.785 285.872C552.864 285.872 542.425 290.529 526.763 298.372C513.036 305.247 501.379 310.872 500.861 310.872C500.343 310.872 502.552 305.809 505.771 299.622C525.711 261.296 533.962 224.724 531.125 187.244C529.336 163.615 524.771 143.674 516.847 124.874C514.181 118.55 512 113.038 512 112.624C512 112.21 522.595 111.872 535.545 111.872H559.091L561.545 109.417C565.61 105.353 564.133 98.9613 558.62 96.7633C556.904 96.0783 554.222 94.0142 552.66 92.1742C548.981 87.8422 545.065 85.8722 540.131 85.8722C536.67 85.8722 535.885 85.4222 533.987 82.3512C525.949 69.3462 507.502 69.4332 499.785 82.5112C498.695 84.3602 497.26 85.8722 496.598 85.8722C495.936 85.8722 493.519 83.2142 491.228 79.9652C481.29 65.8732 462.206 47.7103 445 35.9673C409.952 12.0483 368.891 -0.36675 326.064 0.00825024C317.504 0.0832502 309.375 0.307248 308 0.505248ZM501.5 51.8722C500.663 53.2262 501.792 54.8722 503.559 54.8722C504.352 54.8722 505 53.9722 505 52.8722C505 50.8022 502.587 50.1122 501.5 51.8722ZM361.21 67.1222L361.5 75.3722L365.25 75.6822L369 75.9932V67.4322V58.8722H364.96H360.919L361.21 67.1222ZM375 67.3722V75.8722H378.5H382V67.3722V58.8722H378.5H375V67.3722ZM387.957 59.1222C387.933 59.2602 387.854 62.6462 387.782 66.6472C387.64 74.5072 388.466 76.2262 392.135 75.7072C394.376 75.3902 394.515 74.9382 394.79 67.1222L395.081 58.8722H391.54C389.593 58.8722 387.981 58.9842 387.957 59.1222ZM125.39 68.2982C124.48 70.6692 125.767 73.0632 127.747 72.6822C128.854 72.4692 129.5 71.4332 129.5 69.8722C129.5 67.0212 126.344 65.8132 125.39 68.2982ZM258.452 73.5182C255.065 77.1732 255.144 82.0532 258.635 84.7992C264.249 89.2162 272 85.8372 272 78.9742C272 71.4492 263.531 68.0382 258.452 73.5182ZM261.507 75.8642C259.998 77.5312 259.879 78.3122 260.82 80.3762C262.083 83.1482 265.1 83.6612 266.96 81.4202C268.585 79.4632 267.947 76.9072 265.416 75.2302C263.576 74.0102 263.118 74.0852 261.507 75.8642ZM240.196 76.9102C230.182 77.9612 219.778 80.0132 218.142 81.2612C217.149 82.0182 216.431 81.8142 215.472 80.5022C213.985 78.4702 212.412 78.5562 189.327 81.9412C182.082 83.0032 175.717 83.8722 175.184 83.8722C173.305 83.8722 173.121 86.8002 174.864 88.9532C176.58 91.0712 176.875 91.0982 185.564 89.9342C205.207 87.3032 215.366 85.7642 216.101 85.3092C216.526 85.0472 220.615 84.3952 225.187 83.8622C241.806 81.9232 248.974 80.6082 250.062 79.2972C251.317 77.7852 250.491 75.8032 248.691 76.0082C248.036 76.0822 244.213 76.4882 240.196 76.9102ZM509.42 79.7582C506.666 81.4372 503 87.0832 503 89.6452C503 90.1792 501.225 90.9002 499.055 91.2472C492.002 92.3752 489.315 100.615 494.635 104.799C497.166 106.79 498.438 106.872 526.935 106.872C548.006 106.872 556.934 106.538 557.753 105.719C559.425 104.047 557.443 100.876 554.715 100.857C551.845 100.837 550.724 99.9752 549.275 96.6752C547.279 92.1282 543.748 90.5093 537.444 91.2503C532.732 91.8033 531.865 91.6442 531.377 90.1342C527.973 79.6102 517.657 74.7352 509.42 79.7582ZM361.422 86.2162C361.138 86.9552 361.04 90.8922 361.203 94.9662L361.5 102.372L365 102.323L368.5 102.275L368.789 93.5732L369.078 84.8722H365.508C363.441 84.8722 361.72 85.4382 361.422 86.2162ZM375 93.9352V102.999L378.25 102.685L381.5 102.372L381.789 93.6222L382.078 84.8722H378.539H375V93.9352ZM387.607 86.4542C386.823 88.4972 386.847 97.6992 387.644 100.676C388.147 102.552 388.839 102.923 391.381 102.676L394.5 102.372L394.789 93.6222L395.078 84.8722H391.646C389.439 84.8722 387.997 85.4372 387.607 86.4542ZM156.049 87.4932C152.203 89.1102 150.078 91.5202 150.032 94.3132C150 96.2262 149.979 96.2263 148.594 94.3323C147.214 92.4443 147.09 92.4432 141.844 94.2772C131.929 97.7422 126.924 100.144 127.291 101.261C127.492 101.872 129.76 102.509 132.332 102.677C135.872 102.908 138.475 102.277 143.056 100.079L149.104 97.1762L152.452 100.524C158.066 106.138 163.942 104.809 167.968 97.0153C168.784 95.4343 168.854 94.3262 168.18 93.6522C166.722 92.1942 165.248 93.4662 164.513 96.8142C164.16 98.4202 163.174 100.313 162.321 101.02C161.021 102.1 160.467 101.932 158.885 99.9792C155.361 95.6272 156.674 89.8722 161.19 89.8722C162.996 89.8722 164.015 89.4182 163.782 88.7182C163.081 86.6152 159.49 86.0462 156.049 87.4932ZM273.557 94.0953C271.607 96.8783 271.589 99.1772 273.489 102.851C277.352 110.32 289 106.131 289 97.2722C289 95.0012 288.384 93.6132 287.061 92.9042C284.597 91.5862 283.527 93.0832 283.512 97.8722C283.497 102.396 280.491 103.088 276.999 99.3712C274.945 97.1852 274.759 96.4882 275.786 94.8432C277.247 92.5042 277.304 91.8722 276.057 91.8722C275.538 91.8722 274.413 92.8723 273.557 94.0953ZM416.65 107.571C414.894 118.196 415.9 120.872 421.647 120.872H426.081L425.79 112.622L425.5 104.372L421.389 104.071C417.336 103.775 417.269 103.824 416.65 107.571ZM436 112.372V120.987L440.25 120.679L444.5 120.372V112.372V104.372L440.25 104.065L436 103.757V112.372ZM111.925 108.842C108.125 109.282 106.051 110.468 99.675 115.842C95.454 119.4 92 122.636 92 123.034C92 123.431 95.544 121.982 99.877 119.814C104.209 117.645 109.271 115.582 111.127 115.229C115.31 114.432 120 112.134 120 110.882C120 109.172 116.565 108.305 111.925 108.842ZM390.75 112.653C388.011 113.003 388 113.036 388 120.938V128.872H391.5H395V120.931C395 116.563 394.663 112.835 394.25 112.645C393.837 112.456 392.262 112.459 390.75 112.653ZM525.446 118.959C523.871 121.508 527.596 121.898 551.055 121.64C573.392 121.395 575.502 121.223 575.81 119.622C576.123 117.993 574.417 117.872 551.132 117.872C534.198 117.872 525.901 118.223 525.446 118.959ZM129 122.941C125.425 124.518 121.457 125.823 120.183 125.84C118.406 125.865 118 126.295 118.441 127.685C119.979 132.531 122.178 140.949 123.258 146.122C123.918 149.284 124.712 151.872 125.022 151.872C125.333 151.872 126.085 150.185 126.695 148.122C128.766 141.111 135.161 125.378 136.583 123.793C138.335 121.841 138.423 119.838 136.75 119.973C136.063 120.028 132.575 121.363 129 122.941ZM581.058 130.302C579.191 132.551 582.815 133.872 590.852 133.872C599.132 133.872 601 133.3 601 130.765C601 129.042 600.157 128.872 591.622 128.872C584.71 128.872 581.933 129.248 581.058 130.302ZM416.486 134.122C416.154 135.909 416.102 139.172 416.37 141.372C416.638 143.572 416.89 145.935 416.929 146.622C416.975 147.426 418.605 147.872 421.5 147.872H426V139.372V130.872H421.545C417.31 130.872 417.061 131.032 416.486 134.122ZM436 139.372V147.872H440.5H445V139.372V130.872H440.5H436V139.372ZM99.425 136.207C99.143 136.941 100.011 140.428 101.353 143.957C102.694 147.485 106.237 156.897 109.224 164.872C115.585 181.849 116.576 183.872 118.535 183.872C119.341 183.872 119.989 183.534 119.976 183.122C119.948 182.207 110.151 154.044 106.505 144.395C103.055 135.266 100.791 132.647 99.425 136.207ZM277.604 139.462C277.268 140.337 277.247 141.462 277.556 141.962C278.301 143.168 362.699 143.168 363.444 141.962C363.753 141.462 363.732 140.337 363.396 139.462C362.852 138.043 358.232 137.872 320.5 137.872C282.768 137.872 278.148 138.043 277.604 139.462ZM388 146.372C388 150.497 387.991 154.21 387.979 154.622C387.968 155.034 389.543 155.512 391.479 155.682L395 155.993V147.432V138.872H391.5H388V146.372ZM278.591 150.586C278.036 152.335 276.575 159.139 268.544 197.372C266.58 206.722 264.782 214.899 264.549 215.542C263.906 217.312 266.757 235.029 267.861 236.133C269.893 238.165 271 235.548 271 228.716C271 221.566 274.772 197.265 279.972 170.916C283.935 150.834 284.022 149.446 281.336 149.064C279.937 148.864 278.966 149.403 278.591 150.586ZM290.038 151.082C289.13 153.257 288.252 157.608 284.529 178.372C283.641 183.322 282.701 188.384 282.438 189.622C281.818 192.551 282.375 192.459 285.467 189.122C287.867 186.532 288.598 186.352 298.03 186.028L308.044 185.683L307.772 167.528L307.5 149.372L299.247 149.082C291.458 148.807 290.94 148.92 290.038 151.082ZM317.444 150.157C317.173 150.864 317.074 159.301 317.225 168.907L317.5 186.372H326.5H335.5L335.806 169.913C335.974 160.86 335.853 152.422 335.537 151.163C334.994 149 334.488 148.872 326.45 148.872C320.438 148.872 317.792 149.25 317.444 150.157ZM344.706 149.499C344.318 149.887 344 158.182 344 167.932C344 183.173 344.222 185.743 345.582 186.265C346.452 186.599 351.391 186.872 356.557 186.872H365.95L365.29 183.622C364.928 181.835 363.476 173.397 362.065 164.872L359.5 149.372L352.456 149.082C348.582 148.923 345.095 149.111 344.706 149.499ZM416.607 159.454C415.735 161.725 415.856 174.856 416.75 174.956C417.163 175.002 419.3 175.114 421.5 175.206L425.5 175.372L425.789 166.622L426.078 157.872H421.646C418.527 157.872 417.034 158.341 416.607 159.454ZM436 166.315V174.872H440.54H445.081L444.79 166.622L444.5 158.372L440.25 158.065L436 157.757V166.315ZM388 173.313C388 177.956 388.34 181.964 388.756 182.221C389.171 182.478 390.746 182.452 392.256 182.163C394.988 181.641 395 181.603 395 173.255V164.872H391.5H388V173.313ZM554.667 170.539C553.399 171.806 554.008 172.872 556 172.872C557.111 172.872 558 172.205 558 171.372C558 169.85 555.885 169.321 554.667 170.539ZM463.813 181.934C463.618 182.518 463.628 184.768 463.834 186.934L464.21 190.872H471.98C476.254 190.872 481.156 191.153 482.875 191.497L486 192.122V186.497V180.872H475.083C468.272 180.872 464.034 181.271 463.813 181.934ZM416.442 186.163C416.145 186.937 416.036 190.676 416.201 194.471L416.5 201.372L421.291 201.678L426.083 201.985L425.791 193.678L425.5 185.372L421.241 185.064C418.281 184.85 416.817 185.185 416.442 186.163ZM436.714 185.491C436.321 185.884 436 189.73 436 194.039V201.872H440.54H445.081L444.79 193.622L444.5 185.372L440.964 185.074C439.02 184.911 437.107 185.098 436.714 185.491ZM254.557 193.122C254.068 194.732 248.898 214.673 245.863 226.662C243.806 234.784 243.698 236.07 245.005 236.896C248.733 239.253 250 238.12 250 232.431C250 229.333 251.722 220.318 254 211.494C256.2 202.971 258 195.069 258 193.935C258 191.699 255.191 191.036 254.557 193.122ZM315.184 195.622C315.495 198.331 315.616 198.376 323.315 198.665C330.056 198.918 331.085 199.193 330.802 200.665C330.504 202.213 328.079 202.397 304.737 202.639L279 202.906V205.389V207.872H305C330.333 207.872 331 207.923 331 209.872C331 211.822 330.333 211.872 304.5 211.872H278V214.342C278 216.497 278.414 216.79 281.25 216.64C283.038 216.546 294.962 216.559 307.75 216.67C330.266 216.866 331 216.935 331 218.872C331 220.823 330.333 220.872 304 220.872C278.175 220.872 277 220.954 277 222.765C277 223.806 277.712 224.931 278.582 225.265C279.452 225.599 291.602 225.872 305.582 225.872C327.387 225.872 331 226.083 331 227.356C331 228.625 327.055 228.878 303.75 229.106L276.5 229.372L276.183 231.606L275.865 233.84L303.169 234.106C328.256 234.35 330.501 234.514 330.81 236.122C331.124 237.754 329.295 237.872 303.573 237.872C274.696 237.872 274.224 237.949 277.392 242.122C278.601 243.715 281.224 243.872 306.66 243.872C327.058 243.872 334.924 243.548 335.8 242.672C336.667 241.805 337 234.739 337 217.172V192.872H325.934H314.867L315.184 195.622ZM342.392 194.294C342.03 195.236 342.132 196.361 342.617 196.793C343.103 197.226 349.35 198.093 356.5 198.72C376.18 200.446 374 197.676 374 220.953C374 240.174 374.067 240.838 376.127 241.94C377.786 242.828 378.443 242.781 379.112 241.725C379.583 240.981 379.976 232.16 379.985 222.122L380 203.872H383.29C385.099 203.872 389.171 204.547 392.339 205.372C399.304 207.186 399 207.178 399 205.546C399 203.765 395.189 200.46 391.5 199.044C387.977 197.691 363.832 194.178 351.583 193.237C344.079 192.66 342.97 192.787 342.392 194.294ZM87.427 195.637C83.578 198.273 86.005 204.872 90.823 204.872C94.297 204.872 96 203.227 96 199.872C96 198.442 95.46 196.732 94.8 196.072C93.474 194.746 89.105 194.489 87.427 195.637ZM463.63 201.97C463.29 203.673 463.282 206.148 463.614 207.47C464.204 209.821 464.446 209.872 475.049 209.872C481.007 209.872 486.057 209.534 486.272 209.122C486.486 208.71 486.467 206.235 486.23 203.622L485.799 198.872H475.024H464.25L463.63 201.97ZM342 204.747C342 206.047 342.958 206.814 345.125 207.247C351.996 208.621 357.453 207.217 356.356 204.357C355.928 203.242 354.066 202.872 348.893 202.872C342.82 202.872 342 203.095 342 204.747ZM387.181 213.572C387.469 215.066 388.544 215.372 393.514 215.372C398.168 215.372 399.5 215.038 399.5 213.872C399.5 212.728 397.996 212.301 393.167 212.072C387.522 211.805 386.872 211.968 387.181 213.572ZM416.507 212.86C415.825 213.964 415.943 224.403 416.668 227.122C417.024 228.455 418.19 228.872 421.567 228.872H426V220.372V211.872H421.559C419.116 211.872 416.843 212.317 416.507 212.86ZM436 220.372V228.872H440.5H445V220.372V211.872H440.5H436V220.372ZM342.5 213.872C341.206 215.966 343.338 216.872 349.559 216.872C355.333 216.872 356 216.665 356 214.872C356 213.079 355.333 212.872 349.559 212.872C346.016 212.872 342.84 213.322 342.5 213.872ZM463.398 219.277C463.102 220.049 463.003 222.187 463.18 224.027L463.5 227.372L474.75 227.655L486 227.938V222.905V217.872H474.969C466.418 217.872 463.816 218.188 463.398 219.277ZM387.25 222.122C387.52 222.932 389.722 223.372 393.5 223.372C397.278 223.372 399.48 222.932 399.75 222.122C400.056 221.205 398.389 220.872 393.5 220.872C388.611 220.872 386.944 221.205 387.25 222.122ZM342.413 222.789C342.186 223.018 342 223.805 342 224.539C342 225.523 343.833 225.872 349 225.872C354.368 225.872 356 225.542 356 224.457C356 223.415 354.267 222.954 349.413 222.707C345.79 222.523 342.64 222.56 342.413 222.789ZM206.5 229.374C205.95 229.564 198.679 231.55 190.341 233.787C182.004 236.025 170.754 239.239 165.341 240.929C159.929 242.62 152.553 244.926 148.951 246.054C142.077 248.207 138.196 250.401 139.303 251.508C139.664 251.869 143.423 252.073 147.656 251.961C153.117 251.817 156.099 251.244 157.926 249.989C161.26 247.699 163.84 246.749 179.5 242.042C186.65 239.893 196.141 237.582 200.591 236.906C209.603 235.537 210.523 235.821 224.611 244.316C231.022 248.182 233 248.671 233 246.392C233 245.011 209.991 228.778 208.279 228.951C207.851 228.994 207.05 229.185 206.5 229.374ZM387.737 229.468C386.188 231.018 388.464 231.872 394.142 231.872C398.515 231.872 400.054 231.529 399.754 230.622C399.312 229.281 388.922 228.283 387.737 229.468ZM342.5 232.872C341.206 234.966 343.338 235.872 349.559 235.872C355.333 235.872 356 235.665 356 233.872C356 232.079 355.333 231.872 349.559 231.872C346.016 231.872 342.84 232.322 342.5 232.872ZM463.505 238.85C463.145 240.487 463.14 242.737 463.493 243.85C464.086 245.717 464.973 245.872 475.067 245.872H486V240.872V235.872H475.079H464.159L463.505 238.85ZM387.737 237.468C386.188 239.018 388.464 239.872 394.142 239.872C398.515 239.872 400.054 239.529 399.754 238.622C399.312 237.281 388.922 236.283 387.737 237.468ZM416.208 246.622L416.5 254.372L421.25 254.677L426 254.982V246.927V238.872H420.958H415.916L416.208 246.622ZM436 246.872V254.872H440.5H445V246.872V238.872H440.5H436V246.872ZM346.383 245.821C334.927 248.556 328.143 255.89 323.152 270.936C318.676 284.431 319.459 293.232 324.014 280.622C329.836 264.502 335.491 256.702 344.212 252.761C348.814 250.682 350.927 250.384 360.5 250.462C370.556 250.545 372.118 250.824 378.695 253.712C390.867 259.057 394.354 257.405 383.597 251.389C373.695 245.852 356.826 243.328 346.383 245.821ZM177 249.615C166.119 251.042 153.846 260.535 148.226 271.872C145.806 276.754 145.5 278.496 145.5 287.372C145.5 296.503 145.772 297.947 148.631 303.981C151.937 310.957 156.28 315.167 161.5 316.458L164.5 317.199L160.865 313.16C158.866 310.939 155.941 306.928 154.365 304.247C151.703 299.717 151.5 298.628 151.5 288.872C151.5 279.732 151.818 277.73 153.958 273.414C159.38 262.476 167.947 256.904 180.548 256.117C191.836 255.413 197.705 257.446 204.767 264.509C212.46 272.202 214.509 277.244 214.463 288.372C214.418 299.226 212.452 304.337 205.434 311.839C201.08 316.494 200.906 316.872 203.113 316.868C209.136 316.859 216.527 308.565 219.535 298.44C226.278 275.743 208.753 250.959 185 249.601C181.975 249.428 178.375 249.434 177 249.615ZM550.064 254.295C548.512 256.165 549.497 257.872 552.129 257.872C553.624 257.872 554.057 257.315 553.82 255.7C553.42 252.987 551.688 252.338 550.064 254.295ZM216 254.543C216 254.912 216.643 255.925 217.428 256.793C218.699 258.198 224.315 258.342 268.428 258.104C317.09 257.84 318 257.799 318 255.854C318 253.904 317.175 253.872 267 253.872C238.95 253.872 216 254.174 216 254.543ZM463.402 255.267C463.108 256.034 463.009 258.396 463.183 260.517L463.5 264.372H474.5H485.5L485.802 259.122L486.105 253.872H475.021C466.463 253.872 463.815 254.19 463.402 255.267ZM131.501 258.174C128.638 262.261 129.459 262.874 137.75 262.841C144.877 262.812 145.649 262.605 147.348 260.272C148.365 258.877 149.04 257.58 148.848 257.39C148.657 257.2 145.013 256.816 140.751 256.538C133.657 256.074 132.875 256.213 131.501 258.174ZM352.86 257.44C347.067 259.223 339.212 266.156 336.239 272.108C331.112 282.373 331.034 297.06 336.079 302.104C337.601 303.627 339.556 304.872 340.423 304.872C342.393 304.872 342.401 304.974 340.022 299.731C336.671 292.346 337.583 280.858 342.197 272.32C344.82 267.466 352.339 261.189 357.891 259.217C360.701 258.219 363 257.058 363 256.637C363 255.46 358.009 255.855 352.86 257.44ZM395.037 263.039C391.372 264.417 391.329 264.732 394.449 267.412C399.033 271.351 407.299 270.347 403.909 266.262C401.582 263.458 397.686 262.043 395.037 263.039ZM69.189 264.926C67.258 265.7 66.929 266.467 67.189 269.594C67.444 272.663 68.004 273.512 70.303 274.315C73.903 275.574 76.39 274.093 76.825 270.433C77.155 267.652 74.658 263.816 72.595 263.935C71.993 263.97 70.46 264.416 69.189 264.926ZM223 265.801C223 266.311 223.678 267.407 224.507 268.236C225.709 269.438 228.894 269.742 240.257 269.736C256.767 269.728 259 269.374 259 266.764C259 264.978 257.989 264.872 241 264.872C230.59 264.872 223 265.264 223 265.801ZM435.477 267.108C435.153 268.399 435.026 272.137 435.194 275.414L435.5 281.372L440.291 281.678L445.083 281.985L444.791 273.678L444.5 265.372L440.283 265.066C436.57 264.797 435.996 265.041 435.477 267.108ZM127.39 270.299C127.088 271.084 126.99 272.748 127.171 273.997C127.476 276.105 127.93 276.248 133.5 275.997C140.213 275.694 140.581 275.494 141.538 271.622L142.217 268.872H135.077C129.815 268.872 127.793 269.247 127.39 270.299ZM176 270.607C166.535 274.245 161.189 287.408 165.617 296.172C169.348 303.556 174.808 306.872 183.236 306.872C192.379 306.872 199.76 300.34 201.525 290.687C202.812 283.647 197.344 274.167 190.298 271.223C187.066 269.873 178.832 269.518 176 270.607ZM364.5 271.074C356.957 273.698 350.308 283.817 351.498 290.861C352.456 296.529 357.087 303.199 361.615 305.432C375.752 312.403 391.941 299.508 387.899 284.496C386.266 278.432 383.315 274.927 377.599 272.266C372.1 269.705 369.193 269.441 364.5 271.074ZM463.398 274.277C463.102 275.049 463.003 277.187 463.18 279.027L463.5 282.372H474.5H485.5L485.805 277.622L486.11 272.872H475.023C466.425 272.872 463.816 273.187 463.398 274.277ZM400.471 277.612C401.356 281.138 402.802 282.054 406.427 281.389C410.184 280.699 410.367 280.47 409.601 277.419C409.032 275.153 408.456 274.872 404.373 274.872C399.869 274.872 399.796 274.923 400.471 277.612ZM283.267 277.37C279.84 278.123 273.54 279.989 269.267 281.517C262.29 284.011 259.77 284.349 244.5 284.833C228.346 285.345 227.5 285.472 227.5 287.372C227.5 289.3 228.167 289.372 246 289.372H264.5L273 285.481L281.5 281.59L297.306 281.125C312.772 280.67 313.105 280.614 312.806 278.516C312.515 276.479 311.928 276.363 301 276.186C294.247 276.077 286.928 276.566 283.267 277.37ZM177.775 279.431C174.237 281.351 173 283.791 173 288.852C173 293.849 176.097 297.424 181.267 298.394C185.629 299.213 190.698 296.797 192.043 293.259C195.883 283.159 186.917 274.47 177.775 279.431ZM367.786 278.659C363.755 279.162 360 284.161 360 289.026C360 292.114 360.667 293.692 362.923 295.949C369.273 302.299 380 297.987 380 289.084C380 282.406 374.613 277.808 367.786 278.659ZM127.184 284.622C127.478 287.18 127.86 287.393 132.667 287.671C137.132 287.93 137.922 287.694 138.481 285.93C139.508 282.697 138.267 281.872 132.375 281.872C126.956 281.872 126.872 281.917 127.184 284.622ZM402 289.2C402 292.102 402.424 292.761 404.645 293.319C407.973 294.154 409.247 292.913 408.828 289.244C408.551 286.818 407.996 286.323 405.25 286.059C402.15 285.76 402 285.905 402 289.2ZM463.435 294.364C462.262 300.621 462.707 300.872 474.969 300.872H486V295.872V290.872H475.045H464.091L463.435 294.364ZM129 295.122C129 298.48 130.63 299.623 136 300.03C140.473 300.37 140.498 300.354 140.153 297.372C139.962 295.722 139.634 294.194 139.425 293.977C139.215 293.76 136.784 293.365 134.022 293.1C129.201 292.637 129 292.718 129 295.122ZM242.263 294.648L227.025 294.924L226.373 297.648C226.015 299.146 224.434 303.247 222.861 306.76C221.287 310.274 220 313.311 220 313.51C220 315.265 231.988 311.302 245.951 304.933C258.039 299.419 260.81 298.353 266.748 296.931C273.782 295.246 272.404 293.726 264.167 294.083C260.5 294.242 250.643 294.496 242.263 294.648ZM529.25 305.906C507.238 316.699 500.998 320.221 507.25 318.324C508.487 317.949 516.715 314.792 525.534 311.311C534.353 307.829 543.689 304.413 546.282 303.719L550.995 302.459L575.018 326.415C588.231 339.591 599.482 350.522 600.021 350.705C600.559 350.889 600.997 350.664 600.993 350.205C600.981 348.894 555.047 293.82 554.068 293.944C553.756 293.983 542.587 299.366 529.25 305.906ZM398.989 302.122C396.324 306.493 396.443 306.872 400.477 306.872C403.079 306.872 404.365 306.245 405.587 304.38C407.664 301.209 406.786 298.872 403.517 298.872C401.717 298.872 400.389 299.825 398.989 302.122ZM84.5 306.826C78.799 308.052 70.77 311.231 65.35 314.407C59.282 317.963 47.398 329.844 42.683 337.068C38.225 343.897 32.708 355.872 34.019 355.872C34.533 355.872 36.809 353.509 39.078 350.622C55.822 329.307 70.881 317.96 89.141 312.9C93.166 311.785 99.281 310.872 102.73 310.872C106.178 310.872 109 310.466 109 309.97C109 307.351 92.123 305.185 84.5 306.826ZM303 310.176C303 312.11 309.653 318.205 310.914 317.425C312.705 316.318 312.171 314.916 308.777 311.816C305.358 308.693 303 308.023 303 310.176ZM390.651 313.967C389.664 315.119 389.104 316.309 389.406 316.611C390.192 317.398 399 313.889 399 312.789C399 310.927 392.464 311.849 390.651 313.967ZM430.499 332.874C429.553 334.405 433.855 335.632 441.534 336.021C447.284 336.312 448.525 336.098 448.781 334.769C449.027 333.49 447.838 333.035 442.898 332.519C434.298 331.62 431.219 331.708 430.499 332.874ZM103 335.618C97.944 338.617 96.702 339.974 97.91 341.182C98.867 342.139 105.381 339.634 107.535 337.48C109.064 335.951 109.55 332.843 108.25 332.911C107.838 332.932 105.475 334.151 103 335.618ZM272.63 338.122C271.691 341.625 271.895 346.689 273.002 347.373C274.315 348.185 276 343.651 276 339.307C276 335.353 273.599 334.509 272.63 338.122ZM464.175 354.574C452.661 354.838 448.952 355.229 449.258 356.148C449.781 357.721 485.829 358.443 487.36 356.912C489.822 354.45 486.076 354.072 464.175 354.574ZM130.465 356.928C129.014 359.276 132.045 359.931 143.084 359.656C152.439 359.423 154.5 359.101 154.5 357.872C154.5 356.64 152.412 356.322 142.828 356.091C135.02 355.903 130.928 356.18 130.465 356.928ZM160.667 374.539C158.768 376.437 161.159 376.872 173.5 376.872C184.833 376.872 187 376.631 187 375.372C187 374.117 184.907 373.872 174.167 373.872C167.108 373.872 161.033 374.172 160.667 374.539ZM58.12 402.976C52.979 404.528 50.161 406.741 47.463 411.345C40.442 423.325 45.469 441.299 56.789 444.691C62.109 446.285 69.327 446.18 73.47 444.449C77.156 442.909 83 435.717 83 432.722C83 431.169 82.198 430.872 78 430.872C74.222 430.872 73 431.239 73 432.372C73 437.794 62.045 440.008 57.535 435.498C52.3 430.263 53.451 415.397 59.371 411.788C61.092 410.738 63.452 409.878 64.615 409.876C67.331 409.871 71.89 413.453 73.05 416.503C73.814 418.513 74.636 418.872 78.475 418.872C83.769 418.872 84.122 417.822 81 411.372C79.747 408.783 77.592 406.449 75.229 405.121C70.692 402.571 62.757 401.577 58.12 402.976ZM121 402.591C115.544 403.334 113.902 404.019 110.583 406.933C105.584 411.322 103.704 417.047 104.142 426.552C104.455 433.353 104.882 434.869 107.42 438.188C111.561 443.603 116.549 445.872 124.312 445.872C131.611 445.872 135.859 443.689 139.726 437.95C143.463 432.405 142.873 430.872 137 430.872C133.222 430.872 132 431.239 132 432.372C132 435.385 128.196 437.872 123.589 437.872C119.939 437.872 118.752 437.367 116.713 434.943C112.185 429.561 112.381 418.288 117.091 413.275C120.204 409.962 126.753 409.916 129.826 413.186C131.022 414.459 132 416.026 132 416.667C132 418.064 135.875 419.168 139.148 418.705C141.109 418.427 141.447 417.873 141.183 415.372C140.287 406.894 131.282 401.191 121 402.591ZM165.155 402.939C161.526 403.44 158.669 404.6 156.26 406.549C150.631 411.105 149 415.11 149 424.372C149 433.991 150.678 437.814 157.05 442.714C161.314 445.992 161.561 446.05 169.948 445.714C177.517 445.411 178.925 445.047 182.2 442.542C187.582 438.424 190 432.743 190 424.214C190 415.145 187.227 409.498 180.922 405.726C175.619 402.554 172.252 401.959 165.155 402.939ZM421.5 403.303C413.899 406.088 409 414.949 409 425.913C409 433.212 414.414 441.798 420.718 444.495C425.396 446.497 434.816 446.252 439.016 444.02C443.315 441.735 447 436.523 447 432.724C447 430.06 446.735 429.872 442.969 429.872C440.031 429.872 438.77 430.347 438.32 431.622C435.99 438.224 427.128 440.271 422.499 435.277C418.27 430.713 417.9 419.162 421.815 413.918C423.947 411.063 429.226 409.627 432.715 410.954C434.017 411.449 435.852 413.205 436.791 414.857C438.268 417.452 439.076 417.86 442.75 417.866C446.597 417.871 447 417.639 447 415.419C447 405.772 432.965 399.104 421.5 403.303ZM525.587 403.849C516.912 408.3 513.53 414.084 513.587 424.372C513.658 436.965 519.384 444.065 531 445.963C540.663 447.543 549.135 443.37 553.012 435.122C556.215 428.309 555.616 416.913 551.749 411.069C548.352 405.935 543.167 403.19 535.426 402.426C530.661 401.956 528.734 402.235 525.587 403.849ZM619.5 402.525C610.031 404.697 605.293 411.851 608.4 419.286C610.173 423.531 612.579 425.118 621.5 427.929C628.229 430.049 632 432.239 632 434.027C632 434.492 631.1 435.772 630 436.872C626.889 439.983 621.507 439.533 617.828 435.854C615.346 433.371 614.161 432.902 611.155 433.209C606.393 433.696 606.056 435.728 609.995 440.214C613.925 444.69 618.506 446.2 626.588 445.685C633.948 445.217 637.607 443.092 640.159 437.807C643.696 430.481 639.684 423.912 630.097 421.334C619.073 418.37 614.999 414.988 618.04 411.324C620.649 408.18 631 410.272 631 413.943C631 414.454 633.025 414.872 635.5 414.872C639.273 414.872 640 414.561 640 412.949C640 410.403 635.34 404.956 632.089 403.701C629.004 402.51 622.297 401.884 619.5 402.525ZM0.487999 408.123C0.109999 411.149 -0.0359985 420.767 0.164001 429.498L0.528 445.372L11.385 445.17C24.033 444.934 29.353 442.948 34.414 436.572C37.21 433.05 37.433 432.168 37.465 424.507C37.496 417.085 37.212 415.807 34.677 411.969C30.563 405.739 25.173 403.64 11.838 403.074L1.175 402.622L0.487999 408.123ZM198.23 424.122L198.5 445.372L202.75 445.679L207 445.987V432.989C207 421.019 207.872 416.489 209.406 420.487C209.744 421.369 213.247 427.211 217.19 433.47C223.451 443.407 224.769 444.926 227.593 445.455C229.371 445.789 231.774 445.761 232.933 445.393C234.998 444.738 235.035 444.312 234.77 424.048L234.5 403.372H230H225.5L225.504 416.122C225.507 423.134 225.222 428.872 224.872 428.872C224.521 428.872 220.355 423.022 215.613 415.872L206.992 402.872H202.476H197.96L198.23 424.122ZM246.882 406.754C243.475 410.162 243 411.211 243 415.331C243 421.509 246.432 425.083 254.602 427.411C257.846 428.335 261.962 429.769 263.75 430.596C269.629 433.317 266.998 438.872 259.83 438.872C256.644 438.872 255.217 438.245 253 435.872C250.89 433.614 249.308 432.872 246.599 432.872C243.481 432.872 243 433.188 243 435.237C243 438.434 246.611 442.812 250.636 444.493C255.664 446.594 265.325 446.257 270.115 443.813C276.913 440.345 278.818 433.012 274.551 426.733C272.433 423.615 271.072 422.849 264.45 421.049C252.721 417.861 249.762 415.208 253.829 411.527C256.689 408.939 262.47 409.383 264.821 412.372C266.349 414.313 267.705 414.872 270.894 414.872C275.323 414.872 275.786 414.069 274.025 409.438C272.311 404.93 267.501 402.88 258.632 402.876C250.825 402.872 250.735 402.902 246.882 406.754ZM281 406.872V410.872H287.476H293.953L294.226 428.122L294.5 445.372H299H303.5L303.677 428.372L303.853 411.372L309.927 411.074L316 410.777V406.824V402.872H298.5H281V406.872ZM323 424.074V445.481L327.25 445.379L331.5 445.276L332 438.324L332.5 431.372L336.104 431.07C339.594 430.778 339.843 430.991 343.969 437.82C347.757 444.09 348.577 444.88 351.365 444.946C353.089 444.987 355.512 445.209 356.75 445.44C357.988 445.671 359 445.653 359 445.401C359 445.149 356.975 441.607 354.5 437.531C352.025 433.454 350 429.901 350 429.635C350 429.369 351.575 427.482 353.5 425.441C356.427 422.338 357 420.996 357 417.251C357 406.538 352.493 403.596 335.25 403.052L323 402.666V424.074ZM365.171 419.064C365.548 436.871 366.419 440.134 371.725 443.613C375.892 446.344 390.843 446.119 394.673 443.267C400.703 438.778 401.5 435.931 401.5 418.872V403.372L396.75 403.067L392 402.762V418.129C392 432.21 391.83 433.678 389.961 435.683C386.932 438.935 380.154 438.73 376.924 435.289C374.586 432.799 374.5 432.186 374.5 418.039V403.372L369.663 403.064L364.826 402.755L365.171 419.064ZM453.667 403.539C453.3 403.905 453 405.705 453 407.539V410.872H459.476H465.953L466.226 428.122L466.5 445.372H471H475.5V428.121V410.87L481.75 410.871L488 410.872V406.872V402.872H471.167C461.908 402.872 454.033 403.172 453.667 403.539ZM496 423.717V444.671L500.5 445.029L505 445.386V425.129C505 413.988 505.112 404.535 505.25 404.122C505.388 403.709 503.362 403.235 500.75 403.067L496 402.762V423.717ZM563.667 403.539C562.743 404.463 562.823 444.655 563.75 445.174C564.163 445.404 566.188 445.382 568.25 445.123L572 444.653V432.263C572 419.925 572.72 417.584 575.119 422.122C577.398 426.433 589.334 444.377 590.413 445.115C591.846 446.094 597.991 445.696 598.681 444.579C598.978 444.098 599.184 434.63 599.137 423.538L599.053 403.372L594.556 403.068L590.059 402.765L589.779 416.068L589.5 429.372L580.721 416.122C572.015 402.982 571.91 402.872 568.138 402.872C566.045 402.872 564.033 403.172 563.667 403.539ZM10.221 424.122L10.5 437.372L15.165 437.217C24.264 436.916 28.509 432.638 28.413 423.865C28.325 415.736 23.124 410.872 14.521 410.872H9.942L10.221 424.122ZM162.503 413.122C157.304 417.607 156.996 429.598 161.938 435.129C166.704 440.463 176.569 438.707 179.13 432.07C179.703 430.586 180.002 426.28 179.796 422.501C179.467 416.474 179.082 415.339 176.655 413.251C172.905 410.026 166.163 409.965 162.503 413.122ZM332.406 412.258C332.113 413.02 332.015 415.607 332.187 418.008L332.5 422.372L337.841 422.677C344.492 423.058 348 421.099 348 417.004C348 412.673 345.25 410.872 338.64 410.872C334.703 410.872 332.773 411.301 332.406 412.258ZM527.462 413.151C524.318 415.855 522.985 421.683 523.992 428.32C525.257 436.653 531.597 440.581 538.497 437.306C542.984 435.177 545 431.384 545 425.071C545 415.312 541.589 410.872 534.091 410.872C531.391 410.872 529.26 411.605 527.462 413.151ZM142.688 464.518C141.314 465.892 142.026 468.014 143.75 467.682C144.713 467.496 145.5 466.713 145.5 465.942C145.5 464.363 143.736 463.47 142.688 464.518ZM277.598 464.608C277.269 464.936 277 470.53 277 477.039C277 487.665 277.179 488.872 278.759 488.872C280.321 488.872 280.552 487.546 280.827 477.005C281.08 467.286 280.87 465.036 279.666 464.574C278.857 464.264 277.927 464.279 277.598 464.608ZM286.639 464.566C286.288 464.918 286 470.53 286 477.039C286 486.891 286.251 488.872 287.5 488.872C288.75 488.872 289 486.879 289 476.931C289 466.033 288.386 462.819 286.639 464.566ZM410.25 464.59C408.233 465.314 408.817 467.872 411 467.872C412.1 467.872 413 467.224 413 466.431C413 464.692 411.942 463.983 410.25 464.59ZM515 471.732C515 476.056 514.714 481.681 514.364 484.232C513.779 488.502 513.898 488.872 515.864 488.872C517.931 488.872 518 488.47 518 476.372C518 465.928 517.753 463.872 516.5 463.872C515.294 463.872 515 465.412 515 471.732ZM0 476.872V488.872H8.083C14.103 488.872 16.062 488.553 15.755 487.622C15.515 486.891 12.884 486.164 9.422 485.872L3.5 485.372V481.872V478.372L9.25 478.072C13.469 477.852 15 477.386 15 476.322C15 475.216 13.575 474.872 9 474.872H3V471.42V467.967L9.171 467.67C12.991 467.485 15.498 466.896 15.754 466.122C16.061 465.191 14.103 464.872 8.083 464.872H0V476.872ZM61 466.372C61 467.197 61.675 467.872 62.5 467.872C63.325 467.872 64 467.197 64 466.372C64 465.547 63.325 464.872 62.5 464.872C61.675 464.872 61 465.547 61 466.372ZM201 476.872V488.872H209.083C215.103 488.872 217.061 488.553 216.754 487.622C216.505 486.867 214.078 486.253 210.62 486.071C204.436 485.745 203.319 484.72 204.411 480.37C204.984 478.086 205.508 477.872 210.519 477.872C214.641 477.872 216 477.512 216 476.422C216 475.358 214.469 474.892 210.25 474.672C204.583 474.376 204.501 474.329 204.545 471.372C204.589 468.399 204.645 468.369 210.795 468.074C215.417 467.853 217 467.406 217 466.324C217 465.176 215.328 464.872 209 464.872H201V476.872ZM389 476.796V488.72L397.002 489.046C404.082 489.334 405.004 489.17 405.002 487.622C405 486.15 404.047 485.872 399 485.872H393V475.372C393 465.539 392.873 464.872 391 464.872C389.112 464.872 389 465.539 389 476.796ZM436 466.372C436 467.197 436.675 467.872 437.5 467.872C438.325 467.872 439 467.197 439 466.372C439 465.547 438.325 464.872 437.5 464.872C436.675 464.872 436 465.547 436 466.372ZM494 476.872V488.872H502C508.444 488.872 510 488.58 510 487.372C510 486.206 508.669 485.872 504.019 485.872C498.475 485.872 497.992 485.69 497.411 483.374C496.291 478.91 497.433 477.872 503.469 477.872C507.719 477.872 509 477.525 509 476.372C509 475.204 507.66 474.872 502.937 474.872H496.873L497.187 471.622C497.5 468.372 497.5 468.372 503.75 468.074C508.411 467.852 510 467.407 510 466.324C510 465.176 508.328 464.872 502 464.872H494V476.872ZM20.424 472.21C20.141 472.947 20.043 477.109 20.205 481.46C20.437 487.695 20.818 489.372 22 489.372C23.161 489.372 23.538 487.914 23.668 482.919C23.842 476.218 25.246 473.872 29.084 473.872C31.356 473.872 32 475.879 32 482.954C32 487.923 32.28 488.872 33.75 488.872C35.303 488.872 35.444 488.046 35 481.524C34.725 477.479 33.883 473.433 33.128 472.524C31.377 470.417 28.168 470.41 25.85 472.508C24.176 474.023 23.995 474.023 23.414 472.508C22.654 470.529 21.127 470.377 20.424 472.21ZM42.771 472.837C37.945 476.634 38.79 486.719 44.076 488.396C45.23 488.762 47.71 488.774 49.587 488.422C53.511 487.686 54.242 489.438 51.171 492.217C48.939 494.237 47.111 494.271 44.559 492.34C42.094 490.476 41 490.478 41 492.349C41 494.935 45.614 497.167 49.467 496.444C54.871 495.43 56 492.903 56 481.816C56 471.72 55.568 470.156 53.3 472.038C52.256 472.904 51.63 472.902 50.758 472.03C49.015 470.287 45.571 470.635 42.771 472.837ZM61.639 471.566C61.288 471.918 61 475.955 61 480.539C61 487.279 61.287 488.872 62.5 488.872C63.715 488.872 64 487.267 64 480.431C64 472.665 63.273 469.933 61.639 471.566ZM75.223 472.429C73.977 473.301 73 473.521 73 472.929C73 471.272 70.283 471.693 69.607 473.454C69.273 474.324 69 477.437 69 480.372C69 486.63 69.688 488.872 71.607 488.872C72.641 488.872 73 487.344 73 482.943C73 478.887 73.496 476.519 74.571 475.443C78.332 471.683 81.311 474.778 81.139 482.266C81.055 485.914 81.49 488.034 82.496 488.868C84.656 490.661 85.317 488.193 84.81 480.23C84.493 475.243 83.929 473.293 82.504 472.251C80.05 470.457 77.965 470.508 75.223 472.429ZM93.229 471.541C91.197 472.359 89 477.464 89 481.368C89 488.206 96.281 492.165 101.777 488.315C103.962 486.785 104.844 483.872 103.122 483.872C102.64 483.872 101.685 484.547 101 485.372C99.269 487.458 95.648 487.245 93.557 484.935C90.92 482.021 92.477 480.872 99.059 480.872C104.631 480.872 105 480.726 105 478.518C105 475.091 100.688 470.855 97.298 470.951C95.759 470.994 93.928 471.26 93.229 471.541ZM111.455 473.327C107.878 476.903 107.975 484.017 111.646 487.42C113.101 488.768 115.476 489.872 116.924 489.872C120.062 489.872 124 487.336 124 485.315C124 483.444 122.577 483.471 121 485.372C118.498 488.387 112 486.169 112 482.301C112 481.209 113.533 480.872 118.5 480.872C124.583 480.872 124.998 480.728 124.968 478.622C124.93 475.935 123.297 473.623 120.316 472.035C116.937 470.236 114.137 470.644 111.455 473.327ZM135.517 471.845C135.15 472.439 133.646 472.8 132.175 472.648L129.5 472.372L129.21 480.622C128.937 488.355 129.047 488.872 130.96 488.872C132.8 488.872 133 488.247 133 482.493C133 476.331 133.103 476.072 136.038 474.856C137.708 474.164 138.918 473.125 138.725 472.548C138.214 471.015 136.29 470.594 135.517 471.845ZM143.25 471.59C142.383 471.901 142 474.642 142 480.529C142 487.67 142.246 488.967 143.55 488.695C144.78 488.439 145.145 486.645 145.313 480.035C145.532 471.452 145.379 470.826 143.25 471.59ZM151.658 471.547C151.296 471.909 151 475.955 151 480.539C151 487.279 151.287 488.872 152.5 488.872C153.662 488.872 154 487.556 154 483.027C154 478.634 154.454 476.771 155.829 475.527C160.203 471.568 163 474.603 163 483.306C163 487.587 163.346 488.872 164.5 488.872C165.699 488.872 166 487.378 166 481.429C166 474.871 165.736 473.8 163.777 472.429C161.148 470.587 157.859 470.413 156.242 472.03C155.37 472.902 154.744 472.904 153.7 472.038C152.939 471.406 152.02 471.185 151.658 471.547ZM172.798 473.92C170.097 476.621 169.814 477.447 170.312 481.16C171.087 486.94 174.082 489.27 179.738 488.494C184.483 487.844 185.42 489.277 182.171 492.217C179.865 494.304 178.527 494.297 174.935 492.175C171.443 490.112 169.867 491.203 172.556 493.821C175.679 496.863 181.983 496.889 185 493.872C186.736 492.136 187 490.539 187 481.764V471.655L184.561 472.267C183.22 472.604 181.843 472.428 181.502 471.876C180.254 469.856 175.82 470.898 172.798 473.92ZM221.477 471.91C221.154 472.433 222.066 474.404 223.505 476.29L226.121 479.72L223.561 483.776C220.6 488.466 220.507 488.872 222.402 488.872C223.173 488.872 224.686 487.478 225.765 485.775L227.726 482.678L229.931 485.775C231.169 487.514 233.035 488.872 234.187 488.872C236.144 488.872 236.118 488.716 233.619 485.439C230.448 481.282 230.367 479.632 233.114 475.187C236.019 470.488 234.467 469.588 230.845 473.872C227.988 477.25 227.835 477.304 226.443 475.431C225.649 474.363 225 473.174 225 472.788C225 471.615 222.105 470.893 221.477 471.91ZM240.646 473.324C238.551 475.266 238 476.7 238 480.213C238 485.767 240.292 488.739 245.177 489.521C248.254 490.014 249.281 489.682 251.48 487.483C254.789 484.173 253.839 482.067 250.295 484.854C245.869 488.336 242.883 487.237 241.47 481.609C240.58 478.061 243.195 473.872 246.301 473.872C247.541 473.872 249.431 474.885 250.502 476.122C252.365 478.276 252.465 478.288 252.836 476.422C253.337 473.903 249.623 470.872 246.035 470.872C244.509 470.872 242.118 471.96 240.646 473.324ZM260.092 473.274C258.851 474.595 257.592 477.498 257.293 479.725C256.817 483.274 257.127 484.153 259.798 486.824C261.531 488.557 263.9 489.872 265.288 489.872C268.534 489.872 273.517 485.989 272.095 484.567C271.365 483.837 270.486 484.027 269.195 485.196C265.84 488.231 261 486.741 261 482.672C261 481.139 261.889 480.872 267 480.872C272.762 480.872 273 480.771 273 478.327C273 474.88 268.817 470.872 265.22 470.872C263.482 470.872 261.458 471.82 260.092 473.274ZM296.61 473.122C294.261 475.235 293.626 477.427 293.889 482.511C294.059 485.8 297.115 488.703 301.156 489.415C304.083 489.931 305.231 489.641 306.906 487.966C308.058 486.814 309 485.422 309 484.872C309 483.393 307.071 483.658 305.357 485.372C303.416 487.313 300.554 487.283 298.571 485.301C295.291 482.02 296.596 480.872 303.608 480.872H310.217L309.571 478.122C308.746 474.61 304.585 470.872 301.5 470.872C300.186 470.872 297.986 471.885 296.61 473.122ZM314.554 472.009C314.295 472.759 313.952 476.861 313.792 481.124C313.535 487.953 313.709 488.876 315.25 488.874C316.717 488.872 317 487.926 317 483.027C317 476.882 318.763 473.872 322.36 473.872C324.782 473.872 325.502 476.371 325.89 486.122C325.959 487.851 326.557 488.872 327.5 488.872C328.665 488.872 329 487.544 329 482.919C329 473.174 326.304 469.665 320.51 471.868C318.535 472.619 317.371 472.594 316.39 471.781C315.354 470.921 314.91 470.976 314.554 472.009ZM335.74 473.412C333.578 475.417 333 476.853 333 480.224C333 485.27 335.385 488.358 340.076 489.389C343.287 490.094 347.85 487.823 348.77 485.061C349.339 483.356 346.477 483.592 345 485.372C342.069 488.904 336 485.532 336 480.372C336 475.404 343.078 471.306 344.638 475.372C345.258 476.988 349 477.479 349 475.945C349 474.238 343.761 470.872 341.105 470.872C339.661 470.872 337.247 472.015 335.74 473.412ZM354.923 473.795C348.784 479.934 352.771 489.872 361.373 489.872C364.145 489.872 368.708 485.428 367.012 484.38C366.386 483.993 365.079 484.395 364.108 485.274C361.639 487.509 358.388 487.264 356.598 484.709C354.402 481.573 355.399 480.872 362.059 480.872C367.758 480.872 368 480.768 368 478.327C368 475.016 363.813 470.872 360.469 470.872C358.903 470.872 356.668 472.051 354.923 473.795ZM416.707 471.499C416.362 471.844 416.684 473.306 417.422 474.749C418.161 476.192 419.581 479.979 420.579 483.166C422.077 487.95 422.746 488.908 424.418 488.666C425.982 488.439 427.045 486.553 429.092 480.372C430.549 475.972 431.521 471.991 431.252 471.526C430.393 470.04 428.288 473.211 426.535 478.63C425.007 483.352 423 484.922 423 481.396C423 479.271 419.171 470.872 418.202 470.872C417.724 470.872 417.051 471.154 416.707 471.499ZM450.008 471.846C449.188 472.364 447.59 472.556 446.458 472.272C444.516 471.785 444.384 472.234 444.136 480.182C443.927 486.854 444.178 488.726 445.344 489.174C447.014 489.815 447.642 487.804 447.924 480.911C448.123 476.02 449.344 473.872 451.922 473.872C454.943 473.872 456 476.127 456 482.572C456 488.334 456.182 488.872 458.131 488.872C460.037 488.872 460.196 488.476 459.642 485.122C459.301 483.06 459.017 479.717 459.011 477.693C458.994 472.011 454.433 469.048 450.008 471.846ZM466.455 473.327C461.45 478.331 464.542 488.872 471.014 488.872C472.591 488.872 474.16 488.422 474.5 487.872C475.642 486.024 477 486.85 477 489.393C477 493.219 472.758 494.844 468.76 492.549C465.375 490.606 464.022 491.093 465.638 493.67C466.366 494.83 468.328 495.468 471.797 495.672C478.84 496.088 479.904 494.299 480.17 481.592C480.281 476.267 480.074 471.613 479.71 471.249C479.346 470.885 478.391 471.132 477.588 471.799C476.521 472.684 475.59 472.723 474.13 471.941C471.061 470.299 469.134 470.647 466.455 473.327ZM524.455 473.327C521.563 476.218 521.068 483.096 523.501 486.57C525.48 489.395 530.186 490.371 533.702 488.686C536.794 487.204 538.089 483.872 535.573 483.872C534.708 483.872 534 484.313 534 484.853C534 486.828 528.989 487.172 526.96 485.336C523.294 482.018 524.46 480.872 531.5 480.872C537.414 480.872 538 480.685 538 478.795C538 475.83 532.7 470.872 529.531 470.872C528.081 470.872 525.813 471.968 524.455 473.327ZM545.299 472.375C541.899 474.757 540.663 479.821 542.442 484.079C543.258 486.032 544.654 487.909 545.545 488.251C548.014 489.198 551.808 488.992 552.5 487.872C553.513 486.233 555 486.736 555 488.717C555 490.853 552.009 493.872 549.894 493.872C549.097 493.872 547.416 493.151 546.158 492.27C543.626 490.497 542.433 490.953 543.351 493.344C544.19 495.529 548.439 496.934 552.035 496.215C556.932 495.236 558 492.658 558 481.816C558 471.834 557.56 470.162 555.406 471.95C554.505 472.698 553.539 472.695 552.13 471.941C549.426 470.494 547.84 470.595 545.299 472.375ZM567 471.567C565.079 472.373 563.039 475.126 563.641 476.1C563.896 476.512 565.18 476.145 566.494 475.284C569.703 473.181 573.5 473.771 573.5 476.372C573.5 477.949 572.655 478.485 569.5 478.907C564.132 479.625 563 480.478 563 483.809C563 487.801 564.812 488.843 571.587 488.747L577.518 488.664L577.509 481.318C577.504 477.278 577.011 473.483 576.414 472.886C575.081 471.553 569.048 470.708 567 471.567ZM582.667 471.539C582.3 471.905 582 475.955 582 480.539C582 488.205 582.16 488.872 584 488.872C585.791 488.872 586 488.205 586 482.494C586 475.308 587.376 473.248 591.487 474.279C593.871 474.878 594 475.269 594 481.891C594 488.205 594.191 488.872 596 488.872C597.751 488.872 598 488.205 598 483.521C598 473.294 594.498 468.957 588.462 471.707C586.957 472.393 585.851 472.44 585.477 471.834C584.784 470.714 583.615 470.591 582.667 471.539ZM604.573 473.208C602.583 475.199 602 476.785 602 480.216C602 485.766 604.293 488.74 609.177 489.521C612.277 490.018 613.279 489.683 615.573 487.39C617.721 485.242 618.004 484.493 616.922 483.824C616.025 483.27 614.924 483.65 613.737 484.924C612.739 485.996 611.109 486.872 610.116 486.872C605.547 486.872 603.209 478.803 606.829 475.527C609.109 473.463 612.873 473.378 613.638 475.372C613.955 476.197 615.066 476.872 616.107 476.872C620.614 476.872 616.032 472.076 610.697 471.21C607.774 470.736 606.693 471.088 604.573 473.208ZM624.763 472.437C621.601 474.153 620.508 477.431 621.348 482.676C622.138 487.616 625.394 490.232 629.851 489.509C633.948 488.844 637.506 485.978 636.047 484.519C635.381 483.853 634.43 484.078 633.195 485.196C630.737 487.42 627.712 487.316 625.557 484.935C622.92 482.021 624.477 480.872 631.059 480.872C636.703 480.872 637 480.749 637 478.412C637 475.483 632.378 470.855 629.51 470.912C628.405 470.934 626.268 471.62 624.763 472.437ZM409.21 480.111C409.453 487.004 409.784 488.404 411.239 488.682C412.719 488.965 412.92 488.372 412.588 484.693C412.374 482.317 412.154 478.459 412.099 476.122C412.027 473.004 411.59 471.872 410.46 471.872C409.173 471.872 408.967 473.232 409.21 480.111ZM436 480.372C436 487.261 436.284 488.872 437.5 488.872C438.716 488.872 439 487.261 439 480.372C439 473.483 438.716 471.872 437.5 471.872C436.284 471.872 436 473.483 436 480.372ZM44.655 475.701C42.348 478.25 42.556 483.16 45.068 485.434C46.956 487.142 47.371 487.175 49.818 485.808C51.732 484.739 52.592 483.361 52.82 480.997C53.387 475.137 48.206 471.777 44.655 475.701ZM93.696 475.656C91.51 478.07 92.393 478.872 97.236 478.872C100.712 478.872 101.104 478.626 100.82 476.622C100.397 473.649 96.046 473.059 93.696 475.656ZM113.562 475.453C111.335 477.68 112.496 478.872 116.892 478.872C121.585 478.872 122.476 478.055 120.347 475.703C118.311 473.453 115.659 473.355 113.562 475.453ZM175.655 475.701C174.745 476.707 174 479.109 174 481.04C174 483.855 174.518 484.787 176.612 485.741C179.228 486.933 181.114 486.258 183.235 483.372C184.598 481.516 184.012 477.193 182.171 475.527C179.794 473.376 177.709 473.432 175.655 475.701ZM262.2 475.072C259.73 477.542 260.885 478.872 265.5 478.872C268.785 478.872 270 478.477 270 477.407C270 474.539 264.408 472.864 262.2 475.072ZM298.2 475.072C295.73 477.542 296.885 478.872 301.5 478.872C304.526 478.872 306 478.446 306 477.572C306 475.625 303.869 473.872 301.5 473.872C300.345 473.872 298.86 474.412 298.2 475.072ZM357.2 475.072C354.862 477.41 355.875 478.872 359.833 478.872C364.417 478.872 365.26 478.227 363.93 475.741C362.802 473.634 359.014 473.258 357.2 475.072ZM468.387 476.403C466.245 479.673 467.519 484.78 470.779 485.986C475.674 487.797 479.269 479.236 475.171 475.527C472.578 473.18 470.307 473.473 468.387 476.403ZM526.036 475.328C524.194 477.549 525.696 478.872 530.059 478.872C532.626 478.872 534 478.419 534 477.572C534 474.145 528.341 472.551 526.036 475.328ZM546.571 475.443C543.336 478.679 545.331 485.872 549.464 485.872C554.527 485.872 556.995 478.987 553.171 475.527C550.875 473.449 548.595 473.42 546.571 475.443ZM625.07 475.741C623.743 478.22 624.584 478.872 629.108 478.872C633.318 478.872 634.785 477.523 632.964 475.328C631.218 473.225 626.279 473.483 625.07 475.741ZM567.152 481.757C564.929 483.166 566.224 486.338 569.162 486.679C571.844 486.99 575.512 483.509 574.399 481.709C573.728 480.623 568.89 480.655 567.152 481.757ZM372 487.372C372 488.205 372.889 488.872 374 488.872C375.111 488.872 376 488.205 376 487.372C376 486.539 375.111 485.872 374 485.872C372.889 485.872 372 486.539 372 487.372ZM641 487.372C641 488.402 641.655 488.892 642.75 488.682C644.858 488.276 644.725 486.501 642.553 486.049C641.647 485.86 641 486.411 641 487.372Z" fill="#013B63"/>
</svg>
