<svg width="774" height="597" viewBox="0 0 774 597" fill="none" xmlns="http://www.w3.org/2000/svg">
<path fill-rule="evenodd" clip-rule="evenodd" d="M365 1.51402C346.645 3.54602 327.733 7.80502 309.5 14.013C296.733 18.361 276.55 27.273 269.121 31.845C266.288 33.588 263.766 35.014 263.516 35.014C263.267 35.014 259.786 37.121 255.781 39.697C243.108 47.848 229.682 58.498 218.156 69.543L206.991 80.241L199.246 78.15C194.036 76.743 190.845 75.274 189.5 73.664C185.145 68.453 179.462 67.606 174.855 71.483L171.921 73.951L165.711 70.413C154.486 64.019 153.157 63.619 143 63.573C131.723 63.522 126.208 65.68 119.194 72.888C114.192 78.028 111.682 82.595 108.889 91.638C105.742 101.826 99.925 130.866 100.54 133.316C100.847 134.541 99.952 138.56 98.53 142.337C95.905 149.311 94.708 160.239 96.5 160.861C97.05 161.052 98.186 159.108 99.025 156.541C100.516 151.98 102.78 150.542 102.216 154.514C101.481 159.693 101.577 160.514 102.917 160.514C103.696 160.514 104.74 159.164 105.238 157.514C106.023 154.908 109.674 146.46 111.915 142.065C112.321 141.269 113.744 140.298 115.077 139.909C116.409 139.52 130.847 134.659 147.159 129.108C163.472 123.556 177.335 119.014 177.966 119.014C178.6 119.014 177.948 120.914 176.506 123.264C162.129 146.703 149.509 185.306 146.022 216.514C143.719 237.124 145.211 268.886 149.427 289.014C150.291 293.139 150.999 296.718 150.999 296.967C151 297.216 152.724 295.736 154.832 293.678L158.664 289.936L156.927 279.725C149.053 233.426 155.585 186.991 175.965 144.39C183.152 129.365 189.692 118.07 191.634 117.324C192.444 117.014 196.038 118.005 199.621 119.528C206.025 122.25 206.377 122.286 220.318 121.657C228.118 121.305 242.6 120.767 252.5 120.461C262.4 120.156 279.725 119.481 291 118.961C315.697 117.824 332.72 117.744 333.334 118.764C333.582 119.176 332.777 125.814 331.544 133.514C330.312 141.214 329.607 147.864 329.979 148.291C330.35 148.718 337.594 148.943 346.077 148.791L361.5 148.514L361.805 143.514C362.108 138.53 362.125 138.507 367.305 136.251C379.951 130.742 385.472 119.997 381.857 107.93C380.433 103.179 376.699 99.519 371.542 97.819C368.105 96.686 367.479 96.006 366.786 92.66C364.977 83.925 358.627 79.511 348.88 80.216C344.657 80.522 342.384 81.244 340.718 82.809C338.564 84.832 336.929 85.041 316.454 85.899C295.223 86.79 294.429 86.754 292.334 84.822C290.466 83.099 289.71 82.975 286.834 83.927C285 84.534 273.825 85.437 262 85.934C241.59 86.79 240.396 86.74 238.452 84.94C235.523 82.229 230.523 81.441 227.756 83.254C225.113 84.986 219 84.448 219 82.483C219 80.479 238.284 63.322 249.665 55.2C305.138 15.614 374.442 0.786025 442 14.047C451.43 15.898 472.747 21.996 478.5 24.487C480.15 25.202 484.065 26.781 487.2 27.996C503.569 34.342 528.331 49.244 546 63.384C553.597 69.463 576 91.657 576 93.104C576 93.536 574.763 95.93 573.25 98.422C571.428 101.423 569.42 103.322 567.3 104.045C557.956 107.232 553.705 121.813 560.126 128.649C565.24 134.092 569.223 135.014 587.617 135.014H604.603L606.891 140.264C614.22 157.085 619.3 171.269 622.403 183.575C626.716 200.686 627.503 205.576 629.098 225.15C631.66 256.617 626.733 288.979 613.968 324.514C610.99 332.806 599.063 357.26 596.923 359.464C596.359 360.045 596 329.222 596 280.214V200.014H573H550V153.612V107.21L546.851 106.112C544.867 105.42 533.767 105.014 516.851 105.014H490V78.502V51.989L453.75 52.252L417.5 52.514V99.514V146.514H425.5H433.5L434 141.014L434.5 135.514L438.581 135.215L442.661 134.916L443.581 140.715C444.464 146.287 444.617 146.514 447.5 146.514C450.454 146.514 450.505 146.425 450.802 140.709L451.103 134.904L455.302 135.209L459.5 135.514L460.306 145.514C461.485 160.136 461.619 171.235 460.646 173.514C460.176 174.614 459.726 178.214 459.646 181.514C459.506 187.274 459.39 187.527 456.75 187.83C453.806 188.169 453.493 189.228 454.641 194.967C455.061 197.067 456.094 198.48 457.641 199.067C459.899 199.926 460 200.386 460 209.786V219.607L469.223 221.798C484.151 225.344 491.136 231.351 495.085 244.039C497.918 253.141 497.866 282.913 495 293.257C493.9 297.226 493.015 301.383 493.033 302.494C493.051 303.605 494.874 306.314 497.085 308.514C506.878 318.26 510.38 329.101 509.814 347.915C509.287 365.413 507.216 369.181 496.898 371.415C493.743 372.098 492.802 371.349 494.059 369.156C499.32 359.978 501.883 345.585 500.138 335.02C498.257 323.632 493.838 316.666 484.401 310.212L481.302 308.093L484.112 302.303C487.515 295.292 489 285.212 489 269.125C489 240.229 483.348 232.001 461.311 228.815C451.552 227.404 452.447 228.455 448.278 213.514C445.556 203.759 440.988 178.982 441.687 177.764C441.924 177.352 444.061 177.014 446.437 177.014C448.917 177.014 451.249 176.418 451.916 175.615C452.666 174.712 452.975 170.9 452.789 164.865L452.5 155.514L386.057 155.257C349.514 155.115 319.231 155.383 318.762 155.852C317.434 157.18 316.677 170.115 317.699 174.014C318.546 177.244 318.944 177.538 322.863 177.824C325.408 178.01 327.331 178.712 327.662 179.576C328.517 181.803 327.129 186.014 325.54 186.014C323.402 186.014 323.164 186.8 321.41 199.643C320.519 206.172 319.263 214.889 318.62 219.014L317.45 226.514L309.62 227.014L301.789 227.514L300.496 231.514C299.784 233.714 296.211 246.087 292.556 259.009C288.901 271.931 285.512 282.902 285.026 283.388C284.066 284.348 271.493 277.881 260.004 270.517C255.748 267.789 251.818 266.014 250.034 266.014C248.414 266.014 241.556 267.791 234.794 269.963C228.032 272.135 217.1 275.524 210.5 277.495C178.8 286.959 174.159 288.432 169.5 290.503C161.848 293.903 153.975 302.153 149.428 311.536C145.589 319.457 145.559 319.614 145.207 333.514C144.927 344.559 145.272 349.625 146.841 357.514C147.935 363.014 149.123 368.252 149.48 369.155C149.95 370.341 147.136 373.83 139.315 381.752C126.09 395.15 112.582 405.357 93 416.75C78.51 425.18 74.648 426.082 50.268 426.728C37.068 427.079 29.711 427.658 29.099 428.395C26.915 431.027 26.882 434.594 29.016 437.307L31.145 440.014H124.823C201.335 440.014 219.729 440.271 225.202 441.416C228.888 442.187 238.788 445.721 247.202 449.269C277.38 461.994 291.906 465.932 324 470.09C328.125 470.624 341.192 471.061 353.038 471.061C393.042 471.061 421.359 465.057 460.597 448.253C469.645 444.378 477.235 441.821 481.789 441.115C486.674 440.357 528.405 440.014 615.787 440.014C737.459 440.014 742.758 439.939 744.345 438.185C747.114 435.126 746.292 431.88 741.241 425.923C738.634 422.848 733.575 416.824 730 412.535C726.425 408.246 719.446 399.962 714.491 394.126C709.536 388.289 703.686 381.271 701.491 378.529C688.107 361.809 674.388 346.272 671.677 344.764C669.947 343.802 667.42 343.014 666.061 343.014C664.703 343.014 649.962 349.764 633.303 358.014C616.644 366.264 602.561 373.014 602.007 373.014C600.421 373.014 600.674 372.394 606.5 362.014C609.525 356.624 612 351.985 612 351.703C612 351.422 613.541 347.89 615.424 343.853C643.009 284.72 646.129 221.227 624.507 159.014C622.691 153.789 620.895 148.751 620.517 147.819C619.929 146.371 620.605 146.08 625.164 145.819C629.732 145.558 630.5 145.226 630.5 143.514C630.5 141.745 629.736 141.48 623.891 141.222C617.885 140.956 617.175 140.693 616.104 138.342C615.455 136.92 615.172 135.509 615.473 135.207C615.775 134.906 620.909 134.772 626.882 134.91C632.855 135.048 639.576 134.667 641.818 134.063C647.364 132.57 650.346 128.68 649.694 123.789L649.197 120.065L651.849 121.419C658.928 125.035 664.267 115.856 657.619 111.5C654.512 109.465 650.406 110.973 648.785 114.744C648.131 116.267 647.539 117.623 647.471 117.757C646.902 118.874 638.791 113.337 636.11 110.002C632.104 105.017 627.828 103.014 621.193 103.014C616.995 103.014 616.167 102.675 615.206 100.568C614.593 99.222 612.468 96.324 610.483 94.127C605.57 88.689 599.01 86.54 589.902 87.386C584.501 87.888 582.934 87.718 582.285 86.559C580.328 83.062 567.191 69.522 558.239 61.777C539.424 45.496 525.487 36.265 503.5 25.519C460.912 4.70502 412.293 -3.72198 365 1.51402ZM601.07 61.883C599.648 64.54 600.689 66.898 603.608 67.63C607.549 68.62 609.166 67.421 608.814 63.771C608.539 60.921 608.102 60.475 605.316 60.206C602.962 59.978 601.856 60.415 601.07 61.883ZM469.25 70.808L466 71.141V81.077V91.014H470.5H475V81.121C475 70.402 474.903 70.229 469.25 70.808ZM434 81.014V91.124L438.75 90.819L443.5 90.514V81.014V71.514L438.75 71.209L434 70.904V81.014ZM450.214 80.764L450.5 90.514H455H459.5L459.799 83.026C460.244 71.856 459.869 71.014 454.445 71.014H449.928L450.214 80.764ZM192.481 88.625C194.928 94.487 195.733 94.871 198.494 91.493C201.432 87.898 201.649 86.014 199.125 86.014C198.094 86.014 195.812 85.726 194.053 85.375L190.857 84.735L192.481 88.625ZM345.323 88.626C343.241 89.653 341.597 91.563 340.556 94.167C339.094 97.818 339.099 98.421 340.618 101.621C343.699 108.113 351.535 109.959 356.889 105.454C360.706 102.242 361.773 97.409 359.594 93.196C356.491 87.196 351.478 85.591 345.323 88.626ZM209.43 92.66C205.437 96.934 200 103.642 200 104.295C200 104.612 203.409 104.835 207.575 104.792L215.149 104.714L218.575 99.627C222.717 93.476 222.81 92.394 219.25 91.721C217.738 91.435 215.509 90.887 214.299 90.504C212.629 89.975 211.452 90.496 209.43 92.66ZM281 91.672C279.625 91.86 269.709 92.395 258.965 92.861L239.431 93.708L234.173 97.485C231.281 99.563 229.126 101.473 229.383 101.731C229.641 101.988 238.323 101.688 248.676 101.064C259.029 100.44 271.687 99.68 276.805 99.374L286.109 98.819L285.805 95.244C285.483 91.472 285.013 91.123 281 91.672ZM302 92.96C291.612 93.508 291.5 93.541 291.508 96.014C291.515 98.311 291.922 98.535 296.508 98.775C299.254 98.919 308.7 98.694 317.5 98.275L333.5 97.514L333.816 94.764L334.133 92.014L323.316 92.21C317.367 92.317 307.775 92.655 302 92.96ZM346.241 94C344.541 96.722 344.682 98.399 346.831 101.054C349.146 103.913 353.544 103.108 355.176 99.527C357.656 94.084 349.384 88.967 346.241 94ZM585.962 95.264C582.451 97.034 580.907 98.687 578.721 103.014C576.259 107.884 575.492 108.606 572.018 109.314C567.201 110.295 563 114.886 563 119.168C563 121.15 563.991 123.159 565.923 125.091L568.846 128.014H605.454C638.425 128.014 642.125 127.851 642.691 126.378C643.664 123.841 641.631 121.564 637.902 121.014C635.198 120.615 634.163 119.775 632.797 116.869C631.855 114.865 629.827 112.233 628.292 111.021C625.559 108.864 622.519 108.694 613.679 110.203C612.342 110.432 611.493 109.468 610.481 106.572C609.723 104.404 608.266 101.479 607.243 100.072C604.868 96.806 597.484 93.014 593.5 93.014C591.808 93.014 588.416 94.026 585.962 95.264ZM150.08 104.46C137.2 110.189 125.528 115.722 124.143 116.756C120.871 119.199 120.316 121.014 122.84 121.014C125.3 121.014 148.145 111.609 173.25 100.262C178.996 97.665 180.4 95.765 177.418 94.621C174.687 93.573 174.02 93.813 150.08 104.46ZM434.667 102.681C434.3 103.047 434 107.772 434 113.181V123.014H439H444L443.986 114.764C443.967 103.037 443.571 102.014 439.05 102.014C437.006 102.014 435.033 102.314 434.667 102.681ZM450.696 102.764C449.767 104.416 450.093 122.454 451.063 123.053C451.626 123.401 453.754 123.416 455.793 123.087C459.437 122.5 459.506 122.404 459.824 117.502C460.003 114.758 459.858 110.151 459.502 107.264L458.856 102.014H454.987C452.859 102.014 450.928 102.352 450.696 102.764ZM466.714 102.633C466.321 103.026 466 107.772 466 113.181V123.014H470.535H475.07L474.785 112.764L474.5 102.514L470.964 102.216C469.02 102.053 467.107 102.24 466.714 102.633ZM366.5 116.533C363.2 117.893 360.33 119.007 360.123 119.009C359.547 119.016 360.631 128.978 361.278 129.626C362.251 130.599 371.663 123.855 373.374 120.958C375.305 117.689 375.506 114.004 373.75 114.038C373.063 114.051 369.8 115.174 366.5 116.533ZM500.913 127.212C500.865 128.478 500.753 133.114 500.663 137.514L500.5 145.514H506H511.5V135.514V125.514L506.25 125.212C501.37 124.931 500.994 125.072 500.913 127.212ZM523.667 125.681C522.538 126.809 522.905 144.837 524.071 145.558C524.66 145.922 527.135 145.921 529.571 145.556L534 144.891V134.953V125.014H529.167C526.508 125.014 524.033 125.314 523.667 125.681ZM466 145.071V155.129L470.25 154.821L474.5 154.514L474.786 144.764L475.072 135.014H470.536H466V145.071ZM670.38 142.466C670.074 143.265 670.114 144.39 670.47 144.966C670.902 145.665 682.898 146.014 706.452 146.014C735.549 146.014 741.879 145.771 742.315 144.636C743.605 141.274 740.986 141.014 705.769 141.014C676.24 141.014 670.852 141.235 670.38 142.466ZM658.538 156.362C654.381 159.402 657.725 160.014 678.5 160.014C699.031 160.014 701.544 159.579 698.964 156.47C697.265 154.423 661.321 154.327 658.538 156.362ZM126.35 158.407C128.619 160.214 127.703 162.014 124.514 162.014C123.086 162.014 121.981 161.32 121.728 160.264C121.331 158.603 121.271 158.603 120.543 160.277C118.696 164.523 126.857 166.817 129.394 162.764C130.757 160.588 129.165 157.649 126.393 157.224C124.556 156.943 124.555 156.978 126.35 158.407ZM500.497 160.214C500.16 162.029 500.023 166.664 500.192 170.514L500.5 177.514L506.286 177.815L512.071 178.116L511.786 167.815L511.5 157.514L506.305 157.214C501.138 156.915 501.106 156.931 500.497 160.214ZM523.427 158.343C523.147 159.074 523.048 163.687 523.209 168.593L523.5 177.514H529H534.5L534.375 173.764C534.306 171.702 534.194 167.089 534.125 163.514L534 157.014H528.969C525.706 157.014 523.758 157.481 523.427 158.343ZM334.667 165.681C334.3 166.047 334 167.339 334 168.552C334 170.436 334.69 170.838 338.75 171.321C345.941 172.175 375.106 172.22 407.75 171.428C433.992 170.791 437 170.548 437 169.066C437 165.062 436.388 165.014 384.967 165.014C357.668 165.014 335.033 165.314 334.667 165.681ZM466 177.639V188.264L469.125 187.639C470.844 187.295 472.869 187.014 473.625 187.014C474.7 187.014 475 184.832 475 177.014V167.014H470.5H466V177.639ZM335.543 180.194C335.296 180.92 333.036 190.964 330.52 202.514C328.004 214.064 325.519 225.314 324.997 227.514C322.358 238.643 318.936 255.282 318.49 259.15C318.214 261.55 318.778 268.014 319.744 273.514C321.249 282.084 321.774 283.514 323.413 283.514C325.072 283.514 325.363 282.652 325.606 277.014C325.759 273.439 326.16 268.039 326.496 265.014C327.124 259.371 334.377 216.688 335.928 209.514C338.352 198.304 339.944 189.004 340.207 184.514C340.473 179.983 340.289 179.484 338.246 179.194C337.006 179.018 335.789 179.468 335.543 180.194ZM348.558 180.229C348.335 180.936 347.004 187.589 345.601 195.014C339.404 227.799 339.118 230.014 341.094 230.014C341.695 230.014 342.408 229.17 342.678 228.138C343.498 225.003 347.001 224.036 358.5 223.769L369.5 223.514V201.514V179.514L359.232 179.229C351.545 179.015 348.862 179.267 348.558 180.229ZM382 201.514V224.014H392.5H403V201.514V179.014H392.5H382V201.514ZM414 201.455V223.896L426.25 224.205C432.987 224.375 438.643 224.446 438.817 224.364C439.696 223.947 432.994 181.712 431.825 180.303C431.108 179.439 427.996 179.014 422.378 179.014H414V201.455ZM500.667 190.681C500.3 191.047 500 195.267 500 200.058C500 210.192 500.731 211.289 507.176 210.825L511.5 210.514L511.785 200.264L512.07 190.014H506.702C503.749 190.014 501.033 190.314 500.667 190.681ZM523.636 194.654C522.762 201.033 522.864 208.252 523.852 209.809C524.39 210.656 526.026 210.94 528.587 210.63C530.739 210.37 532.837 210.124 533.25 210.085C533.663 210.046 534 205.514 534 200.014V190.014H529.136H524.272L523.636 194.654ZM466.505 198.842C466.227 199.12 466 203.798 466 209.238V219.129L470.25 218.821L474.5 218.514V208.555V198.596L470.755 198.466C468.696 198.395 466.784 198.564 466.505 198.842ZM667 205.514C667 206.339 667.675 207.014 668.5 207.014C669.325 207.014 670 206.339 670 205.514C670 204.689 669.325 204.014 668.5 204.014C667.675 204.014 667 204.689 667 205.514ZM558.25 217.676C557.448 218 557 220.3 557 224.097V230.014H570.5H584V223.514V217.014L571.75 217.093C565.013 217.136 558.938 217.399 558.25 217.676ZM502.215 222.729C499.997 223.149 499.938 223.45 500.215 232.838L500.5 242.514L506.25 242.814L512 243.114V233.064C512 223.101 511.979 223.014 509.582 223.014C508.252 223.014 506.564 222.852 505.832 222.654C505.099 222.457 503.472 222.49 502.215 222.729ZM523.214 232.764L523.5 242.514L528.75 242.816L534 243.119V233.066V223.014H528.464H522.928L523.214 232.764ZM306.632 231.801C306.364 232.234 304.517 238.871 302.528 246.551C300.538 254.231 297.527 265.336 295.836 271.231C294.144 277.125 293.025 282.637 293.349 283.481C293.724 284.458 295.218 285.014 297.469 285.014H301L301.034 278.264C301.053 274.552 301.926 268.139 302.975 264.014C309.807 237.132 310.855 232.589 310.395 231.844C309.745 230.792 307.273 230.763 306.632 231.801ZM379.973 232.031C379.35 232.416 378.988 234.032 379.17 235.623C379.531 238.787 377.984 238.476 395.75 238.954C398.206 239.02 398.995 242.426 396.75 243.27C396.063 243.529 382.325 243.629 366.223 243.493C338.097 243.256 336.905 243.323 335.904 245.194C335.157 246.59 335.199 247.549 336.053 248.578C337.041 249.768 342.441 250.014 367.622 250.014C397.333 250.014 398 250.058 398 252.014C398 253.97 397.333 254.014 367.582 254.014C350.852 254.014 336.452 254.287 335.582 254.621C334.712 254.955 334 256.305 334 257.621V260.014H366H398V262.514V265.014H365.434H332.867L333.184 267.764L333.5 270.514L365.818 270.778C397.676 271.038 398.131 271.071 397.818 273.075C397.507 275.066 396.828 275.112 365 275.311L332.5 275.514L332.185 278.25L331.87 280.987L364.685 281.25C396.745 281.508 397.5 281.56 397.5 283.514C397.5 285.468 396.745 285.52 364.75 285.778C329.775 286.059 329.622 286.084 334.039 290.825C336.054 292.988 336.45 293.014 367.974 293.014C386.404 293.014 400.959 292.6 402.45 292.033L405.03 291.052L404.765 261.396L404.5 231.74L392.803 231.535C386.37 231.422 380.597 231.645 379.973 232.031ZM412 234.862V237.709L423.269 238.353C433.443 238.934 443.548 240.262 448.25 241.637C449.853 242.106 450 244.139 450 265.841C450 288.607 450.08 289.583 452.041 290.807C453.163 291.508 454.513 291.815 455.041 291.489C455.608 291.138 456 281.522 456 267.955C456 250.323 456.289 244.991 457.25 244.913C460.722 244.631 466.134 245.285 471.817 246.672C475.291 247.52 478.401 247.946 478.729 247.618C479.057 247.291 478.799 245.869 478.157 244.46C476.765 241.405 470.53 238.45 463.5 237.513C460.75 237.147 454.9 236.225 450.5 235.465C442.055 234.005 422.076 232.023 415.75 232.017C412.294 232.014 412 232.237 412 234.862ZM106.667 237.681C105.58 238.767 105.906 242.52 107.2 243.814C108.489 245.103 112.245 245.435 113.325 244.356C113.687 243.994 113.472 243.083 112.849 242.332C112.225 241.58 111.997 240.683 112.342 240.338C112.687 239.993 111.8 239.104 110.371 238.362C107.342 236.791 107.523 236.825 106.667 237.681ZM557.409 240.391C557.118 241.148 557.02 243.961 557.19 246.641L557.5 251.514L570.422 251.795C577.663 251.953 583.598 251.667 583.922 251.144C584.24 250.632 584.346 247.693 584.157 244.613L583.815 239.014H570.876C560.811 239.014 557.82 239.32 557.409 240.391ZM411.18 246.255C411.445 248.108 412.366 248.629 416.5 249.263C421.822 250.08 427.579 249.504 428.468 248.066C428.764 247.586 428.732 246.479 428.396 245.604C427.905 244.324 426.137 244.014 419.323 244.014C411.129 244.014 410.871 244.085 411.18 246.255ZM525.215 254.724C522.998 255.149 522.938 255.451 523.215 264.838L523.5 274.514L528.75 274.816L534 275.119V265.183C534 255.725 533.892 255.218 531.75 254.644C529.387 254.011 528.905 254.017 525.215 254.724ZM419.009 256.014C412.973 256.417 411.456 256.847 411.193 258.228C410.771 260.446 413.843 261.216 421.532 260.82C426.393 260.57 427.545 260.175 427.834 258.658C428.371 255.838 427.147 255.471 419.009 256.014ZM465 257.056C465 258.961 465.518 259.079 472.739 258.806C479.177 258.563 480.535 258.22 480.812 256.764C481.108 255.214 480.223 255.014 473.073 255.014C465.611 255.014 465 255.169 465 257.056ZM500.779 259.285C500.514 261.633 500.511 266.133 500.773 269.285L501.248 275.014H506.624H512V265.014V255.014H506.63H501.26L500.779 259.285ZM557.42 262.361C557.123 263.135 557.02 265.961 557.19 268.641L557.5 273.514L570.798 273.793L584.097 274.073L583.798 267.793L583.5 261.514L570.73 261.234C560.487 261.009 557.853 261.232 557.42 262.361ZM466.25 265.655C463.014 267.016 465.692 268.014 472.583 268.014C478.203 268.014 480.06 267.69 479.754 266.764C479.334 265.491 468.713 264.618 466.25 265.655ZM411.754 268.264C410.633 271.313 412.19 272.014 420.083 272.014C427.861 272.014 428 271.97 428 269.514C428 267.058 427.86 267.014 420.107 267.014C414.704 267.014 412.069 267.408 411.754 268.264ZM245.5 276.123C243.85 276.638 238.225 278.21 233 279.617C227.775 281.023 220.125 283.226 216 284.512C211.875 285.798 200.635 289.179 191.022 292.024C171.953 297.67 168 299.303 168 301.54C168 302.735 169.789 303.014 177.441 303.014C183.352 303.014 187.142 302.594 187.577 301.89C188.737 300.013 199.867 295.426 211.5 292.03C232.096 286.017 236.497 285.019 245 284.436L253.5 283.852L265.955 290.961C277.723 297.679 281.568 298.875 280.824 295.589C280.409 293.755 252.288 274.986 250.127 275.1C249.232 275.147 247.15 275.608 245.5 276.123ZM465.675 275.672C463.945 277.402 467.3 278.49 473.412 278.179C478.267 277.932 480 277.471 480 276.429C480 275.347 478.391 275.014 473.167 275.014C469.408 275.014 466.037 275.31 465.675 275.672ZM411.38 279.466C410.306 282.264 412.142 283.014 420.059 283.014C427.863 283.014 428 282.971 428 280.514C428 278.055 427.869 278.014 419.969 278.014C413.87 278.014 411.803 278.363 411.38 279.466ZM557.409 284.391C557.118 285.148 557.02 287.961 557.19 290.641L557.5 295.514L561.5 295.852C563.7 296.037 569.622 295.886 574.659 295.515L583.819 294.841L584.159 289.922C584.347 287.216 584.35 284.555 584.167 284.008C583.969 283.418 578.575 283.014 570.885 283.014C560.812 283.014 557.82 283.32 557.409 284.391ZM465.667 285.681C463.911 287.436 465.603 288.014 472.5 288.014C478.5 288.014 480 287.714 480 286.514C480 285.327 478.574 285.014 473.167 285.014C469.408 285.014 466.033 285.314 465.667 285.681ZM500.444 288.3C500.15 289.065 500.043 293.251 500.205 297.602L500.5 305.514H506H511.5V296.514V287.514L506.239 287.211C502.452 286.993 500.828 287.298 500.444 288.3ZM523 296.514V306.014H528.5H534V296.514V287.014H528.5H523V296.514ZM417.812 295.04C403.039 297.531 392.152 310.08 387.034 330.514C384.962 338.787 384.423 345.014 385.778 345.014C386.205 345.014 388.092 340.868 389.969 335.801C398.776 312.036 408.3 302.721 426.018 300.542C434.004 299.56 446.573 301.468 455.515 305.02C459.95 306.782 464.646 307.987 466.406 307.816L469.5 307.514L464.977 304.372C452.839 295.94 434.265 292.265 417.812 295.04ZM205.5 301.856C192.081 306.839 179.301 320.434 176.209 333.014C174.198 341.195 173.956 344.643 174.916 351.422C176.709 364.082 184.921 376.732 193.247 379.657C197.951 381.31 197.812 379.637 192.825 374.579C182.625 364.232 178.644 349.311 182.563 336.114C188.237 317.008 203.507 306.076 222.915 307.225C256.431 309.211 271.057 351.05 246.738 375.371C244.067 378.043 242.13 380.477 242.434 380.781C243.803 382.15 251.774 378.507 255.145 374.972C266.332 363.243 269.116 342.737 261.691 326.767C256.843 316.34 250.89 310.225 240.414 304.909C231.973 300.626 231.481 300.507 221.126 300.257C212.764 300.054 209.434 300.395 205.5 301.856ZM259.601 304.851C259.316 305.311 259.765 306.661 260.598 307.851L262.113 310.014H321.94H381.767L382.346 307.8C382.672 306.553 382.395 305.249 381.712 304.815C380.06 303.765 260.25 303.8 259.601 304.851ZM662.25 304.732C660.965 305.193 660.532 308.213 661.598 309.278C662.701 310.382 665 308.819 665 306.966C665 304.861 664.047 304.088 662.25 304.732ZM557.667 305.681C557.3 306.047 557 308.972 557 312.181V318.014H570.5H584V311.514V305.014H571.167C564.108 305.014 558.033 305.314 557.667 305.681ZM159.203 309.27C158.63 309.96 157.851 311.76 157.472 313.27L156.783 316.014H165.351C173.405 316.014 174.071 315.85 176.46 313.274C180.784 308.611 180.008 308.014 169.622 308.014C163.318 308.014 159.903 308.425 159.203 309.27ZM422.82 309.594C412.099 312.893 401.893 326.646 399.942 340.423C398.869 347.993 400.015 357.862 402.386 361.481C403.823 363.674 409.608 366.739 410.544 365.803C410.808 365.539 410.06 363.144 408.882 360.48C400.514 341.563 411.496 317.498 431.5 310.921C433.7 310.198 435.928 309.248 436.45 308.81C438.047 307.472 427.798 308.062 422.82 309.594ZM473.75 316.094C471.441 317.439 471.53 318.028 474.54 321.274C476.568 323.461 477.97 324.014 481.481 324.014C483.902 324.014 486.178 323.536 486.539 322.951C487.353 321.634 484.406 318.276 480.802 316.412C477.63 314.771 476.137 314.704 473.75 316.094ZM83.223 318.571C80.421 320.533 80.201 325.981 82.829 328.359C85.075 330.392 90.334 330.522 91.942 328.583C94.025 326.074 93.546 320.875 91.046 318.85C88.274 316.605 86.138 316.529 83.223 318.571ZM269 319.423C269 320.219 269.707 321.578 270.571 322.443C271.889 323.76 275.16 324.012 290.821 323.999C301.095 323.99 310.107 323.599 310.848 323.129C311.59 322.659 312.034 321.428 311.835 320.394C311.497 318.635 310.112 318.497 290.237 318.244C272.238 318.015 269 318.195 269 319.423ZM524.25 318.676C523.39 319.023 523 321.783 523 327.516C523 338.682 523.176 339.014 529.107 339.014H534V328.514V318.014L529.75 318.093C527.413 318.136 524.938 318.399 524.25 318.676ZM153.394 324.43C153.095 325.208 152.997 327.121 153.175 328.68C153.496 331.476 153.598 331.518 160.903 331.811C164.975 331.974 168.652 331.749 169.075 331.311C169.498 330.873 170.154 328.827 170.533 326.764L171.223 323.014H162.58C156.049 323.014 153.804 323.36 153.394 324.43ZM210.491 325.879C198.668 331.25 194.029 347.235 201.014 358.537C208.53 370.698 226.866 372.407 236.688 361.863C239.96 358.35 242.954 351.032 242.968 346.514C242.983 341.634 239.27 333.467 235.376 329.817C229.172 323.999 218.386 322.293 210.491 325.879ZM441 324.99C430.831 326.926 424.026 334.535 422.647 345.514C421.799 352.255 425.034 359.269 431.393 364.48C435.523 367.864 436.787 368.337 442.857 368.772C450.663 369.33 455.096 367.765 460.221 362.639C468.699 354.161 469.186 341.265 461.372 332.136C456.103 325.979 448.962 323.475 441 324.99ZM557.695 327.652C557.313 328.035 557 330.985 557 334.21V340.072L570.25 339.793L583.5 339.514V333.514V327.514L570.945 327.236C564.04 327.082 558.077 327.27 557.695 327.652ZM481 331.449C481 332.238 481.439 334.038 481.975 335.449C482.82 337.671 483.544 338.014 487.392 338.014C492.168 338.014 492.841 337.291 492.19 332.854C491.791 330.137 491.54 330.014 486.387 330.014C482.374 330.014 481 330.38 481 331.449ZM343.695 332.589C339.403 333.373 331.078 335.67 325.195 337.693C314.508 341.368 314.485 341.371 294.25 341.795L274 342.219V345.201V348.183L295.75 347.811C319.259 347.408 317.824 347.678 335 340.418C341.042 337.864 342.72 337.638 358.804 337.215L376.108 336.759L375.804 334.137L375.5 331.514L363.5 331.339C356.621 331.239 348.169 331.773 343.695 332.589ZM213.567 335.96C209.642 338.548 208.078 341.631 208.035 346.864C208.006 350.482 208.559 351.773 211.321 354.535C215.635 358.849 220.394 359.788 225.566 357.346C230.249 355.135 231.966 352.057 231.985 345.835C231.998 341.886 231.475 340.6 228.632 337.585C225.762 334.543 224.615 334.015 220.882 334.021C218.238 334.025 215.337 334.794 213.567 335.96ZM441.333 335.111C433.188 337.469 430.068 348.701 435.782 355.097C441.071 361.016 451.947 359.884 455.483 353.047C458.941 346.359 455.971 338.42 448.961 335.615C446.76 334.734 444.856 334.055 444.73 334.104C444.603 334.154 443.075 334.607 441.333 335.111ZM153.625 339.549C153.282 340.442 153.275 342.262 153.609 343.593C154.173 345.841 154.677 346.014 160.669 346.014H167.121L166.81 342.264L166.5 338.514L160.374 338.22C155.462 337.983 154.125 338.247 153.625 339.549ZM483 348.014C483 351.994 483.019 352.014 486.883 352.014C490.065 352.014 490.876 351.608 491.37 349.764C492.73 344.687 492.277 344.014 487.5 344.014H483V348.014ZM557.667 349.681C557.3 350.047 557 352.972 557 356.181V362.014H570.5H584V356.145V350.276L580.25 349.656C575.223 348.825 558.504 348.843 557.667 349.681ZM155.359 353.522C155.04 354.351 155.476 356.091 156.326 357.388C157.53 359.227 159.043 359.863 163.186 360.271C166.109 360.559 168.627 360.679 168.783 360.538C168.939 360.397 168.769 358.421 168.405 356.148L167.744 352.014H161.841C157.502 352.014 155.784 352.414 155.359 353.522ZM293.434 353.784L273.368 354.053L272.078 359.085C271.369 361.853 269.438 366.821 267.787 370.125C266.136 373.429 265.07 376.417 265.418 376.766C266.576 377.923 280.722 373.112 292.36 367.601C298.674 364.612 308.939 360.518 315.17 358.504C321.402 356.491 326.648 354.696 326.828 354.517C327.505 353.845 312.834 353.523 293.434 353.784ZM662 354.623C660.625 355.407 647.361 361.97 632.524 369.206C617.687 376.442 606.066 382.536 606.7 382.747C607.334 382.959 613.173 381.036 619.676 378.475C647.632 367.465 660.214 363.035 661.485 363.756C662.219 364.173 676.135 377.677 692.41 393.764C718.517 419.571 724 424.559 724 422.5C724 421.76 681.838 370.787 673 360.842C670.525 358.057 668.14 355.157 667.7 354.396C666.721 352.703 665.263 352.761 662 354.623ZM479.513 362.636C477.726 366.914 477.662 367.687 479.024 368.529C481.079 369.799 485.638 367.896 487.306 365.073C490.08 360.377 489.565 359.014 485.013 359.014C481.377 359.014 480.894 359.332 479.513 362.636ZM364 372.311C364 374.194 371.282 381.014 373.292 381.014C376.127 381.014 375.223 378.117 371.25 374.468C367.446 370.974 364 369.949 364 372.311ZM472.084 375.304C469.384 376.672 467.243 379.59 468.221 380.569C468.579 380.926 471.444 380.042 474.588 378.602C477.732 377.163 480.124 375.83 479.902 375.64C478.535 374.468 474.11 374.278 472.084 375.304ZM517.406 399.166C516.083 401.307 519.993 402.755 528.993 403.46C538.115 404.173 540 403.864 540 401.652C540 400.828 536.71 400.001 530.25 399.202C518.386 397.733 518.292 397.733 517.406 399.166ZM123.764 403.305C118.106 406.47 115.962 410.041 119.75 409.991C123.037 409.947 131.5 404.619 131.5 402.593C131.5 399.673 130.013 399.81 123.764 403.305ZM327.975 405.579C326.667 409.02 326.736 415.733 328.087 416.568C330.056 417.785 331.364 415.134 331.805 409.029C332.174 403.937 331.988 403.014 330.595 403.014C329.691 403.014 328.512 404.168 327.975 405.579ZM550.75 425.798C542.1 426.026 540 426.368 540 427.548C540 428.794 543.458 429.014 563 429.014C582.297 429.014 586 428.783 586 427.581C586 425.035 583.823 424.925 550.75 425.798ZM157.189 429.764C157.487 431.317 159.127 431.545 171.762 431.791C185.489 432.059 186 431.996 186 430.041C186 428.098 185.399 428.014 171.427 428.014C158.086 428.014 156.882 428.162 157.189 429.764ZM193.187 450.739C193.499 452.351 195.002 452.514 209.516 452.514C223.057 452.514 225.5 452.285 225.5 451.014C225.5 449.753 222.897 449.47 209.172 449.239C193.989 448.983 192.868 449.088 193.187 450.739ZM68.992 484.483C63.57 486.227 57.937 491.841 55.646 497.784C53.78 502.624 53.474 513.579 55.046 519.239C56.449 524.29 61.716 530.933 66.123 533.208C74.018 537.284 87.073 536.348 93.102 531.274C96.442 528.464 100 522.161 100 519.054C100 517.227 99.372 517.014 94 517.014C88.315 517.014 88 517.141 88 519.441C88 523.139 83.649 526.014 78.054 526.014C69.951 526.014 66 520.139 66 508.088C66 501.348 66.137 500.954 69.845 497.056C73.274 493.452 74.2 493.014 78.391 493.014C82.048 493.014 83.636 493.559 85.545 495.469C86.895 496.819 88 498.844 88 499.969C88 501.807 88.621 502.014 94.131 502.014H100.262L99.666 498.341C98.922 493.762 94.562 488.261 89.658 485.716C84.793 483.191 74.85 482.598 68.992 484.483ZM142.34 483.921C134.484 485.918 127.778 492.741 125.958 500.588C122.667 514.778 127.245 528.037 137.186 533.109C142.438 535.788 150.734 536.628 156.368 535.051C164.211 532.855 171 525.429 171 519.046C171 517.229 170.365 517.014 165 517.014C159.824 517.014 159 517.269 159 518.868C159 519.888 157.896 521.913 156.548 523.368C154.583 525.488 153.184 526.014 149.513 526.014C141.023 526.014 137 520.82 137 509.86C137 499.389 141.563 493.014 149.058 493.014C153.415 493.014 159 496.996 159 500.103C159 501.772 159.76 502.014 165 502.014C171.872 502.014 172.252 501.321 169.11 494.514C167.001 489.944 163.694 486.6 159.843 485.141C155.993 483.682 146.014 482.987 142.34 483.921ZM193.411 485.146C187.563 487.366 184.993 489.75 181.948 495.779C180.301 499.04 179.439 502.702 179.18 507.543C178.269 524.555 186.476 534.666 202.109 535.788C217.471 536.891 227.682 528.118 228.776 512.875C229.448 503.511 227.652 497.037 222.877 491.611C215.837 483.613 204.184 481.057 193.411 485.146ZM305.135 483.735C301.134 484.493 296.609 487.51 294.25 490.99C291.552 494.971 291.209 502.439 293.57 505.81C295.521 508.596 302.614 512.222 310.5 514.464C318.33 516.691 321 518.475 321 521.48C321 527.063 310.115 529.22 305.455 524.559C304.105 523.209 303 521.611 303 521.007C303 520.311 301.078 520.02 297.75 520.212C293.348 520.465 292.453 520.844 292.208 522.554C291.775 525.579 295.948 531.052 300.5 533.427C303.648 535.07 306.325 535.514 313.074 535.514C320.685 535.514 322.101 535.215 325.668 532.853C332.612 528.257 334.955 519.733 331.04 513.313C328.726 509.516 325.748 507.853 317 505.471C304.63 502.102 301.473 499.225 305.095 494.621C306.749 492.518 307.995 492.014 311.543 492.014C315.269 492.014 316.279 492.472 318.158 495.014C320.123 497.671 320.964 498.014 325.521 498.014C328.351 498.014 330.938 497.742 331.27 497.411C331.602 497.079 330.909 494.823 329.731 492.398C326.124 484.973 316.493 481.581 305.135 483.735ZM506.266 484.671C501.137 486.487 494.828 493.307 493.176 498.821C491.505 504.397 491.699 516.358 493.531 520.742C497.284 529.724 503.566 534.476 513.176 535.604C525.321 537.028 535.295 530.734 537.48 520.264L538.159 517.014H532.555C527.521 517.014 526.855 517.265 526.015 519.474C524.256 524.102 521.384 526.014 516.191 526.014C510.756 526.014 509.064 525.009 506.091 520.014C504.53 517.392 504.007 514.813 504.004 509.732C503.997 497.908 507.574 493.014 516.223 493.014C521.381 493.014 524.259 494.936 526.015 499.554C526.838 501.717 527.557 502.014 531.975 502.014C536.91 502.014 537 501.959 537 498.964C537 487.131 520.712 479.556 506.266 484.671ZM634.052 484.122C623.797 487.25 617.8 495.618 617.166 507.688C616.698 516.603 618.733 523.254 623.466 528.272C629.07 534.213 632.363 535.497 642 535.497C651.23 535.497 654.306 534.412 659.414 529.357C671.485 517.412 668.734 492.904 654.552 486.039C649.52 483.603 638.983 482.618 634.052 484.122ZM740.684 484.401C733.839 486.953 730 492.024 730 498.514C730 506.409 735.099 510.689 749 514.458C756.398 516.463 759 518.325 759 521.612C759 528.739 743.168 528.87 740.676 521.764C740.203 520.414 738.926 520.014 735.09 520.014C732.356 520.014 729.933 520.351 729.706 520.764C728.709 522.577 731.29 528.062 734.442 530.829C738.472 534.367 747.206 536.557 753.362 535.572C764.157 533.846 770 528.279 770 519.723C770 511.833 765.63 508.509 748.675 503.501C739.943 500.922 738.37 495.632 745.321 492.22C749.066 490.381 755.693 492.246 757.205 495.565C758.186 497.719 758.965 498.014 763.661 498.014C766.597 498.014 769 497.826 769 497.597C769 497.368 768.125 495.14 767.057 492.646C765.572 489.182 764.104 487.598 760.836 485.93C755.449 483.182 745.899 482.458 740.684 484.401ZM1.233 509.165L1.5 534.514L11.5 534.834C23.623 535.223 30.335 533.89 36.364 529.896C48.68 521.738 49.948 500.2 38.694 490.319C33.589 485.836 29.404 484.802 14.233 484.277L0.964996 483.817L1.233 509.165ZM238.981 484.514C238.971 484.789 238.955 496.152 238.944 509.764L238.926 534.514H244.213H249.5V518.764C249.5 510.102 249.725 503.027 250 503.043C250.462 503.07 258.881 516.134 261.749 521.275C262.436 522.507 264.686 525.989 266.749 529.014C270.496 534.508 270.506 534.514 276.25 534.814L282 535.114V509.564V484.014H276.525H271.05L270.775 500.152L270.5 516.29L260 500.176L249.5 484.062L244.25 484.038C241.363 484.025 238.992 484.239 238.981 484.514ZM338 488.514V493.014H345.5H353L353.102 496.764C353.158 498.827 353.376 508.164 353.585 517.514L353.966 534.514L359.462 534.813L364.959 535.113L365.23 514.313L365.5 493.514L372.75 493.22L380 492.926V488.47V484.014H359H338V488.514ZM388.45 485.284C388.182 485.982 388.084 497.345 388.231 510.534L388.5 534.514H393.867H399.234L399.367 526.014L399.5 517.514H403.914H408.327L413.764 526.264L419.201 535.014H424.934C428.087 535.014 430.924 534.757 431.239 534.442C431.553 534.128 430.141 531.315 428.101 528.192C426.061 525.069 423.456 520.993 422.313 519.135L420.234 515.756L424.617 511.556C428.906 507.447 429 507.218 429 500.918C429 492.093 426.096 487.714 418.806 485.549C412.131 483.567 389.186 483.366 388.45 485.284ZM439.175 503.764C439.476 522.065 439.662 523.774 441.701 527.052C445.137 532.577 451.088 535.39 459.481 535.458C472.691 535.564 479.603 530.668 481.988 519.514C482.576 516.764 482.932 507.764 482.779 499.514L482.5 484.514H477H471.5L471.347 501.898C471.185 520.403 470.631 522.95 466.343 524.904C463.081 526.39 456.752 526.313 454.837 524.764C450.39 521.165 450 519.272 450 501.291V484.014H444.425H438.85L439.175 503.764ZM544.014 486.244C544.05 492.255 544.837 493.014 551.035 493.014C560.644 493.014 560 491.458 560 514.671V535.114L565.51 534.814L571.019 534.514L571.153 515.014C571.227 504.289 571.496 494.952 571.751 494.264C572.064 493.417 574.618 493.014 579.664 493.014H587.115L586.807 488.764L586.5 484.514L565.25 484.244L544 483.974L544.014 486.244ZM596 509.514V535.014H601.5H607V509.514V484.014H601.5H596V509.514ZM676.45 485.284C676.182 485.982 676.084 497.345 676.231 510.534L676.5 534.514H682H687.5V518.763C687.5 510.1 687.818 503.125 688.208 503.263C688.597 503.401 691.072 507 693.708 511.26C696.343 515.52 700.75 522.61 703.5 527.014L708.5 535.022L714 534.768L719.5 534.514L719.767 509.264L720.034 484.014H714.542H709.05L708.775 500.264L708.5 516.514L703.5 508.921C700.75 504.745 696.025 497.445 693 492.699L687.5 484.07L682.219 484.042C678.85 484.024 676.761 484.474 676.45 485.284ZM14.25 493.624C13.328 494.035 13 498.228 13 509.597V525.014L19.25 525.01C30.542 525.004 35.752 519.24 34.723 507.894C34.117 501.218 32.095 497.761 27.524 495.592C23.875 493.861 16.256 492.731 14.25 493.624ZM196.73 495.004C192.523 498.325 191 502.16 191 509.43C191 520.644 195.297 526.014 204.269 526.014C212.38 526.014 217 519.856 217 509.046C217 499.025 213.043 493.928 204.735 493.247C200.451 492.895 198.997 493.215 196.73 495.004ZM399.415 494.376C399.127 495.125 399.029 498.388 399.196 501.626L399.5 507.514L405.572 507.807C412.937 508.163 416.724 506.869 417.979 503.569C419.29 500.122 417.38 495.109 414.312 493.943C410.441 492.471 400.03 492.774 399.415 494.376ZM634.855 494.708C630.942 497.137 629 502.091 629 509.647C629 520.705 633.28 526.147 642.16 526.379C649.701 526.577 654.996 519.685 654.998 509.665C655 503.064 652.988 497.936 649.238 494.987C646.112 492.528 638.603 492.383 634.855 494.708ZM171.306 558.659C170.556 560.615 172.446 562.44 174.433 561.678C176.675 560.818 176.368 558.343 173.939 557.708C172.648 557.371 171.664 557.726 171.306 558.659ZM333.701 557.646C333.316 558.032 333 564.797 333 572.681V587.014H335.527H338.053L337.777 572.277C337.545 559.91 337.251 557.491 335.951 557.242C335.099 557.079 334.087 557.26 333.701 557.646ZM344.224 572.186C344.455 585.021 344.744 587.514 346 587.514C347.267 587.514 347.5 585.182 347.5 572.527C347.5 558.963 347.331 557.507 345.724 557.198C344.074 556.882 343.967 557.956 344.224 572.186ZM618.688 557.66C618.309 558.038 618 564.797 618 572.681C618 586.41 618.085 587.014 620.027 587.014C621.983 587.014 622.044 586.503 621.777 572.346C621.518 558.653 620.854 555.494 618.688 557.66ZM0 572.478V587.014H9C13.95 587.014 18.338 587.094 18.75 587.193C19.162 587.291 19.642 586.637 19.815 585.738C20.079 584.367 18.952 584.057 12.815 583.809L5.5 583.514L5.19701 578.811L4.894 574.108L11.697 573.811C16.879 573.585 18.5 573.164 18.5 572.045C18.5 570.907 17.036 570.569 12 570.545L5.5 570.514L5.19501 566.309L4.88901 562.104L12.195 561.809C17.891 561.579 19.5 561.184 19.5 560.014C19.5 558.803 17.623 558.459 9.75 558.228L0 557.942V572.478ZM73.015 558.764C73.053 560.617 74.941 562.25 76.399 561.691C78.989 560.697 78.333 558.014 75.5 558.014C74.125 558.014 73.007 558.351 73.015 558.764ZM242 572.514V587.014H251.5C259.151 587.014 261 586.731 261 585.558C261 584.444 259.296 584.033 253.75 583.808L246.5 583.514V579.014V574.514L253.25 574.218C258.354 573.995 260 573.568 260 572.468C260 571.402 258.733 571.01 255.25 571C247.206 570.977 246 570.321 246 565.969V562.158L251.392 561.484C254.357 561.114 257.732 561.112 258.892 561.48C260.572 562.013 261 561.729 261 560.081C261 558.137 260.437 558.014 251.5 558.014H242V572.514ZM468 572.514V587.014H477.5C485.278 587.014 487 586.742 487 585.514C487 584.324 485.556 584.014 480 584.014H473V571.014V558.014H470.5H468V572.514ZM491.187 559.764C491.37 560.726 492.528 561.658 493.76 561.834C495.461 562.076 496 561.655 496 560.084C496 558.527 495.362 558.014 493.427 558.014C491.515 558.014 490.939 558.464 491.187 559.764ZM523.446 559.101C522.501 560.63 524.552 562.4 526.433 561.678C527.295 561.347 528 560.388 528 559.545C528 557.798 524.465 557.453 523.446 559.101ZM593 572.478V587.014H603C611.222 587.014 613 586.747 613 585.514C613 584.326 611.569 584.014 606.122 584.014C598.254 584.014 596.692 582.934 597.182 577.829L597.5 574.514L604.422 574.014C613.914 573.328 614.256 571.357 605.039 570.449C601.143 570.065 597.707 569.349 597.404 568.858C597.1 568.367 597.142 566.645 597.496 565.032C598.128 562.156 598.281 562.093 605.32 561.806C610.906 561.579 612.5 561.181 612.5 560.014C612.5 558.803 610.623 558.459 602.75 558.228L593 557.942V572.478ZM407.374 565.786C403.857 566.339 400.816 570.466 400.254 575.45C399.837 579.15 400.19 580.668 402.12 583.487C405.88 588.979 414.35 589.462 417.683 584.376C420.115 580.663 418 579.358 414.623 582.488C411.186 585.673 409.559 585.664 406.338 582.443C404.107 580.212 403.853 579.319 404.417 575.693C405.424 569.217 410.67 566.782 414.5 571.014C417.868 574.736 420.671 572.681 417.723 568.65C416.349 566.771 410.829 565.243 407.374 565.786ZM25.216 576.764C25.448 585.527 25.777 587.514 27 587.514C28.159 587.514 28.627 585.725 29.058 579.641C29.632 571.535 31.039 569.014 34.991 569.014C38.106 569.014 39 571.288 39 579.214C39 586.347 39.171 587.014 41 587.014C42.839 587.014 43 586.347 43 578.737C43 568.522 41.648 566.014 36.143 566.014C34.084 566.014 31.804 566.577 31.075 567.264C30.015 568.264 29.658 568.264 29.292 567.264C29.04 566.577 27.956 566.014 26.883 566.014C25.052 566.014 24.95 566.675 25.216 576.764ZM51.142 568.561C46.995 573.833 47.26 581.501 51.712 585.002C54.388 587.107 60.438 587.733 61.5 586.014C62.498 584.399 64 584.866 64 586.791C64 589.502 61.126 593.014 58.908 593.014C57.82 593.014 55.843 592.302 54.514 591.431C53.185 590.561 51.289 590.009 50.299 590.206C48.715 590.52 48.823 590.889 51.205 593.289C55.294 597.41 63.101 596.812 66.718 592.101C68.594 589.658 68.471 566.014 66.583 566.014C65.804 566.014 64.963 566.577 64.714 567.264C64.352 568.264 63.838 568.264 62.144 567.264C58.481 565.101 53.391 565.701 51.142 568.561ZM74.216 576.764C74.448 585.527 74.777 587.514 76 587.514C77.223 587.514 77.552 585.527 77.784 576.764C78.056 566.472 77.98 566.014 76 566.014C74.02 566.014 73.944 566.472 74.216 576.764ZM84.667 566.681C84.3 567.047 84 571.772 84 577.181C84 586.158 84.165 587.014 85.891 587.014C87.545 587.014 87.829 586.066 88.165 579.416C88.471 573.365 88.939 571.531 90.466 570.416C92.829 568.687 94.126 568.654 96.323 570.264C97.661 571.244 98.046 573.172 98.107 579.192C98.166 585.039 98.542 587.008 99.682 587.446C102.639 588.58 103.214 586.867 102.731 578.36C102.167 568.405 100.678 566.014 95.045 566.014C93.04 566.014 90.86 566.554 90.2 567.214C89.267 568.147 88.733 568.147 87.8 567.214C86.441 565.855 85.631 565.717 84.667 566.681ZM110.51 569.003C108.181 571.435 107.633 572.915 107.573 576.936C107.512 581.097 107.965 582.366 110.437 584.947C114.04 588.709 119.329 589.116 123.365 585.941C128.141 582.184 125.776 580.514 120.206 583.711C117.416 585.312 117.098 585.308 114.563 583.648C112.745 582.456 111.978 581.181 112.189 579.701C112.458 577.806 113.03 577.557 116.468 577.834C118.65 578.011 121.912 577.878 123.718 577.539C127.881 576.758 128.146 573.529 124.411 569.091C122.273 566.549 121.087 566.014 117.598 566.014C114.214 566.014 112.805 566.608 110.51 569.003ZM135.75 567.094C133.18 568.591 131 573.396 131 577.564C131 582.621 136.298 588.014 141.265 588.014C144.993 588.014 150 584.82 150 582.441C150 580.782 147.426 580.516 146.462 582.076C145.482 583.661 140.976 585.141 139.02 584.52C137.268 583.964 134.517 579.164 135.428 578.252C135.705 577.976 138.517 577.809 141.678 577.882C144.838 577.955 148.228 577.759 149.212 577.447C151.746 576.642 151.427 573.263 148.449 569.358C146.26 566.488 145.303 566.018 141.699 566.044C139.39 566.061 136.712 566.533 135.75 567.094ZM156 576.514C156 586.347 156.127 587.014 158 587.014C159.801 587.014 160.002 586.342 160.015 580.264C160.033 572.588 160.469 571.547 164.27 570.101C165.772 569.531 167 568.377 167 567.539C167 565.548 163.61 565.574 161.948 567.577C160.771 568.995 160.569 568.995 159.775 567.577C159.294 566.717 158.248 566.014 157.45 566.014C156.275 566.014 156 568.007 156 576.514ZM171.667 566.681C171.3 567.047 171 571.772 171 577.181C171 586.347 171.136 587.014 173 587.014C174.873 587.014 175 586.347 175 576.514C175 568.431 174.693 566.014 173.667 566.014C172.933 566.014 172.033 566.314 171.667 566.681ZM182 576.514C182 586.347 182.127 587.014 184 587.014C185.818 587.014 186 586.347 186 579.669C186 571.807 187.476 569.014 191.629 569.014C195.124 569.014 196 571.058 196 579.214C196 586.347 196.171 587.014 198 587.014C199.849 587.014 200 586.347 200 578.169C200 570.87 199.68 569.035 198.171 567.669C196.176 565.863 188 565.337 188 567.014C188 567.564 187.325 568.014 186.5 568.014C185.675 568.014 185 567.564 185 567.014C185 566.464 184.325 566.014 183.5 566.014C182.262 566.014 182 567.847 182 576.514ZM208.056 567.958C203.913 572.101 204.275 581.512 208.712 585.002C211.388 587.107 217.438 587.733 218.5 586.014C219.725 584.032 221.126 585.071 220.816 587.732C220.615 589.466 219.499 591.006 217.738 591.982C215.224 593.377 214.701 593.357 211.907 591.764C206.693 588.791 203.993 589.888 207.876 593.402C211.992 597.126 221.735 596.247 224.038 591.943C224.567 590.954 225 584.716 225 578.08C225 565.805 224.38 564.034 221.2 567.214C220.267 568.147 219.733 568.147 218.8 567.214C216.876 565.29 210.266 565.748 208.056 567.958ZM266 566.412C266 566.631 267.12 568.768 268.488 571.162C271.58 576.571 271.581 577.133 268.5 582.014C265.484 586.792 265.462 587.014 268 587.014C269.1 587.014 270.002 586.677 270.005 586.264C270.008 585.851 271.054 584.209 272.331 582.614L274.651 579.714L276.837 583.25C278.873 586.544 283 588.989 283 586.901C283 586.391 281.875 584.192 280.5 582.014C277.356 577.034 277.369 575.407 280.589 570.668C282.013 568.573 282.947 566.627 282.664 566.345C281.46 565.141 277.855 567.394 276.36 570.285L274.742 573.414L272.871 570.964C269.46 566.497 268.933 566.014 267.461 566.014C266.657 566.014 266 566.193 266 566.412ZM289.306 568.427C286.794 570.588 286.5 571.489 286.5 577.022C286.5 582.69 286.749 583.403 289.5 585.604C291.294 587.039 293.823 588.006 295.79 588.009C299.655 588.015 305 584.426 305 581.826C305 579.393 302.335 579.519 301 582.014C299.706 584.431 293.878 584.776 292.026 582.545C290.124 580.254 289.931 574.049 291.678 571.383C293.618 568.422 297.989 568.24 300.5 571.014C302.556 573.286 305 573.66 305 571.703C305 570.981 304.082 569.406 302.961 568.203C300.031 565.057 293.091 565.171 289.306 568.427ZM312.514 568.593C305.803 575.834 310.197 588.014 319.521 588.014C323.709 588.014 329.359 583.614 327.087 582.122C326.118 581.486 324.803 581.839 322.895 583.25C320.471 585.042 319.737 585.148 317.153 584.077C313.969 582.759 312.306 579.1 314.288 577.775C314.954 577.33 318.425 577.089 322 577.24C326.72 577.439 328.473 577.172 328.4 576.264C328.345 575.577 328.233 574.094 328.15 572.969C327.674 566.477 317.193 563.544 312.514 568.593ZM355.589 569.091C349.478 576.354 354.298 588.014 363.412 588.014C366.167 588.014 371 584.465 371 582.441C371 580.579 370.074 580.637 367.862 582.639C366.874 583.533 364.883 584.264 363.436 584.264C360.19 584.264 356.486 580.796 357.344 578.561C357.852 577.237 358.875 577.061 362.929 577.599C365.66 577.961 369.049 577.968 370.46 577.613C372.66 577.061 372.935 576.579 372.385 574.242C372.031 572.741 370.591 570.277 369.184 568.764C367.173 566.602 365.723 566.014 362.402 566.014C358.913 566.014 357.727 566.549 355.589 569.091ZM377.667 566.681C377.3 567.047 377 571.772 377 577.181C377 586.347 377.136 587.014 379 587.014C380.803 587.014 381 586.347 381 580.237C381 572.63 382.726 569.014 386.357 569.014C390.139 569.014 391 570.906 391 579.214C391 586.347 391.171 587.014 393 587.014C394.849 587.014 395 586.347 395 578.169C395 570.87 394.68 569.035 393.171 567.669C391.018 565.72 384.969 565.478 383.075 567.264C382.015 568.264 381.658 568.264 381.292 567.264C380.799 565.921 378.755 565.592 377.667 566.681ZM427.75 567.094C425.305 568.518 423 573.332 423 577.014C423 583.702 427.285 588.014 433.93 588.014C436.725 588.014 442 584.698 442 582.941C442 581.761 438.298 581.722 437.574 582.895C436.256 585.026 431.674 584.779 429.345 582.45C427.034 580.139 426.285 578.042 427.75 577.984C439.276 577.531 442.045 577.302 442.589 576.759C443.735 575.613 441.998 570.921 439.505 568.428C436.907 565.831 431.059 565.167 427.75 567.094ZM492 576.514C492 586.347 492.127 587.014 494 587.014C495.873 587.014 496 586.347 496 576.514C496 566.681 495.873 566.014 494 566.014C492.127 566.014 492 566.681 492 576.514ZM501 566.639C501 567.064 502.446 571.822 504.213 577.213C506.973 585.635 507.732 587.014 509.606 587.014C510.805 587.014 512.1 586.226 512.484 585.264C515.444 577.838 519.034 566.715 518.607 566.288C517.079 564.759 514.904 567.669 512.881 573.953C511.63 577.837 510.334 581.014 510.001 581.014C509.668 581.014 508.266 577.752 506.885 573.766C505.264 569.085 503.777 566.402 502.687 566.192C501.759 566.014 501 566.215 501 566.639ZM524 576.441C524 586.408 524.117 587.014 526.035 587.014C527.968 587.014 528.056 586.499 527.785 576.776C527.539 567.954 527.258 566.491 525.75 566.202C524.173 565.9 524 566.91 524 576.441ZM534 576.514C534 586.347 534.127 587.014 536 587.014C537.821 587.014 538 586.347 538 579.585C538 571.518 539.272 569.014 543.371 569.014C547.138 569.014 548 570.914 548 579.214C548 586.347 548.171 587.014 550 587.014C551.839 587.014 552 586.347 552 578.737C552 568.522 550.648 566.014 545.143 566.014C543.084 566.014 540.86 566.554 540.2 567.214C539.267 568.147 538.733 568.147 537.8 567.214C534.705 564.119 534 565.843 534 576.514ZM561.75 567.094C560.787 567.655 559.325 569.419 558.5 571.014C553.595 580.499 562.649 591.15 570.777 585.457C572.921 583.956 573 584.003 573 586.802C573 592.04 567.622 594.708 563.441 591.546C560.932 589.648 559 589.623 559 591.488C559 593.414 564.097 596.014 567.874 596.014C569.613 596.014 572.123 594.94 573.923 593.425L577 590.836V578.425C577 568.249 576.739 566.014 575.55 566.014C574.752 566.014 573.706 566.717 573.225 567.577C572.431 568.995 572.229 568.995 571.052 567.577C569.593 565.818 564.403 565.549 561.75 567.094ZM629.482 569.218C627.113 572.034 626.84 573.07 627.23 577.777C627.83 585.008 630.322 587.514 636.915 587.514C640.887 587.514 642.147 587.058 643.816 585.014C646.723 581.455 644.85 580.325 640.5 583.014C637.541 584.843 636.411 585.067 634.513 584.202C632.213 583.154 630.255 579.425 631.403 578.278C631.96 577.72 635.608 577.348 642.75 577.118C645.494 577.03 646 576.637 646 574.591C646 573.258 644.835 570.783 643.411 569.091C641.256 566.529 640.099 566.014 636.5 566.014C632.864 566.014 631.75 566.523 629.482 569.218ZM654.194 568.307C650.785 571.936 649.624 576.345 650.989 580.481C652.974 586.495 658.936 588.849 663.712 585.503C666.112 583.822 667.358 584.847 666.351 587.674C664.425 593.083 660.012 594.494 655.975 590.992C654.495 589.708 653.295 589.319 652.689 589.925C649.822 592.792 657.406 596.723 663.573 595.566C668.963 594.555 669.904 592.127 670.165 578.554C670.335 569.698 670.071 566.538 669.133 566.225C668.44 565.994 667.316 566.568 666.634 567.5C665.505 569.044 665.278 569.054 664.075 567.604C662.095 565.219 656.738 565.6 654.194 568.307ZM678.306 568.441C675.797 570.611 675.689 570.941 677.287 571.562C678.374 571.984 679.776 571.621 680.866 570.635C683.107 568.607 687.359 568.537 688.989 570.501C690.881 572.78 689.448 575.014 686.096 575.014C682.532 575.014 677.828 576.688 676.786 578.327C675.595 580.199 675.876 584.666 677.256 585.811C679.757 587.887 683.739 588.2 686.892 586.57C688.638 585.667 690 585.412 690 585.988C690 586.552 690.9 587.014 692 587.014C693.83 587.014 694 586.347 694 579.149C694 568.973 692.081 566.014 685.483 566.014C682.293 566.014 680.353 566.67 678.306 568.441ZM700 576.347C700 582.031 700.269 586.95 700.598 587.278C700.927 587.607 701.827 587.634 702.598 587.338C703.624 586.944 704 584.837 704 579.478C704 571.441 705.284 569.014 709.536 569.014C712.885 569.014 714 571.745 714 579.948C714 586.347 714.189 587.014 716 587.014C717.808 587.014 718 586.347 718 580.079C718 572.976 716.793 568.139 714.687 566.8C712.838 565.624 707.531 565.883 706.2 567.214C705.267 568.147 704.733 568.147 703.8 567.214C700.715 564.129 700 565.846 700 576.347ZM726.402 568.345C724.21 570.23 723.604 571.749 723.226 576.301C722.793 581.528 722.976 582.143 725.803 584.971C729.758 588.926 734.565 589.093 738.923 585.425C740.615 584.001 742 582.426 742 581.925C742 580.505 738.847 580.855 737.61 582.413C735.591 584.958 732.471 585.172 729.657 582.959C727.522 581.279 727 580.03 727 576.596C727 569.682 733.276 566.346 737.5 571.014C739.079 572.759 742 573.786 742 572.596C742 570.833 740.31 568.708 737.928 567.477C733.807 565.345 729.513 565.669 726.402 568.345ZM748.803 569.057C745.976 571.885 745.793 572.5 746.226 577.727C746.778 584.384 749.986 588.016 755.306 588.01C758.671 588.006 765 584.754 765 583.029C765 581.509 762.249 581.805 759.472 583.624C756.282 585.715 752.282 584.726 750.804 581.482C750.183 580.12 749.861 578.82 750.088 578.593C750.315 578.366 753.426 577.95 757 577.668C760.575 577.387 763.837 577.124 764.25 577.085C764.663 577.046 765 575.704 765 574.103C765 570.131 760.087 566.014 755.346 566.014C752.78 566.014 751.035 566.826 748.803 569.057ZM754 568.708C752.094 569.389 750 572.005 750 573.705C750 574.625 751.635 575.014 755.5 575.014C760.28 575.014 761 574.76 761 573.071C761 572.002 760 570.427 758.777 569.571C756.403 567.907 756.295 567.888 754 568.708ZM54.073 571.649C51.34 575.123 51.435 579.135 54.314 581.84C57.403 584.741 60.573 584.596 62.628 581.46C67.685 573.741 59.663 564.541 54.073 571.649ZM113.035 570.948C111.178 574.418 111.832 575.014 117.5 575.014C123.43 575.014 123.825 574.636 121.443 571.237C119.445 568.384 114.498 568.214 113.035 570.948ZM136.964 571.05C134.136 573.878 135.292 575.014 141 575.014C143.685 575.014 146.15 574.58 146.477 574.05C147.334 572.665 143.363 569.014 141 569.014C139.9 569.014 138.084 569.93 136.964 571.05ZM211.753 570.404C209.472 572.136 208.587 576.811 209.892 580.236C211.225 583.733 215.139 584.808 218.507 582.601C220.528 581.277 221 580.149 221 576.646C221 570.123 216.301 566.951 211.753 570.404ZM315.2 570.214C314.54 570.874 314 572.224 314 573.214C314 574.707 314.852 575.014 319 575.014C323.303 575.014 324 574.74 324 573.049C324 569.66 317.764 567.65 315.2 570.214ZM358.527 570.63C355.951 573.206 357.272 574.491 362.829 574.816C368.233 575.132 368.88 574.527 366.965 570.948C365.679 568.546 360.795 568.362 358.527 570.63ZM428.598 571.177C426.505 574.166 427.387 575.014 432.59 575.014C435.66 575.014 437.245 574.54 437.643 573.501C439.259 569.292 431.344 567.258 428.598 571.177ZM564.4 569.779C562.189 571.256 560.922 575.083 561.546 578.406C562.982 586.06 572.168 585.448 572.815 577.656C573.342 571.308 568.666 566.931 564.4 569.779ZM632.571 570.585C629.457 573.7 630.623 575.014 636.5 575.014C642.451 575.014 643.544 573.721 640.171 570.669C637.867 568.583 634.609 568.547 632.571 570.585ZM656.655 570.843C654.371 573.367 654.474 580.228 656.829 582.359C661.09 586.215 666 582.993 666 576.34C666 569.901 660.458 566.641 656.655 570.843ZM683.5 577.882C680.981 578.429 680.5 579.013 680.5 581.524C680.5 583.886 680.985 584.583 682.808 584.841C686.166 585.317 690.191 582.369 689.811 579.711C689.469 577.316 688.027 576.898 683.5 577.882ZM447.667 583.681C446.149 585.199 447.147 587.014 449.5 587.014C451.333 587.014 452 586.481 452 585.014C452 583.063 449.159 582.189 447.667 583.681ZM770.667 583.681C769.29 585.057 770.073 587.014 772 587.014C773.333 587.014 774 586.347 774 585.014C774 583.087 772.043 582.304 770.667 583.681Z" fill="#013B63"/>
</svg>
