<svg width="641" height="494" viewBox="0 0 641 494" fill="none" xmlns="http://www.w3.org/2000/svg">
<path fill-rule="evenodd" clip-rule="evenodd" d="M309.5 0.568605C280.175 2.82961 252.533 10.8706 225.5 25.0016C218.9 28.4516 210.575 33.3916 207 35.9796C203.425 38.5666 198.852 41.7736 196.839 43.1056C194.825 44.4366 189.65 48.8276 185.339 52.8616C171.142 66.1446 162.24 76.4186 153.467 89.6426C147.993 97.8956 133.479 112.584 130.781 112.602C129.824 112.609 127.512 114.943 125.569 117.864C123.649 120.751 119.81 126.465 117.039 130.56C114.267 134.656 112 138.445 112 138.982C112 139.518 111.295 140.736 110.432 141.689C108.474 143.853 105.834 156.105 106.637 159.305C106.982 160.68 108.734 162.456 110.78 163.505L114.325 165.324L114.476 173.219C114.585 178.935 115.23 182.46 116.813 185.991C118.346 189.411 119.003 192.848 119.009 197.491C119.028 212.247 122.976 243.863 124.952 245.084C125.36 245.337 126.883 244.302 128.337 242.785L130.979 240.026L129.48 231.57C127.785 222.011 126.325 199.614 127.396 199.614C127.783 199.614 129.388 200.281 130.964 201.095C136.756 204.09 143.642 204.015 156.5 200.814C163.1 199.171 170.975 197.527 174 197.161C177.025 196.794 180.4 195.917 181.5 195.211C182.6 194.505 187.121 193.653 191.546 193.318C195.971 192.982 200.358 192.414 201.296 192.054C204.234 190.927 203.158 189.616 199.25 189.562C195.55 189.51 195.53 189.488 197.75 187.94C201.372 185.413 200.405 184.614 193.723 184.614C185.238 184.614 184.857 184.317 168.053 164.614C164.066 159.939 156.732 151.692 151.756 146.288C141.135 134.754 140.253 137.455 159.203 123.481C183.113 105.85 183.697 105.485 190.48 103.938C194.237 103.081 198.332 101.337 200.347 99.7356C203.184 97.4806 205.528 96.7756 213.645 95.7366C219.065 95.0426 228.225 93.8236 234 93.0266C239.775 92.2306 253.229 90.4846 263.898 89.1466C285.01 86.5006 285.939 86.5916 291.739 91.8946C293.682 93.6706 293.902 94.6176 293.399 99.0276C292.673 105.395 293.924 108.691 298.345 112.064C305.111 117.224 314.005 115.934 318.114 109.194C320.745 104.88 320.649 96.3986 317.918 91.9816C316.774 90.1296 315.46 88.6136 315 88.6136C314.54 88.6136 312.326 86.9646 310.082 84.9496C306.74 81.9496 306 80.6326 306 77.6836C306 66.4446 294.127 60.1236 285.178 66.5976C282.627 68.4436 280.207 68.5446 234 68.7456C196.177 68.9086 184.751 69.2506 182.096 70.2976C180.225 71.0356 178.531 71.4786 178.334 71.2806C178.137 71.0836 180.91 67.9436 184.497 64.3036C212.396 35.9896 255.124 15.3406 298 9.45261C310.271 7.76661 342.036 7.8036 353 9.5156C404.348 17.5346 446.101 40.9966 478.636 80.1136C487.038 90.2156 488.365 92.5936 489.107 98.8876C489.847 105.168 492.071 108.54 497.248 111.234C503.423 114.446 513.705 142.081 518.056 167.159C519.864 177.581 520.312 184.025 520.345 200.114C520.389 221.434 519.37 229.712 514.375 248.613C510.266 264.165 497.291 295.08 494.027 297.097C493.328 297.529 493 276.61 493 231.673V165.614H474H455V127.736C455 97.4426 454.734 89.6376 453.67 88.7546C452.806 88.0376 444.146 87.5576 428.92 87.3826L405.5 87.1136L405.23 65.3636L404.961 43.6136H374.98H345V82.6596V121.705L351.75 121.41L358.5 121.114L359 116.614C359.487 112.233 359.593 112.114 363 112.114C366.472 112.114 366.502 112.152 366.807 116.925C367.099 121.49 367.251 121.72 369.793 121.425C371.662 121.208 372.5 120.509 372.565 119.114C372.868 112.588 372.852 112.614 376.5 112.614H380V119.914C380 123.959 380.498 127.712 381.118 128.332C382.197 129.411 382.144 130.937 380.363 149.864C379.868 155.125 379.617 155.614 377.411 155.614C375.694 155.614 375 156.171 375 157.549C375 160.785 376.862 164.614 378.436 164.614C379.614 164.614 379.982 166.41 380.211 173.283C380.487 181.556 380.614 181.987 383 182.696C384.375 183.105 388.708 184.375 392.628 185.518C401.564 188.125 406.065 192.388 408.974 201.002C411.67 208.987 411.751 233.394 409.116 244.114L407.396 251.114L411.677 256.197C414.032 258.993 417.202 263.943 418.722 267.197C421.258 272.625 421.487 274.108 421.493 285.135C421.503 301.889 418.684 307.614 410.427 307.614C407.95 307.614 407.95 307.612 409.641 304.364C411.919 299.988 413.925 290.339 413.953 283.614C414.002 272.077 409.726 263.002 401.773 257.762L398.203 255.41L400.157 250.992C402.936 244.709 403.963 237.053 404.028 222.13C404.09 207.728 402.97 202.456 398.713 197.121C395.631 193.259 388.396 190.223 379.772 189.173L374.043 188.476L372.074 181.795C370.99 178.12 368.872 169.117 367.366 161.788C364.388 147.296 364.5 146.663 370.05 146.629C371.453 146.621 373.14 146.074 373.8 145.414C375.042 144.172 375.477 133.02 374.393 130.196C373.85 128.78 368.031 128.614 318.952 128.614C284.367 128.614 263.895 128.974 263.515 129.59C262.424 131.354 261.73 140.36 262.406 143.964C263.009 147.177 263.406 147.525 266.784 147.806C271.639 148.208 271.818 149.679 268.614 162.815C267.233 168.479 265.368 176.376 264.471 180.364L262.84 187.614L257.17 187.629C254.051 187.638 250.96 187.988 250.3 188.407C249.64 188.827 246.223 199.259 242.706 211.59C239.19 223.921 235.823 234.173 235.225 234.372C233.75 234.864 228.365 232.222 216.762 225.311L207.025 219.512L200.762 221.442C136.372 241.285 136.638 241.184 129.817 248.282C119.805 258.7 117.086 273.725 121.2 295.895C121.79 299.074 122.064 301.883 121.809 302.138C121.555 302.392 117.781 301.309 113.423 299.731C89.573 291.093 64.528 297.732 45.436 317.755C37.878 325.68 33.94 331.43 28.507 342.465C22.428 354.814 21.555 357.914 23.195 361.336L24.526 364.114L105.513 364.614C197.337 365.181 184.279 363.962 209.5 374.32C238.812 386.359 266.715 391.421 297.45 390.276C328.927 389.104 351.041 384.065 381.5 371.125C387 368.789 393.885 366.368 396.799 365.746C400.555 364.944 433.242 364.614 509.014 364.614C615.567 364.614 615.933 364.607 617.02 362.576C618.525 359.764 617.758 357.975 612.26 351.472C601.593 338.853 573.057 304.614 567.258 297.476C559.011 287.322 555.679 284.614 551.431 284.614C549.073 284.614 540.538 288.338 523.837 296.654C510.538 303.276 499.051 308.564 498.311 308.404C497.358 308.199 498.068 306.219 500.746 301.614C510.991 283.999 520.033 260.042 524.524 238.614C526.722 228.121 527.23 222.581 527.687 204.114C528.172 184.48 527.994 180.716 526.032 169.114C522.951 150.897 519.869 139.636 514.038 125.304C511.267 118.492 509 112.625 509 112.267C509 111.908 520.72 111.614 535.045 111.614H561.091L563.545 109.159C567.041 105.664 566.803 101.468 562.923 98.2026C561.231 96.7786 559.291 95.6136 558.611 95.6136C557.932 95.6136 556.358 94.2366 555.114 92.5536C551.907 88.2166 547.167 85.6216 542.443 85.6176C538.764 85.6136 538.085 85.1876 535.172 81.0556C527.331 69.9316 510.872 69.9016 502.839 80.9966C500.15 84.7106 496.746 87.4836 494.757 87.5786C494.349 87.5976 491.469 84.1256 488.357 79.8636C475.181 61.8126 449.043 38.9786 428.071 27.1966C392.233 7.0636 349.557 -2.52039 309.5 0.568605ZM498.04 51.0656C496.157 53.3346 497.184 56.1136 499.905 56.1136C503.059 56.1136 504.846 53.3376 503.07 51.1976C501.432 49.2236 499.608 49.1756 498.04 51.0656ZM359 67.1136V75.7346L362.75 75.4236L366.5 75.1136V67.1136V59.1136L362.75 58.8036L359 58.4926V67.1136ZM372.444 59.8986C372.146 60.6766 372.036 64.4176 372.201 68.2126L372.5 75.1136L376.291 75.4266L380.083 75.7396L379.791 67.4266L379.5 59.1136L376.243 58.7996C374.129 58.5956 372.796 58.9816 372.444 59.8986ZM385.444 59.8986C385.146 60.6766 385.036 64.4176 385.201 68.2126L385.5 75.1136H389H392.5V67.1136V59.1136L389.243 58.7996C387.129 58.5956 385.796 58.9816 385.444 59.8986ZM123.011 67.1006C122.303 67.9536 122.046 69.6596 122.407 71.1006C122.929 73.1796 123.637 73.6136 126.5 73.6136C129.363 73.6136 130.071 73.1796 130.593 71.1006C131.364 68.0266 129.564 65.6136 126.5 65.6136C125.26 65.6136 123.69 66.2826 123.011 67.1006ZM291 70.3226C287.882 71.4696 286 74.0176 286 77.0946C286 83.4016 293.68 86.9336 298 82.6136C303.215 77.3986 297.768 67.8346 291 70.3226ZM223.5 74.3716C214.15 74.5136 205.94 74.8366 205.256 75.0886C204.274 75.4496 204.267 76.1056 205.221 78.1996C206.42 80.8306 206.499 80.8486 214.465 80.2596C218.884 79.9336 234.135 79.3626 248.357 78.9916C276.318 78.2626 280.5 77.8176 280.5 75.5726C280.5 74.0406 265.76 73.7296 223.5 74.3716ZM289.93 75.1976C288.041 77.4736 290.01 80.1136 293.595 80.1136C295.57 80.1136 296.581 79.5496 296.819 78.3156C297.586 74.3316 292.544 72.0486 289.93 75.1976ZM182.763 76.1786C176.265 79.7046 175.544 87.9156 181.26 93.2826C185.512 97.2746 187.413 97.8486 192.153 96.5726C196.929 95.2866 199.991 90.8716 199.996 85.2636C200.002 79.7676 194.814 74.5966 189.35 74.6536C187.233 74.6756 184.268 75.3616 182.763 76.1786ZM511.924 79.8866C508.948 81.8916 507.815 83.4796 504.985 89.6136C504.604 90.4386 502.81 91.3386 500.998 91.6136C494.35 92.6226 492.167 99.7806 497.025 104.639C498.903 106.517 500.461 106.614 528.8 106.614C549.973 106.614 558.934 106.28 559.753 105.461C561.425 103.789 559.443 100.618 556.715 100.599C553.845 100.579 552.724 99.7166 551.275 96.4166C549.279 91.8696 545.748 90.2506 539.444 90.9916C534.732 91.5446 533.865 91.3856 533.377 89.8756C530.932 82.3156 525.327 77.6136 518.762 77.6136C516.813 77.6136 513.819 78.6086 511.924 79.8866ZM186.415 81.3786C184.119 82.9326 183.184 85.9236 184.258 88.2806C186.263 92.6816 192.355 92.4406 194.084 87.8926C195.875 83.1836 190.497 78.6156 186.415 81.3786ZM359.667 85.2806C358.659 86.2876 358.867 101.414 359.897 102.051C360.391 102.356 362.191 102.326 363.897 101.985L367 101.364V92.9886V84.6136H363.667C361.833 84.6136 360.033 84.9136 359.667 85.2806ZM372.667 85.2806C371.586 86.3616 371.906 101.438 373.024 102.129C373.588 102.477 375.388 102.468 377.024 102.109L380 101.455V93.0346V84.6136H376.667C374.833 84.6136 373.033 84.9136 372.667 85.2806ZM385.446 85.8936C385.149 86.6676 385.04 90.6336 385.203 94.7076L385.5 102.114H389H392.5V93.6136V85.1136L389.243 84.7996C387.135 84.5966 385.796 84.9816 385.446 85.8936ZM163.864 93.2396C153.056 102.757 147.051 109.96 151.275 108.339C152.75 107.773 167.65 97.1956 170.25 94.8696C172.091 93.2216 172.622 89.1156 171.114 88.1836C170.626 87.8826 167.364 90.1576 163.864 93.2396ZM303.329 94.1176C299.994 95.5196 299 97.2706 299 101.744C299 105.341 303.193 109.614 306.723 109.614C309.831 109.614 315 104.493 315 101.413C315 95.7536 308.742 91.8416 303.329 94.1176ZM303.571 98.1846C300.551 101.206 302.289 105.614 306.5 105.614C309.18 105.614 311 103.794 311 101.114C311 96.9026 306.592 95.1646 303.571 98.1846ZM414.667 104.281C414.3 104.647 414 108.472 414 112.781V120.614H418.908H423.816L423.748 113.364C423.711 109.376 423.247 105.552 422.718 104.864C421.71 103.556 415.818 103.129 414.667 104.281ZM433.714 104.233C433.321 104.626 433 108.472 433 112.781V120.614H437.54H442.081L441.79 112.364L441.5 104.114L437.964 103.816C436.02 103.653 434.107 103.84 433.714 104.233ZM140 113.614C138.079 115.535 137.349 117.614 138.596 117.614C139.756 117.614 145 113.464 145 112.546C145 110.916 142.072 111.542 140 113.614ZM387.709 112.342L384.918 112.755L385.209 120.434L385.5 128.114H389H392.5V120.197C392.5 111.931 392.334 111.658 387.709 112.342ZM525.695 117.734C524.268 118.557 524.136 119.074 525.067 120.195C526.027 121.352 530.918 121.614 551.563 121.614C576.653 121.614 579.971 121.185 577.095 118.309C575.576 116.79 528.248 116.261 525.695 117.734ZM99.245 129.769C97.23 131.784 97.725 136.397 100.093 137.664C104.81 140.188 110.058 135.122 107.296 130.709C106.045 128.71 100.905 128.109 99.245 129.769ZM581.446 129.701C580.265 131.612 582.61 132.77 588.634 133.25C594.975 133.755 597.649 132.746 596.677 130.215C596.195 128.959 594.561 128.614 589.09 128.614C585.148 128.614 581.826 129.086 581.446 129.701ZM414 139.169V147.724L418.75 147.419L423.5 147.114L423.806 141.156C424.293 131.675 423.757 130.614 418.481 130.614H414V139.169ZM433 139.171V147.729L437.25 147.421L441.5 147.114L441.79 138.864L442.081 130.614H437.54H433V139.171ZM277.25 137.276C276.563 137.554 276 138.611 276 139.625C276 142.484 283.572 142.967 317.427 142.268C333.967 141.927 350.538 141.64 354.25 141.631C360.2 141.616 361 141.39 361 139.721C361 138.68 360.288 137.555 359.418 137.221C357.53 136.496 279.052 136.549 277.25 137.276ZM385.667 138.281C385.3 138.647 385 142.724 385 147.341V155.735L388.75 155.424L392.5 155.114L392.788 146.991C393.063 139.258 392.967 138.838 390.788 138.254C387.807 137.456 386.485 137.462 385.667 138.281ZM128.958 150.164C127.904 151.435 127.927 151.946 129.086 153C131.753 155.425 154.309 175.113 159.861 179.864C165.002 184.262 168 185.725 168 183.837C168 182.073 164.543 178.455 152.927 168.063C146.196 162.041 138.638 155.201 136.131 152.864C131.018 148.096 130.757 147.997 128.958 150.164ZM275.202 158.364C274.031 163.727 271.047 177.339 268.57 188.614C262.676 215.447 262.556 216.37 263.938 224.322C265.811 235.105 265.965 235.614 267.369 235.614C268.343 235.614 268.874 232.954 269.351 225.675C269.709 220.209 271.153 209.521 272.56 201.925C278.799 168.237 281.983 150.495 281.993 149.364C281.997 148.951 280.949 148.614 279.665 148.614C277.524 148.614 277.154 149.423 275.202 158.364ZM285.94 160.864C284.699 167.602 282.925 176.939 281.999 181.614C281.073 186.289 280.474 190.306 280.668 190.541C280.862 190.776 282.259 189.782 283.773 188.332C286.293 185.917 287.324 185.671 296.012 185.405L305.5 185.114L305.773 166.864L306.045 148.614H297.12H288.196L285.94 160.864ZM315.459 149.862C315.179 150.591 315.074 158.821 315.225 168.151L315.5 185.114H324.5H333.5V167.114V149.114L324.734 148.825C318.165 148.608 315.84 148.868 315.459 149.862ZM342 166.603C342 180.174 342.311 184.78 343.25 185.092C343.938 185.321 348.694 185.644 353.82 185.811L363.139 186.114L362.492 180.614C362.136 177.589 360.854 169.264 359.643 162.114L357.442 149.114L349.721 148.822L342 148.53V166.603ZM414 166.169V174.724L418.75 174.419L423.5 174.114L423.79 165.864L424.081 157.614H419.04H414V166.169ZM433 166.171V174.729L437.25 174.421L441.5 174.114L441.79 165.864L442.081 157.614H437.54H433V166.171ZM385.209 172.801L385.5 181.114H389H392.5V173.114V165.114L388.709 164.801L384.917 164.488L385.209 172.801ZM552 170.614C552 171.164 552.45 171.614 553 171.614C553.55 171.614 554 171.164 554 170.614C554 170.064 553.55 169.614 553 169.614C552.45 169.614 552 170.064 552 170.614ZM461 185.614V190.614H472H483V185.614V180.614H472H461V185.614ZM414.209 192.808L414.5 201.114H419H423.5V193.114V185.114L418.709 184.808L413.917 184.501L414.209 192.808ZM433.21 192.855L433.5 201.095L437.75 201.39L442 201.685V193.149V184.614H437.46H432.919L433.21 192.855ZM252.576 194.364C252.224 195.876 249.647 205.605 246.85 215.982C241.495 235.851 241.475 237.012 246.5 236.37C248.252 236.146 248.576 235.122 249.113 228.114C249.451 223.714 251.093 215.164 252.763 209.114C257.432 192.202 257.513 191.614 255.188 191.614C253.86 191.614 253.008 192.511 252.576 194.364ZM313.699 192.248C313.315 192.633 313 193.997 313 195.281C313 197.531 313.286 197.614 321 197.614C328.311 197.614 329 197.785 329 199.597C329 201.516 328.171 201.589 303.25 201.847L277.5 202.114L277.183 204.347L276.865 206.58L302.669 206.847C326.231 207.091 328.502 207.265 328.807 208.847C329.115 210.451 327.17 210.6 302.82 210.847L276.5 211.114L276.18 213.364L275.861 215.614H302.43C328.26 215.614 329 215.669 329 217.598C329 219.52 328.17 219.59 302.25 219.848C276.255 220.106 275.5 220.17 275.5 222.114C275.5 224.058 276.255 224.122 302.32 224.38C327.152 224.627 329.115 224.775 328.794 226.38C328.496 227.868 327.171 228.119 319.473 228.148C277.828 228.304 274 228.511 274 230.614C274 232.558 274.717 232.618 299.75 232.766C331.053 232.951 328.404 232.76 328.81 234.866C329.124 236.495 327.311 236.614 302.132 236.614C287.274 236.614 274.885 236.991 274.601 237.451C274.316 237.911 274.765 239.261 275.598 240.451C277.09 242.58 277.548 242.614 304.934 242.614C327.316 242.614 332.978 242.345 333.896 241.239C334.697 240.274 334.957 232.762 334.768 215.989L334.5 192.114L324.449 191.831C318.922 191.676 314.084 191.863 313.699 192.248ZM340.42 192.744C340.118 193.232 340.13 194.447 340.446 195.444C340.919 196.933 342.225 197.288 347.761 197.432C354.825 197.616 369.887 199.426 371.222 200.251C371.65 200.516 372 209.465 372 220.138C372 238.3 372.124 239.61 373.934 240.579C374.998 241.148 376.123 241.614 376.434 241.614C376.745 241.614 377 233.05 377 222.583C377 206.031 377.209 203.471 378.606 202.935C379.489 202.596 383.662 203.06 387.879 203.966C392.096 204.873 395.863 205.614 396.251 205.614C398.061 205.614 394.374 200.545 391.611 199.235C386.765 196.937 370.306 194.441 345.734 192.276C343.113 192.045 340.721 192.256 340.42 192.744ZM87.518 196.239C84.078 199.679 87.391 204.486 92.345 203.242C95.543 202.44 95.973 198.805 93.171 196.269C90.874 194.19 89.574 194.183 87.518 196.239ZM461 203.614V208.614H472H483V203.614V198.614H472H461V203.614ZM341.104 202.528C340.337 203.014 339.985 204.133 340.323 205.013C340.799 206.255 342.402 206.614 347.469 206.614C353.769 206.614 354 206.525 354 204.114C354 201.735 353.721 201.615 348.25 201.629C345.087 201.638 341.872 202.042 341.104 202.528ZM387.25 211.299C386.012 211.549 385 212.397 385 213.184C385 214.265 386.463 214.614 391 214.614C395.667 214.614 397 214.281 397 213.114C397 212.289 396.212 211.608 395.25 211.6C394.288 211.593 392.6 211.42 391.5 211.216C390.4 211.012 388.488 211.05 387.25 211.299ZM414 219.114V227.614H418.905H423.81L423.422 219.864C423.208 215.602 423.026 211.777 423.016 211.364C423.007 210.951 420.975 210.614 418.5 210.614H414V219.114ZM433.714 211.233C433.321 211.626 433 215.472 433 219.781V227.614H437.54H442.081L441.79 219.364L441.5 211.114L437.964 210.816C436.02 210.653 434.107 210.84 433.714 211.233ZM340.667 212.281C340.3 212.647 340 213.547 340 214.281C340 215.265 341.833 215.614 347 215.614C353.333 215.614 354 215.424 354 213.614C354 211.825 353.333 211.614 347.667 211.614C344.183 211.614 341.033 211.914 340.667 212.281ZM460.761 220.864C460.514 223.201 460.493 225.451 460.715 225.864C460.937 226.277 466.041 226.614 472.059 226.614H483V221.614V216.614H472.105H461.21L460.761 220.864ZM385.667 220.281C383.979 221.968 385.455 222.614 391 222.614C395.667 222.614 397 222.281 397 221.114C397 219.968 395.741 219.614 391.667 219.614C388.733 219.614 386.033 219.914 385.667 220.281ZM340.19 223.364C340.47 224.816 341.631 225.114 347 225.114C352.369 225.114 353.53 224.816 353.81 223.364C354.105 221.829 353.268 221.614 347 221.614C340.732 221.614 339.895 221.829 340.19 223.364ZM195 231.125C188.125 232.926 179.575 235.298 176 236.397C172.425 237.495 168.6 238.624 167.5 238.906C160.584 240.678 144.223 245.964 141.841 247.196C132.162 252.201 149.152 252.562 159.5 247.571C171.722 241.677 203.267 233.682 208.377 235.184C209.544 235.527 214.804 238.239 220.065 241.211C225.325 244.183 230.163 246.614 230.815 246.614C233.012 246.614 232.022 243.673 229.25 241.969C227.738 241.039 222.675 237.739 218 234.635C213.325 231.531 209.05 228.735 208.5 228.421C207.95 228.106 201.875 229.323 195 231.125ZM385.712 228.236C383.973 229.974 385.417 230.614 391.083 230.614C395.503 230.614 397.054 230.272 396.755 229.364C396.308 228.008 386.9 227.047 385.712 228.236ZM340.5 231.614C339.206 233.708 341.338 234.614 347.559 234.614C353.333 234.614 354 234.407 354 232.614C354 230.821 353.333 230.614 347.559 230.614C344.016 230.614 340.84 231.064 340.5 231.614ZM461 239.614V244.614H472H483V239.614V234.614H472H461V239.614ZM387.25 236.324C382.78 237.177 385.134 238.614 391 238.614C394.333 238.614 397 238.17 397 237.614C397 237.064 395.912 236.614 394.582 236.614C393.252 236.614 391.564 236.452 390.832 236.254C390.099 236.057 388.488 236.088 387.25 236.324ZM414 245.614V253.614H418.5H423V245.614V237.614H418.5H414V245.614ZM433 245.614V253.614H437.5H442V245.614V237.614H437.5H433V245.614ZM345 244.502C335.925 246.552 330.28 250.841 325.576 259.258C321.399 266.731 316.928 283.834 318.842 285.017C319.339 285.324 320.748 282.771 321.972 279.345C327.62 263.536 333.508 255.437 342.212 251.503C346.667 249.491 349.076 249.117 357.5 249.131C366.363 249.145 368.447 249.515 375.835 252.381C384.584 255.774 387 256.26 387 254.627C387 253.036 379.669 248.86 372.829 246.556C365.962 244.243 351.026 243.14 345 244.502ZM168.409 250.62C161.205 253.471 151.594 262.494 147.841 269.928C139.736 285.985 145.806 309.459 159.389 314.581C163.787 316.239 163.704 315.101 159.057 310.06C156.727 307.532 153.683 302.979 152.293 299.942C150.057 295.06 149.813 293.418 150.181 285.767C150.526 278.584 151.091 276.208 153.504 271.778C159.566 260.652 167.387 255.683 180.127 254.862C190.813 254.174 196.814 256.298 203.731 263.215C211.147 270.631 213.353 275.982 213.377 286.614C213.399 296.767 210.753 303.635 204.142 310.585C201.862 312.982 200.192 315.139 200.431 315.378C201.419 316.366 208.203 313.257 210.861 310.599C214.424 307.036 217.839 299.887 219.296 292.94C222.453 277.888 213.27 259.883 198.604 252.367C193.256 249.626 191.324 249.2 183 248.922C175.303 248.665 172.534 248.988 168.409 250.62ZM214.953 254.527C215.516 255.579 216.431 256.591 216.986 256.777C217.541 256.962 240.046 256.993 266.998 256.845C315.09 256.582 316 256.54 316 254.595C316 252.646 315.174 252.614 264.965 252.614C215.015 252.614 213.951 252.655 214.953 254.527ZM460.824 254.831C460.646 256.087 460.663 258.591 460.863 260.397L461.226 263.679L471.863 263.397L482.5 263.114V258.114V253.114L471.824 252.831C461.371 252.554 461.141 252.596 460.824 254.831ZM547 254.531C547 255.759 547.646 256.614 548.573 256.614C549.505 256.614 550.015 255.934 549.823 254.947C549.337 252.438 547 252.094 547 254.531ZM132.046 255.614C131.23 256.16 129 260.139 129 261.048C129 261.359 132.415 261.614 136.59 261.614C143.238 261.614 144.412 261.335 146.056 259.364C147.089 258.126 147.948 256.812 147.967 256.443C148.006 255.654 133.142 254.88 132.046 255.614ZM350.275 256.268C344.354 258.364 336.951 265.382 333.533 272.136C330.94 277.261 330.643 278.831 330.682 287.202C330.731 297.517 332.053 300.923 336.691 302.687C340.118 303.989 340.329 303.571 338.281 299.526C336.113 295.243 335.386 283.07 336.992 277.947C339.835 268.882 347.388 260.979 356.199 257.85C358.84 256.912 361 255.8 361 255.379C361 254.141 354.841 254.651 350.275 256.268ZM392.25 261.834C391.012 262.431 390 263.268 390 263.694C390 265.173 395.282 268.614 397.553 268.614C403.589 268.614 404.014 266.022 398.533 262.634C394.827 260.344 395.234 260.395 392.25 261.834ZM67.035 264.548C64.629 269.044 67.236 273.614 72.206 273.614C75.292 273.614 77.25 271.479 77.25 268.114C77.25 264.512 75.236 262.614 71.413 262.614C69.132 262.614 67.742 263.228 67.035 264.548ZM222.015 264.364C222.071 267.109 224.187 267.508 239.813 267.717C255.765 267.93 259.19 267.348 257.554 264.701C256.785 263.457 221.99 263.127 222.015 264.364ZM433 272.114V280.614H437.5H442V272.114V263.614H437.5H433V272.114ZM126.578 270.16C125.613 274.005 126.551 274.614 133.442 274.614C139.156 274.614 139.825 274.397 140.37 272.364C141.587 267.821 141.315 267.614 134.108 267.614C127.558 267.614 127.185 267.74 126.578 270.16ZM178.692 268.682C166.433 270.678 159.69 283.594 165.005 294.902C170.972 307.595 188.059 309.27 196.652 298.003C198.843 295.131 199.506 293.038 199.828 287.971C200.184 282.376 199.911 281.078 197.657 277.672C194.657 273.138 189.568 269.085 186 268.388C184.625 268.119 181.337 268.252 178.692 268.682ZM361.5 270.113C356.992 271.703 351.582 277.454 349.914 282.429C347.5 289.625 352.142 300.052 359.302 303.518C367.706 307.586 376.452 305.607 382.368 298.298C388.256 291.023 386.663 278.406 379.208 273.277C372.122 268.402 368.291 267.717 361.5 270.113ZM470.5 271.568C460.947 272.09 460.485 272.219 460.167 274.466C459.984 275.759 460.109 277.912 460.445 279.249C461.049 281.659 461.152 281.679 471.777 281.398L482.5 281.114V276.197C482.5 273.493 482.05 271.222 481.5 271.151C480.95 271.08 476 271.267 470.5 271.568ZM397 274.164C397 275.761 400.223 280.612 401.276 280.6C405.225 280.556 407 279.284 407 276.497C407 273.704 406.844 273.614 402 273.614C399.25 273.614 397 273.861 397 274.164ZM280.5 276.212C277.2 277.016 271.125 278.838 267 280.261C260.472 282.513 257.322 282.917 242.7 283.379C226.341 283.896 225.908 283.965 226.2 286.012C226.492 288.059 226.97 288.114 244.5 288.111L262.5 288.109L271 284.196L279.5 280.284L295.308 279.86C310.827 279.444 311.11 279.397 310.808 277.275C310.514 275.209 309.971 275.106 298.5 274.933C290.782 274.816 284.359 275.273 280.5 276.212ZM177.781 277.717C173.322 280.011 172 282.208 172 287.326C172 292.407 174.202 295.322 179.02 296.619C185.826 298.452 192.022 293.681 191.978 286.641C191.95 282.305 189.606 279.149 185 277.249C181.82 275.937 181.16 275.98 177.781 277.717ZM365.5 277.333C355.344 279.807 355.464 295.297 365.654 297.209C371.824 298.366 378 293.59 378 287.66C378 283.931 375 279.512 371.466 278.035C369.595 277.254 367.937 276.666 367.782 276.73C367.627 276.794 366.6 277.065 365.5 277.333ZM126.494 281.623C126.152 282.178 126.162 283.55 126.519 284.672C127.078 286.436 127.868 286.672 132.333 286.413C137.14 286.135 137.522 285.922 137.816 283.364C138.128 280.659 138.044 280.614 132.625 280.614C129.596 280.614 126.837 281.068 126.494 281.623ZM399.933 284.864C399.895 285.001 399.674 286.576 399.441 288.364C399.035 291.474 399.163 291.614 402.4 291.614C405.191 291.614 405.895 291.168 406.422 289.068C407.277 285.662 406.458 284.614 402.941 284.614C401.323 284.614 399.97 284.727 399.933 284.864ZM461 294.614V299.614H472H483V294.614V289.614H472H461V294.614ZM128 292.871C128 295.57 130.699 297.828 134.831 298.583C139.679 299.47 140.205 299.035 139.14 295.028C138.426 292.341 137.961 292.09 133.183 291.812C129.329 291.587 128 291.859 128 292.871ZM226.329 293.864C225.825 294.552 224.573 297.589 223.547 300.614C222.521 303.639 221.078 307.002 220.341 308.087C218.457 310.858 218.66 311.614 221.285 311.614C224.519 311.614 233.78 308.229 246 302.581C251.775 299.912 259.425 296.951 263 296.002C266.575 295.052 269.927 293.902 270.45 293.445C270.972 292.988 261.465 292.614 249.322 292.614C232.816 292.614 227.014 292.929 226.329 293.864ZM526.674 304.07C514.12 310.282 503.32 315.904 502.674 316.562C501.493 317.767 502.907 317.261 528.5 307.336C536.2 304.349 543.523 301.581 544.774 301.185C546.757 300.556 550.112 303.501 571.091 324.287C603.824 356.72 605.642 357.526 581.977 329.114C574.19 319.764 565.722 309.67 563.159 306.682C560.597 303.695 556.925 299.309 555 296.936C553.075 294.563 551.05 292.656 550.5 292.698C549.95 292.74 539.228 297.857 526.674 304.07ZM396.485 300.643C394.659 304.174 395.215 305.614 398.404 305.614C401.209 305.614 404 302.707 404 299.785C404 298.044 403.412 297.614 401.026 297.614C398.726 297.614 397.696 298.301 396.485 300.643ZM81.5 305.955C63.193 310.712 47.473 324.467 37.545 344.416C35.045 349.439 33 353.788 33 354.081C33 355.861 35.251 353.768 39.864 347.7C57.932 323.934 78.979 310.686 101.5 308.904L109.5 308.27L106 306.826C101.199 304.844 87.631 304.362 81.5 305.955ZM301.339 308.174C300.593 310.116 305.654 315.614 308.187 315.614C311.048 315.614 310.313 313.096 306.465 309.718C302.397 306.145 302.146 306.07 301.339 308.174ZM388.494 312.62C387.496 313.724 386.939 314.886 387.256 315.204C387.89 315.838 397 312.067 397 311.17C397 309.64 390.132 310.811 388.494 312.62ZM428.409 330.761C427.257 332.626 429.403 333.404 437.633 334.107C445.757 334.801 449.134 333.782 445.278 331.801C442.53 330.388 429.149 329.564 428.409 330.761ZM101.75 334.306C97.315 336.775 95.902 338.817 97.812 339.998C99.123 340.808 109 334.714 109 333.094C109 330.982 107.174 331.287 101.75 334.306ZM271.323 335.214C270.167 338.228 270.423 344.885 271.713 345.334C273.026 345.791 274.106 342.583 274.348 337.512C274.515 334.007 272.402 332.402 271.323 335.214ZM447 354.114C447 355.395 449.778 355.614 466 355.614C482.222 355.614 485 355.395 485 354.114C485 352.833 482.222 352.614 466 352.614C449.778 352.614 447 352.833 447 354.114ZM130 356.146C130 357.45 131.733 357.636 141.668 357.396C149.906 357.197 153.459 356.746 153.752 355.864C154.068 354.91 151.305 354.614 142.083 354.614C131.898 354.614 130 354.855 130 356.146ZM160.696 372.251C158.772 374.176 161.07 374.614 173.083 374.614C183.105 374.614 186.07 374.321 185.752 373.364C185.298 371.998 161.985 370.962 160.696 372.251ZM58.5 400.514C51.821 402.19 47.359 406.649 45 414.004C43.54 418.558 44.353 429.477 46.452 433.493C50.127 440.526 57.761 444.228 66.685 443.307C75.451 442.402 81.228 437.666 82.167 430.614C82.478 428.279 82.212 428.114 78.147 428.114C74.422 428.114 73.592 428.506 72.387 430.834C70.612 434.265 68.109 435.614 63.518 435.614C56.69 435.614 52.784 427.772 54.514 417.534C56.244 407.291 67.28 404.502 72.003 413.114C73.314 415.504 74.422 416.179 77.456 416.432C82.405 416.846 83.129 415.931 81.518 411.298C79.99 406.905 77.572 403.955 74.002 402.129C70.711 400.445 62.275 399.566 58.5 400.514ZM117.646 400.736C112.611 401.899 108.691 404.765 105.821 409.382C103.836 412.576 103.501 414.433 103.501 422.269C103.5 430.99 103.645 431.604 106.558 435.205C111.635 441.48 114.348 442.978 121.461 443.431C129.251 443.927 135.281 441.446 138.75 436.317C142.127 431.324 141.745 428.976 137.424 428.166C133.697 427.467 131 428.732 131 431.18C131 433.363 126.803 435.614 122.732 435.614C115.73 435.614 112.107 429.231 113.267 418.937C114.053 411.967 116.651 409.177 122.69 408.817C127.876 408.509 129.136 409.247 131.49 413.971C132.313 415.623 133.468 416.114 136.529 416.114C140.409 416.114 140.496 416.037 140.337 412.719C139.926 404.182 128.607 398.205 117.646 400.736ZM163.138 400.669C153.359 402.639 148.044 410.191 148.044 422.114C148.044 435.804 154.221 442.722 167.096 443.45C175.806 443.942 181.515 441.436 185.601 435.327C190.467 428.055 190.059 414.686 184.753 407.498C180.572 401.833 171.534 398.978 163.138 400.669ZM421.073 400.29C417.905 400.955 413.998 403.5 411.5 406.527C408.596 410.044 407.164 415.23 407.077 422.548C406.932 434.712 413.133 442.153 424.383 443.314C434.427 444.351 443.762 438.558 444.299 430.955C444.488 428.29 444.236 428.095 440.247 427.806C436.583 427.541 435.872 427.818 435.112 429.806C433.513 433.988 430.592 435.767 425.885 435.426C419.748 434.983 417 430.804 417 421.916C417 411.875 419.825 408.191 427.363 408.405C430.391 408.491 435 412.042 435 414.288C435 415.193 436.43 415.614 439.5 415.614C443.942 415.614 444 415.571 444 412.249C444 408.393 441.142 404.256 436.998 402.113C433.903 400.513 424.912 399.483 421.073 400.29ZM522.5 401.513C510.167 407.265 506.214 423.732 514.29 435.716C517.802 440.928 523.347 443.578 530.782 443.598C538.577 443.618 542.774 441.925 546.683 437.182C555.658 426.294 552.742 408.186 541.038 402.134C536.345 399.707 527.041 399.395 522.5 401.513ZM613.371 400.701C611.651 401.2 608.838 403.045 607.121 404.801C604.484 407.499 604 408.754 604 412.903C604 419.554 607.124 422.404 618.327 425.973C627.036 428.747 628.775 430.297 626.968 433.675C624.819 437.69 617.525 437.363 613.55 433.074C611.16 430.495 604.755 429.584 603.483 431.641C602.614 433.047 605.93 438.48 609.097 440.84C612.46 443.347 622.368 444.296 627.604 442.613C632.5 441.04 634.791 439.049 636.549 434.842C639.531 427.706 635.591 421.643 626.351 419.15C623.133 418.282 618.93 416.794 617.012 415.843C610.63 412.68 612.192 407.614 619.55 407.614C622.951 407.614 624.268 408.139 625.821 410.114C627.349 412.055 628.705 412.614 631.894 412.614C635.309 412.614 636 412.283 636 410.649C636 407.595 630.515 402.085 626.182 400.787C621.677 399.437 617.821 399.411 613.371 400.701ZM1 421.486V442.614L10.75 442.608C22.982 442.601 27.49 441.36 32.131 436.718C38.793 430.057 39.923 417.63 34.6 409.586C30.559 403.479 25.086 401.378 11.75 400.813L1 400.357V421.486ZM197.23 421.864L197.5 443.114L201.75 443.421L206 443.729L206.045 429.921C206.096 413.954 205.16 413.821 216.197 431.364L223.275 442.614H228.138H233V421.614V400.614H228.529H224.058L223.779 413.864L223.5 427.114L219.694 421.614C217.6 418.589 213.653 412.627 210.922 408.364L205.956 400.614H201.458H196.96L197.23 421.864ZM246.68 403.185C242.18 406.243 240.664 409.664 241.532 414.802C242.391 419.889 246.415 423.083 255.317 425.744C263.819 428.285 265 429.081 265 432.261C265 433.92 264.206 434.965 262.435 435.639C257.937 437.349 254.947 436.769 252 433.614C249.882 431.346 248.312 430.614 245.567 430.614C240.789 430.614 240.102 432.659 243.271 437.447C246.175 441.836 250.779 443.623 259.116 443.598C271.45 443.56 278.737 433.748 273.285 424.519C271.585 421.641 267.837 419.78 259.5 417.674C252.195 415.829 249.028 411.986 252.2 408.814C254.402 406.612 260.861 407.361 263.412 410.114C265.164 412.004 266.738 412.614 269.865 412.614C274.384 412.614 274.741 411.948 272.52 407.653C269.675 402.151 266.526 400.614 258.097 400.614C251.547 400.614 249.928 400.979 246.68 403.185ZM279.864 401.083C279.606 401.342 279.58 403.142 279.807 405.083L280.219 408.614H286.109H292V425.509V442.404L296.25 442.853C298.587 443.1 300.837 443.121 301.25 442.899C301.663 442.677 302 434.873 302 425.555V408.614H308H314V404.614V400.614H297.167C287.908 400.614 280.122 400.825 279.864 401.083ZM321.23 421.678L321.5 442.949L325.5 442.952L329.5 442.956L330 436.035L330.5 429.114L334.104 428.812C337.594 428.52 337.843 428.733 341.969 435.562L346.229 442.614H351.593H356.957L352.478 435.237C347.584 427.175 347.265 426.11 349.494 425.255C354.135 423.474 356.434 413.288 353.483 407.581C350.88 402.548 346.935 401.226 333.23 400.794L320.96 400.407L321.23 421.678ZM363.022 415.864C363.055 439.143 365.621 443.114 380.628 443.114C389.528 443.114 392.145 441.975 396.438 436.233C398.289 433.757 398.532 431.793 398.817 417.044L399.135 400.614H394.567H390V415.659C390 430.3 389.934 430.771 387.545 433.159C384.335 436.37 377.967 436.568 375.15 433.545C372.512 430.713 372 427.371 372 412.989V400.614H367.5H363L363.022 415.864ZM450.667 401.281C450.3 401.647 450 403.426 450 405.233V408.519L456.25 408.816L462.5 409.114L462.774 425.757L463.047 442.401L466.774 442.857C473.141 443.635 473 444.029 473 425.507V408.614H479H485V404.614V400.614H468.167C458.908 400.614 451.033 400.914 450.667 401.281ZM493 421.614V442.614H497.5H502V421.614V400.614H497.5H493V421.614ZM561.248 401.439C559.78 402.371 558.383 431.015 559.457 438.173L560.123 442.614H564.561H569L569.059 429.364C569.106 418.715 569.351 416.482 570.309 417.988C570.964 419.018 574.711 424.868 578.635 430.988L585.769 442.114L590.905 442.417L596.041 442.72L595.77 421.917L595.5 401.114H591H586.5L586 414.114L585.5 427.114L580.541 419.114C571.536 404.587 568.241 400.612 565.218 400.629C563.723 400.638 561.937 401.002 561.248 401.439ZM10.667 409.281C10.3 409.647 10 415.497 10 422.281V434.614H15.05C24.401 434.614 28 430.911 28 421.289C28 415.135 26.166 411.999 21.401 410.008C17.911 408.55 11.811 408.137 10.667 409.281ZM160.818 411.642C157.876 414.584 157.801 414.893 158.152 422.62C158.444 429.051 158.913 430.972 160.605 432.664C165.527 437.585 174.483 436.449 177.552 430.514C179.443 426.857 179.407 417.303 177.49 413.594C175.563 409.869 173.17 408.614 167.989 408.614C164.711 408.614 163.214 409.246 160.818 411.642ZM330.406 410C330.113 410.762 330.015 413.349 330.187 415.75L330.5 420.114L335.841 420.419C344.607 420.921 348.483 416.604 344.443 410.837C343.13 408.962 341.952 408.614 336.912 408.614C332.743 408.614 330.777 409.033 330.406 410ZM524.226 410.618C519.215 415.287 518.958 427.784 523.77 432.864C526.812 436.076 533.078 436.649 536.783 434.053C543.306 429.485 543.817 417.331 537.759 410.864C534.927 407.841 527.355 407.703 524.226 410.618ZM3.25 462.427L0 462.741V474.677V486.614H8C14.444 486.614 16 486.322 16 485.114C16 483.967 14.736 483.614 10.622 483.614C4.688 483.614 2.639 482.185 3.173 478.419C3.458 476.411 4.199 476.05 8.922 475.614C16.506 474.915 16.766 472.803 9.316 472.416C3.557 472.117 3.497 472.082 3.187 468.864C2.902 465.916 3.134 465.603 5.687 465.496C7.234 465.43 8.902 465.452 9.394 465.543C11.406 465.918 16.082 464.361 15.769 463.42C15.422 462.381 9.01 461.872 3.25 462.427ZM60.5 462.614C59.663 463.968 60.792 465.614 62.559 465.614C63.352 465.614 64 464.714 64 463.614C64 461.544 61.587 460.854 60.5 462.614ZM141.19 463.364C141.376 464.326 142.19 465.114 143 465.114C143.81 465.114 144.624 464.326 144.81 463.364C145.046 462.136 144.506 461.614 143 461.614C141.494 461.614 140.954 462.136 141.19 463.364ZM199.935 461.775C199.899 461.961 199.812 467.514 199.741 474.114L199.612 486.114L207.806 486.404C214.535 486.643 216 486.428 216 485.202C216 484.07 214.492 483.638 209.75 483.412L203.5 483.114L203.19 479.364L202.879 475.614H208.94C213.567 475.614 215 475.271 215 474.164C215 473.1 213.469 472.634 209.25 472.414C203.565 472.117 203.496 472.077 203.187 468.864C202.843 465.304 202.822 465.314 211 465.185C214.279 465.133 215.5 464.712 215.5 463.63C215.5 462.477 213.775 462.068 207.75 461.791C203.488 461.596 199.971 461.589 199.935 461.775ZM275.892 465.864C275.508 481.045 275.888 486.118 277.433 486.437C278.79 486.717 279 485.072 279 474.187C279 463.678 278.754 461.614 277.5 461.614C276.419 461.614 275.97 462.801 275.892 465.864ZM284 474.114C284 485.621 284.158 486.73 285.75 486.421C287.307 486.118 287.489 484.759 287.404 474.097C287.322 463.794 287.076 462.069 285.654 461.791C284.185 461.504 284 462.885 284 474.114ZM387.667 462.281C387.3 462.647 387 468.272 387 474.781V486.614H395C401.444 486.614 403 486.322 403 485.114C403 483.947 401.667 483.614 397 483.614H391V472.614C391 464.114 390.697 461.614 389.667 461.614C388.933 461.614 388.033 461.914 387.667 462.281ZM406.5 462.614C405.663 463.968 406.792 465.614 408.559 465.614C409.352 465.614 410 464.714 410 463.614C410 461.544 407.587 460.854 406.5 462.614ZM433.173 463.273C433.594 465.462 436.5 465.771 436.5 463.628C436.5 462.81 435.672 461.982 434.659 461.787C433.323 461.53 432.916 461.937 433.173 463.273ZM491 474.323V486.614H499C505.444 486.614 507 486.322 507 485.114C507 483.95 505.679 483.614 501.107 483.614C494.838 483.614 494 482.955 494 478.032C494 475.743 494.321 475.614 500 475.614C504.575 475.614 506 475.27 506 474.164C506 473.1 504.469 472.634 500.25 472.414C494.594 472.119 494.5 472.065 494.5 469.114C494.5 466.175 494.62 466.104 500.422 465.614C503.884 465.322 506.515 464.595 506.755 463.864C507.165 462.62 505.35 462.345 495.25 462.125L491 462.033V474.323ZM511 474.187C511 485.623 511.158 486.73 512.75 486.425C514.282 486.132 514.539 484.567 514.811 473.852C515.11 462.06 515.046 461.614 513.061 461.614C511.089 461.614 511 462.157 511 474.187ZM20.667 469.281C20.3 469.647 20 473.697 20 478.281C20 485.947 20.16 486.614 22 486.614C23.791 486.614 24 485.947 24 480.236C24 473.258 25.248 471.228 29.195 471.787C31.327 472.09 31.522 472.657 31.794 479.364C32.019 484.91 32.43 486.614 33.544 486.614C35.913 486.614 35.59 472.458 33.171 470.269C31.09 468.385 26.929 468.085 25.313 469.701C24.53 470.484 24.038 470.484 23.554 469.701C22.791 468.467 21.647 468.3 20.667 469.281ZM42.15 470.683C35.908 477.384 41.298 488.732 49.281 485.697C52.391 484.515 53.569 485.682 52.078 488.468C50.698 491.047 47.566 491.699 45.046 489.934C43.9 489.131 42.189 488.624 41.243 488.806C39.721 489.099 39.781 489.395 41.761 491.375C45.058 494.672 51.18 494.472 53.927 490.979C55.687 488.742 56 486.939 56 479.038C56 470.006 54.872 466.585 52.93 469.728C52.256 470.818 51.83 470.844 50.842 469.856C48.928 467.942 44.293 468.383 42.15 470.683ZM61 477.614C61 484.947 61.278 486.614 62.5 486.614C63.722 486.614 64 484.947 64 477.614C64 470.281 63.722 468.614 62.5 468.614C61.278 468.614 61 470.281 61 477.614ZM69.667 469.281C69.3 469.647 69 473.73 69 478.354C69 485.814 69.197 486.723 70.745 486.425C72.132 486.157 72.545 484.878 72.755 480.192C73.061 473.387 74.289 471.392 77.914 471.813C80.398 472.102 80.512 472.399 80.794 479.364C81.019 484.91 81.43 486.614 82.544 486.614C83.681 486.614 84 485.068 84 479.548C84 470.719 82.973 468.614 78.665 468.614C76.869 468.614 74.804 469.177 74.075 469.864C73.015 470.864 72.658 470.864 72.292 469.864C71.788 468.49 70.7 468.248 69.667 469.281ZM91.051 471.276C89.899 472.741 88.69 475 88.365 476.296C87.631 479.22 89.67 484.367 92.071 485.652C95.175 487.313 100.543 486.776 102.506 484.608C104.698 482.185 103.673 480.713 100.968 482.402C98.328 484.05 94.505 483.928 93.028 482.148C90.797 479.46 92.39 478.326 98.549 478.218C104.296 478.118 104.489 478.028 104.168 475.614C103.533 470.823 101.286 468.614 97.05 468.614C94.012 468.614 92.68 469.205 91.051 471.276ZM112.229 469.283C110.3 470.059 108 475.132 108 478.61C108 485.432 117.28 489.334 122.083 484.531C124.93 481.684 123.795 481.009 119.547 483.024C115.477 484.956 112 483.851 112 480.627C112 478.973 112.86 478.668 118.25 478.412C124.276 478.125 124.488 478.024 124.161 475.614C123.438 470.295 117.52 467.154 112.229 469.283ZM129 477.614C129 484.947 129.278 486.614 130.5 486.614C131.682 486.614 132 485.215 132 480.027C132 473.627 132.085 473.408 135 472.308C136.65 471.685 138 470.599 138 469.895C138 468.245 134.312 468.218 133.708 469.864C133.342 470.864 132.985 470.864 131.925 469.864C129.425 467.505 129 468.631 129 477.614ZM141.447 473.118C140.751 477.757 141.309 485.256 142.433 486.38C144.084 488.031 145.062 484.189 144.795 477.099C144.454 468.043 142.548 465.777 141.447 473.118ZM150 477.687C150 485.791 150.187 486.724 151.75 486.421C153.187 486.141 153.507 484.97 153.538 479.863C153.568 474.883 153.966 473.35 155.538 472.161C158.038 470.271 158.516 470.273 160.429 472.185C161.535 473.292 162 475.681 162 480.259C162 485.792 162.248 486.713 163.668 486.437C166.055 485.975 165.702 471.727 163.258 469.864C161.281 468.357 157.556 468.246 154.995 469.617C153.743 470.287 152.916 470.287 152.502 469.617C150.803 466.868 150 469.457 150 477.687ZM173.229 469.283C171.573 469.95 169 474.959 169 477.517C169 483.46 175.347 488.104 180.037 485.594C182.638 484.202 183.395 484.793 182.525 487.536C181.67 490.229 177.752 491.168 173.949 489.593C170.12 488.007 169.236 488.85 171.917 491.531C175.371 494.985 183.015 494.072 184.878 489.982C186.302 486.858 186.365 469.957 184.956 469.087C184.382 468.732 183.297 468.952 182.545 469.576C181.605 470.356 180.975 470.383 180.53 469.663C179.867 468.59 175.513 468.364 173.229 469.283ZM220.022 469.864C220.034 470.552 220.924 472.239 222 473.614C224.525 476.842 224.49 477.429 221.5 481.829C218.604 486.091 218.487 486.614 220.432 486.614C221.219 486.614 222.825 485.264 224 483.614C225.175 481.964 226.459 480.614 226.852 480.614C227.246 480.614 228.366 481.964 229.341 483.614C230.316 485.264 231.763 486.614 232.557 486.614C234.491 486.614 234.375 485.372 232.17 482.499C229.09 478.484 228.978 476.925 231.505 473.202C234.722 468.461 232.623 467.174 228.971 471.649L226.245 474.989L224.597 471.802C222.98 468.674 219.978 467.403 220.022 469.864ZM239.235 470.61C236.041 473.586 235.376 478.858 237.692 482.839C239.232 485.486 240.323 486.174 243.375 486.429C247.508 486.773 252 484.514 252 482.091C252 480.16 249.381 480.178 248.638 482.114C247.78 484.351 242.297 484.038 241.035 481.68C238.008 476.023 242.11 468.997 246.933 471.578C248.07 472.187 249 473.119 249 473.649C249 474.18 249.675 474.614 250.5 474.614C252.743 474.614 252.309 471.944 249.777 470.171C246.703 468.018 241.798 468.222 239.235 470.61ZM258.725 470.366C254.535 474.995 254.545 482.031 258.746 485.219C261.464 487.282 267.39 486.946 269.506 484.608C272.001 481.851 270.557 480.854 267.059 482.92C263.85 484.816 261.454 484.331 259.926 481.476C258.313 478.461 259.628 477.72 265.514 478.328L271 478.894V475.754C271 473.947 270.151 471.765 269 470.614C266.488 468.102 260.895 467.967 258.725 470.366ZM294.073 471.249C291.132 474.987 291.252 481.563 294.314 484.44C297.333 487.275 303.014 487.361 305.506 484.608C307.8 482.073 306.733 480.883 303.648 482.535C300.672 484.127 297.018 483.615 295.637 481.412C294.067 478.906 295.204 478.388 302.062 478.484L308.241 478.571L307.618 475.343C306.32 468.624 298.093 466.138 294.073 471.249ZM312 477.697C312 484.517 312.312 486.678 313.25 486.369C313.993 486.124 314.703 483.44 315.001 479.749C315.525 473.244 316.819 471.388 320.5 471.858C322.197 472.075 322.635 473.219 323.393 479.4C324.491 488.358 326.377 488.516 326.8 479.686C327.164 472.093 325.397 468.614 321.177 468.614C319.65 468.614 317.86 469.154 317.2 469.814C316.267 470.747 315.733 470.747 314.8 469.814C312.449 467.463 312 468.729 312 477.697ZM333.174 470.928C330.284 474.005 330.234 480.371 333.073 483.979C335.802 487.449 341.93 487.679 344.961 484.425C346.082 483.222 347 481.872 347 481.425C347 480.061 344.321 480.523 343 482.114C342.315 482.939 340.449 483.614 338.853 483.614C336.617 483.614 335.714 482.992 334.92 480.903C332.314 474.05 338.126 468.703 343.195 473.29C346.057 475.88 347.846 473.46 345.1 470.714C342.138 467.752 336.055 467.862 333.174 470.928ZM352.073 471.249C350.817 472.845 350 475.354 350 477.614C350 483.134 353.121 486.614 358.073 486.614C360.806 486.614 362.68 485.934 364.239 484.375C366.294 482.32 366.329 482.108 364.664 481.788C363.667 481.596 362.062 482.153 361.097 483.026C360.132 483.9 358.833 484.614 358.21 484.614C356.97 484.614 353 480.697 353 479.473C353 479.053 355.813 478.575 359.25 478.412C364.681 478.153 365.539 477.844 365.794 476.055C365.956 474.923 365.136 472.786 363.972 471.305C360.999 467.527 355.023 467.498 352.073 471.249ZM407 477.614C407 484.947 407.278 486.614 408.5 486.614C409.722 486.614 410 484.947 410 477.614C410 470.281 409.722 468.614 408.5 468.614C407.278 468.614 407 470.281 407 477.614ZM414 468.839C414 469.043 415.331 473.013 416.958 477.662C420.851 488.784 422.483 488.953 426.187 478.614C429.298 469.932 429.492 468.614 427.658 468.614C426.887 468.614 425.544 471.165 424.5 474.614C423.501 477.914 422.342 480.614 421.925 480.614C421.508 480.614 420.304 478.027 419.25 474.864C418.071 471.326 416.693 468.99 415.667 468.791C414.75 468.613 414 468.634 414 468.839ZM433.667 469.281C433.3 469.647 433 473.697 433 478.281C433 484.87 433.302 486.614 434.441 486.614C436.834 486.614 437.166 484.946 436.438 476.6C435.782 469.081 435.256 467.691 433.667 469.281ZM442 477.614C442 484.947 442.278 486.614 443.5 486.614C444.676 486.614 445 485.242 445 480.269C445 475.286 445.411 473.552 446.917 472.189C448.428 470.822 449.265 470.685 450.871 471.545C452.558 472.448 452.96 473.794 453.205 479.365C453.454 485.053 453.794 486.149 455.402 486.456C457.177 486.795 457.265 486.307 456.725 479.157C456.406 474.942 455.607 470.846 454.95 470.054C453.548 468.364 447.881 468.133 446.313 469.701C445.53 470.484 445.038 470.484 444.554 469.701C442.805 466.872 442 469.367 442 477.614ZM463.635 470.687C459.935 473.597 459.874 480.579 463.517 484.222C464.982 485.687 466.758 486.537 467.767 486.255C468.72 485.99 470.513 485.482 471.75 485.126C473.511 484.62 474 484.885 474 486.347C474 490.297 469.124 491.958 465.032 489.402C463.964 488.735 462.76 488.521 462.355 488.926C461.018 490.263 464.658 492.758 468.746 493.307C474.326 494.055 476.968 491.38 477.085 484.864C477.216 477.605 476.878 469.16 476.44 468.721C476.225 468.506 475.403 468.865 474.613 469.52C473.635 470.332 472.972 470.377 472.53 469.663C471.447 467.91 466.43 468.488 463.635 470.687ZM521.089 470.749C517.324 474.79 517.497 480.969 521.488 484.959C523.854 487.325 530.231 487.122 532.506 484.608C535.042 481.805 533.534 480.867 529.922 483.001C527.132 484.649 526.723 484.662 524.453 483.175C520.032 480.279 521.305 478.614 527.941 478.614C534.499 478.614 535.458 477.949 534.091 474.353C531.842 468.439 525.007 466.544 521.089 470.749ZM542.229 469.283C540.573 469.95 538 474.959 538 477.517C538 481.002 540.161 484.438 543.124 485.665C545.494 486.647 546.421 486.568 548.494 485.21C550.921 483.62 551 483.641 551 485.891C551 490.455 546.986 491.961 542.557 489.06C539.504 487.059 538.073 488.932 540.557 491.677C543.025 494.404 550.038 494.334 552.551 491.557C554.014 489.942 554.502 487.46 554.829 479.98C555.267 469.972 554.418 467.192 551.631 469.505C550.643 470.325 549.971 470.376 549.53 469.663C548.867 468.59 544.513 468.364 542.229 469.283ZM561.571 470.185C558.131 473.625 560.088 474.592 564.969 471.864C567.979 470.181 568.154 470.187 569.518 472.011C571.427 474.566 570.633 475.489 565.876 476.25C561.394 476.967 559 478.834 559 481.614C559 485.135 561.655 486.529 568.023 486.352L574 486.187V479.055C574 473.417 573.617 471.578 572.171 470.269C569.855 468.173 563.633 468.124 561.571 470.185ZM579 477.828C579 484.971 579.28 486.614 580.5 486.614C581.654 486.614 582 485.329 582 481.048C582 474.294 583.271 471.614 586.476 471.614C589.615 471.614 589.952 472.296 590.682 480.107C591.487 488.73 593.403 488.152 593.798 479.166C594.197 470.106 592.94 468.655 584.891 468.878L579 469.041V477.828ZM600.073 471.249C598.817 472.845 598 475.354 598 477.614C598 483.134 601.121 486.614 606.073 486.614C609.884 486.614 614 484.018 614 481.614C614 480.168 611.912 480.386 610.079 482.024C608.535 483.402 606.637 483.97 604.371 483.732C603.751 483.667 602.683 482.264 602 480.614C600.606 477.25 601.995 472.214 604.592 471.217C606.418 470.516 609.188 471.578 610.683 473.552C611.576 474.731 612.151 474.832 613.033 473.964C615.049 471.978 610.672 468.614 606.073 468.614C603.021 468.614 601.683 469.201 600.073 471.249ZM619.455 471.069C616.29 474.233 616.113 480.217 619.073 483.979C620.734 486.091 621.993 486.614 625.418 486.614C628.287 486.614 630.234 486.013 631.345 484.785C633.517 482.385 633.433 481.614 631 481.614C629.9 481.614 629 482.012 629 482.497C629 483.909 624.849 484.603 622.838 483.527C621.827 482.986 621 481.659 621 480.579C621 478.844 621.702 478.614 627 478.614C632.642 478.614 633 478.473 633 476.249C633 469.383 624.421 466.102 619.455 471.069ZM93.557 472.551C91.117 475.247 92.157 476.247 96.925 475.793C101.339 475.372 101.861 474.618 99.429 472.185C97.343 470.1 95.681 470.204 93.557 472.551ZM113.529 471.969C110.433 474.233 112.198 476.243 116.887 475.796C121.528 475.354 122.008 474.433 118.777 472.171C116.072 470.276 115.856 470.267 113.529 471.969ZM175.163 472.212C173.601 473.307 173 474.767 173 477.471C173 481.744 174.413 483.614 177.643 483.614C182.12 483.614 184.683 476.37 181.25 473.421C178.225 470.823 177.385 470.656 175.163 472.212ZM260.655 472.443C258.18 475.178 258.571 475.614 263.5 475.614C268.671 475.614 269.806 473.251 265.435 471.589C262.213 470.364 262.598 470.295 260.655 472.443ZM297.223 472.171C293.834 474.544 294.542 475.614 299.5 475.614C304.391 475.614 305.698 473.593 302.066 471.649C299.634 470.348 299.86 470.324 297.223 472.171ZM354.655 472.443C352.18 475.178 352.571 475.614 357.5 475.614C362.391 475.614 363.698 473.593 360.066 471.649C357.388 470.216 356.56 470.338 354.655 472.443ZM466.637 472.12C464.395 474.362 463.827 477.03 464.96 480.008C466.212 483.303 468.39 484.213 471.564 482.767C474.723 481.327 474.97 475.584 472 472.614C469.605 470.219 468.628 470.129 466.637 472.12ZM523.655 472.443C521.18 475.178 521.571 475.614 526.5 475.614C531.382 475.614 532.005 474.834 529.171 472.269C526.828 470.148 525.7 470.184 523.655 472.443ZM543.954 472.45C542.37 473.733 541.715 475.286 541.781 477.602C541.912 482.22 544.175 484.289 547.734 483.044C550.01 482.249 550.556 481.399 550.816 478.248C551.029 475.674 550.568 473.794 549.411 472.516C547.281 470.162 546.787 470.156 543.954 472.45ZM622.75 471.694C619.337 473.682 620.692 475.614 625.5 475.614C630.458 475.614 631.166 474.544 627.777 472.171C625.193 470.36 625.061 470.348 622.75 471.694ZM44.2 472.814C42.612 474.402 42.724 479.666 44.392 481.864C47.209 485.575 53 482.598 53 477.44C53 472.902 47.175 469.839 44.2 472.814ZM565.009 478.89C561.786 480.538 561.259 483.244 563.992 484.111C566.68 484.965 571.238 482.086 570.8 479.812C570.382 477.646 568.141 477.289 565.009 478.89ZM369.695 483.967C368.996 485.787 369.792 486.614 372.24 486.614C373.513 486.614 374.035 486.036 373.812 484.875C373.39 482.684 370.437 482.032 369.695 483.967ZM637.345 484.157C636.591 486.123 637.483 487.026 639.44 486.275C640.319 485.938 640.716 485.037 640.376 484.152C639.618 482.176 638.104 482.179 637.345 484.157Z" fill="#013B63"/>
</svg>
