<svg width="656" height="504" viewBox="0 0 656 504" fill="none" xmlns="http://www.w3.org/2000/svg">
<path fill-rule="evenodd" clip-rule="evenodd" d="M311.5 0.553669C303.018 1.35767 283.114 5.06767 274.863 7.38167C247.54 15.0457 220.088 29.0307 198.5 46.2847C174.25 65.6657 152.423 93.8767 140.429 121.338C138.189 126.468 132.18 132.838 129.581 132.838C128.474 132.838 125.528 134.811 123.034 137.223C120.54 139.634 112.91 146.159 106.077 151.723C95.917 159.996 93.052 161.838 90.35 161.838C87.829 161.838 86.638 162.49 85.326 164.588C84.379 166.1 83.508 167.486 83.39 167.667C83.271 167.849 76.534 170.701 68.418 174.006C55.744 179.166 53.075 179.926 49.509 179.392C44.711 178.672 40.66 181.074 39.609 185.261C39.091 187.322 38.23 187.807 34.246 188.277C18.233 190.17 11.637 193.218 6.264 201.21C-1.582 212.879 -1.01 220.974 9.38 245.301C13.6 255.181 17.882 264.181 18.896 265.301C19.91 266.421 21.035 269.288 21.395 271.671C22.085 276.236 26.46 285.838 27.85 285.838C29.624 285.838 29.766 284.523 28.356 281.148C27.546 279.209 27.171 277.334 27.523 276.981C28.307 276.197 31 279.719 31 281.529C31 282.249 31.512 282.838 32.138 282.838C33.441 282.838 32.653 273.765 30.817 267.626C29.935 264.679 29.994 263.506 31.103 261.939C34.294 257.43 53.479 231.553 61.192 221.354C65.762 215.312 70.625 209.828 72 209.166C73.375 208.504 77.608 207.26 81.407 206.401C88.098 204.889 88.357 204.902 89.713 206.839C91.488 209.373 95.174 209.408 97.433 206.912C99.717 204.388 99.095 201.347 96.285 201.308C91.165 201.237 92.426 199.882 114 182.26C129.833 169.328 173.779 134.838 174.424 134.838C174.869 134.838 220.25 186.53 238.234 207.522L247.815 218.705L244.81 229.022C243.158 234.696 241.619 239.531 241.39 239.767C240.754 240.425 234.835 237.394 223.728 230.723C215.28 225.649 213.057 224.732 210.069 225.089C204.072 225.805 143.817 244.929 140.034 247.316C131.563 252.664 124.828 263.525 123.081 274.654C122.013 281.461 123.211 300.632 124.998 305.334C125.549 306.783 126 308.216 126 308.52C126 309.339 122.384 308.348 114 305.229C107.49 302.807 105.048 302.436 95.5 302.418C79.918 302.387 70.224 305.733 56.5 315.878C45.086 324.316 36.46 335.466 28.425 352.167C22.459 364.569 22.06 366.989 25.426 370.354L28.075 373.004L107.787 372.771C178.951 372.564 188.154 372.715 193.599 374.177C198.858 375.589 206.192 378.415 213.5 381.844C241.74 395.097 286.111 401.459 322.174 397.424C346.396 394.714 365.64 389.552 389.481 379.369C395.131 376.956 401.722 374.418 404.127 373.728C407.539 372.751 432.603 372.536 518.141 372.75C598.122 372.95 628.353 372.719 629.891 371.896C633.893 369.754 632.63 365.754 625.247 357.18C621.532 352.867 609.945 338.991 599.497 326.345C575.258 297.008 569.647 291.05 565.524 290.276C562.813 289.768 558.331 291.672 536.039 302.799C521.581 310.017 509.529 315.7 509.258 315.429C508.987 315.158 510.773 311.202 513.226 306.637C526.97 281.069 535.422 256.22 539.178 230.338C541.116 216.983 540.81 184.724 538.627 172.338C535.328 153.62 529.623 133.896 523.624 120.464C522.181 117.233 521 114.42 521 114.214C521 114.007 527.94 113.838 536.423 113.838C551.557 113.838 551.904 113.789 554.923 111.249C556.749 109.713 558 107.706 558 106.314C558 105.024 558.47 102.731 559.045 101.219C560.715 96.8257 558.59 92.8377 554.579 92.8377C552.83 92.8377 550.861 93.3767 550.202 94.0357C549.271 94.9667 548.278 94.5467 545.752 92.1557C541.296 87.9377 538.857 86.8437 533.816 86.8007C529.821 86.7677 529.293 86.4387 526.72 82.3757C521.551 74.2137 509.85 71.1077 501.217 75.6077L497.377 77.6087L491.979 71.1287C479.907 56.6387 452.845 34.4897 437.5 26.5407C400.677 7.46667 369.759 -0.345331 332.5 0.0116691C323.15 0.100669 313.7 0.344669 311.5 0.553669ZM318 7.93567C278.225 10.7457 240.273 24.7667 208.197 48.5007C199.256 55.1167 176.463 77.6127 169.86 86.3377C165.869 91.6127 151 115.334 151 116.426C151 118.003 153.908 115.737 161.28 108.414C171.506 98.2567 175.383 96.5667 182.354 99.2287C185.671 100.496 188.36 100.759 193.137 100.283C198.767 99.7217 199.897 99.9187 202.946 101.997C210.634 107.236 212.877 118.035 208.048 126.568C205.74 130.647 205.718 130.869 207.443 132.775C210.128 135.742 269.344 182.797 270.5 182.882C271.328 182.943 277.81 156.167 277.956 152.088C277.983 151.326 276.682 150.838 274.622 150.838C269.657 150.838 268.874 149.226 269.208 139.685L269.5 131.338H326.5H383.5L383.79 138.977C384.126 147.825 382.947 149.838 377.429 149.838C374.671 149.838 374 150.228 374 151.83C374 155.582 379.222 179.84 381.362 186.03L383.5 192.215L391.374 193.538C410.653 196.779 414.561 203.288 413.768 230.838C413.401 243.59 412.93 247.402 411.114 252.338C409.9 255.638 408.695 259.013 408.436 259.838C408.134 260.797 409.143 261.909 411.232 262.921C419.545 266.949 424.651 279.002 423.68 292.303C423.124 299.908 420.767 309.206 418.867 311.288C416.341 314.056 419.973 314.712 425.36 312.461C430.395 310.357 431.5 306.553 431.5 291.317C431.5 278.578 431.428 278.149 428.163 271.518C426.328 267.79 423.072 262.896 420.929 260.643L417.032 256.546L419.016 248.775C421.882 237.551 421.843 214.778 418.942 205.386C416.28 196.768 411.212 191.582 403.149 189.226C400.042 188.318 395.7 187.036 393.5 186.376L389.5 185.177L389.211 176.507C388.99 169.874 388.593 167.838 387.52 167.838C385.737 167.838 385.338 167.155 384.495 162.663C383.873 159.347 384.029 158.971 386.154 158.67C388.231 158.376 388.573 157.651 389.136 152.338C389.486 149.038 390.244 144.569 390.822 142.406C391.558 139.648 391.554 137.109 390.807 133.906C390.222 131.394 389.541 125.85 389.295 121.588L388.848 113.838H385.424C381.804 113.838 381.924 113.605 381.565 121.338C381.5 122.744 380.66 123.432 378.736 123.654C376.218 123.946 376 123.694 376 120.486C376 115.076 375.164 113.838 371.51 113.838C368.008 113.838 367.042 115.396 367.014 121.088C367 123.825 366.966 123.838 360 123.838H353V83.8377V43.8377H384H415V66.3377V88.8377H439.3C456.867 88.8377 463.933 89.1707 464.8 90.0377C465.692 90.9297 466 101.189 466 130.016V168.795L485.25 169.066L504.5 169.338L504.582 236.086C504.627 272.798 504.937 303.108 505.27 303.442C506.258 304.429 516.845 282.436 521.099 270.561C529.572 246.909 532.948 227.93 532.98 203.774C533.019 174.737 527.193 147.161 515.868 122.787L511.71 113.838L501.105 113.836C488.872 113.835 484.971 112.464 481.184 106.838C476.87 100.429 479.639 92.5937 487.839 88.0127C490.127 86.7337 492 85.0897 492 84.3577C492 82.0017 475.033 63.8857 465.121 55.6587C452.165 44.9057 445.072 40.0357 431.161 32.3447C405.86 18.3567 377.723 10.1307 347.5 7.88567C339.8 7.31367 332.6 6.90867 331.5 6.98467C330.4 7.06067 324.325 7.48867 318 7.93567ZM509.04 51.2897C506.813 53.9727 508.199 56.3377 512 56.3377C514.548 56.3377 515.565 55.8587 515.819 54.5397C516.257 52.2627 514.287 49.8377 512 49.8377C511.035 49.8377 509.703 50.4907 509.04 51.2897ZM368 67.8377V76.9587L371.75 76.6477L375.5 76.3377V67.8377V59.3377L371.75 59.0277L368 58.7167V67.8377ZM382.75 59.5097C381.288 59.9057 381.003 61.1657 381.015 67.1607C381.033 75.6597 381.734 77.1097 385.609 76.6677L388.5 76.3377V67.8377C388.5 60.0547 388.331 59.3247 386.5 59.1857C385.4 59.1027 383.712 59.2487 382.75 59.5097ZM395.268 60.0367C394.685 60.7527 394.273 64.7127 394.354 68.8377L394.5 76.3377L398.29 76.6507L402.08 76.9627L401.79 68.1507C401.505 59.5027 401.451 59.3317 398.914 59.0367C397.492 58.8717 395.851 59.3217 395.268 60.0367ZM127.223 67.3947C123.464 70.0267 124.936 74.8377 129.5 74.8377C133.893 74.8377 135.813 68.8777 132.066 66.8727C129.634 65.5717 129.86 65.5477 127.223 67.3947ZM502.898 81.0887C501.029 82.3277 498.6 85.2267 497.5 87.5307C496.003 90.6677 494.746 91.8887 492.5 92.3877C485.743 93.8877 482.747 100.856 486.75 105.76C488.47 107.867 489.032 107.904 519.412 107.923C544.691 107.939 550.581 107.686 551.734 106.533C552.946 105.321 552.913 104.894 551.5 103.481C550.596 102.577 548.776 101.838 547.454 101.838C545.812 101.838 544.575 100.916 543.546 98.9257C542.718 97.3247 540.793 95.0307 539.27 93.8287C536.871 91.9357 535.731 91.7307 530.75 92.2907C525.622 92.8667 525 92.7407 525 91.1197C525 88.3717 520.32 82.0547 517.021 80.3487C512.752 78.1407 506.883 78.4487 502.898 81.0887ZM367.848 90.2837C367.649 92.7887 367.649 96.8867 367.848 99.3917L368.21 103.946L371.855 103.642L375.5 103.338V94.8377V86.3377L371.855 86.0337L368.21 85.7297L367.848 90.2837ZM381.667 86.5047C381.3 86.8707 381 90.9207 381 95.5047V103.838H385H389V94.8377V85.8377H385.667C383.833 85.8377 382.033 86.1377 381.667 86.5047ZM394.483 89.0877C394.148 90.8747 394.015 94.8127 394.187 97.8377L394.5 103.338L398.25 103.648L402 103.959V94.8977V85.8377H398.545C395.439 85.8377 395.029 86.1657 394.483 89.0877ZM170.062 108.42C166.835 112.095 166.776 112.789 169.159 119.018C169.734 120.52 171.709 122.421 173.654 123.344C182.143 127.372 190.892 118.331 186.578 109.989C184.581 106.127 182.227 104.838 177.169 104.838C173.876 104.838 172.676 105.443 170.062 108.42ZM424 114.393V122.948L428.75 122.643L433.5 122.338L433.79 114.088L434.081 105.838H429.04H424V114.393ZM443.21 114.088L443.5 122.338H448H452.5L452.79 114.088L453.081 105.838H448H442.919L443.21 114.088ZM174.25 110.5C172.272 111.298 172.794 116.342 175.068 118.4C176.957 120.109 177.37 120.141 179.818 118.771C182.783 117.113 183.809 113.517 181.954 111.283C180.791 109.881 176.792 109.475 174.25 110.5ZM197.75 115.769C196.238 117.908 195 120.303 195 121.093C195 123.177 198.674 126.177 200.41 125.511C202.276 124.795 204.346 117.353 203.556 114.204C202.707 110.821 200.906 111.306 197.75 115.769ZM395 122.338V130.838H398.5H402V122.338V113.838H398.5H395V122.338ZM156.385 120.02C149.223 125.435 139.224 133.477 136.328 136.151C133.424 138.832 132.817 141.838 135.18 141.838C135.711 141.838 142.188 137.28 149.573 131.71C158.42 125.037 163 120.943 163 119.71C163 117.164 159.974 117.305 156.385 120.02ZM527.446 119.925C525.77 122.637 529.395 123.237 548.746 123.452C568.816 123.674 572.322 123.136 569.89 120.205C568.429 118.446 528.523 118.182 527.446 119.925ZM102.466 132.281C99.46 135.288 100.322 138.839 104.412 140.3C109.845 142.239 113.249 136.087 109.061 131.899C106.41 129.248 105.443 129.304 102.466 132.281ZM577.685 132.215C577.384 133 577.407 133.911 577.736 134.24C578.064 134.569 585.491 134.838 594.24 134.838C608.851 134.838 610.119 134.695 609.811 133.088C609.511 131.525 607.808 131.309 593.854 131.063C581.063 130.838 578.134 131.047 577.685 132.215ZM424.21 141.532L424.5 150.338H429H433.5V141.838V133.338L428.71 133.032L423.92 132.725L424.21 141.532ZM443 141.23C443 149.347 443.082 149.642 445.5 150.249C446.875 150.594 449.125 150.594 450.5 150.249C452.918 149.642 453 149.347 453 141.23V132.838H448H443V141.23ZM282.694 141.899C282.398 143.033 282.683 144.163 283.328 144.41C283.972 144.658 303.625 144.743 327 144.599L369.5 144.338L369.82 142.088L370.139 139.838H326.686C283.644 139.838 283.228 139.858 282.694 141.899ZM394.9 146.338C394.845 149.363 394.753 153.076 394.695 154.588C394.6 157.06 394.964 157.369 398.295 157.648L402 157.959V149.398V140.838H398.5H395L394.9 146.338ZM113.424 153.158C105.766 159.428 98.774 165.408 97.887 166.448C95.933 168.738 94.612 174.838 96.071 174.838C96.632 174.838 104.608 168.479 113.796 160.707C125.638 150.689 130.5 145.963 130.5 144.471C130.5 143.313 129.791 142.229 128.924 142.062C128.057 141.895 121.082 146.888 113.424 153.158ZM284.297 152.045C283.736 152.756 283.013 154.913 282.691 156.838C282.072 160.53 279.804 171.304 273.158 202.123C269.108 220.905 269.108 220.91 270.472 229.336C271.978 238.639 272.445 239.838 274.559 239.838C275.686 239.838 276 238.197 276 232.302C276 224.011 280.173 197.929 286.554 166.338C288.705 155.691 288.803 151.471 286.908 151.08C286.032 150.9 284.857 151.334 284.297 152.045ZM295.592 151.689C295.103 152.48 291.248 172.231 288.776 186.604C288.184 190.051 287.944 193.115 288.243 193.415C288.543 193.714 289.94 192.807 291.348 191.399C293.734 189.013 294.554 188.838 303.345 188.838H312.781L313.22 185.088C313.461 183.026 313.45 174.475 313.195 166.088L312.732 150.838H304.425C299.856 150.838 295.881 151.221 295.592 151.689ZM323.46 152.082C323.181 152.81 323.075 161.49 323.226 171.372L323.5 189.338H332.5H341.5V170.338V151.338L332.734 151.049C326.175 150.832 323.839 151.093 323.46 152.082ZM350.667 151.505C350.3 151.871 350 160.36 350 170.369V188.566L354.64 189.202C362.698 190.307 372.002 189.977 371.984 188.588C371.953 186.067 366.062 152.747 365.481 151.808C364.813 150.726 351.714 150.458 350.667 151.505ZM424.419 160.755C424.189 160.984 424 164.946 424 169.559V177.948L428.75 177.643L433.5 177.338V168.838V160.338H429.169C426.787 160.338 424.65 160.526 424.419 160.755ZM446.711 160.644L442.921 160.963L443.211 169.151L443.5 177.338H448H452.5V169.506C452.5 165.198 452.05 161.37 451.5 160.999C450.95 160.628 448.795 160.468 446.711 160.644ZM395.692 167.531C395.418 167.975 395.043 171.938 394.857 176.338L394.519 184.338L398.299 184.651L402.08 184.963L401.79 176.151C401.503 167.441 401.469 167.334 398.844 167.031C397.384 166.862 395.965 167.087 395.692 167.531ZM565 173.838C565 174.388 565.45 174.838 566 174.838C566.55 174.838 567 174.388 567 173.838C567 173.288 566.55 172.838 566 172.838C565.45 172.838 565 173.288 565 173.838ZM128.161 176.986C126.325 178.626 124.413 181.398 123.912 183.146C121.487 191.599 123.465 230.655 127.103 246.162L128.235 250.987L131.213 248.162C134.432 245.109 134.462 244.494 132.034 231.338C130.238 221.606 129.679 198.703 130.939 186.502C131.611 179.992 132.012 174.517 131.83 174.334C131.648 174.152 129.997 175.345 128.161 176.986ZM70.25 180.157C63.512 182.948 58 185.585 58 186.018C58 186.45 60.363 187.995 63.25 189.449C66.137 190.904 69.694 192.937 71.154 193.966C75.066 196.725 76.469 196.323 80.626 191.25C83.822 187.35 84.449 185.776 84.813 180.75C85.144 176.164 84.933 174.865 83.87 174.96C83.117 175.027 76.988 177.366 70.25 180.157ZM472 188.746C472 191.482 472.337 193.914 472.75 194.15C473.163 194.387 478.36 194.353 484.299 194.076L495.099 193.571L494.799 188.955L494.5 184.338L483.25 184.055L472 183.772V188.746ZM424 196.283V204.838H429.04H434.081L433.79 196.588L433.5 188.338L428.75 188.033L424 187.728V196.283ZM443.667 188.505C443.3 188.871 443 192.696 443 197.005V204.838H448H453L452.986 198.588C452.965 188.995 452.434 187.838 448.05 187.838C446.006 187.838 444.033 188.138 443.667 188.505ZM259.676 195.588C258.463 197.644 248.049 239.108 248.544 239.909C248.86 240.42 250.441 240.838 252.059 240.838C254.981 240.838 255 240.8 255 234.947C255 231.708 256.172 224.62 257.605 219.197C261.999 202.562 263.087 197.507 262.565 196.146C262.016 194.715 260.377 194.399 259.676 195.588ZM330.687 195.595L320.874 195.912L321.187 198.625C321.494 201.288 321.643 201.343 329.315 201.631C336.056 201.884 337.085 202.159 336.802 203.631C336.506 205.173 333.955 205.386 310.487 205.838L284.5 206.338L284.18 208.588L283.861 210.838H310.43C336.333 210.838 337 210.888 337 212.838C337 214.789 336.333 214.838 310 214.838H283V217.338V219.838H310C336.333 219.838 337 219.887 337 221.838C337 223.79 336.333 223.838 309.5 223.838H282V226.338V228.838H309.5C336.333 228.838 337 228.886 337 230.838C337 232.79 336.333 232.838 308.93 232.838H280.861L281.18 235.088L281.5 237.338L309.32 237.604C335.098 237.85 337.116 237.997 336.807 239.604C336.501 241.192 334.137 241.36 308.737 241.604C293.482 241.75 281.014 242.2 281.032 242.604C281.049 243.008 281.666 244.132 282.403 245.103C283.638 246.731 286.034 246.848 313.121 246.603L342.5 246.338V220.921C342.5 204.719 342.137 195.464 341.5 195.392C340.95 195.329 336.084 195.421 330.687 195.595ZM349 198.14C349 200.37 349.408 200.475 362.25 201.548C369.538 202.156 376.738 203.135 378.25 203.721L381 204.788V224.778C381 243.518 381.121 244.832 382.934 245.803C383.998 246.372 385.123 246.838 385.434 246.838C385.745 246.838 386 238.049 386 227.307C386 210.07 386.194 207.701 387.652 207.141C389.144 206.569 395.967 207.548 403.25 209.38C409.05 210.838 404.983 204.516 398.5 201.995C396.85 201.354 392.125 200.39 388 199.853C383.875 199.317 375.55 198.202 369.5 197.377C363.45 196.552 356.363 195.868 353.75 195.858C349.453 195.84 349 196.058 349 198.14ZM40.216 216.588C27.98 237.163 26 240.843 26 243.014C26 247.459 28.485 244.567 37.555 229.567C42.952 220.641 49.107 210.743 51.232 207.571C55.161 201.71 55.354 199.838 52.03 199.838C50.697 199.838 47.384 204.536 40.216 216.588ZM472.694 202.477C472.312 202.859 472 205.361 472 208.037V212.904L483.25 212.621L494.5 212.338V207.338V202.338L483.944 202.061C478.138 201.908 473.076 202.096 472.694 202.477ZM348.353 207.359C347.314 210.067 349.411 210.955 356.102 210.64C361.733 210.374 362.5 210.098 362.5 208.338C362.5 206.564 361.735 206.305 355.736 206.042C350.254 205.802 348.855 206.052 348.353 207.359ZM394 216.79C394 218.646 394.616 218.838 400.573 218.838C406.294 218.838 407.103 218.611 406.813 217.088C406.546 215.684 405.246 215.279 400.24 215.04C394.521 214.767 394 214.914 394 216.79ZM424.667 215.505C424.3 215.871 424 219.946 424 224.559V232.948L428.75 232.643L433.5 232.338L433.795 224.425C434.006 218.77 433.72 216.277 432.795 215.69C431.234 214.7 425.6 214.571 424.667 215.505ZM443.444 216.124C443.148 216.894 443.04 220.858 443.203 224.932L443.5 232.338L447.717 232.644C452.755 233.009 453.277 231.898 452.803 221.807L452.5 215.338L448.241 215.03C445.288 214.817 443.817 215.152 443.444 216.124ZM348.623 217.377C348.281 218.27 348 219.19 348 219.42C348 219.65 351.408 219.838 355.573 219.838C362.246 219.838 363.107 219.63 362.813 218.088C362.333 215.568 349.563 214.928 348.623 217.377ZM471.902 222.088C471.653 225.282 471.78 229.951 472.126 230.297C472.686 230.857 482.601 231.292 489.25 231.049L495 230.838V225.838V220.838H483.5C475.019 220.838 471.974 221.166 471.902 222.088ZM394.71 224.461C392.948 226.224 394.466 226.838 400.583 226.838C405.403 226.838 407.056 226.503 406.754 225.588C406.306 224.229 395.914 223.257 394.71 224.461ZM348.182 227.543C348.475 229.065 349.588 229.338 355.514 229.338C361.057 229.338 362.5 229.028 362.5 227.838C362.5 226.668 360.887 226.273 355.168 226.043C348.567 225.777 347.87 225.926 348.182 227.543ZM205 234.08C203.075 234.651 189.425 238.663 174.668 242.995C147.984 250.828 142 253.002 142 254.864C142 255.411 145.345 255.838 149.632 255.838C155.366 255.838 158.039 255.366 160.382 253.94C167.606 249.542 196.172 241.242 207.295 240.309L214.5 239.705L225.222 245.847C234.973 251.434 238 252.374 238 249.818C238 249.322 232.516 245.299 225.814 240.877C213.239 232.581 211.723 232.086 205 234.08ZM394.192 233.913C394.389 234.504 394.876 234.954 395.275 234.913C395.674 234.872 398.475 234.838 401.5 234.838C404.525 234.838 407 234.388 407 233.838C407 233.273 404.139 232.838 400.417 232.838C396.166 232.838 393.96 233.219 394.192 233.913ZM348.708 235.464C348.318 235.853 348 236.771 348 237.505C348 238.498 349.929 238.838 355.573 238.838C362.246 238.838 363.107 238.63 362.813 237.088C362.543 235.671 361.235 235.283 355.947 235.047C352.355 234.887 349.097 235.075 348.708 235.464ZM474.25 239.544C472.279 239.923 472 240.59 472 244.908V249.838H483.5H495V244.963C495 240.303 494.862 240.06 491.875 239.463C488.507 238.789 477.915 238.838 474.25 239.544ZM394.25 242.088C394.52 242.898 396.722 243.338 400.5 243.338C404.278 243.338 406.48 242.898 406.75 242.088C407.056 241.171 405.389 240.838 400.5 240.838C395.611 240.838 393.944 241.171 394.25 242.088ZM444.109 242.635C443.421 242.864 443 246.027 443 250.976V258.948L447.75 258.643C452.373 258.346 452.509 258.245 452.83 254.864C453.012 252.954 452.878 249.513 452.534 247.219C451.96 243.386 451.636 243.014 448.564 242.656C446.724 242.441 444.719 242.432 444.109 242.635ZM424 250.783V258.838H428.428H432.856L433.521 253.516C434.666 244.351 434.226 243.385 428.75 243.033L424 242.728V250.783ZM351.863 249.543C346.206 250.414 338.694 256.089 334.928 262.338C330.538 269.622 327.007 279.511 326.268 286.588C325.543 293.539 327.111 293.293 329.462 286.088C332.73 276.072 338.929 265.07 343.645 260.919C352.806 252.856 371 251.491 385.695 257.766C397.141 262.653 400.96 261.599 391.996 256.027C383.888 250.986 375.295 248.815 364.145 248.988C358.84 249.07 353.313 249.32 351.863 249.543ZM176.286 254.224C165.203 257.858 154.203 268.108 150.125 278.6C148.087 283.843 147.812 285.963 148.192 293.525C148.709 303.82 151.184 310.373 156.691 316.025C160.328 319.758 165.553 322.619 166.678 321.493C167.016 321.155 165.459 318.889 163.217 316.458C155.858 308.474 154.5 304.794 154.5 292.838C154.5 283.77 154.817 281.745 156.821 277.989C160.157 271.738 166.125 265.638 171.683 262.799C175.851 260.67 177.848 260.338 186.5 260.338C195.152 260.338 197.149 260.67 201.317 262.799C203.966 264.152 207.944 267.223 210.156 269.623C215.908 275.863 218.273 281.824 218.773 291.338C219.317 301.671 216.98 308.217 209.925 316.133C205.187 321.449 205.006 321.838 207.272 321.838C208.61 321.838 211.223 320.815 213.078 319.564C224.411 311.927 228.476 291.128 221.579 276.065C217.804 267.821 208.695 259.147 200.532 256.023C193.126 253.189 181.967 252.361 176.286 254.224ZM221.7 257.661C219.525 258.075 219.542 259.16 221.75 260.933C223.22 262.113 231.509 262.258 273.487 261.838C320.069 261.372 323.496 261.219 323.81 259.588C324.025 258.472 323.486 257.786 322.323 257.694C318.427 257.388 223.303 257.356 221.7 257.661ZM471.518 258.809C471.166 259.378 471.184 261.882 471.557 264.373L472.237 268.901L483.368 268.62L494.5 268.338V263.338V258.338L483.329 258.056C476.403 257.881 471.915 258.167 471.518 258.809ZM560 259.838C560 260.388 560.45 260.838 561 260.838C561.55 260.838 562 260.388 562 259.838C562 259.288 561.55 258.838 561 258.838C560.45 258.838 560 259.288 560 259.838ZM134.399 262.286C131.646 266.216 132.524 266.84 140.75 266.807C147.877 266.778 148.649 266.571 150.348 264.238C151.365 262.843 152.04 261.556 151.848 261.379C151.657 261.201 147.967 260.883 143.649 260.672C136.687 260.332 135.639 260.515 134.399 262.286ZM361 260.773C351.998 263.521 345.484 269.425 341.117 278.792C338.936 283.47 338.533 285.746 338.538 293.338C338.542 298.697 339.054 303.244 339.802 304.578C340.993 306.699 346.749 310.423 347.569 309.602C347.78 309.391 347.063 306.878 345.976 304.018C339.785 287.725 348.488 268.743 364.779 263.006C367.649 261.995 369.698 260.869 369.332 260.503C368.481 259.652 364.221 259.79 361 260.773ZM400.069 267.774C398.887 268.522 399.061 269.126 401.069 271.242C402.927 273.199 404.502 273.808 407.75 273.821C412.789 273.841 413.374 272.064 409.365 268.911C406.605 266.739 402.498 266.237 400.069 267.774ZM69.949 269.889C66.819 273.019 69.108 278.838 73.467 278.838C78.462 278.838 80.787 272.203 76.777 269.395C73.827 267.328 72.407 267.431 69.949 269.889ZM228 270.216C228 273.423 230.634 273.891 247.133 273.613C263.25 273.342 263.505 273.304 263.82 271.088L264.139 268.838H246.07C231.388 268.838 228 269.096 228 270.216ZM443.422 270.182C443.138 270.921 443.04 274.858 443.203 278.932L443.5 286.338L447.398 286.657C449.841 286.857 451.609 286.484 452.133 285.657C453.121 284.098 453.229 277.857 452.358 272.588C451.765 269.002 451.568 268.838 447.838 268.838C445.495 268.838 443.731 269.375 443.422 270.182ZM130 276.838V280.838H136.441C143.447 280.838 143.443 280.841 144.462 276.088L145.159 272.838H137.579H130V276.838ZM178.5 275.354C165.799 282.198 163.448 297.55 173.661 306.952C180.033 312.819 189.334 313.482 196.598 308.588C202.931 304.321 205.3 300.117 205.397 292.971C205.486 286.405 202.935 281.415 197.285 277.106C192.827 273.706 183.222 272.81 178.5 275.354ZM372.133 275.052C366.582 276.26 359.38 283.295 358.412 288.456C355.958 301.535 364.186 311.838 377.084 311.838C381.749 311.838 383.408 311.325 386.883 308.808C392.818 304.508 394.992 300.488 394.996 293.8C395.002 285.828 391.832 279.975 386 277.187C380.022 274.328 377.35 273.917 372.133 275.052ZM471.444 279.204C471.109 280.541 470.984 282.693 471.167 283.986C471.495 286.3 471.688 286.338 483 286.338H494.5V281.838V277.338L483.277 277.056C472.124 276.775 472.051 276.788 471.444 279.204ZM407 279.736C407 280.29 407.522 281.89 408.161 283.291C409.116 285.387 410.012 285.838 413.224 285.838C417.025 285.838 417.119 285.753 416.813 282.588C416.513 279.472 416.305 279.325 411.75 279.033C409.024 278.858 407 279.158 407 279.736ZM291.739 280.91C288.571 281.382 282.046 283.205 277.239 284.961C268.864 288.021 267.74 288.172 250.25 288.591L232 289.029V291.933V294.837L243.25 294.729C261.926 294.549 269.85 293.363 279.678 289.275C288.205 285.729 289.012 285.588 303.801 285.077C318.643 284.563 319.092 284.484 318.801 282.443C318.518 280.467 317.859 280.329 308 280.194C302.225 280.115 294.908 280.437 291.739 280.91ZM181 284.04C176.968 286.765 175.033 292.209 176.567 296.514C178.743 302.623 187.445 305.136 192.738 301.184C203.292 293.305 191.904 276.672 181 284.04ZM370.111 285.398C364.711 289.942 365.245 298.095 371.217 302.277C375.876 305.541 382.954 303.562 385.452 298.298C387.89 293.161 387.412 290.05 383.6 286.238C379.283 281.921 374.59 281.629 370.111 285.398ZM130.384 287.28C128.985 290.926 130.388 292.338 135.41 292.338C140.603 292.338 142.88 290.575 141.691 287.474C140.851 285.286 131.213 285.12 130.384 287.28ZM409 294.338C409 297.671 409.167 297.838 412.5 297.838C414.626 297.838 416.005 297.347 416.014 296.588C416.021 295.901 416.299 294.326 416.63 293.088C417.184 291.021 416.898 290.838 413.117 290.838C409.079 290.838 409 290.905 409 294.338ZM472 300.838V305.838H483.5H495V300.838V295.838H483.5H472V300.838ZM131.82 298.351C131.489 298.683 131.455 299.862 131.745 300.973C132.361 303.327 135.759 304.838 140.439 304.838C143.64 304.838 143.726 304.733 143.087 301.588C142.459 298.497 142.183 298.324 137.425 298.043C134.674 297.881 132.152 298.019 131.82 298.351ZM231.667 299.505C231.3 299.871 231 300.801 231 301.57C231 302.34 229.457 306.308 227.572 310.389C225.624 314.605 224.557 318.064 225.101 318.401C226.529 319.283 237.508 315.483 249.702 309.887C255.641 307.161 264.209 303.897 268.742 302.634C273.276 301.371 276.988 300.001 276.992 299.588C277.002 298.661 232.592 298.58 231.667 299.505ZM537.5 311.263C523.75 318.092 513.099 323.716 513.831 323.759C514.563 323.803 521.538 321.315 529.331 318.231C545.436 311.859 558.842 306.838 559.755 306.838C560.095 306.838 571.68 318.088 585.5 331.838C608.026 354.251 612 357.934 612 356.401C612 354.784 564.96 298.837 563.603 298.841C562.996 298.843 551.25 304.433 537.5 311.263ZM405.642 307.088C403.967 311.082 404.333 311.838 407.944 311.838C409.844 311.838 411.299 311.03 412.385 309.373C415.001 305.38 414.477 303.838 410.503 303.838C407.504 303.838 406.812 304.301 405.642 307.088ZM83.916 312.296C68.086 316.321 53.573 327.429 43.521 343.211C39.21 349.98 34.759 359.615 35.255 361.104C35.442 361.663 38.018 359.02 40.981 355.23C60.712 329.982 80.365 317.635 104.5 315.324L112.5 314.557L109 313.081C104.05 310.994 90.684 310.576 83.916 312.296ZM308 315.249C308 316.891 313.563 321.838 315.41 321.838C318.095 321.838 317.906 320.336 314.821 317.154C311.512 313.739 308 312.758 308 315.249ZM397.494 318.844C396.496 319.948 395.966 321.137 396.317 321.489C397.165 322.337 406 318.93 406 317.755C406 315.951 399.341 316.803 397.494 318.844ZM438 338.181C438 340.057 439.809 340.525 449.75 341.217C455.498 341.617 457 341.435 457 340.339C457 338.279 456.196 338.039 446.707 337.269C439.06 336.649 438 336.76 438 338.181ZM104.7 340.932C98.567 344.168 98.165 348.225 104.218 345.783C108.683 343.982 111.931 341.596 111.969 340.088C112.014 338.283 109.072 338.625 104.7 340.932ZM277.643 343.04C276.449 347.496 276.906 352.838 278.481 352.838C280.026 352.838 280.755 350.72 281.223 344.868C281.555 340.705 278.664 339.228 277.643 343.04ZM457.715 360.457C455.816 362.355 459.853 362.838 477.642 362.838C492.817 362.838 497.074 362.56 496.751 361.588C496.442 360.66 491.453 360.268 477.355 360.067C466.916 359.918 458.078 360.093 457.715 360.457ZM133 363.307C133 364.6 134.952 364.838 145.583 364.838C155.205 364.838 158.069 364.544 157.752 363.588C157.457 362.701 153.807 362.257 145.168 362.057C134.788 361.818 133 362.001 133 363.307ZM164 381.338C164 382.597 166.167 382.838 177.5 382.838C188.833 382.838 191 382.597 191 381.338C191 380.079 188.833 379.838 177.5 379.838C166.167 379.838 164 380.079 164 381.338ZM432.138 408.968C420.259 411.158 413.484 424.67 417.44 438.28C420.443 448.608 426.333 452.82 437.79 452.832C446.991 452.842 455 446.623 455 439.47C455 437.023 454.688 436.838 450.567 436.838C446.988 436.838 446.01 437.23 445.489 438.872C443.505 445.125 433.99 447.184 430.076 442.207C426.882 438.147 425.846 432.941 426.996 426.728C428.213 420.152 431.438 416.838 436.622 416.838C441.284 416.838 443.465 418.132 444.984 421.8C446.115 424.53 446.687 424.838 450.621 424.838C454.769 424.838 455 424.688 455 421.986C455 413.266 443.706 406.835 432.138 408.968ZM1.995 409.841C1.319 410.259 1.052 417.755 1.229 431.41L1.5 452.338L11.883 452.122C24.125 451.867 27.938 450.793 33.075 446.151C37.554 442.105 39.279 437.585 39.211 430.074C39.136 421.642 35.833 416.022 28.913 412.55C24.104 410.137 21.99 409.724 13.194 409.481C7.605 409.327 2.565 409.489 1.995 409.841ZM56.316 410.781C53.684 411.977 51.088 414.259 49.316 416.936C46.717 420.864 46.5 421.934 46.5 430.838C46.5 439.742 46.717 440.812 49.316 444.74C52.836 450.059 58.483 452.786 66.038 452.816C75.521 452.854 83.776 447.194 84.282 440.307C84.489 437.494 84.279 437.322 80.304 437.033C76.511 436.758 75.958 437.019 74.544 439.753C72.669 443.378 70.216 444.838 66 444.838C61.816 444.838 59.332 443.381 57.51 439.858C55.735 436.424 55.491 425.701 57.117 422.522C60.247 416.402 68.234 414.83 72.548 419.484C73.896 420.939 75 422.739 75 423.484C75 424.445 76.475 424.838 80.079 424.838H85.159L84.503 421.588C82.337 410.863 68.132 405.417 56.316 410.781ZM115.5 411.296C109.516 414.766 106 422.052 106 430.984C106 438.957 107.466 443.038 111.944 447.531C116.118 451.719 120.767 453.149 128.588 452.651C137.402 452.09 143.531 447.258 144.207 440.338C144.487 437.47 144.313 437.324 140.255 437.031C136.432 436.754 135.886 437.003 134.767 439.531C133.072 443.359 131.082 444.769 127.315 444.806C118.929 444.89 115.501 440.012 116.203 428.992C116.567 423.277 116.963 422.26 119.822 419.706C123.996 415.976 129.065 415.812 132.545 419.293C133.895 420.643 135 422.443 135 423.293C135 424.479 136.154 424.838 139.975 424.838H144.95L144.374 421.588C143.533 416.848 140.964 413.635 135.98 411.088C129.923 407.993 121.04 408.084 115.5 411.296ZM163.366 410.323C159.122 412.254 153.171 419.41 152.402 423.507C152.057 425.346 151.949 429.935 152.162 433.705C152.874 446.296 159.825 452.838 172.492 452.838C180.477 452.838 184.542 451.263 188.66 446.573C192.926 441.713 194.354 436.842 193.744 429.232C193.105 421.273 190.486 416.16 185.098 412.354C181.481 409.799 179.841 409.336 173.687 409.134C169.123 408.984 165.356 409.418 163.366 410.323ZM202.447 410.115C202.178 410.817 202.079 420.563 202.229 431.772L202.5 452.152L206.5 452.245L210.5 452.338L210.779 439.088C210.932 431.8 211.382 425.846 211.779 425.856C212.176 425.865 213.85 428.106 215.5 430.836C217.15 433.565 220.749 439.407 223.498 443.818L228.495 451.838H233.768H239.04L238.77 430.588L238.5 409.338H234.5H230.5L230 423.3L229.5 437.263L220.205 423.05L210.91 408.838H206.924C204.612 408.838 202.731 409.375 202.447 410.115ZM253.886 410.837C250.224 412.772 247 417.846 247 421.674C247 427.598 252.333 432.563 261.109 434.808C268.381 436.669 270.9 437.948 271.594 440.133C273.047 444.711 264.113 447.706 259.223 444.281C258 443.425 257 442.075 257 441.281C257 440.216 255.69 439.838 252 439.838C246.056 439.838 245.59 441.196 249.565 446.932C252.442 451.083 257.272 452.838 265.821 452.838C274.863 452.838 280.175 449.215 281.603 442.073C283.068 434.746 279.863 430.861 269.787 427.755C259.904 424.708 257 423.147 257 420.884C257 415.279 265.436 413.952 270 418.838C272.093 421.079 273.699 421.838 276.342 421.838C278.289 421.838 280.087 421.501 280.337 421.088C280.587 420.675 280.124 418.671 279.307 416.634C276.427 409.448 262.516 406.276 253.886 410.837ZM288.839 409.637C286.539 409.911 286.2 410.386 286.339 413.146L286.5 416.338L292.727 416.635L298.954 416.932L299.227 434.635L299.5 452.338L304.227 452.642L308.953 452.946L309.227 435.142L309.5 417.338L315.807 417.039L322.115 416.74L321.807 413.039L321.5 409.338L306.5 409.329C298.25 409.325 290.303 409.463 288.839 409.637ZM329.429 409.755C329.193 409.984 329 419.731 329 431.416V452.661L333.25 452.499L337.5 452.338L337.794 445.096C338.072 438.227 338.222 437.821 340.698 437.199C344.329 436.288 345.913 437.573 350.441 445.111C354.369 451.648 354.4 451.672 359.441 452.074C362.224 452.295 364.839 452.305 365.254 452.096C365.669 451.886 364.942 450.28 363.639 448.527C362.336 446.773 360.044 443.205 358.546 440.598L355.822 435.859L358.893 433.275C362.991 429.827 364.542 424.565 363.071 419.102C361.667 413.887 358.385 411.267 351.452 409.828C346.521 408.804 330.461 408.751 329.429 409.755ZM372.002 425.031C372.003 438.58 372.299 441.918 373.752 444.767C376.435 450.029 379.841 451.975 387.436 452.585C398.838 453.5 405.547 449.731 407.956 441.057C408.524 439.012 408.991 431.151 408.994 423.588L409 409.838L406.5 409.727C405.125 409.666 402.988 409.565 401.75 409.504C399.52 409.392 399.498 409.531 399.223 424.829C398.968 439.035 398.774 440.449 396.798 442.553C395.303 444.144 393.514 444.838 390.907 444.838C382.41 444.838 381.629 443.222 381 424.338L380.5 409.338L376.25 409.031L372 408.723L372.002 425.031ZM463.194 409.551C461.224 409.928 460.933 410.511 461.194 413.567L461.5 417.142L467.5 417.24L473.5 417.338L474 434.838L474.5 452.338L479.227 452.642L483.953 452.946L484.227 435.142L484.5 417.338L490.75 417.04L497 416.743V413.444V410.145L484.843 409.492C472.088 408.806 467.021 408.82 463.194 409.551ZM504.927 409.246C504.311 410.025 504.15 445.453 504.749 448.338C505.545 452.172 505.755 452.351 509.809 452.646L514.039 452.955L513.77 431.146L513.5 409.338L509.25 409.246C506.913 409.195 504.967 409.195 504.927 409.246ZM531.876 411.78C525.454 415.814 522.568 421.911 522.561 431.461C522.556 437.64 522.954 439.23 525.563 443.449C529.871 450.418 534.563 452.802 544 452.818C552.499 452.832 556.106 451.246 560.246 445.673C568.796 434.165 565.311 416.064 553.513 410.705C550.951 409.541 547.15 408.881 543 408.879C537.55 408.876 535.753 409.345 531.876 411.78ZM574.75 409.553C573.155 409.946 573 411.789 573 430.411C573 441.646 573 451.175 573 451.588C573 452.001 574.913 452.338 577.25 452.338H581.5L581.779 439.088C582.044 426.529 582.981 422.983 584.782 427.729C585.177 428.77 588.65 434.583 592.5 440.648L599.5 451.676L604.334 452.007C606.992 452.189 609.355 452.15 609.584 451.921C609.813 451.692 610 442.13 610 430.671V409.838H605.029H600.058L599.779 423.079L599.5 436.321L591.708 424.167C587.423 417.482 583.373 411.586 582.708 411.064C581.108 409.806 576.934 409.013 574.75 409.553ZM625.121 410.548C618.056 414.029 615.796 423.065 620.571 428.74C622.466 430.992 625.284 432.472 631.278 434.366C640.353 437.233 642 438.242 642 440.937C642 446.174 631.997 447.096 627.527 442.272C625.826 440.437 624.236 439.838 621.068 439.838C617.177 439.838 616.915 440.005 617.537 442.088C619.53 448.767 623.708 451.82 631.865 452.559C639.691 453.269 644.278 452.316 647.963 449.215C653.372 444.665 653.694 435.399 648.586 431.338C647.203 430.238 642.005 428.084 637.035 426.551C628.347 423.871 628 423.652 628 420.836C628 415.146 636.407 413.764 640.158 418.838C642.026 421.365 643.057 421.838 646.688 421.838C650.555 421.838 651 421.594 651 419.473C651 416.521 647.728 412.266 643.961 410.318C640.065 408.303 629.414 408.433 625.121 410.548ZM12.25 417.456C11.344 417.854 11 421.526 11 430.813V443.621L13.537 444.258C17.182 445.173 23.845 443.108 26.502 440.241C31.519 434.828 30.028 422.455 23.981 419.328C20.839 417.703 14.126 416.632 12.25 417.456ZM168.388 417.818C167.227 418.287 165.272 419.946 164.045 421.505C162.085 423.993 161.856 425.278 162.163 432.067C162.565 440.957 164.162 443.409 170.476 444.833C178.493 446.641 184.005 440.621 183.996 430.068C183.989 420.275 176.62 414.492 168.388 417.818ZM338.409 418.215C338.118 418.972 338.02 421.785 338.19 424.465L338.5 429.338L343.841 429.643C350.809 430.042 354 428.103 354 423.47C354 418.618 351.488 416.838 344.64 416.838C340.72 416.838 338.772 417.268 338.409 418.215ZM537.888 418.338C533.731 420.597 532.177 426.204 532.858 436.482C532.936 437.662 534.306 440.024 535.901 441.732C538.319 444.321 539.555 444.838 543.324 444.838C551.4 444.838 555.993 437.947 554.51 428.056C553.169 419.113 545.12 414.407 537.888 418.338ZM0 484.298V496.838H8.583C15.003 496.838 17.063 496.523 16.754 495.588C16.498 494.814 13.991 494.225 10.171 494.04L4 493.743V489.84V485.938L9.671 485.638C17.511 485.223 17.981 483.038 10.316 482.64L4.5 482.338V478.838V475.338L10.817 475.039C15.183 474.832 17.011 474.368 16.736 473.539C16.481 472.768 13.411 472.234 8.17 472.048L0 471.757V484.298ZM62 473.171C62 475.052 62.962 475.79 64.598 475.162C66.725 474.346 66.274 471.838 64 471.838C62.9 471.838 62 472.438 62 473.171ZM145 473.338C145 474.171 145.889 474.838 147 474.838C148.111 474.838 149 474.171 149 473.338C149 472.505 148.111 471.838 147 471.838C145.889 471.838 145 472.505 145 473.338ZM205 484.338V496.838H213C219.328 496.838 221 496.534 221 495.386C221 494.303 219.411 493.858 214.75 493.636L208.5 493.338V489.838V486.338L214.25 486.038C218.469 485.818 220 485.352 220 484.288C220 483.199 218.647 482.838 214.567 482.838C210.013 482.838 209.032 482.515 208.5 480.838C208.151 479.738 208.151 477.938 208.5 476.838C209.041 475.134 210.013 474.838 215.067 474.838C219.674 474.838 221 474.503 221 473.338C221 472.13 219.444 471.838 213 471.838H205V484.338ZM282 484.338C282 496.171 282.107 496.838 284 496.838C285.893 496.838 286 496.171 286 484.338C286 472.505 285.893 471.838 284 471.838C282.107 471.838 282 472.505 282 484.338ZM291 484.411C291 495.848 291.158 496.954 292.75 496.648C293.712 496.462 294.462 495.529 294.417 494.574C294.371 493.619 294.258 488.113 294.167 482.338C294.03 473.745 293.728 471.838 292.5 471.838C291.246 471.838 291 473.902 291 484.411ZM396.667 472.505C396.3 472.871 396 478.496 396 485.005V496.838H404C410.444 496.838 412 496.546 412 495.338C412 494.171 410.667 493.838 406 493.838H400V482.838C400 474.338 399.697 471.838 398.667 471.838C397.933 471.838 397.033 472.138 396.667 472.505ZM416 473.338C416 474.171 416.889 474.838 418 474.838C419.111 474.838 420 474.171 420 473.338C420 472.505 419.111 471.838 418 471.838C416.889 471.838 416 472.505 416 473.338ZM443 473.338C443 474.171 443.889 474.838 445 474.838C446.111 474.838 447 474.171 447 473.338C447 472.505 446.111 471.838 445 471.838C443.889 471.838 443 472.505 443 473.338ZM502.705 472.466C502.317 472.854 502 478.496 502 485.005V496.838H510.5C517.265 496.838 519 496.542 519 495.386C519 494.303 517.411 493.858 512.75 493.636L506.5 493.338V489.433V485.529L511.913 485.433C519.599 485.298 519.926 483.035 512.316 482.64L506.5 482.338V478.838V475.338L512.817 475.039C517.183 474.832 519.011 474.368 518.737 473.539C518.3 472.22 503.914 471.257 502.705 472.466ZM523.095 484.422C522.906 496.073 523.024 496.98 524.695 496.66C526.299 496.352 526.531 494.95 526.781 484.076C527.043 472.663 526.935 471.838 525.18 471.838C523.449 471.838 523.283 472.842 523.095 484.422ZM77.657 479.341C75.869 480.268 74.883 480.321 74.093 479.531C71.912 477.35 70.907 480.445 71.205 488.422C71.451 495.006 71.79 496.372 73.25 496.65C74.766 496.94 75.002 496.14 75.015 490.661C75.032 483.947 75.513 482.556 78.153 481.584C81.467 480.364 83.217 483.098 83.482 489.909C83.677 494.931 84.089 496.409 85.366 496.661C86.751 496.935 87 495.939 87 490.134C87 480.345 83.505 476.307 77.657 479.341ZM305 478.628C301.337 479.762 299 483.17 299 487.377C299 493.55 301.925 496.838 307.418 496.838C311.32 496.838 315 494.737 315 492.509C315 491.259 312.253 491.829 311 493.338C309.273 495.419 306.373 495.211 304 492.838C300.75 489.588 301.593 488.838 308.5 488.838C314.966 488.838 315 488.823 315 486.012C315 481.617 309.194 477.329 305 478.628ZM474.74 480.944C472.054 483.63 471.804 484.407 472.276 488.596C472.633 491.763 473.511 493.833 475.012 495.049C477.701 497.226 481.32 497.362 482.991 495.349C484.702 493.287 485.828 494.285 485.244 497.344C484.488 501.298 481.339 502.475 477.315 500.308C473.393 498.196 471.923 498.99 474.494 501.832C476.304 503.831 480.336 504.391 484.628 503.24C487.901 502.361 489 498.603 489 488.291C489 480.727 488.712 478.838 487.559 478.838C486.766 478.838 485.826 479.31 485.47 479.887C485.074 480.527 484.37 480.584 483.661 480.031C480.616 477.66 477.729 477.955 474.74 480.944ZM21 487.838C21 496.171 21.148 496.838 23 496.838C24.793 496.838 25 496.171 25 490.395C25 484.931 25.328 483.722 27.155 482.442C28.705 481.356 29.826 481.21 31.155 481.921C32.677 482.736 33 484.126 33 489.873C33 496.171 33.191 496.838 35 496.838C36.788 496.838 36.998 496.176 36.985 490.588C36.966 482.448 35.449 479.434 31.162 479.02C29.351 478.845 27.264 479.204 26.524 479.818C25.596 480.588 24.977 480.609 24.53 479.887C24.174 479.31 23.234 478.838 22.441 478.838C21.293 478.838 21 480.668 21 487.838ZM43.073 481.473C37.223 488.909 44.193 500.016 52.066 495.803C53.673 494.943 54 495.1 54 496.731C54 498.795 51.545 501.838 49.879 501.838C49.341 501.838 47.531 501.13 45.857 500.264C42.245 498.396 41.41 498.867 43.016 501.868C44.061 503.82 44.809 504.019 49.615 503.62C57.211 502.99 57.929 501.74 57.968 489.088C58 478.768 57.279 476.959 54.313 479.925C53.53 480.708 53.038 480.708 52.554 479.925C52.184 479.327 50.366 478.838 48.514 478.838C46.066 478.838 44.579 479.558 43.073 481.473ZM62.671 479.588C62.425 480.001 62.325 483.938 62.448 488.338C62.632 494.891 62.973 496.396 64.336 496.661C65.789 496.944 66 495.837 66 487.911C66 480.678 65.708 478.838 64.559 478.838C63.766 478.838 62.917 479.175 62.671 479.588ZM93.537 480.797C90.672 483.963 90.382 490.803 92.975 494.088C94.737 496.32 95.95 496.838 99.418 496.838C102.424 496.838 104.228 496.244 105.506 494.832C108.032 492.04 106.54 491.088 102.957 493.204C99.534 495.226 96.387 494.633 95.487 491.796C94.522 488.755 95.622 488.041 100.438 488.584C106.388 489.255 107.866 488.587 107.275 485.497C106.085 479.269 97.559 476.353 93.537 480.797ZM112.989 482.088C109.024 488.591 111.773 496.126 118.587 497.431C120.981 497.89 122.327 497.46 124.587 495.515C128.274 492.342 127.071 490.946 122.685 493.308C119.996 494.756 118.94 494.876 117.179 493.934C115.981 493.292 115 491.905 115 490.851C115 489.197 115.86 488.892 121.25 488.636C126.681 488.377 127.539 488.068 127.794 486.279C127.956 485.147 127.136 483.01 125.972 481.529C124.241 479.329 123.044 478.838 119.413 478.838C115.474 478.838 114.746 479.206 112.989 482.088ZM132.667 479.505C132.3 479.871 132 483.921 132 488.505C132 495.245 132.287 496.838 133.5 496.838C134.871 496.838 135.503 493.972 135.242 488.93C135.093 486.035 137.046 482.771 139.482 481.845C140.867 481.318 142 480.426 142 479.863C142 478.43 138.671 478.582 137.075 480.088C136.015 481.088 135.658 481.088 135.292 480.088C134.788 478.714 133.7 478.472 132.667 479.505ZM145 487.911C145 496.013 145.187 496.949 146.75 496.65C148.23 496.367 148.545 494.968 148.789 487.577C149.061 479.355 148.957 478.838 147.039 478.838C145.137 478.838 145 479.447 145 487.911ZM154 487.838C154 495.171 154.278 496.838 155.5 496.838C156.666 496.838 157 495.509 157 490.877C157 486.032 157.41 484.534 159.189 482.877C163.744 478.633 166 481.005 166 490.038C166 496.171 166.196 496.838 168 496.838C169.788 496.838 169.998 496.176 169.985 490.588C169.965 482.109 168.496 479.424 163.657 479.023C161.569 478.85 159.217 479.243 158.43 479.896C157.411 480.742 157 480.76 157 479.96C157 479.343 156.325 478.838 155.5 478.838C154.278 478.838 154 480.505 154 487.838ZM176.15 480.907C169.663 487.87 175.659 499.292 184.124 496.097C186.613 495.158 187 495.248 187 496.77C187 497.737 186.077 499.363 184.95 500.383C182.953 502.191 182.81 502.19 179.444 500.378C175.689 498.356 173.943 498.933 175.638 501.636C177.267 504.235 185.027 504.447 188.08 501.975C190.285 500.191 190.531 499.155 190.85 490.327C191.216 480.199 190.38 477.448 187.631 479.729C186.643 480.549 185.971 480.6 185.53 479.887C184.376 478.02 178.215 478.69 176.15 480.907ZM225 479.779C225 480.297 225.453 481 226.007 481.342C226.561 481.685 227.719 483.327 228.58 484.992C230.071 487.877 230.024 488.204 227.573 491.907C224.499 496.552 224.459 496.838 226.879 496.838C228.023 496.838 229.243 495.666 230 493.838C230.683 492.188 231.613 490.838 232.065 490.838C232.517 490.838 233.684 492.188 234.659 493.838C235.634 495.488 237.234 496.838 238.216 496.838C240.558 496.838 240.476 496.328 237.5 492.427C234.462 488.443 234.439 487.903 237.124 483.352C239.761 478.882 238.657 477.377 235.463 481.088C232.544 484.479 231.702 484.517 230 481.338C228.725 478.956 225 477.795 225 479.779ZM245.881 479.845C241.622 482.333 241.059 491.771 244.959 495.301C248.728 498.712 258 496.495 258 492.183C258 490.4 256.546 490.475 255 492.338C253.508 494.136 248.876 494.314 247.2 492.638C245.332 490.77 245.728 484.395 247.829 482.493C250.253 480.299 252.298 480.405 254.5 482.838C256.596 485.154 258 485.417 258 483.493C258 479.768 250.088 477.386 245.881 479.845ZM264.537 480.797C263.561 481.875 262.536 484.779 262.257 487.25C261.805 491.256 262.08 492.072 264.79 494.782C267.359 497.351 268.347 497.726 271.165 497.205C274.747 496.543 278.855 493.359 277.664 492.168C277.265 491.769 275.597 492.236 273.957 493.204C270.536 495.225 267.506 494.653 265.918 491.685C264.41 488.868 265.348 488.338 271.835 488.338C277.142 488.338 277.519 488.179 277.794 485.823C278.489 479.871 268.725 476.17 264.537 480.797ZM319.877 479.088C319.809 479.225 319.647 483.276 319.518 488.088C319.303 496.035 319.452 496.838 321.141 496.838C322.761 496.838 323 496.009 323 490.395C323 484.931 323.328 483.722 325.155 482.442C329.043 479.719 330.866 481.873 331.205 489.589C331.445 495.061 331.827 496.38 333.25 496.651C334.779 496.942 335 496.119 335 490.134C335 481.742 333.366 478.838 328.643 478.838C326.859 478.838 324.911 479.327 324.313 479.925C323.53 480.708 323.038 480.708 322.554 479.925C321.96 478.964 320.208 478.416 319.877 479.088ZM341.174 481.152C336.364 486.273 339.588 496.092 346.516 497.417C349.821 498.05 355 494.905 355 492.265C355 490.36 354.433 490.458 351.074 492.942C347.621 495.495 344.308 494.778 342.941 491.183C341.645 487.775 342.77 484.035 345.66 482.141C347.916 480.663 348.224 480.7 350.352 482.699C352.983 485.171 355 485.473 355 483.395C355 478.896 344.841 477.249 341.174 481.152ZM360.597 481.088C357.981 485.15 357.73 490.01 359.952 493.588C361.725 496.443 362.489 496.834 366.235 496.806C370.545 496.774 374 495.071 374 492.978C374 491.344 371.466 491.572 370 493.338C368.318 495.365 365.662 495.227 363.655 493.009C360.767 489.819 361.681 488.949 368.25 488.636C373.681 488.377 374.539 488.068 374.794 486.279C374.956 485.147 374.136 483.01 372.972 481.529C371.246 479.335 370.041 478.838 366.45 478.838C362.979 478.838 361.739 479.315 360.597 481.088ZM416.4 487.573C416.486 495.049 416.752 496.357 418.25 496.646C419.813 496.948 420 496.015 420 487.911C420 479.749 419.814 478.838 418.15 478.838C416.483 478.838 416.309 479.704 416.4 487.573ZM424.262 480.487C427.123 490.145 430.018 496.367 431.777 496.64C433.409 496.892 434.189 495.553 436.56 488.419C438.118 483.732 439.109 479.614 438.763 479.268C437.501 478.005 436.043 480.025 434.358 485.372C433.41 488.378 432.304 490.838 431.901 490.838C431.497 490.838 430.304 488.251 429.25 485.088C427.985 481.291 426.72 479.219 425.524 478.987C424.166 478.724 423.851 479.098 424.262 480.487ZM443.688 479.484C443.309 479.862 443 483.921 443 488.505C443 496.224 443.15 496.838 445.039 496.838C446.956 496.838 447.061 496.321 446.789 488.169C446.524 480.21 445.586 477.585 443.688 479.484ZM452 488.012C452 495.191 452.28 496.838 453.5 496.838C454.631 496.838 455 495.623 455 491.903C455 483.445 457.724 479.549 462.027 481.852C463.531 482.657 463.968 484.213 464.205 489.599C464.432 494.791 464.844 496.338 466 496.338C468.003 496.338 468.552 485.378 466.727 481.838C465.553 479.561 464.839 479.331 458.719 479.262L452 479.185V488.012ZM533.174 481.152C530.16 484.361 530.21 490.808 533.278 494.375C536.282 497.867 542.081 498.202 545.218 495.065C548.112 492.17 546.69 490.999 542.957 493.204C541.234 494.222 539.137 494.699 537.987 494.334C536.057 493.721 533.406 490.099 534.262 489.243C534.495 489.01 537.456 488.743 540.843 488.65C546.792 488.486 547 488.391 547 485.833C547 479.567 537.641 476.398 533.174 481.152ZM552.975 481.588C551.244 483.781 550.906 485.241 551.303 488.799C552.075 495.703 555.933 498.015 562.25 495.36C563.66 494.767 564 495.136 564 497.256C564 500.841 559.769 502.572 556.4 500.365C553.633 498.551 552 498.408 552 499.978C552 503.955 562.369 505.296 565.595 501.736C567.154 500.015 567.562 497.745 567.841 489.236C568.116 480.859 567.912 478.838 566.791 478.838C566.026 478.838 564.911 479.327 564.313 479.925C563.53 480.708 563.038 480.708 562.554 479.925C562.184 479.327 560.366 478.838 558.514 478.838C556.032 478.838 554.574 479.562 552.975 481.588ZM574.571 480.409C573.707 481.274 573 482.399 573 482.909C573 484.389 575.633 483.985 577.04 482.29C578.631 480.373 581.937 480.766 583.363 483.04C584.738 485.235 584.096 485.794 579.374 486.516C572.801 487.521 570.008 491.703 573.545 495.24C574.665 496.36 576.855 496.733 581.505 496.595L587.919 496.405L587.85 489.872C587.757 481.076 586.276 478.838 580.548 478.838C577.877 478.838 575.524 479.456 574.571 480.409ZM592.667 479.505C592.3 479.871 592 483.921 592 488.505C592 496.171 592.16 496.838 594 496.838C595.793 496.838 596 496.171 596 490.409C596 483.05 597.605 480.387 601.233 481.728C603.966 482.74 605.237 487.056 604.455 492.676C603.922 496.503 604.066 496.972 605.676 496.666C608.219 496.181 608.848 484.781 606.527 481.239C604.828 478.646 599.371 477.867 597.313 479.925C596.53 480.708 596.038 480.708 595.554 479.925C594.791 478.691 593.647 478.524 592.667 479.505ZM614.537 480.797C613.561 481.875 612.536 484.779 612.257 487.25C611.803 491.278 612.074 492.066 614.877 494.869C617.555 497.547 618.471 497.897 621.252 497.306C624.922 496.526 628 494.189 628 492.183C628 490.25 626.312 490.526 624 492.838C622.9 493.938 621.358 494.838 620.573 494.838C618.758 494.838 615 490.117 615 487.838C615 485.559 618.758 480.838 620.573 480.838C621.358 480.838 622.9 481.738 624 482.838C626.352 485.19 628 485.419 628 483.395C628 479.172 617.79 477.202 614.537 480.797ZM634.038 481.298C631.443 484.059 630.915 489.942 632.924 493.697C635.207 497.961 642.094 498.66 646.25 495.049C648.559 493.042 648.465 491.838 646 491.838C644.9 491.838 644 492.279 644 492.819C644 494.794 638.989 495.138 636.96 493.302C633.568 490.232 634.492 488.838 639.918 488.838C642.623 488.838 645.548 488.565 646.418 488.231C648.6 487.394 648.398 484.613 645.927 481.473C643.101 477.879 637.329 477.794 634.038 481.298ZM46.039 483.027C43.602 485.642 43.437 488.589 45.557 491.615C47.635 494.583 51.358 494.467 53.385 491.373C55.509 488.132 55.423 486.645 52.927 483.473C50.404 480.265 48.714 480.155 46.039 483.027ZM96.2 482.038C93.33 484.908 96.06 486.707 102 485.861C104.361 485.525 104.45 484.993 102.506 482.844C100.455 480.578 97.977 480.261 96.2 482.038ZM116.529 482.193C114.28 483.838 115.163 487.373 117.59 486.442C118.456 486.11 120.252 485.838 121.582 485.838C124.517 485.838 124.821 483.348 122.066 481.873C119.538 480.521 118.754 480.566 116.529 482.193ZM179.189 482.877C176.498 485.384 176.385 488.857 178.895 491.957C180.525 493.969 181.192 494.158 183.645 493.3C186.018 492.47 186.553 491.655 186.816 488.472C187.029 485.898 186.568 484.018 185.411 482.74C183.216 480.315 181.908 480.344 179.189 482.877ZM267.2 482.038C265.634 483.604 265.662 485.809 267.25 485.944C269.403 486.126 274.481 485.666 274.911 485.249C275.136 485.03 274.504 483.948 273.506 482.844C271.455 480.578 268.977 480.261 267.2 482.038ZM304.2 482.038C301.73 484.508 302.885 485.838 307.5 485.838C312.382 485.838 313.005 485.058 310.171 482.493C308.012 480.539 305.863 480.375 304.2 482.038ZM363.655 482.667C361.18 485.402 361.571 485.838 366.5 485.838C371.115 485.838 372.27 484.508 369.8 482.038C368.067 480.305 365.56 480.562 363.655 482.667ZM478.4 481.603C473.616 484.798 475.239 493.838 480.597 493.838C483.358 493.838 486.351 488.99 485.341 486.151C483.836 481.919 480.853 479.965 478.4 481.603ZM535.655 482.667C533.18 485.402 533.571 485.838 538.5 485.838C543.391 485.838 544.698 483.817 541.066 481.873C538.388 480.44 537.56 480.562 535.655 482.667ZM555.896 482.942C553.676 485.162 553.786 489.67 556.128 492.493C557.596 494.261 561.444 494.213 562.942 492.407C564.757 490.221 564.517 485.067 562.497 482.835C560.19 480.286 558.525 480.313 555.896 482.942ZM636.655 482.667C634.18 485.402 634.571 485.838 639.5 485.838C644.115 485.838 645.27 484.508 642.8 482.038C641.067 480.305 638.56 480.562 636.655 482.667ZM579 488.734C576.032 489.548 574.992 493.514 577.494 494.474C580.217 495.519 584.182 493.126 583.818 490.657C583.451 488.163 582.485 487.778 579 488.734ZM652.688 493.484C651.272 494.899 652.073 496.838 654.073 496.838C655.471 496.838 656.041 496.295 655.823 495.171C655.466 493.33 653.759 492.412 652.688 493.484ZM378.245 495.088C378.878 497.011 383 497.288 383 495.408C383 494.387 382.097 493.838 380.417 493.838C378.797 493.838 377.987 494.304 378.245 495.088Z" fill="#013B63"/>
</svg>
