<svg width="691" height="532" viewBox="0 0 691 532" fill="none" xmlns="http://www.w3.org/2000/svg">
<path fill-rule="evenodd" clip-rule="evenodd" d="M334.362 0.555062C288.49 3.90506 242.672 21.8291 208.362 49.8481C192.399 62.8841 175.154 81.9431 164.181 98.6781C156.783 109.961 146.846 129.01 144.363 136.67C140.676 148.039 131.748 161.544 127.918 161.544C127.02 161.544 124.38 164.356 122.05 167.794C119.721 171.232 112.067 181.019 105.043 189.544C92.9585 204.209 92.0495 205.074 88.1535 205.6C82.3815 206.379 80.8625 207.959 80.8625 213.182C80.8625 216.246 79.9025 219.308 77.6865 223.309C69.5715 237.962 63.2885 248.322 60.6955 251.329C57.1725 255.414 57.0955 258.868 60.4535 262.225C63.3635 265.136 63.3285 265.613 59.4435 275.839C54.3765 289.18 56.7555 301.37 66.1645 310.269C72.9905 316.724 79.6045 319.14 95.6295 321.032C102.632 321.859 111.062 322.985 114.362 323.534C117.662 324.083 122.467 324.535 125.041 324.538C130.177 324.545 132.862 326.348 132.862 329.792C132.862 333.201 112.99 351.929 99.3625 361.362C92.7625 365.93 82.8625 371.868 77.3625 374.556C68.5805 378.847 66.1445 379.575 57.3645 380.525C51.8655 381.121 43.6675 381.308 39.1475 380.941C29.6255 380.169 25.1795 381.432 24.2395 385.178C23.8805 386.608 24.2945 388.554 25.2755 390.051L26.9085 392.544L109.635 392.662C155.135 392.728 192.729 392.718 193.178 392.641C195.908 392.171 212.008 397.131 221.362 401.323C239.846 409.607 252.877 413.525 275.862 417.711C286.744 419.693 291.663 419.988 313.862 419.99C336.032 419.991 341.125 419.688 352.862 417.664C370.092 414.693 386.6 409.891 403.771 402.855C411.246 399.792 419.837 396.331 422.862 395.165C428.341 393.052 428.815 393.043 545.748 392.804C631.37 392.629 663.502 392.258 664.498 391.432C667.957 388.56 666.429 386.007 648.997 365.523C645.496 361.41 641.892 357.144 640.987 356.044C640.082 354.944 635.746 349.753 631.352 344.509C626.958 339.265 620.662 331.652 617.362 327.592C608.115 316.215 601.721 309.164 599.44 307.829C594.834 305.136 591.292 306.333 564.786 319.544C550.44 326.694 538.121 332.544 537.41 332.544C536.634 332.544 539.359 326.049 544.24 316.268C558.415 287.864 565.738 263.979 568.375 237.544C570.825 212.988 569.983 194.985 565.29 171.544C563.247 161.344 556.835 140.152 553.431 132.352C552.804 130.914 553.418 130.614 557.527 130.352C561.593 130.093 562.362 129.726 562.362 128.044C562.362 126.301 561.593 126.005 556.386 125.737C553.099 125.569 550.069 124.894 549.651 124.237C548.253 122.038 548.843 120.544 551.112 120.54C552.349 120.538 554.8 119.66 556.558 118.588C563.07 114.617 561.608 105.652 554.032 103.101C552.261 102.505 549.948 100.699 548.891 99.0891C546.113 94.8541 540.135 91.5551 535.227 91.5491C531.817 91.5451 530.781 91.0621 529.315 88.7941C526.496 84.4341 513.14 69.8111 503.862 60.9241C486.575 44.3661 471.363 33.7881 449.362 23.0241C414.046 5.74606 373.029 -2.26794 334.362 0.555062ZM326.77 9.58906C302.874 11.7191 272.339 20.9401 249.061 33.0581C216.433 50.0411 187.084 76.9531 168.269 107.142C165.704 111.256 163.816 114.831 164.072 115.087C164.328 115.343 166.003 115.042 167.793 114.418C169.583 113.794 173.378 113.524 176.226 113.818C179.815 114.188 181.993 113.921 183.324 112.948C184.38 112.176 187.485 111.544 190.225 111.544C194.785 111.544 195.551 111.906 199.311 115.829C205.727 122.525 207.389 130.708 204.221 140.005C202.59 144.791 202.595 144.834 204.971 146.686C208.126 149.146 276.432 194.662 280.581 197.071C282.352 198.098 284.017 198.723 284.281 198.459C284.704 198.035 286.107 192.033 291.471 167.704C292.24 164.217 292.616 160.955 292.306 160.454C291.997 159.954 290.533 159.537 289.053 159.529C287.573 159.52 285.738 159.118 284.975 158.635C283.274 157.558 282.379 149.253 283.301 143.1L283.985 138.544H343.923H403.862V147.509C403.862 157.435 403.165 158.544 396.928 158.544C394.638 158.544 393.862 159.001 393.862 160.351C393.862 163.066 397.541 182.017 399.723 190.544C403.065 203.604 402.528 202.994 411.967 204.439C425.422 206.498 431.043 210.552 434.381 220.601C435.808 224.898 436.007 228.558 435.617 243.382C435.169 260.406 434.475 264.79 431.292 270.698C429.521 273.986 429.452 276.544 431.134 276.544C433.898 276.544 439.92 282.916 442.926 289.022C445.816 294.894 446.079 296.246 446.073 305.236C446.066 314.834 443.608 325.708 440.629 329.318C439.041 331.242 440.361 331.861 444.427 331.098C452.22 329.636 454.848 323.811 454.856 307.976C454.865 292.771 452.099 285.069 443.193 275.492L438.959 270.941L440.936 263.492C444.983 248.245 444.397 222.517 439.793 213.335C435.379 204.53 431.067 201.472 418.37 198.143L410.362 196.044L410.074 186.794C409.845 179.403 409.488 177.544 408.3 177.544C406.628 177.544 404.862 173.659 404.862 169.979C404.862 168.048 405.38 167.544 407.362 167.544C409.706 167.544 409.865 167.216 409.906 162.294C409.93 159.407 410.521 154.879 411.219 152.232C412.112 148.847 412.218 145.883 411.577 142.232C411.076 139.379 410.452 133.331 410.19 128.794L409.715 120.544H405.789H401.862V125.544C401.862 130.412 401.784 130.544 398.917 130.544C396.113 130.544 395.957 130.316 395.667 125.794L395.362 121.044H391.362H387.362L387.057 125.794L386.752 130.544H379.307H371.862V88.5441V46.5441H404.344H436.826L437.094 70.2941L437.362 94.0441L455.362 94.3531C477.549 94.7341 487.514 93.9601 489.522 91.7001C490.331 90.7891 491.979 88.4911 493.184 86.5931C495.048 83.6581 501.428 79.3541 506.987 77.2811C508.787 76.6101 496.514 64.4731 483.862 54.4121C453.149 29.9891 413.343 13.6331 374.719 9.56406C364.058 8.44106 339.503 8.45406 326.77 9.58906ZM536.862 57.0751C536.862 58.8041 539.25 60.0411 540.771 59.1011C542.335 58.1341 540.866 55.5441 538.755 55.5441C537.714 55.5441 536.862 56.2331 536.862 57.0751ZM387.073 72.2941L387.362 81.0441H391.362H395.362L395.651 72.2941L395.94 63.5441H391.362H386.784L387.073 72.2941ZM401.862 72.6041V81.6651L405.612 81.3541L409.362 81.0441L409.651 72.2941L409.94 63.5441H405.901H401.862V72.6041ZM415.695 70.5441C415.604 74.3941 415.491 78.3311 415.445 79.2941C415.379 80.6831 416.187 81.0441 419.362 81.0441H423.362L423.651 72.2941L423.94 63.5441H419.901H415.862L415.695 70.5441ZM133.062 71.7441C130.19 74.6161 132.386 79.5441 136.539 79.5441C139.742 79.5441 142.371 75.3631 140.898 72.6111C139.657 70.2921 135.027 69.7791 133.062 71.7441ZM504.362 84.7081C500.538 86.8181 496.955 90.8431 496.318 93.7451C495.916 95.5761 494.764 97.0111 493.227 97.5951C490.88 98.4881 490.79 98.8511 491.07 106.285L491.362 114.044H522.253C550.979 114.044 553.222 113.917 554.253 112.235C555.141 110.787 554.976 110.14 553.422 108.985C552.354 108.193 550.453 107.544 549.198 107.544C547.677 107.544 546.401 106.552 545.378 104.573C542.183 98.3951 540.067 97.2841 532.737 97.9411L526.11 98.5351L525.484 95.4061C525.127 93.6181 522.988 90.4071 520.492 87.9111C516.513 83.9321 515.691 83.5471 511.244 83.5741C508.559 83.5911 505.462 84.1011 504.362 84.7081ZM387.074 100.723C387.386 110.805 387.869 111.512 393.48 110.104C395.886 109.5 395.933 109.3 395.651 100.765L395.362 92.0441L391.074 91.7351L386.785 91.4251L387.074 100.723ZM401.862 101.104V110.665L405.612 110.354L409.362 110.044L409.65 100.794L409.937 91.5441H405.9H401.862V101.104ZM415.862 101.104V110.665L419.612 110.354L423.362 110.044L423.65 100.794L423.937 91.5441H419.9H415.862V101.104ZM579.412 99.9031C576.321 102.994 576.232 104.474 578.935 107.909C581.425 111.076 585.071 111.335 587.862 108.544C591.568 104.838 589.874 99.2591 584.662 98.0031C582.569 97.4991 581.39 97.9251 579.412 99.9031ZM447.069 113.24C445.581 116.153 445.803 128.25 447.368 129.549C448.113 130.167 450.441 130.532 452.542 130.359L456.362 130.044V121.044V112.044L452.176 111.74C448.949 111.505 447.78 111.848 447.069 113.24ZM467.576 112.164C467.183 112.556 466.862 116.652 466.862 121.265V129.654L471.612 129.349L476.362 129.044V120.544V112.044L472.326 111.747C470.106 111.584 467.968 111.771 467.576 112.164ZM165.744 123.426C161.493 127.678 160.874 130.733 163.311 135.445C167.857 144.237 181.158 143.375 183.713 134.123C185.061 129.238 184.059 125.924 180.211 122.545C175.181 118.13 170.773 118.398 165.744 123.426ZM415.862 129.544V138.665L419.612 138.354L423.362 138.044V129.544V121.044L419.612 120.734L415.862 120.423V129.544ZM490.862 149.523V178.503L511.112 178.773L531.362 179.044V249.71C531.362 288.577 531.602 320.617 531.896 320.911C532.886 321.901 544.78 297.139 548.883 285.544C558.152 259.354 561.156 242.282 561.207 215.544C561.251 191.729 559.298 177.533 553.018 156.044C549.711 144.728 544.411 131.183 543.181 130.905C542.731 130.802 541.125 130.446 539.612 130.112C536.401 129.404 535.911 126.606 538.862 125.834C541.171 125.23 541.217 125.074 539.828 122.478C538.849 120.649 537.498 120.544 514.828 120.544H490.862V149.523ZM193.085 125.955C192.48 127.281 191.693 129.926 191.336 131.834C190.805 134.659 191.107 135.694 192.962 137.423C196.515 140.733 196.823 140.472 198.351 132.867C198.765 130.807 198.43 128.61 197.4 126.617C195.485 122.914 194.536 122.769 193.085 125.955ZM170.755 125.903C167.16 127.686 166.928 132.886 170.344 135.124C174.868 138.089 179.82 134.497 178.494 129.213C177.687 125.999 173.862 124.363 170.755 125.903ZM603.727 126.627C603.091 127.02 602.847 128.063 603.185 128.943C603.723 130.346 606.597 130.544 626.362 130.544C646.127 130.544 649.001 130.346 649.539 128.943C649.877 128.063 649.525 126.929 648.758 126.424C647.147 125.365 605.465 125.553 603.727 126.627ZM108.085 139.101C103.387 142.391 106.002 148.544 112.096 148.544C115.218 148.544 116.862 146.769 116.862 143.401C116.862 140.772 113.83 137.544 111.362 137.544C110.782 137.544 109.307 138.245 108.085 139.101ZM145.112 151.721C138.925 158.987 133.862 165.534 133.862 166.27C133.862 169.09 137.147 168.915 139.626 165.961C140.972 164.357 146.11 158.435 151.043 152.802C159.718 142.897 161.391 139.451 157.851 138.788C156.983 138.626 151.669 144.021 145.112 151.721ZM577.207 140.087C576.881 140.936 576.932 141.948 577.319 142.337C577.707 142.726 585.894 143.186 595.513 143.359C613.298 143.68 616.413 143.144 615.196 139.971C614.347 137.76 578.057 137.871 577.207 140.087ZM446.529 141.211C445.336 142.403 445.793 157.075 447.062 158.344C448.343 159.625 452.673 159.937 455.28 158.937C456.559 158.446 456.862 156.624 456.862 149.437V140.544H452.029C449.37 140.544 446.895 140.844 446.529 141.211ZM466.862 149.544V158.544H471.862H476.862V149.544V140.544H471.862H466.862V149.544ZM297.862 149.886C297.862 152.125 298.289 152.281 306.112 152.89C316.738 153.717 338.679 153.715 367.249 152.883C389.533 152.235 389.953 152.183 389.66 150.133C389.363 148.053 389.155 148.043 343.612 147.784L297.862 147.524V149.886ZM415.862 158.104V167.665L419.612 167.354L423.362 167.044L423.655 158.63C423.973 149.502 423.514 148.587 418.612 148.559L415.862 148.544V158.104ZM149.436 183.133C136.347 198.881 120.882 217.836 115.069 225.255C109.256 232.675 103.906 238.973 103.181 239.252C102.456 239.53 101.862 240.668 101.862 241.78C101.862 244.572 109.127 264.417 118.8 288.044C120.376 291.894 123.023 298.407 124.683 302.517C126.343 306.627 128.16 310.143 128.72 310.33C129.391 310.554 129.544 307.642 129.168 301.84C128.097 285.312 132.665 273.68 144.207 263.546C148.259 259.988 154.048 257.8 180.362 249.879C190.262 246.899 203.191 242.904 209.094 241.002C214.996 239.1 221.071 237.545 222.594 237.547C224.116 237.548 228.062 239.183 231.362 241.18C244.072 248.871 253.239 253.567 254.02 252.786C254.468 252.338 255.824 248.678 257.035 244.653L259.235 237.334L250.795 229.189C246.154 224.709 227.118 206.194 208.495 188.044C189.871 169.894 174.319 154.922 173.934 154.773C173.549 154.623 162.525 167.386 149.436 183.133ZM300.133 160.357C299.456 160.786 297.356 168.316 295.465 177.09C293.574 185.865 290.142 201.594 287.838 212.044C285.534 222.494 283.701 232.844 283.763 235.044C283.981 242.691 286.387 253.021 288.024 253.337C289.286 253.58 289.693 251.976 290.254 244.551C291 234.664 295.235 208.733 299.971 185.053C304.169 164.063 304.21 157.769 300.133 160.357ZM310.878 161.801C310.363 163.035 309.007 169.219 307.865 175.544C306.722 181.869 305.129 190.464 304.324 194.644C302.464 204.31 302.469 205.632 304.362 204.906C305.187 204.589 305.862 203.775 305.862 203.098C305.862 200.784 310.947 199.544 320.43 199.544H329.904L329.633 179.944L329.362 160.344L320.587 159.951C312.26 159.578 311.765 159.672 310.878 161.801ZM341.097 160.709C339.671 162.135 339.321 197.144 340.712 199.335C341.305 200.271 343.989 200.546 350.447 200.335L359.362 200.044V180.044V160.044L350.847 159.759C345.081 159.565 341.934 159.872 341.097 160.709ZM369.396 160.344C369.102 160.637 368.862 169.513 368.862 180.068V199.259L379.968 199.962C386.077 200.349 391.302 200.437 391.581 200.158C391.859 199.88 391.614 197.49 391.036 194.848C390.457 192.206 389.223 184.644 388.292 178.044C385.514 158.354 386.525 160.064 377.581 159.927C373.373 159.862 369.689 160.05 369.396 160.344ZM126.731 172.263C125.319 173.792 118.679 181.891 111.974 190.26C105.268 198.628 99.3505 205.742 98.8225 206.069C97.5215 206.873 97.6005 212.264 98.9255 213.083C100.553 214.089 102.933 211.505 118.548 191.784C127.241 180.804 132.872 172.835 132.672 171.795C132.142 169.042 129.511 169.248 126.731 172.263ZM446.33 171.815C446.017 173.064 445.896 177.185 446.061 180.972L446.362 187.858L450.612 187.778C452.949 187.734 455.312 187.663 455.862 187.621C456.449 187.576 456.862 183.826 456.862 178.544V169.544H451.881C447.536 169.544 446.827 169.834 446.33 171.815ZM466.862 178.377C466.862 183.236 467.055 187.404 467.291 187.64C467.528 187.876 469.778 187.906 472.291 187.706L476.862 187.343V178.443V169.544H471.862H466.862V178.377ZM416.36 177.547C416.045 178.057 415.601 191.077 415.789 194.294C415.9 196.186 422.514 195.892 423.255 193.962C424.375 191.042 423.92 178.698 422.662 177.921C421.195 177.014 416.849 176.756 416.36 177.547ZM593.862 184.044C593.862 184.877 594.751 185.544 595.862 185.544C596.973 185.544 597.862 184.877 597.862 184.044C597.862 183.211 596.973 182.544 595.862 182.544C594.751 182.544 593.862 183.211 593.862 184.044ZM497.06 199.794L497.362 205.044H508.862H520.362L520.664 199.794L520.967 194.544H508.862H496.757L497.06 199.794ZM446.305 199.832C446.01 200.602 445.902 204.564 446.065 208.638L446.362 216.044L451.652 216.348L456.941 216.651L456.652 207.848L456.362 199.044L451.602 198.739C448.227 198.522 446.685 198.841 446.305 199.832ZM466.862 207.489V216.544H471.901H476.94L476.651 207.794L476.362 199.044L471.612 198.739L466.862 198.434V207.489ZM132.612 211.053C128.348 216.532 128.209 217.738 129.887 234.688C130.862 244.543 133.371 260.434 134.428 263.453C135.219 265.712 140.862 259.707 140.862 256.607C140.862 255.197 140.152 250.444 139.284 246.044C138.417 241.644 137.404 230.887 137.034 222.139L136.362 206.233L132.612 211.053ZM270.317 217.794C268.791 223.982 266.265 233.543 264.702 239.042C263.14 244.541 261.862 250.307 261.862 251.855C261.862 254.415 262.149 254.642 265.023 254.357C267.999 254.062 268.202 253.781 268.506 249.544C269.285 238.671 270.013 234.443 272.739 224.94C274.333 219.383 275.952 212.97 276.337 210.69C276.962 206.993 276.824 206.544 275.064 206.544C273.381 206.544 272.683 208.198 270.317 217.794ZM338.529 207.211C338.162 207.577 337.862 208.909 337.862 210.17C337.862 212.352 338.262 212.477 346.112 212.754C353.599 213.017 354.362 213.229 354.362 215.044C354.362 216.983 353.529 217.059 326.862 217.544C300.195 218.029 299.362 218.105 299.362 220.044C299.362 221.99 300.117 222.051 327.179 222.31C354.437 222.571 354.991 222.616 354.679 224.592C354.371 226.552 353.582 226.615 326.362 226.826L298.362 227.044V229.544C298.362 232.478 295.62 232.235 330.862 232.419C354.154 232.54 354.862 232.603 354.862 234.544C354.862 236.498 354.195 236.544 325.862 236.544H296.862V239.044V241.544H325.862C354.122 241.544 354.862 241.595 354.862 243.529C354.862 245.457 354.032 245.521 325.612 245.779C296.572 246.042 296.36 246.059 296.057 248.186C295.759 250.276 296.123 250.341 311.057 250.861C319.475 251.154 329.287 251.362 332.862 251.323C350.088 251.135 354.862 251.508 354.862 253.044C354.862 253.869 354.412 254.6 353.862 254.669C353.312 254.738 352.412 254.907 351.862 255.044C351.312 255.181 338.487 255.35 323.362 255.419C308.237 255.488 295.876 255.881 295.894 256.294C295.911 256.707 296.606 257.944 297.437 259.044C298.884 260.959 300.17 261.048 327.655 261.128C343.444 261.174 357.374 261.012 358.612 260.769L360.862 260.327V233.436V206.544H350.029C344.07 206.544 338.895 206.844 338.529 207.211ZM367.224 208.044C365.951 211.36 367.619 212.544 373.581 212.552C381.575 212.564 396.685 214.379 398.971 215.602C400.733 216.545 400.862 218.037 400.862 237.419V258.223L403.262 259.317C404.582 259.918 405.932 260.14 406.262 259.81C406.592 259.481 406.862 249.997 406.862 238.735V218.259L412.989 218.9C416.359 219.252 420.862 220.063 422.996 220.702C425.129 221.341 427.158 221.581 427.504 221.235C428.661 220.078 424.86 215.57 421.592 214.224C417.792 212.658 394.618 208.906 380.362 207.548C367.43 206.316 367.893 206.299 367.224 208.044ZM496.862 219.044V224.544H508.779C515.97 224.544 520.83 224.141 521.034 223.527C521.221 222.967 521.214 220.492 521.018 218.027L520.661 213.544H508.761H496.862V219.044ZM366.862 220.044C366.862 222.488 367.029 222.544 374.362 222.544C381.695 222.544 381.862 222.488 381.862 220.044C381.862 217.6 381.695 217.544 374.362 217.544C367.029 217.544 366.862 217.6 366.862 220.044ZM87.6235 221.863C85.5055 223.607 73.6655 243.453 74.0515 244.61C74.2335 245.156 77.1705 243.573 80.5785 241.094C88.0215 235.677 94.4665 226.541 92.9035 223.621C91.5835 221.154 89.3755 220.419 87.6235 221.863ZM414.862 229.544C414.862 231.488 415.336 231.615 421.612 231.34C426.814 231.112 428.362 230.7 428.362 229.544C428.362 228.388 426.814 227.976 421.612 227.748C415.336 227.473 414.862 227.6 414.862 229.544ZM446.284 228.888C446 229.627 445.902 233.564 446.065 237.638L446.362 245.044H451.362H456.362L456.651 236.294L456.94 227.544H451.87C448.547 227.544 446.621 228.007 446.284 228.888ZM466.862 236.599V245.654L471.612 245.349L476.362 245.044L476.651 236.294L476.94 227.544H471.901H466.862V236.599ZM366.862 230.544C366.862 232.366 367.529 232.544 374.362 232.544C381.195 232.544 381.862 232.366 381.862 230.544C381.862 228.722 381.195 228.544 374.362 228.544C367.529 228.544 366.862 228.722 366.862 230.544ZM497.06 238.794L497.362 244.044L509.112 244.326L520.862 244.607V239.076V233.544H508.81H496.757L497.06 238.794ZM415.571 237.168C413.742 238.998 415.382 239.612 421.371 239.34C424.951 239.177 427.989 238.594 428.121 238.044C428.397 236.901 416.658 236.082 415.571 237.168ZM366.862 240.544C366.862 242.366 367.529 242.544 374.362 242.544C381.195 242.544 381.862 242.366 381.862 240.544C381.862 238.722 381.195 238.544 374.362 238.544C367.529 238.544 366.862 238.722 366.862 240.544ZM211.362 248.501C192.055 253.842 156.329 264.72 153.112 266.238C147.254 269.002 148.939 270.544 157.818 270.544C164.593 270.544 166.304 270.184 169.353 268.115C174.758 264.447 200.27 256.578 216.078 253.703C223.33 252.385 225.631 253.058 237.99 260.117C243.879 263.481 248.503 265.512 249.446 265.15C250.316 264.816 250.878 264.133 250.695 263.631C250.118 262.052 224.684 245.539 222.983 245.64C222.092 245.692 216.862 246.98 211.362 248.501ZM415.096 246.746C415.388 247.623 417.529 248.044 421.695 248.044C430.205 248.044 430.052 246.117 421.513 245.746C416.246 245.517 414.763 245.748 415.096 246.746ZM373.112 248.295C367.697 248.593 366.862 248.9 366.862 250.592C366.862 252.356 367.59 252.544 374.432 252.544C381.632 252.544 381.986 252.438 381.682 250.372C381.31 247.846 381.298 247.843 373.112 248.295ZM496.862 258.044V263.544H508.862H520.862V258.044V252.544H508.862H496.862V258.044ZM415.096 255.746C415.388 256.623 417.529 257.044 421.695 257.044C430.205 257.044 430.052 255.117 421.513 254.746C416.246 254.517 414.763 254.748 415.096 255.746ZM84.1125 256.247C81.8805 257.075 82.7825 261.222 86.7115 268.204C88.8285 271.966 92.3675 278.419 94.5745 282.544C103.121 298.516 105.958 303.321 107.854 305.037C109.629 306.643 109.88 306.66 110.438 305.206C111.023 303.683 89.1365 259.526 86.5025 256.914C85.8755 256.292 84.8005 255.992 84.1125 256.247ZM467.513 256.226C467.155 256.584 466.862 260.652 466.862 265.265V273.654L471.612 273.349L476.362 273.044V264.679V256.313L472.263 255.944C470.009 255.741 467.871 255.868 467.513 256.226ZM446.072 264.794L446.362 273.044H451.362H456.362L456.652 264.794L456.943 256.544H451.362H445.781L446.072 264.794ZM372.362 263.397C366.136 264.539 358.921 268.635 355.257 273.107C349.293 280.386 343.862 295.087 343.862 303.954C343.862 309.193 344.946 307.815 348.392 298.193C356.688 275.029 366.554 267.837 388.734 268.785C397.823 269.174 400.432 269.696 406.75 272.392C414.306 275.616 417.862 276.309 417.862 274.557C417.862 273.006 409.998 268.389 402.862 265.75C395.875 263.166 380.207 261.957 372.362 263.397ZM185.862 268.423C174.294 272.324 164.136 281.006 159.393 291.044C156.102 298.011 154.828 307.396 156.086 315.416C157.693 325.669 165.923 337.479 172.659 339.198C176.533 340.187 176.412 338.686 172.296 334.719C170.132 332.634 167.013 328.479 165.364 325.486C162.571 320.414 162.367 319.329 162.364 309.544C162.362 299.889 162.6 298.574 165.322 293.203C169.14 285.667 177.17 278.279 184.1 275.926C201.29 270.09 219.365 277.425 227.04 293.352C229.936 299.361 230.266 300.963 230.273 309.044C230.28 316.67 229.878 318.917 227.641 323.762C226.19 326.907 222.884 331.745 220.295 334.512C215.948 339.159 215.771 339.543 217.975 339.528C219.288 339.519 222.162 338.495 224.362 337.254C227.539 335.461 229.185 333.38 232.362 327.138C236.284 319.432 236.362 319.072 236.362 308.661C236.362 298.858 236.124 297.542 233.257 291.493C229.38 283.31 221.682 275.565 213.35 271.463C208.074 268.866 205.698 268.337 197.744 267.99C192.584 267.764 187.237 267.959 185.862 268.423ZM231.862 272.889C231.862 276.998 232.918 277.067 287.862 276.544L340.362 276.044L340.682 273.794L341.001 271.544H286.432C241.387 271.544 231.862 271.779 231.862 272.889ZM589.563 272.176C589.178 272.562 588.862 273.702 588.862 274.711C588.862 276.013 589.607 276.544 591.432 276.544C593.521 276.544 593.941 276.126 593.682 274.304C593.365 272.087 590.917 270.822 589.563 272.176ZM496.862 278.044V283.544H508.862H520.862V278.044V272.544H508.862H496.862V278.044ZM141.392 276.804C138.481 280.96 139.289 281.544 147.952 281.544C155.118 281.544 156.256 281.287 157.918 279.294C161.133 275.441 160.378 274.916 151.392 274.763C143.73 274.633 142.777 274.827 141.392 276.804ZM378.362 275.872C366.936 280.352 359.575 289.123 356.985 301.343C355.579 307.976 355.575 311.106 356.961 317.57C357.837 321.652 358.7 323.084 361.211 324.615C366.266 327.698 366.996 327.089 364.598 321.794C361.331 314.581 361.565 302.875 365.124 295.544C369.161 287.228 373.472 282.644 380.289 279.419C383.629 277.839 386.925 276.545 387.612 276.545C388.3 276.544 388.862 276.094 388.862 275.544C388.862 274.198 382.091 274.41 378.362 275.872ZM422.112 282.206C417.709 283.983 426.338 290.215 431.431 288.937C434.802 288.091 434.467 285.884 430.612 283.533C427.454 281.608 424.672 281.173 422.112 282.206ZM240.444 284.411C240.121 284.935 240.13 286.079 240.466 286.954C240.993 288.328 243.578 288.544 259.469 288.544C276.826 288.544 277.862 288.438 277.862 286.657C277.862 285.298 276.954 284.632 274.612 284.272C268.494 283.332 241.042 283.444 240.444 284.411ZM466.862 293.599V302.654L471.612 302.349L476.362 302.044L476.651 293.294L476.94 284.544H471.901H466.862V293.599ZM137.559 288.294C136.254 290.62 136.015 294.413 137.122 295.226C137.804 295.727 141.11 295.967 144.469 295.759C150.413 295.391 150.604 295.291 151.609 292.018C152.176 290.169 152.39 288.406 152.085 288.1C151.243 287.258 138.042 287.434 137.559 288.294ZM189.499 289.952C181.794 292.812 175.906 301.083 175.906 309.044C175.906 320.681 187.472 330.799 199.008 329.251C204.225 328.552 211.464 323.245 214.01 318.254C222.136 302.325 206.086 283.793 189.499 289.952ZM389.406 291.133C374.771 296.492 372.528 316.88 385.577 325.945C397.331 334.111 413.308 327.247 415.992 312.877C417.658 303.958 413.045 295.16 404.854 291.636C399.249 289.224 394.997 289.086 389.406 291.133ZM496.862 298.076V303.607L508.612 303.326L520.362 303.044L520.664 297.794L520.967 292.544H508.914H496.862V298.076ZM428.862 295.479C428.862 295.993 429.301 297.568 429.837 298.979C430.661 301.146 431.437 301.544 434.837 301.544C438.77 301.544 438.862 301.464 438.862 298.044V294.544H433.862C431.112 294.544 428.862 294.965 428.862 295.479ZM307.125 296.636C304.244 297.124 296.927 299.128 290.864 301.087C280.155 304.549 279.393 304.651 264.102 304.667C245.178 304.687 243.862 304.921 243.862 308.267V310.774L264.112 310.317L284.362 309.86L292.862 306.131C302.279 302 310.982 300.564 326.682 300.552C335.772 300.544 335.993 300.489 335.682 298.294C335.373 296.12 334.975 296.039 323.862 295.896C317.537 295.815 310.005 296.148 307.125 296.636ZM190.76 299.831C186.374 302.784 184.582 306.532 185.42 310.999C187.894 324.191 206.862 322.462 206.862 309.044C206.862 304.351 204.941 301.153 200.851 299.038C196.887 296.988 194.731 297.158 190.76 299.831ZM392.25 299.524C388.653 300.978 385.862 305.457 385.862 309.779C385.862 312.955 386.539 314.421 389.262 317.144C397.57 325.452 409.734 317.486 406.65 305.756C405.198 300.236 398.096 297.162 392.25 299.524ZM136.862 304.994V308.544H142.925H148.989L148.675 305.294C148.366 302.081 148.297 302.041 142.612 301.744L136.862 301.444V304.994ZM430.595 309.794C429.946 314.057 430.336 314.544 434.402 314.544C437.217 314.544 437.935 314.101 438.451 312.046C439.438 308.114 438.312 306.544 434.507 306.544C431.419 306.544 431.041 306.858 430.595 309.794ZM497.612 312.12C497.199 312.536 496.862 315.052 496.862 317.711V322.544H508.914H520.967L520.664 317.384L520.362 312.223L509.362 311.793C503.312 311.556 498.025 311.703 497.612 312.12ZM137.862 315.853C137.862 318.603 140.651 320.763 145.332 321.637C148.006 322.137 150.373 322.366 150.592 322.147C150.812 321.928 150.687 320.127 150.315 318.146L149.639 314.544H143.751C139.565 314.544 137.862 314.923 137.862 315.853ZM242.304 320.794C241.359 323.681 239.492 328.226 238.156 330.893C236.821 333.561 235.923 335.938 236.162 336.177C237.102 337.117 246.293 334.34 255.099 330.455C272.19 322.915 280.325 319.758 286.112 318.419C289.275 317.688 291.862 316.742 291.862 316.317C291.862 315.892 281.098 315.544 267.942 315.544H244.023L242.304 320.794ZM571.362 325.871C533.642 344.39 532.502 345.878 566.312 332.463C577.29 328.108 587.282 324.544 588.516 324.544C590.104 324.544 598.392 332.058 616.919 350.294C631.308 364.457 643.557 376.219 644.139 376.433C645.698 377.007 642.503 372.824 627.797 355.044C604.2 326.513 594.676 315.544 593.508 315.552C592.878 315.557 582.912 320.2 571.362 325.871ZM427.851 323.794C425.432 327.762 425.671 328.747 429.142 329.118C431.135 329.33 432.345 328.675 433.844 326.569C436.786 322.438 436.473 320.544 432.847 320.544C430.519 320.544 429.381 321.284 427.851 323.794ZM324.264 331.703C323.392 333.113 331.455 340.913 332.877 340.035C334.708 338.903 333.878 336.53 330.612 333.559C327.112 330.375 325.395 329.873 324.264 331.703ZM419.236 336.452C417.405 338.418 417.171 339.119 418.267 339.353C419.583 339.634 427.862 335.997 427.862 335.137C427.862 334.936 426.464 334.566 424.756 334.315C422.348 333.962 421.109 334.441 419.236 336.452ZM461.862 356.833C461.862 358.795 463.412 359.248 472.988 360.087C478.444 360.566 480.823 360.416 481.35 359.563C482.672 357.424 480.51 356.662 471.112 355.954C463.063 355.348 461.862 355.462 461.862 356.833ZM109.58 360.315C104.889 362.922 103.442 366.202 107.112 365.912C109.885 365.692 117.862 360.565 117.862 359.002C117.862 356.856 114.982 357.313 109.58 360.315ZM293.123 360.794C291.429 362.947 290.918 369.239 292.286 371.109C293.878 373.286 294.876 371.937 295.927 366.189C296.977 360.449 295.552 357.707 293.123 360.794ZM482.052 381.294C482.356 382.873 484.144 383.066 500.376 383.266C520.084 383.508 522.862 383.232 522.862 381.025C522.862 379.765 519.792 379.544 502.289 379.544C483.233 379.544 481.74 379.673 482.052 381.294ZM140.362 382.544C138.886 384.931 141.553 385.544 153.421 385.544C165.195 385.544 165.862 385.437 165.862 383.544C165.862 381.651 165.195 381.544 153.421 381.544C146.206 381.544 140.72 381.964 140.362 382.544ZM172.529 401.211C170.616 403.123 173.111 403.544 186.362 403.544C198.584 403.544 200.862 403.308 200.862 402.044C200.862 400.783 198.658 400.544 187.029 400.544C179.42 400.544 172.895 400.844 172.529 401.211ZM62.5665 431.984C56.6215 433.563 52.6635 437.254 49.8175 443.871C45.5375 453.82 48.6725 468.316 56.4225 474.413C60.3865 477.531 68.9515 478.962 74.9855 477.515C82.5405 475.702 88.8625 469.36 88.8625 463.594C88.8625 461.801 88.2365 461.544 83.8625 461.544C81.1125 461.544 78.8625 461.959 78.8625 462.467C78.8625 462.975 77.6975 464.775 76.2735 466.467C72.7055 470.708 67.2675 470.771 62.6285 466.626C59.5035 463.834 59.3475 463.345 59.0165 455.299C58.6715 446.889 58.6715 446.889 62.1355 443.216C64.8085 440.382 66.3765 439.544 69.0085 439.544C73.1075 439.544 76.3385 441.631 78.3935 445.605C79.7275 448.184 80.4545 448.544 84.3295 448.544C86.7575 448.544 88.9535 448.205 89.2095 447.791C90.0885 446.37 87.0185 439.317 84.2765 436.454C79.8085 431.791 70.5035 429.875 62.5665 431.984ZM177.313 431.513C171.656 432.368 166.905 435.407 163.376 440.427C160.709 444.221 160.321 445.687 160.008 453.157C159.696 460.603 159.956 462.216 162.212 466.822C169.9 482.524 194.717 482.083 201.969 466.115C204.102 461.419 204.493 450.726 202.724 445.443C199.369 435.424 189.009 429.744 177.313 431.513ZM272.698 431.477C265.013 432.996 260.529 438.032 260.529 445.144C260.529 452.405 264.468 455.515 278.862 459.621C284.787 461.311 285.862 462.233 285.862 465.628C285.862 468.103 285.339 468.608 281.788 469.564C276.805 470.906 272.81 469.777 271.199 466.572C270.22 464.627 269.265 464.262 265.199 464.282C260.724 464.304 260.383 464.48 260.638 466.641C261.927 477.525 280.097 482.102 291.396 474.389C297.282 470.371 298.599 462.51 294.324 456.906C292.31 454.265 290.299 453.15 284.574 451.501C273.334 448.262 270.862 446.943 270.862 444.183C270.862 441.27 272.54 439.758 276.696 438.927C280.216 438.223 284.862 440.579 284.862 443.067C284.862 444.173 286.119 444.544 289.862 444.544C294.453 444.544 294.862 444.35 294.862 442.179C294.862 439.276 291.597 434.966 288.024 433.154C284.506 431.369 277.256 430.576 272.698 431.477ZM452.989 432.042C444.012 434.842 438.734 443.036 438.59 454.4C438.432 466.738 444.654 475.321 455.366 477.545C463.022 479.134 469.842 477.498 474.35 472.989C477.969 469.37 480.652 462.934 479.163 461.445C477.74 460.022 468.862 461.557 468.862 463.225C468.862 466.146 464.12 469.544 460.044 469.544C452.759 469.544 448.08 461.962 449.306 452.145C450.164 445.282 452.863 440.922 456.789 440.06C462.077 438.899 465.708 440.339 468.453 444.688C470.799 448.404 471.222 448.635 475.159 448.349C479.187 448.057 479.347 447.919 479.008 445.044C478.168 437.924 473.608 433.299 465.772 431.618C459.598 430.294 458.472 430.331 452.989 432.042ZM565.545 431.974C550.862 435.921 545.06 456.181 554.729 469.738C561.709 479.526 578.217 481.44 587.25 473.509C598.542 463.594 596.845 440.655 584.321 433.913C579.151 431.129 571.591 430.349 565.545 431.974ZM663.362 431.205C655.748 433.248 650.862 438.43 650.862 444.462C650.862 451.564 655.665 455.761 667.565 459.061C670.976 460.007 674.503 461.595 675.404 462.591C677.59 465.005 676.517 468.03 672.951 469.508C669.119 471.095 661.854 469.231 661.134 466.475C660.714 464.87 659.725 464.544 655.271 464.544C649.931 464.544 649.915 464.553 650.888 467.111C653.932 475.119 658.244 477.81 668.222 477.928C680.411 478.072 686.85 473.08 686.858 463.481C686.861 459.789 686.337 458.429 684.112 456.353C680.462 452.949 678.523 452.028 670.839 450.046C663.846 448.242 660.862 446.268 660.862 443.446C660.862 438.934 670.173 436.855 673.862 440.544C674.962 441.644 675.862 442.994 675.862 443.544C675.862 444.094 678.112 444.544 680.862 444.544C683.829 444.544 685.862 444.097 685.862 443.445C685.862 440.756 682.372 435.405 679.436 433.59C676.183 431.579 667.029 430.221 663.362 431.205ZM0.862458 454.53V477.791L12.6625 477.37C26.3635 476.881 32.1135 474.748 37.2815 468.238C39.8455 465.008 40.3625 463.381 40.6955 457.494C41.2305 448.021 40.3205 444.135 36.5635 439.856C31.5065 434.097 26.2405 432.315 12.6225 431.754L0.862458 431.269V454.53ZM122.362 433.556C111.982 438.774 108.207 455.003 114.367 467.929C117.999 475.55 129.549 480.052 138.967 477.516C146.575 475.467 150.499 471.559 152.241 464.294C152.899 461.547 152.895 461.544 147.381 461.544C143.406 461.544 141.862 461.923 141.862 462.898C141.862 463.643 140.758 465.443 139.41 466.898C136.508 470.029 130.679 470.505 126.979 467.913C122.022 464.441 120.368 454.318 123.486 446.526C126.918 437.948 137.549 437.149 141.361 445.183C142.819 448.256 143.338 448.544 147.409 448.544C151.719 448.544 151.862 448.445 151.862 445.454C151.862 441.177 147.192 434.941 142.592 433.074C137.128 430.857 127.264 431.092 122.362 433.556ZM212.862 454.599V477.654L217.612 477.349L222.362 477.044L222.549 463.544C222.652 456.119 222.764 449.615 222.799 449.09C222.834 448.565 224.775 451.273 227.112 455.107C229.449 458.942 233.612 465.573 236.362 469.844L241.362 477.608L246.362 477.326L251.362 477.044L251.631 454.294L251.9 431.544H246.908H241.915L241.639 446.275L241.362 461.006L231.862 446.32L222.362 431.634L217.612 431.589L212.862 431.544V454.599ZM301.862 436.018V440.538L308.112 440.291L314.362 440.044L314.634 458.845L314.907 477.647L320.134 477.345L325.362 477.044L325.635 458.794L325.907 440.544L330.635 440.392C333.235 440.308 336.037 440.195 336.862 440.14C337.929 440.07 338.362 438.886 338.362 436.043V432.044L320.112 431.771L301.862 431.499V436.018ZM346.377 433.677C346.057 434.979 345.923 445.269 346.079 456.544L346.362 477.044L351.112 477.349L355.862 477.654V469.599V461.544H360.362C362.837 461.544 364.862 461.914 364.862 462.367C364.862 462.82 366.928 466.42 369.454 470.367L374.046 477.544H379.454C382.428 477.544 384.862 477.311 384.862 477.026C384.862 476.742 382.612 472.881 379.862 468.447C377.112 464.013 374.862 460.068 374.862 459.68C374.862 459.293 376.154 458.212 377.732 457.28C381.554 455.022 383.225 450.673 382.634 444.522C381.711 434.919 377.036 432.317 359.66 431.735C346.978 431.311 346.958 431.314 346.377 433.677ZM391.575 432.165C390.488 433.251 390.773 459.445 391.925 464.444C394.121 473.968 399.436 477.846 410.362 477.895C419.937 477.937 425.206 475.225 428.168 468.731C430.061 464.578 430.308 462.22 430.333 448.044L430.362 432.044H425.557H420.752L420.523 448.41L420.294 464.776L417.522 467.16C414.052 470.145 408.1 470.366 404.723 467.635C402.452 465.799 402.343 465.087 401.862 448.885L401.362 432.044L396.825 431.748C394.329 431.585 391.967 431.773 391.575 432.165ZM485.862 435.998V440.453L492.612 440.748L499.362 441.044L499.635 459.348L499.908 477.652L504.635 477.348L509.362 477.044L509.862 458.608L510.362 440.173L516.612 440.429L522.862 440.685V436.115V431.544H504.362H485.862V435.998ZM531.615 432.243C531.379 432.684 531.224 442.944 531.273 455.044L531.362 477.044H536.362H541.362V454.544V432.044L536.703 431.743C534.14 431.577 531.851 431.802 531.615 432.243ZM603.237 433.011C603.009 433.606 602.943 443.757 603.091 455.569L603.362 477.044L608.112 477.349L612.862 477.654V463.599C612.862 449.683 613.536 447.107 615.951 451.794C616.588 453.032 620.505 459.332 624.656 465.794L632.201 477.544H637.032H641.862L642.013 456.044C642.095 444.219 642.208 433.982 642.263 433.294C642.331 432.447 640.749 432.044 637.362 432.044H632.362V446.295C632.362 454.133 632.25 460.545 632.112 460.545C631.975 460.544 627.523 454.002 622.219 446.005L612.573 431.467L608.112 431.698C605.659 431.825 603.466 432.416 603.237 433.011ZM177.236 440.529C172.045 442.625 168.747 451.789 170.267 459.89C171.224 464.993 176.286 469.544 181.005 469.544C188.439 469.544 192.373 465.691 193.427 457.376C194.927 445.532 186.517 436.781 177.236 440.529ZM357.057 440.34C356.168 440.946 355.85 443.109 356.057 447.137L356.362 453.044H363.193C368.8 453.044 370.277 452.696 371.443 451.103C373.399 448.427 373.221 444.179 371.07 442.232C369.009 440.367 359 439.015 357.057 440.34ZM567.586 440.715C559.576 443.638 558.452 462.642 565.979 467.913C567.259 468.81 570.132 469.544 572.362 469.544C579.976 469.544 583.862 464.476 583.862 454.544C583.862 447.375 582.01 443.189 577.896 441.061C574.573 439.342 571.619 439.243 567.586 440.715ZM11.5295 441.211C11.1625 441.577 10.8625 447.877 10.8625 455.211V468.544L16.6125 468.509C19.7745 468.489 23.4025 467.896 24.6725 467.191C28.5125 465.06 30.8485 460.529 30.8555 455.195C30.8645 448.818 28.5215 444.085 24.3845 442.121C21.0565 440.542 12.7835 439.956 11.5295 441.211ZM0.258462 498.953C0.00446194 499.617 -0.0765389 505.534 0.0794611 512.102L0.362458 524.044L7.76846 524.341C16.2455 524.681 18.0695 524.246 17.2385 522.082C16.7925 520.92 15.0855 520.544 10.2555 520.544H3.86246V516.592V512.639L10.1125 512.342C14.8695 512.115 16.3625 511.686 16.3625 510.544C16.3625 509.496 15.4595 509.11 13.3625 509.262C11.7125 509.382 8.89946 509.249 7.11246 508.967C4.17246 508.502 3.86246 508.124 3.86246 504.999V501.544H10.3035C16.6075 501.544 19.1545 500.474 16.6285 498.886C14.4805 497.536 0.781462 497.592 0.258462 498.953ZM65.8625 499.544C65.8625 501.05 66.3845 501.59 67.6125 501.354C68.5755 501.168 69.3625 500.354 69.3625 499.544C69.3625 498.734 68.5755 497.92 67.6125 497.734C66.3845 497.498 65.8625 498.038 65.8625 499.544ZM152.862 499.544C152.862 501.05 153.384 501.59 154.612 501.354C155.575 501.168 156.362 500.354 156.362 499.544C156.362 498.734 155.575 497.92 154.612 497.734C153.384 497.498 152.862 498.038 152.862 499.544ZM215.712 509.544C215.629 516.144 215.517 522.08 215.462 522.734C215.392 523.57 217.899 523.925 223.862 523.925C230.595 523.925 232.362 523.625 232.362 522.484C232.362 521.416 230.749 520.967 226.119 520.746C220.44 520.476 219.821 520.227 219.261 517.999C218.131 513.496 219.278 512.544 225.831 512.544C230.525 512.544 231.862 512.212 231.862 511.044C231.862 509.897 230.598 509.544 226.484 509.544C220.55 509.544 218.501 508.115 219.035 504.349C219.325 502.307 220.09 501.964 225.731 501.342C232.599 500.584 233.416 500.25 232.403 498.611C232.026 498 228.349 497.544 223.803 497.544H215.862L215.712 509.544ZM297.34 499.794C297.032 501.031 296.911 506.989 297.071 513.032C297.324 522.566 297.594 524.065 299.112 524.355C300.709 524.661 300.862 523.505 300.862 511.117C300.862 499.796 300.616 497.544 299.381 497.544C298.567 497.544 297.648 498.557 297.34 499.794ZM306.862 511.044C306.862 522.377 307.103 524.544 308.362 524.544C309.621 524.544 309.862 522.377 309.862 511.044C309.862 499.711 309.621 497.544 308.362 497.544C307.103 497.544 306.862 499.711 306.862 511.044ZM417.326 498.778C417.034 499.538 416.923 505.527 417.079 512.086L417.362 524.011L425.612 524.027C432.721 524.042 433.862 523.809 433.862 522.342C433.862 520.953 432.716 520.585 427.647 520.342L421.433 520.044L421.397 509.063C421.366 499.412 421.15 498.041 419.609 497.74C418.645 497.551 417.617 498.018 417.326 498.778ZM438.342 498.576C437.954 499.204 438.107 500.189 438.682 500.764C440.026 502.108 443.159 500.936 442.612 499.293C442.056 497.622 439.226 497.146 438.342 498.576ZM466.862 499.617C466.862 502.18 470.172 501.889 470.674 499.283C470.905 498.083 470.366 497.544 468.935 497.544C467.504 497.544 466.862 498.186 466.862 499.617ZM529.313 498.812C529.028 499.553 528.923 505.534 529.079 512.102L529.362 524.044H537.862C544.751 524.044 546.362 523.76 546.362 522.544C546.362 521.387 544.807 520.976 539.557 520.747L532.753 520.45L533.057 516.263L533.362 512.076L539.271 512.06C543.092 512.05 545.329 511.602 545.604 510.794C545.908 509.898 544.517 509.54 540.695 509.529C534.07 509.51 532.61 508.634 533.032 504.935C533.351 502.138 533.573 502.028 539.862 501.544C544.751 501.168 546.362 500.672 546.362 499.544C546.362 497.456 530.101 496.758 529.313 498.812ZM551.297 498.852C551.021 499.572 550.923 505.534 551.079 512.102C551.312 521.925 551.628 524.044 552.862 524.044C554.106 524.044 554.41 521.781 554.641 510.794C554.882 499.336 554.709 497.544 553.36 497.544C552.501 497.544 551.573 498.133 551.297 498.852ZM22.2875 505.878C22.0065 506.611 21.9085 510.999 22.0695 515.628C22.3025 522.312 22.6715 524.044 23.8625 524.044C24.9605 524.044 25.4325 522.706 25.6235 519.044C25.7675 516.294 26.1105 513.044 26.3855 511.823C27.0655 508.807 30.2755 507.159 32.8185 508.521C34.4355 509.386 34.8265 510.825 35.0685 516.806C35.2975 522.443 35.6945 524.044 36.8625 524.044C39.3175 524.044 38.9775 509.429 36.4575 506.647C34.2225 504.179 31.1545 503.95 28.1865 506.03C26.3105 507.344 25.9995 507.344 25.4955 506.03C24.7865 504.183 22.9715 504.097 22.2875 505.878ZM45.7855 507.467C43.5245 509.729 42.8625 511.3 42.8625 514.411C42.8625 521.387 47.9395 525.105 54.6125 523.015C57.1825 522.211 57.6995 524.123 55.6125 526.713C53.7165 529.067 51.2625 529.562 49.2095 528.007C47.1605 526.455 43.8625 526.073 43.8625 527.389C43.8625 529.473 47.7865 531.544 51.7365 531.544C54.8805 531.544 56.5785 530.919 58.4075 529.089C60.6985 526.799 60.8625 525.942 60.8625 516.256C60.8625 510.548 60.5615 505.576 60.1935 505.208C59.8255 504.841 58.7655 505.227 57.8375 506.067C56.3245 507.436 56.0175 507.436 54.8835 506.069C52.8885 503.665 48.9885 504.264 45.7855 507.467ZM66.5015 505.238C66.1505 505.59 65.8625 510.077 65.8625 515.211C65.8625 522.84 66.1365 524.544 67.3625 524.544C68.5895 524.544 68.8625 522.828 68.8625 515.103C68.8625 506.445 68.1735 503.566 66.5015 505.238ZM81.8625 505.558C81.0375 506.098 79.1075 506.277 77.5735 505.954L74.7855 505.368L75.0735 514.706C75.3055 522.211 75.6565 524.044 76.8625 524.044C78.0255 524.044 78.4265 522.474 78.6455 517.044C78.8525 511.938 79.3775 509.706 80.5865 508.794C85.1205 505.375 87.8625 508.7 87.8625 517.615C87.8625 523.107 88.1735 524.544 89.3625 524.544C91.7925 524.544 91.5035 508.434 89.0335 506.199C86.9825 504.342 84.1095 504.085 81.8625 505.558ZM98.7855 507.467C92.6805 513.572 96.2145 524.544 104.286 524.544C107.851 524.544 111.862 522.132 111.862 519.987C111.862 518.176 110.899 518.201 108.421 520.076C107.353 520.883 105.466 521.544 104.228 521.544C101.917 521.544 98.5365 517.88 99.4635 516.381C99.7475 515.921 102.878 515.544 106.421 515.544H112.862V512.633C112.862 509.114 107.972 504.544 104.208 504.544C102.778 504.544 100.457 505.795 98.7855 507.467ZM119.785 507.467C116.605 510.647 115.915 515.372 117.972 519.887C120.197 524.769 128.043 526.109 131.688 522.23C132.884 520.957 133.862 519.607 133.862 519.23C133.862 517.968 131.122 518.526 129.862 520.044C128.37 521.842 123.738 522.02 122.062 520.344C121.402 519.684 120.862 518.334 120.862 517.344C120.862 515.782 121.788 515.544 127.862 515.544C132.007 515.544 134.862 515.123 134.862 514.512C134.862 513.944 134.225 511.955 133.447 510.092C130.849 503.876 124.58 502.672 119.785 507.467ZM139.287 505.878C139.006 506.611 138.908 510.999 139.069 515.628C139.302 522.312 139.671 524.044 140.862 524.044C142.005 524.044 142.481 522.378 142.862 517.052C143.321 510.63 143.586 509.953 146.112 508.748C147.624 508.026 148.862 506.784 148.862 505.989C148.862 504.069 146.947 504.157 144.712 506.18C143.038 507.695 142.857 507.695 142.276 506.18C141.517 504.203 139.99 504.048 139.287 505.878ZM153.529 505.211C153.162 505.577 152.862 510.077 152.862 515.211C152.862 522.84 153.136 524.544 154.362 524.544C155.595 524.544 155.862 522.766 155.862 514.544C155.862 505.383 155.361 503.378 153.529 505.211ZM162.47 505.27C162.136 505.604 161.862 509.852 161.862 514.711C161.862 522.877 162.013 523.544 163.862 523.544C165.652 523.544 165.862 522.877 165.862 517.199C165.862 512.322 166.285 510.471 167.691 509.199C172.258 505.066 174.862 508.281 174.862 518.052C174.862 523.842 175.086 524.646 176.612 524.338C178.115 524.035 178.344 522.87 178.232 516.071C178.118 509.178 177.813 507.923 175.871 506.35C173.292 504.262 169.803 504.003 168.037 505.769C167.096 506.71 166.379 506.723 164.945 505.828C163.918 505.186 162.804 504.935 162.47 505.27ZM187.806 505.196C185.471 505.826 182.862 510.901 182.862 514.813C182.862 519.95 186.103 523.544 190.735 523.544C192.785 523.544 195.037 522.982 195.739 522.294C196.77 521.285 196.953 521.601 196.689 523.931C196.211 528.154 193.115 529.907 189.472 528.017C184.395 525.383 182.014 526.562 185.691 529.889C188.573 532.498 195.43 532.067 198.407 529.089C200.698 526.799 200.862 525.942 200.862 516.256C200.862 510.548 200.578 505.593 200.231 505.246C199.883 504.899 198.71 505.09 197.623 505.672C196.222 506.422 195.329 506.411 194.555 505.637C193.474 504.556 190.82 504.382 187.806 505.196ZM247.458 507.722L244.797 511.044L242.463 508.195C241.178 506.626 239.386 505.503 238.475 505.695C237.044 505.997 237.161 506.543 239.342 509.741C242.457 514.31 242.458 514.773 239.362 519.329C236.496 523.546 236.289 524.544 238.28 524.544C239.061 524.544 240.684 522.95 241.888 521.002L244.077 517.46L247.287 521.173C251.39 525.919 254.084 525.013 250.366 520.138C247.326 516.153 247.24 514.076 249.932 509.66C252.824 504.917 250.908 503.416 247.458 507.722ZM258.168 506.957C255.788 509.004 255.362 510.132 255.362 514.377C255.362 520.876 258.429 524.544 263.862 524.544C267.523 524.544 271.862 521.391 271.862 518.73C271.862 516.955 270.396 517.296 268.362 519.544C264.481 523.832 258.862 520.539 258.862 513.976C258.862 508.442 265.518 505.164 267.862 509.544C269.04 511.745 271.871 512.278 271.847 510.294C271.824 508.467 270.65 506.995 268.178 505.694C264.749 503.889 261.217 504.335 258.168 506.957ZM279.168 506.957C276.707 509.074 276.362 510.068 276.362 515.046C276.362 519.803 276.744 521.03 278.723 522.632C280.021 523.684 282.548 524.544 284.338 524.544C288.223 524.544 293.552 520.834 291.957 519.239C291.227 518.509 290.348 518.699 289.057 519.868C286.453 522.224 282.286 521.988 280.46 519.381C278.262 516.242 279.261 515.544 285.952 515.544C292.751 515.544 293.87 514.392 291.839 509.488C289.584 504.045 283.878 502.906 279.168 506.957ZM317.939 507.133C315.294 509.358 314.862 510.392 314.862 514.497C314.862 520.42 318.315 524.544 323.276 524.544C326.85 524.544 330.862 522.134 330.862 519.987C330.862 518.116 329.439 518.143 327.862 520.044C325.971 522.323 321.237 521.918 319.419 519.321C318.563 518.099 317.862 516.749 317.862 516.321C317.862 515.894 321.012 515.544 324.862 515.544H331.862V512.633C331.862 509.176 326.995 504.544 323.362 504.544C322.071 504.544 319.631 505.709 317.939 507.133ZM337.245 505.782C336.759 506.476 336.362 510.869 336.362 515.544C336.362 522.433 336.646 524.044 337.862 524.044C339.01 524.044 339.433 522.522 339.666 517.563C339.981 510.834 341.673 507.544 344.817 507.544C347.846 507.544 348.862 509.814 348.862 516.577C348.862 523.65 349.243 524.719 351.46 523.868C352.471 523.48 352.862 521.447 352.862 516.572C352.862 506.674 348.853 502.338 342.732 505.613C341.31 506.375 340.359 506.371 339.431 505.601C338.484 504.815 337.886 504.865 337.245 505.782ZM359.939 507.133C357.265 509.383 356.862 510.371 356.862 514.678C356.862 520.942 359.929 524.544 365.261 524.544C369.422 524.544 375.042 520.375 373.288 518.59C372.514 517.802 371.703 518.062 370.383 519.52C368.02 522.132 363.274 522.182 361.897 519.61C360.242 516.517 360.66 511.037 362.691 509.199C365.115 507.005 367.16 507.111 369.362 509.544C371.468 511.871 373.862 512.176 373.862 510.117C373.862 507.945 368.944 504.544 365.804 504.544C364.263 504.544 361.639 505.702 359.939 507.133ZM382.862 505.243C377.514 507.174 375.924 517.697 380.317 522.089C381.938 523.711 383.899 524.544 386.094 524.544C389.824 524.544 393.862 522.175 393.862 519.987C393.862 518.149 392.756 518.157 390.303 520.012C387.643 522.024 384.498 521.904 382.517 519.715C379.579 516.469 380.533 515.65 387.612 515.34C393.751 515.071 394.391 514.84 394.682 512.787C394.89 511.324 393.951 509.479 392.009 507.537C389.167 504.695 386.343 503.987 382.862 505.243ZM439.352 505.71C438.404 508.18 439.275 523.557 440.362 523.557C441.705 523.556 442.239 506.521 440.936 505.218C440.258 504.54 439.739 504.701 439.352 505.71ZM446.862 505.842C446.862 506.556 448.193 510.943 449.82 515.592C453.822 527.027 455.274 526.966 459.663 515.179C461.479 510.303 462.736 506.085 462.457 505.805C461.006 504.354 458.931 507.035 457.305 512.462C456.303 515.807 455.151 518.544 454.744 518.544C454.337 518.544 453.254 515.957 452.338 512.794C450.641 506.935 449.309 504.544 447.74 504.544C447.257 504.544 446.862 505.128 446.862 505.842ZM476.331 505.765C476.025 506.56 475.908 510.999 476.069 515.628C476.302 522.312 476.671 524.044 477.862 524.044C479.012 524.044 479.479 522.345 479.862 516.756C480.202 511.793 480.841 509.166 481.862 508.521C486.272 505.738 488.862 508.918 488.862 517.115C488.862 522.877 489.069 523.544 490.862 523.544C492.65 523.544 492.86 522.882 492.847 517.294C492.839 513.857 492.267 509.926 491.576 508.561C489.867 505.182 485.658 503.78 482.423 505.511C480.41 506.589 479.637 506.602 478.408 505.582C477.168 504.553 476.783 504.587 476.331 505.765ZM499.66 507.592C496.941 510.311 496.667 511.124 497.119 515.132C497.398 517.603 498.423 520.507 499.399 521.585C501.348 523.739 505.854 524.154 509.001 522.469C510.806 521.503 510.977 521.669 510.686 524.106C510.508 525.597 509.443 527.424 508.319 528.165C506.556 529.328 505.772 529.243 502.614 527.551C498.256 525.215 496.211 526.789 499.814 529.706C503.189 532.439 509.36 532.137 512.407 529.089C514.701 526.795 514.862 525.949 514.862 516.148C514.862 506.043 513.809 502.393 511.822 505.609C511.171 506.663 510.475 506.689 508.387 505.737C504.45 503.944 503 504.252 499.66 507.592ZM562.169 506.957C559.767 509.023 559.362 510.116 559.362 514.544C559.362 519.025 559.755 520.055 562.294 522.238C564.683 524.293 565.944 524.662 569.12 524.236C572.572 523.773 575.74 521.44 575.831 519.294C575.887 517.974 573.151 518.491 571.862 520.044C570.161 522.093 566.522 521.93 564.518 519.715C561.502 516.383 562.475 515.544 569.362 515.544H575.862V512.499C575.862 508.487 571.948 504.544 567.964 504.544C566.246 504.544 563.782 505.57 562.169 506.957ZM583.548 506.959C577.032 512.998 580.055 523.544 588.303 523.544C590.196 523.544 592.027 523.087 592.372 522.528C593.467 520.755 594.972 522.621 594.268 524.878C593.022 528.873 588.666 529.772 584.328 526.929C581.98 525.391 581.862 525.413 581.862 527.394C581.862 531.726 590.629 533.088 595.227 529.471C597.782 527.462 597.862 527.072 597.862 516.638C597.862 510.72 597.589 505.604 597.255 505.27C596.921 504.935 595.806 505.186 594.779 505.828C593.345 506.723 592.628 506.71 591.688 505.769C589.757 503.838 586.384 504.331 583.548 506.959ZM605.497 506.617C604.048 507.756 602.862 509.106 602.862 509.617C602.862 511.092 605.858 510.692 607.56 508.99C609.783 506.767 614.285 507.507 614.664 510.158C614.919 511.944 614.303 512.378 610.69 512.956C605.7 513.753 602.862 515.961 602.862 519.044C602.862 523.597 608.496 525.957 613.006 523.294C614.7 522.294 615.214 522.294 615.576 523.294C615.825 523.982 616.666 524.544 617.445 524.544C618.549 524.544 618.862 522.785 618.862 516.583C618.862 509.681 618.571 508.351 616.673 506.583C613.847 503.949 608.869 503.964 605.497 506.617ZM624.47 505.27C623.587 506.153 623.722 524.547 624.612 524.529C626.995 524.48 628.035 522.485 627.789 518.426C627.34 511.02 627.716 509.568 630.399 508.345C634.314 506.561 636.252 509.185 636.862 517.098C637.137 520.666 637.812 523.579 638.362 523.572C638.916 523.565 639.495 520.096 639.66 515.801C639.926 508.864 639.729 507.859 637.799 506.294C635.286 504.256 631.786 504.02 630.037 505.769C629.096 506.71 628.379 506.723 626.945 505.828C625.918 505.186 624.804 504.935 624.47 505.27ZM647.909 507.344C645.393 509.86 644.862 511.194 644.862 515.013C644.862 521.107 648.029 524.544 653.643 524.544C658.339 524.544 663.161 520.427 660.979 518.281C659.977 517.296 659.346 517.502 657.881 519.294C656.842 520.564 654.925 521.544 653.477 521.544C648.363 521.544 646.3 512.216 650.678 508.888C653.117 507.034 654.926 507.255 657.561 509.731C659.153 511.226 660.213 511.593 660.915 510.891C662.599 509.207 658.788 505.551 654.659 504.89C651.457 504.378 650.543 504.71 647.909 507.344ZM668.169 506.957C665.789 509.004 665.362 510.132 665.362 514.377C665.362 520.851 668.433 524.544 673.815 524.544C677.786 524.544 681.862 522.236 681.862 519.987C681.862 518.101 679.446 518.135 677.862 520.044C676.161 522.093 672.522 521.93 670.518 519.715C667.58 516.469 668.533 515.65 675.612 515.34C681.751 515.071 682.391 514.84 682.682 512.787C682.89 511.324 681.951 509.479 680.009 507.537C676.273 503.801 672.077 503.595 668.169 506.957ZM466.862 514.544C466.862 522.877 467.01 523.544 468.862 523.544C470.714 523.544 470.862 522.877 470.862 514.544C470.862 506.211 470.714 505.544 468.862 505.544C467.01 505.544 466.862 506.211 466.862 514.544ZM48.5175 509.373C45.1785 513.062 47.5595 521.544 51.9335 521.544C54.4305 521.544 57.8085 516.107 57.1075 513.217C55.8295 507.947 51.5435 506.03 48.5175 509.373ZM100.897 509.478C99.3365 512.395 99.5055 512.544 104.362 512.544C107.388 512.544 108.862 512.118 108.862 511.244C108.862 507.546 102.666 506.172 100.897 509.478ZM122.612 508.624C119.046 510.701 120.574 512.544 125.862 512.544C131.227 512.544 131.921 511.812 129.033 509.199C126.953 507.316 125.137 507.154 122.612 508.624ZM188.517 509.373C186.24 511.889 186.417 517.099 188.862 519.544C191.254 521.936 191.787 521.985 194.525 520.067C197.223 518.178 198.241 514.13 196.736 511.273C194.549 507.119 191.247 506.356 188.517 509.373ZM281.062 508.744C278.592 511.214 279.747 512.544 284.362 512.544C287.647 512.544 288.862 512.149 288.862 511.079C288.862 508.211 283.27 506.536 281.062 508.744ZM320.062 508.744C317.592 511.214 318.747 512.544 323.362 512.544C326.388 512.544 327.862 512.118 327.862 511.244C327.862 509.297 325.731 507.544 323.362 507.544C322.207 507.544 320.722 508.084 320.062 508.744ZM382.517 509.373C380.009 512.144 380.43 512.544 385.862 512.544C389.298 512.544 390.862 512.137 390.862 511.244C390.862 507.554 385.293 506.305 382.517 509.373ZM502.517 509.373C500.229 511.901 500.381 517.799 502.79 519.979C506.317 523.17 511.232 519.866 511.077 514.409C510.912 508.615 505.881 505.655 502.517 509.373ZM564.612 508.624C561.046 510.701 562.574 512.544 567.862 512.544C573.227 512.544 573.922 511.812 571.034 509.199C568.954 507.316 567.137 507.154 564.612 508.624ZM585.419 509.767C583.274 512.829 583.469 517.151 585.862 519.544C588.451 522.133 589.432 522.065 592.407 519.089C595.123 516.374 595.434 514.499 593.712 511.228C591.454 506.938 587.845 506.302 585.419 509.767ZM670.518 509.373C668.01 512.144 668.43 512.544 673.862 512.544C679.232 512.544 680.726 510.612 676.928 508.579C674.132 507.083 672.396 507.298 670.518 509.373ZM610.185 515.247C605.138 516.213 604.852 521.544 609.847 521.544C612.996 521.544 615.186 519.458 614.695 516.925C614.321 515 613.355 514.641 610.185 515.247ZM398.862 522.544C398.862 523.877 399.529 524.544 400.862 524.544C402.195 524.544 402.862 523.877 402.862 522.544C402.862 521.211 402.195 520.544 400.862 520.544C399.529 520.544 398.862 521.211 398.862 522.544ZM686.308 521.631C685.363 523.16 687.414 524.93 689.295 524.208C690.157 523.877 690.862 522.918 690.862 522.075C690.862 520.328 687.327 519.983 686.308 521.631Z" fill="#013B63"/>
</svg>
